<svg width="82" height="82" viewBox="0 0 82 82" fill="none" xmlns="http://www.w3.org/2000/svg">
<g>
<path d="M79.7975 39.6263C78.8099 39.6263 78.0096 40.4268 78.0096 41.4142C78.0096 61.8215 61.4069 78.4241 40.9999 78.4241C20.5925 78.4241 3.9899 61.8215 3.9899 41.4142C3.9899 21.0071 20.5925 4.40445 40.9999 4.40445C47.0209 4.40445 52.9966 5.88223 58.2814 8.6783C59.1542 9.1403 60.236 8.80655 60.6977 7.93405C61.1595 7.06131 60.8265 5.97926 59.9535 5.51749C54.1554 2.4499 47.6013 0.828613 40.9999 0.828613C18.6208 0.828613 0.414062 19.0354 0.414062 41.4142C0.414062 63.7932 18.6208 82 40.9999 82C63.3789 82 81.5854 63.7932 81.5854 41.4142C81.5854 40.4268 80.7849 39.6263 79.7975 39.6263Z" fill="#4A81ED" stroke="#4A81ED" stroke-width="0.225"/>
<path d="M55.229 13.3793C54.2416 13.4006 53.4587 14.218 53.4799 15.2052C53.5009 16.1792 54.2971 16.9547 55.2666 16.9547C55.2798 16.9547 55.2926 16.9547 55.3057 16.9542L68.4031 16.6727C68.877 16.6627 69.3278 16.4643 69.6558 16.122C69.9839 15.7797 70.1624 15.321 70.1522 14.8469L69.8704 1.74976C69.8492 0.762586 69.0215 -0.0267217 68.0446 0.000693125C67.0572 0.0219098 66.2743 0.839347 66.2955 1.82652L66.5389 13.1362L55.229 13.3793Z" fill="#4A81ED" stroke="#4A81ED" stroke-width="0.225"/>
<path d="M25.3814 52.26C29.3594 52.26 32.3234 50.232 32.3234 46.982C32.3234 44.772 31.0234 43.472 29.0474 42.562C30.5814 41.756 31.6994 40.534 31.6994 38.506C31.6994 35.646 29.0214 33.54 25.3814 33.54C21.7414 33.54 19.0634 35.672 19.0634 38.454C19.0634 40.534 20.1814 41.756 21.7154 42.562C19.6614 43.42 18.4394 44.798 18.4394 47.008C18.4394 50.18 21.4034 52.26 25.3814 52.26ZM25.3814 41.496C23.5094 41.496 22.1314 40.378 22.1314 38.792C22.1314 37.362 23.4314 36.218 25.3814 36.218C27.3314 36.218 28.6314 37.362 28.6314 38.766C28.6314 40.378 27.2534 41.496 25.3814 41.496ZM25.3814 49.582C22.9894 49.582 21.5594 48.334 21.5594 46.852C21.5594 45.136 23.2234 44.044 25.3814 44.044C27.5394 44.044 29.2034 45.136 29.2034 46.8C29.2034 48.36 27.7734 49.582 25.3814 49.582ZM41.9544 52.312C46.7384 52.312 49.9104 48.1 49.9104 42.9C49.9104 37.648 46.7644 33.488 42.0064 33.488C37.2224 33.488 34.0504 37.7 34.0504 42.9C34.0504 48.152 37.1704 52.312 41.9544 52.312ZM42.0064 49.426C39.1724 49.426 37.3524 46.488 37.3524 42.9C37.3524 39.234 39.1464 36.374 41.9544 36.374C44.7624 36.374 46.6084 39.312 46.6084 42.9C46.6084 46.54 44.8404 49.426 42.0064 49.426ZM60.0157 49.244H62.9797V44.278H67.9717V41.418H62.9797V36.452H60.0157V41.418H55.0237V44.278H60.0157V49.244Z" fill="#4A81ED"/>
<path d="M29.0474 42.562L28.9951 42.4624L28.7929 42.5686L29.0003 42.6642L29.0474 42.562ZM21.7154 42.562L21.7588 42.6658L21.9794 42.5736L21.7677 42.4624L21.7154 42.562ZM25.3814 52.3725C27.3882 52.3725 29.1488 51.8611 30.4109 50.9303C31.6757 49.9975 32.4359 48.6454 32.4359 46.982H32.2109C32.2109 48.5686 31.4891 49.8555 30.2774 50.7492C29.063 51.6449 27.3526 52.1475 25.3814 52.1475V52.3725ZM32.4359 46.982C32.4359 45.8527 32.103 44.9502 31.5143 44.2142C30.9274 43.4806 30.0914 42.9189 29.0945 42.4598L29.0003 42.6642C29.9794 43.1151 30.7814 43.6584 31.3386 44.3548C31.8938 45.0488 32.2109 45.9013 32.2109 46.982H32.4359ZM29.0997 42.6616C29.8769 42.2532 30.5557 41.7359 31.0402 41.0576C31.5258 40.3779 31.8119 39.5423 31.8119 38.506H31.5869C31.5869 39.4977 31.3141 40.2871 30.8571 40.9269C30.3991 41.5681 29.7519 42.0648 28.9951 42.4624L29.0997 42.6616ZM31.8119 38.506C31.8119 35.5602 29.0568 33.4275 25.3814 33.4275V33.6525C28.986 33.6525 31.5869 35.7318 31.5869 38.506H31.8119ZM25.3814 33.4275C21.7064 33.4275 18.9509 35.5858 18.9509 38.454H19.1759C19.1759 35.7582 21.7764 33.6525 25.3814 33.6525V33.4275ZM18.9509 38.454C18.9509 39.5157 19.2367 40.3642 19.7223 41.0507C20.2069 41.7358 20.8858 42.2532 21.6631 42.6616L21.7677 42.4624C21.011 42.0648 20.3639 41.5682 19.906 40.9208C19.4491 40.2748 19.1759 39.4723 19.1759 38.454H18.9509ZM21.672 42.4582C20.6333 42.8921 19.7958 43.4612 19.2181 44.2092C18.6391 44.9589 18.3269 45.8807 18.3269 47.008H18.5519C18.5519 45.9253 18.8507 45.0531 19.3962 44.3468C19.943 43.6388 20.7436 43.0899 21.7588 42.6658L21.672 42.4582ZM18.3269 47.008C18.3269 48.6331 19.0877 49.9783 20.3517 50.9139C21.6135 51.8478 23.374 52.3725 25.3814 52.3725V52.1475C23.4108 52.1475 21.7003 51.6322 20.4856 50.7331C19.2731 49.8357 18.5519 48.5549 18.5519 47.008H18.3269ZM25.3814 41.3835C23.5504 41.3835 22.2439 40.2967 22.2439 38.792H22.0189C22.0189 40.4593 23.4684 41.6085 25.3814 41.6085V41.3835ZM22.2439 38.792C22.2439 37.4443 23.4712 36.3305 25.3814 36.3305V36.1055C23.3916 36.1055 22.0189 37.2797 22.0189 38.792H22.2439ZM25.3814 36.3305C27.2924 36.3305 28.5189 37.445 28.5189 38.766H28.7439C28.7439 37.279 27.3704 36.1055 25.3814 36.1055V36.3305ZM28.5189 38.766C28.5189 40.2973 27.2116 41.3835 25.3814 41.3835V41.6085C27.2952 41.6085 28.7439 40.4587 28.7439 38.766H28.5189ZM25.3814 49.4695C23.0205 49.4695 21.6719 48.2449 21.6719 46.852H21.4469C21.4469 48.4231 22.9583 49.6945 25.3814 49.6945V49.4695ZM21.6719 46.852C21.6719 46.035 22.0663 45.3654 22.7263 44.8962C23.3888 44.4252 24.32 44.1565 25.3814 44.1565V43.9315C24.2848 43.9315 23.305 44.2088 22.596 44.7128C21.8845 45.2186 21.4469 45.953 21.4469 46.852H21.6719ZM25.3814 44.1565C26.4428 44.1565 27.3743 44.4252 28.0371 44.8901C28.6976 45.3534 29.0909 46.0102 29.0909 46.8H29.3159C29.3159 45.9258 28.8772 45.2046 28.1663 44.7059C27.4575 44.2088 26.478 43.9315 25.3814 43.9315V44.1565ZM29.0909 46.8C29.0909 47.5425 28.7518 48.2058 28.1212 48.6865C27.4889 49.1686 26.5592 49.4695 25.3814 49.4695V49.6945C26.5956 49.6945 27.5769 49.3844 28.2576 48.8655C28.9401 48.3452 29.3159 47.6175 29.3159 46.8H29.0909ZM41.9544 52.4245C46.8207 52.4245 50.0229 48.1398 50.0229 42.9H49.7979C49.7979 48.0602 46.656 52.1995 41.9544 52.1995V52.4245ZM50.0229 42.9C50.0229 37.6086 46.847 33.3755 42.0064 33.3755V33.6005C46.6817 33.6005 49.7979 37.6874 49.7979 42.9H50.0229ZM42.0064 33.3755C37.14 33.3755 33.9379 37.6602 33.9379 42.9H34.1629C34.1629 37.7398 37.3047 33.6005 42.0064 33.6005V33.3755ZM33.9379 42.9C33.9379 48.1911 37.0875 52.4245 41.9544 52.4245V52.1995C37.2532 52.1995 34.1629 48.1129 34.1629 42.9H33.9379ZM42.0064 49.3135C40.6333 49.3135 39.5019 48.6034 38.7095 47.445C37.9156 46.2845 37.4649 44.6765 37.4649 42.9H37.2399C37.2399 44.7115 37.6991 46.3665 38.5238 47.572C39.3498 48.7796 40.5454 49.5385 42.0064 49.5385V49.3135ZM37.4649 42.9C37.4649 41.0838 37.9095 39.4759 38.6933 38.3256C39.4756 37.1776 40.5937 36.4865 41.9544 36.4865V36.2615C40.507 36.2615 39.3241 37.0004 38.5074 38.1989C37.6923 39.3951 37.2399 41.0502 37.2399 42.9H37.4649ZM41.9544 36.4865C43.3142 36.4865 44.4457 37.1964 45.2416 38.3552C46.0387 39.5158 46.4959 41.1239 46.4959 42.9H46.7209C46.7209 41.0881 46.255 39.4332 45.4271 38.2278C44.598 37.0206 43.4025 36.2615 41.9544 36.2615V36.4865ZM46.4959 42.9C46.4959 44.7034 46.0577 46.3114 45.2769 47.4649C44.4979 48.616 43.3798 49.3135 42.0064 49.3135V49.5385C43.4669 49.5385 44.6498 48.793 45.4633 47.5911C46.275 46.3916 46.7209 44.7366 46.7209 42.9H46.4959ZM60.0157 49.244H59.9032V49.3565H60.0157V49.244ZM62.9797 49.244V49.3565H63.0922V49.244H62.9797ZM62.9797 44.278V44.1655H62.8672V44.278H62.9797ZM67.9717 44.278V44.3905H68.0842V44.278H67.9717ZM67.9717 41.418H68.0842V41.3055H67.9717V41.418ZM62.9797 41.418H62.8672V41.5305H62.9797V41.418ZM62.9797 36.452H63.0922V36.3395H62.9797V36.452ZM60.0157 36.452V36.3395H59.9032V36.452H60.0157ZM60.0157 41.418V41.5305H60.1282V41.418H60.0157ZM55.0237 41.418V41.3055H54.9112V41.418H55.0237ZM55.0237 44.278H54.9112V44.3905H55.0237V44.278ZM60.0157 44.278H60.1282V44.1655H60.0157V44.278ZM60.0157 49.3565H62.9797V49.1315H60.0157V49.3565ZM63.0922 49.244V44.278H62.8672V49.244H63.0922ZM62.9797 44.3905H67.9717V44.1655H62.9797V44.3905ZM68.0842 44.278V41.418H67.8592V44.278H68.0842ZM67.9717 41.3055H62.9797V41.5305H67.9717V41.3055ZM63.0922 41.418V36.452H62.8672V41.418H63.0922ZM62.9797 36.3395H60.0157V36.5645H62.9797V36.3395ZM59.9032 36.452V41.418H60.1282V36.452H59.9032ZM60.0157 41.3055H55.0237V41.5305H60.0157V41.3055ZM54.9112 41.418V44.278H55.1362V41.418H54.9112ZM55.0237 44.3905H60.0157V44.1655H55.0237V44.3905ZM59.9032 44.278V49.244H60.1282V44.278H59.9032Z" fill="#4A81ED"/>
</g>

</svg>
