<svg width="42" height="42" viewBox="0 0 42 42" fill="none" xmlns="http://www.w3.org/2000/svg">
<path d="M25.9219 15.2578H24.702C24.2489 15.2578 23.8817 15.625 23.8817 16.0781C23.8817 16.5312 24.2489 16.8984 24.702 16.8984H25.1016V25.1016H16.8984V16.8984H17.3192C17.7719 16.8984 18.1395 16.5312 18.1395 16.0781C18.1395 15.625 17.7719 15.2578 17.3192 15.2578H16.0781C15.625 15.2578 15.2578 15.625 15.2578 16.0781V25.9219C15.2578 26.375 15.625 26.7422 16.0781 26.7422H25.9219C26.375 26.7422 26.7422 26.375 26.7422 25.9219V16.0781C26.7422 15.625 26.375 15.2578 25.9219 15.2578Z" fill="white"/>
<path d="M39.2109 22.1484C37.9584 22.1484 36.8961 22.9784 36.5452 24.1172H30.0234V17.8883L32.1159 17.8838C32.4671 19.022 33.529 19.8516 34.7812 19.8516C36.319 19.8516 37.5703 18.6003 37.5703 17.0625C37.5703 15.5247 36.319 14.2734 34.7812 14.2734C33.5284 14.2734 32.4661 15.1037 32.1152 16.2431L30.0234 16.2476V16.0781C30.0234 13.8165 28.1835 11.9766 25.9219 11.9766H25.7578V5.45476C26.8966 5.10356 27.7266 4.04164 27.7266 2.78906C27.7266 1.2513 26.4753 0 24.9375 0C23.3997 0 22.1484 1.2513 22.1484 2.78906C22.1484 4.04164 22.9784 5.10388 24.1172 5.45476V11.9766H17.8828V7.9157C19.0216 7.5645 19.8516 6.50258 19.8516 5.25C19.8516 3.71223 18.6003 2.46094 17.0625 2.46094C15.5247 2.46094 14.2734 3.71223 14.2734 5.25C14.2734 6.50258 15.1034 7.56482 16.2422 7.9157V11.9766H16.0781C13.8165 11.9766 11.9766 13.8165 11.9766 16.0781V16.2422H5.45476C5.10388 15.1034 4.04164 14.2734 2.78906 14.2734C1.2513 14.2734 0 15.5247 0 17.0625C0 18.6003 1.2513 19.8516 2.78906 19.8516C4.04164 19.8516 5.10388 19.0216 5.45476 17.8828H11.9766V24.1172H9.88445C9.53325 22.9784 8.47133 22.1484 7.21875 22.1484C5.68098 22.1484 4.42969 23.3997 4.42969 24.9375C4.42969 26.4753 5.68098 27.7266 7.21875 27.7266C8.47133 27.7266 9.53357 26.8966 9.88445 25.7578H11.9766V25.9219C11.9766 28.1835 13.8165 30.0234 16.0781 30.0234H16.2422V36.5452C15.1034 36.8964 14.2734 37.9584 14.2734 39.2109C14.2734 40.7487 15.5247 42 17.0625 42C18.6003 42 19.8516 40.7487 19.8516 39.2109C19.8516 37.9584 19.0216 36.8961 17.8828 36.5452V30.0234H24.1172V34.0843C22.9784 34.4355 22.1484 35.4974 22.1484 36.75C22.1484 38.2878 23.3997 39.5391 24.9375 39.5391C26.4753 39.5391 27.7266 38.2878 27.7266 36.75C27.7266 35.4974 26.8966 34.4352 25.7578 34.0843V30.0234H25.9219C28.1835 30.0234 30.0234 28.1835 30.0234 25.9219V25.7578H36.5452C36.8964 26.8966 37.9584 27.7266 39.2109 27.7266C40.7487 27.7266 42 26.4753 42 24.9375C42 23.3997 40.7487 22.1484 39.2109 22.1484ZM34.7812 15.9141C35.4144 15.9141 35.9297 16.4293 35.9297 17.0625C35.9297 17.6957 35.4144 18.2109 34.7812 18.2109C34.1481 18.2109 33.6328 17.6957 33.6328 17.0625C33.6328 16.4293 34.1481 15.9141 34.7812 15.9141ZM24.9375 1.64062C25.5707 1.64062 26.0859 2.15588 26.0859 2.78906C26.0859 3.42224 25.5707 3.9375 24.9375 3.9375C24.3043 3.9375 23.7891 3.42224 23.7891 2.78906C23.7891 2.15588 24.3043 1.64062 24.9375 1.64062ZM17.0625 4.10156C17.6957 4.10156 18.2109 4.61682 18.2109 5.25C18.2109 5.88318 17.6957 6.39844 17.0625 6.39844C16.4293 6.39844 15.9141 5.88318 15.9141 5.25C15.9141 4.61682 16.4293 4.10156 17.0625 4.10156ZM2.78906 18.2109C2.15588 18.2109 1.64062 17.6957 1.64062 17.0625C1.64062 16.4293 2.15588 15.9141 2.78906 15.9141C3.42224 15.9141 3.9375 16.4293 3.9375 17.0625C3.9375 17.6957 3.42224 18.2109 2.78906 18.2109ZM7.21875 26.0859C6.58557 26.0859 6.07031 25.5707 6.07031 24.9375C6.07031 24.3043 6.58557 23.7891 7.21875 23.7891C7.85193 23.7891 8.36719 24.3043 8.36719 24.9375C8.36719 25.5707 7.85193 26.0859 7.21875 26.0859ZM17.0625 40.3594C16.4293 40.3594 15.9141 39.8441 15.9141 39.2109C15.9141 38.5778 16.4293 38.0625 17.0625 38.0625C17.6957 38.0625 18.2109 38.5778 18.2109 39.2109C18.2109 39.8441 17.6957 40.3594 17.0625 40.3594ZM24.9375 37.8984C24.3043 37.8984 23.7891 37.3832 23.7891 36.75C23.7891 36.1168 24.3043 35.6016 24.9375 35.6016C25.5707 35.6016 26.0859 36.1168 26.0859 36.75C26.0859 37.3832 25.5707 37.8984 24.9375 37.8984ZM28.3828 25.9219C28.3828 27.2789 27.2789 28.3828 25.9219 28.3828H16.0781C14.7211 28.3828 13.6172 27.2789 13.6172 25.9219V16.0781C13.6172 14.7211 14.7211 13.6172 16.0781 13.6172H25.9219C27.2789 13.6172 28.3828 14.7211 28.3828 16.0781V25.9219ZM39.2109 26.0859C38.5778 26.0859 38.0625 25.5707 38.0625 24.9375C38.0625 24.3043 38.5778 23.7891 39.2109 23.7891C39.8441 23.7891 40.3594 24.3043 40.3594 24.9375C40.3594 25.5707 39.8441 26.0859 39.2109 26.0859Z" fill="white"/>
<path d="M21 16.8984C21.2157 16.8984 21.4275 16.8106 21.58 16.6581C21.7325 16.5056 21.8203 16.2938 21.8203 16.0781C21.8203 15.8625 21.7325 15.6507 21.58 15.4981C21.4275 15.3456 21.2157 15.2578 21 15.2578C20.7843 15.2578 20.5725 15.3456 20.42 15.4981C20.2675 15.6507 20.1797 15.8625 20.1797 16.0781C20.1797 16.2938 20.2675 16.5056 20.42 16.6581C20.5725 16.8106 20.7843 16.8984 21 16.8984Z" fill="white"/>
</svg>
