<svg width="37" height="37" viewBox="0 0 37 37" fill="none" xmlns="http://www.w3.org/2000/svg">
<g>
<path d="M20.0596 3.17967H31.7953C32.1047 4.18291 33.0405 4.91403 34.144 4.91403C35.4986 4.91403 36.601 3.81171 36.601 2.45702C36.601 1.10233 35.4986 0 34.144 0C33.0405 0 32.1047 0.731121 31.7953 1.73436H20.0596C19.6604 1.73436 19.3369 2.05786 19.3369 2.45702C19.3369 2.85617 19.6604 3.17967 20.0596 3.17967ZM34.144 1.4453C34.7018 1.4453 35.1557 1.89922 35.1557 2.45702C35.1557 3.01481 34.7018 3.46873 34.144 3.46873C33.6587 3.46873 33.2522 3.12491 33.1548 2.66845C33.1751 2.60155 33.1864 2.53069 33.1864 2.45702C33.1864 2.38334 33.1751 2.31249 33.1548 2.24558C33.2522 1.78913 33.6584 1.4453 34.144 1.4453Z" fill="white"/>
<path d="M12.8095 31.8458H9.71959C7.5697 31.8458 5.82038 30.0967 5.82038 27.9468V24.2207C5.82038 23.8218 5.49688 23.498 5.09772 23.498H2.05835L4.30845 16.0767C4.32906 16.0087 4.3395 15.9381 4.3395 15.867C4.3395 10.1287 8.20626 5.08732 13.7424 3.60758C14.1281 3.50426 14.357 3.10822 14.254 2.72261C14.1509 2.33701 13.7546 2.10836 13.3693 2.21111C7.23689 3.85035 2.94332 9.41194 2.89476 15.7586L0.392581 24.0112C0.325962 24.23 0.367176 24.4674 0.50352 24.6512C0.639864 24.8349 0.855248 24.9433 1.0839 24.9433H4.37507V27.9468C4.37507 30.8936 6.77281 33.2911 9.71959 33.2911H12.8095C13.5104 33.2911 14.0803 33.861 14.0803 34.5619V36.2771C14.0803 36.6763 14.4038 36.9998 14.803 36.9998C15.2022 36.9998 15.5257 36.6763 15.5257 36.2771V34.5619C15.5257 33.0641 14.3073 31.8458 12.8095 31.8458Z" fill="white"/>
<path d="M35.8866 13.5786H34.7174C34.4958 12.7752 34.1768 12.0057 33.7649 11.2802L34.5878 10.4573C34.7233 10.3218 34.7995 10.1381 34.7995 9.94641C34.7995 9.75474 34.7233 9.57069 34.5875 9.43519L31.7632 6.61318C31.4809 6.33089 31.0236 6.33117 30.7414 6.61318L29.9196 7.43519C29.1941 7.02306 28.4246 6.70436 27.6213 6.48248V5.32031C27.6213 4.92116 27.2978 4.59766 26.8986 4.59766H22.9059C22.5068 4.59766 22.1833 4.92116 22.1833 5.32031V6.48276C21.3799 6.70436 20.6104 7.02306 19.8846 7.43519L19.0629 6.61318C18.7809 6.33117 18.3233 6.33117 18.041 6.61318L15.2168 9.43547C15.0813 9.57097 15.005 9.75474 15.005 9.94641C15.005 10.1381 15.081 10.3218 15.2165 10.4576L16.0393 11.2802C15.6275 12.006 15.3085 12.7752 15.0869 13.5786H13.9199C13.5211 13.5786 13.1976 13.9021 13.1973 14.301L13.1953 18.2936C13.195 18.4853 13.2712 18.6693 13.4067 18.8048C13.5422 18.9406 13.726 19.0168 13.918 19.0168H15.0869C15.3085 19.8202 15.6275 20.5897 16.0393 21.3152L15.212 22.1426C14.9297 22.4249 14.9297 22.8822 15.2117 23.1644L18.034 25.989C18.1695 26.1245 18.3532 26.2007 18.5449 26.2007H18.5452C18.7369 26.2007 18.9206 26.1245 19.0561 25.989L19.1211 25.9244V28.7255C18.1178 29.0349 17.3867 29.9706 17.3867 31.0741C17.3867 32.4288 18.4887 33.5311 19.8437 33.5311C21.1984 33.5311 22.3007 32.4288 22.3007 31.0741C22.3007 29.9706 21.5693 29.0349 20.5664 28.7255V25.5128C21.0869 25.7584 21.6266 25.9596 22.1833 26.1132V27.2869C22.1833 27.6858 22.5068 28.0096 22.9059 28.0096H26.8986C27.2978 28.0096 27.6213 27.6858 27.6213 27.2869V26.1132C28.1263 25.9738 28.6177 25.7959 29.0937 25.5808V32.1945C28.0904 32.5036 27.3593 33.4394 27.3593 34.5428C27.3593 35.8975 28.4613 36.9998 29.8163 36.9998C31.171 36.9998 32.2733 35.8975 32.2733 34.5428C32.2733 33.4394 31.5422 32.5036 30.539 32.1945V25.7795L30.7481 25.989C30.8836 26.1245 31.0677 26.2007 31.2594 26.2007C31.451 26.2004 31.6348 26.1245 31.7703 25.9887L34.5926 23.1644C34.8746 22.8822 34.8746 22.4249 34.5923 22.1426L33.7649 21.3152C34.1768 20.5894 34.4958 19.8199 34.7174 19.0165H35.8866C36.2855 19.0165 36.6092 18.693 36.6092 18.2939V14.3012C36.6092 13.9024 36.2857 13.5786 35.8866 13.5786ZM19.8437 32.0855C19.2859 32.0855 18.832 31.6316 18.832 31.0738C18.832 30.516 19.2859 30.0621 19.8437 30.0621C20.4015 30.0621 20.8554 30.516 20.8554 31.0738C20.8554 31.6316 20.4015 32.0855 19.8437 32.0855ZM29.8163 35.5543C29.2585 35.5543 28.8046 35.1003 28.8046 34.5425C28.8046 33.9847 29.2585 33.5308 29.8163 33.5308C30.3741 33.5308 30.828 33.9847 30.828 34.5425C30.828 35.1003 30.3741 35.5543 29.8163 35.5543ZM35.1639 17.5712H34.1508C33.8104 17.5712 33.5159 17.8092 33.4442 18.1423C33.2229 19.1732 32.8198 20.146 32.2462 21.0332C32.0613 21.3194 32.1014 21.6957 32.3422 21.9365L33.0598 22.6538L31.2591 24.4559L30.5409 23.7378C30.3001 23.497 29.9239 23.4569 29.6376 23.6418C28.7504 24.2154 27.7776 24.6185 26.7467 24.8398C26.4139 24.9112 26.1759 25.2057 26.1759 25.5464V26.564H23.6286V25.5464C23.6286 25.2057 23.3906 24.9112 23.0578 24.8398C22.0266 24.6185 21.0542 24.2154 20.1666 23.6418C19.8807 23.4569 19.5044 23.497 19.2636 23.7378L18.5455 24.4559L16.7448 22.6538L17.4623 21.9365C17.7031 21.6957 17.7429 21.3194 17.5583 21.0332C16.9847 20.146 16.5816 19.1732 16.3603 18.1423C16.2886 17.8092 15.9945 17.5712 15.6537 17.5712H14.6412L14.6426 15.0239H15.6537C15.9945 15.0239 16.2889 14.7862 16.3603 14.4531C16.5819 13.4222 16.985 12.4494 17.5583 11.5622C17.7432 11.276 17.7031 10.9 17.4623 10.6589L16.7501 9.94669L18.552 8.14599L19.2636 8.85791C19.5047 9.09842 19.881 9.13879 20.1669 8.95361C21.0542 8.38029 22.0269 7.97718 23.0578 7.75587C23.3909 7.68445 23.6286 7.39003 23.6286 7.04931V6.04296H26.1762V7.04931C26.1762 7.39003 26.4139 7.68417 26.747 7.75587C27.7779 7.97718 28.7507 8.38029 29.6379 8.95361C29.9239 9.13851 30.3001 9.09842 30.5409 8.85763L31.2529 8.14599L33.0547 9.94669L32.3422 10.6589C32.1014 10.8997 32.0616 11.276 32.2465 11.5622C32.8198 12.4494 33.2229 13.4222 33.4442 14.4531C33.5159 14.7859 33.8104 15.0239 34.1508 15.0239H35.1642V17.5712H35.1639Z" fill="white"/>
<path d="M24.9023 10.667C21.7944 10.667 19.2656 13.1954 19.2656 16.3037C19.2656 19.4117 21.7944 21.9404 24.9023 21.9404C28.0103 21.9404 30.5391 19.4117 30.5391 16.3037C30.5391 13.1954 28.0103 10.667 24.9023 10.667ZM24.9023 20.4951C22.5913 20.4951 20.7109 18.6148 20.7109 16.3037C20.7109 13.9926 22.5913 12.1123 24.9023 12.1123C27.2134 12.1123 29.0938 13.9926 29.0938 16.3037C29.0938 18.6148 27.2134 20.4951 24.9023 20.4951Z" fill="white"/>
<path d="M26.2744 17.0264H23.5283C23.1292 17.0264 22.8057 17.3499 22.8057 17.749C22.8057 18.1479 23.1292 18.4717 23.5283 18.4717H26.2744C26.6736 18.4717 26.9971 18.1479 26.9971 17.749C26.9971 17.3499 26.6736 17.0264 26.2744 17.0264Z" fill="white"/>
<path d="M26.2744 14.1357H23.5283C23.1292 14.1357 22.8057 14.4592 22.8057 14.8584C22.8057 15.2573 23.1292 15.5811 23.5283 15.5811H26.2744C26.6736 15.5811 26.9971 15.2573 26.9971 14.8584C26.9971 14.4592 26.6736 14.1357 26.2744 14.1357Z" fill="white"/>
<path d="M8.03496 15.3562C7.90031 15.4906 7.82324 15.6769 7.82324 15.8672C7.82324 16.0572 7.90031 16.2429 8.03496 16.3781C8.16933 16.5125 8.35564 16.5898 8.5459 16.5898C8.73588 16.5898 8.92219 16.5125 9.05656 16.3781C9.19121 16.2429 9.26855 16.0572 9.26855 15.8672C9.26855 15.6769 9.19121 15.4906 9.05656 15.3562C8.92219 15.2219 8.73588 15.1445 8.5459 15.1445C8.35564 15.1445 8.16933 15.2219 8.03496 15.3562Z" fill="white"/>
<path d="M16.8086 3.17969C16.9986 3.17969 17.1852 3.10234 17.3195 2.96797C17.4539 2.8336 17.5312 2.64701 17.5312 2.45703C17.5312 2.26705 17.4539 2.08046 17.3195 1.94609C17.1852 1.81172 16.9986 1.73438 16.8086 1.73438C16.6186 1.73438 16.432 1.81172 16.2977 1.94609C16.1633 2.08046 16.0859 2.26705 16.0859 2.45703C16.0859 2.64701 16.1633 2.8336 16.2977 2.96797C16.432 3.10234 16.6186 3.17969 16.8086 3.17969Z" fill="white"/>
</g>

</svg>
