<svg width="647" height="608" viewBox="0 0 647 608" fill="none" xmlns="http://www.w3.org/2000/svg">
<path d="M68 0C30.5048 0 0 30.5048 0 68C0 105.495 30.5048 136 68 136C105.495 136 136 105.495 136 68C136 30.5048 105.496 0 68 0ZM68 128.649C51.3412 128.649 36.2312 121.896 25.2591 110.987C20.8777 106.63 17.1583 101.609 14.2623 96.0908C9.85186 87.6876 7.35145 78.1308 7.35145 68C7.35145 34.5583 34.5583 7.35145 68 7.35145C83.8621 7.35145 98.3188 13.4752 109.137 23.4796C114.746 28.6661 119.378 34.8946 122.718 41.8564C126.518 49.7771 128.649 58.6444 128.649 68C128.649 101.442 101.442 128.649 68 128.649Z" fill="#DBE7FB"/>
<path d="M44.756 52.5629C48.7074 52.5629 51.9223 55.594 51.9223 59.7292H59.2738C59.2738 51.4588 52.7613 45.2114 44.756 45.2114C36.7507 45.2114 30.2383 51.4588 30.2383 59.7292H37.5897C37.5897 55.594 40.8051 52.5629 44.756 52.5629Z" fill="#DBE7FB"/>
<path d="M91.2423 52.5629C95.1938 52.5629 98.4086 55.594 98.4086 59.7292H105.76C105.76 51.4588 99.2476 45.2114 91.2423 45.2114C83.2371 45.2114 76.7246 51.4588 76.7246 59.7292H84.0761C84.0761 55.594 87.2909 52.5629 91.2423 52.5629Z" fill="#DBE7FB"/>
<path d="M67.8709 105.675C82.0932 105.675 95.7233 98.4016 103.527 86.3255L97.3525 82.3354C90.1867 93.4247 77.0745 99.6137 63.9526 98.0988C53.724 96.9193 44.265 91.0262 38.6489 82.3354L32.4746 86.3255C39.2701 96.8422 50.7227 103.973 63.1099 105.402C64.7002 105.585 66.2881 105.675 67.8709 105.675Z" fill="#DBE7FB"/>
<path d="M111 424C77.916 424 51 450.916 51 484C51 517.084 77.916 544 111 544C144.084 544 171 517.084 171 484C171 450.916 144.084 424 111 424ZM111 537.513C96.301 537.513 82.9687 531.556 73.2875 521.929C69.4215 518.085 66.1397 513.655 63.5844 508.786C59.6928 501.371 57.4866 492.939 57.4866 484C57.4866 454.493 81.4926 430.487 111 430.487C124.996 430.487 137.752 435.89 147.298 444.717C152.247 449.294 156.334 454.789 159.281 460.932C162.634 467.921 164.513 475.745 164.513 484C164.513 513.507 140.507 537.513 111 537.513Z" fill="#DBE7FB"/>
<path d="M90.4914 470.379C93.9779 470.379 96.8146 473.054 96.8146 476.702H103.301C103.301 469.405 97.5549 463.893 90.4914 463.893C83.4279 463.893 77.6816 469.405 77.6816 476.702H84.1682C84.1682 473.054 87.0053 470.379 90.4914 470.379Z" fill="#DBE7FB"/>
<path d="M131.507 470.379C134.994 470.379 137.83 473.054 137.83 476.702H144.317C144.317 469.405 138.571 463.893 131.507 463.893C124.444 463.893 118.697 469.405 118.697 476.702H125.184C125.184 473.054 128.021 470.379 131.507 470.379Z" fill="#DBE7FB"/>
<path d="M110.886 517.243C123.435 517.243 135.462 510.825 142.348 500.17L136.9 496.649C130.577 506.434 119.007 511.894 107.429 510.558C98.4037 509.517 90.0575 504.317 85.1022 496.649L79.6543 500.17C85.6503 509.449 95.7556 515.741 106.685 517.001C108.089 517.164 109.49 517.243 110.886 517.243Z" fill="#DBE7FB"/>
<path d="M596 390C567.879 390 545 412.879 545 441C545 469.121 567.879 492 596 492C624.121 492 647 469.121 647 441C647 412.879 624.122 390 596 390ZM596 486.486C583.506 486.486 572.173 481.422 563.944 473.24C560.658 469.973 557.869 466.207 555.697 462.068C552.389 455.766 550.514 448.598 550.514 441C550.514 415.919 570.919 395.514 596 395.514C607.897 395.514 618.739 400.106 626.853 407.61C631.06 411.5 634.534 416.171 637.039 421.392C639.889 427.333 641.486 433.983 641.486 441C641.486 466.081 621.081 486.486 596 486.486Z" fill="#DBE7FB"/>
<path d="M578.568 429.422C581.532 429.422 583.943 431.696 583.943 434.797H589.456C589.456 428.594 584.572 423.909 578.568 423.909C572.564 423.909 567.68 428.594 567.68 434.797H573.193C573.193 431.696 575.605 429.422 578.568 429.422Z" fill="#DBE7FB"/>
<path d="M613.431 429.422C616.395 429.422 618.806 431.696 618.806 434.797H624.32C624.32 428.594 619.435 423.909 613.431 423.909C607.427 423.909 602.543 428.594 602.543 434.797H608.057C608.057 431.696 610.468 429.422 613.431 429.422Z" fill="#DBE7FB"/>
<path d="M595.903 469.256C606.569 469.256 616.792 463.801 622.645 454.744L618.014 451.751C612.64 460.068 602.805 464.71 592.964 463.574C585.292 462.689 578.198 458.27 573.986 451.751L569.355 454.744C574.452 462.631 583.042 467.98 592.332 469.051C593.525 469.189 594.716 469.256 595.903 469.256Z" fill="#DBE7FB"/>
<path d="M45.5 253C20.4113 253 0 273.411 0 298.5C0 323.589 20.4113 344 45.5 344C70.5887 344 91 323.589 91 298.5C91 273.411 70.589 253 45.5 253ZM45.5 339.081C34.3533 339.081 24.2429 334.563 16.9013 327.263C13.9696 324.348 11.4809 320.988 9.54314 317.296C6.59206 311.673 4.91899 305.279 4.91899 298.5C4.91899 276.124 23.1235 257.919 45.5 257.919C56.1136 257.919 65.7868 262.017 73.0257 268.711C76.7789 272.181 79.8782 276.349 82.1129 281.007C84.6554 286.307 86.081 292.24 86.081 298.5C86.081 320.876 67.8765 339.081 45.5 339.081Z" fill="#DBE7FB"/>
<path d="M29.9465 288.171C32.5905 288.171 34.7416 290.199 34.7416 292.966H39.6606C39.6606 287.432 35.303 283.252 29.9465 283.252C24.59 283.252 20.2324 287.432 20.2324 292.966H25.1514C25.1514 290.199 27.3028 288.171 29.9465 288.171Z" fill="#DBE7FB"/>
<path d="M61.052 288.171C63.6959 288.171 65.847 290.199 65.847 292.966H70.766C70.766 287.432 66.4084 283.252 61.052 283.252C55.6955 283.252 51.3379 287.432 51.3379 292.966H56.2569C56.2569 290.199 58.408 288.171 61.052 288.171Z" fill="#DBE7FB"/>
<path d="M45.4128 323.709C54.9292 323.709 64.0493 318.842 69.2711 310.762L65.1395 308.092C60.3447 315.512 51.5711 319.653 42.791 318.639C35.9468 317.85 29.6176 313.907 25.8598 308.092L21.7285 310.762C26.2755 317.798 33.9387 322.57 42.2272 323.526C43.2912 323.649 44.3537 323.709 45.4128 323.709Z" fill="#DBE7FB"/>
<path d="M579.5 52C554.411 52 534 72.4113 534 97.5C534 122.589 554.411 143 579.5 143C604.589 143 625 122.589 625 97.5C625 72.4113 604.589 52 579.5 52ZM579.5 138.081C568.353 138.081 558.243 133.563 550.901 126.263C547.97 123.348 545.481 119.988 543.543 116.296C540.592 110.673 538.919 104.279 538.919 97.5C538.919 75.1235 557.124 56.919 579.5 56.919C590.114 56.919 599.787 61.0165 607.026 67.7106C610.779 71.181 613.878 75.3486 616.113 80.0069C618.655 85.3068 620.081 91.24 620.081 97.5C620.081 119.876 601.876 138.081 579.5 138.081Z" fill="#DBE7FB"/>
<path d="M563.946 87.1709C566.59 87.1709 568.742 89.1991 568.742 91.966H573.661C573.661 86.4322 569.303 82.252 563.946 82.252C558.59 82.252 554.232 86.4322 554.232 91.966H559.151C559.151 89.1991 561.303 87.1709 563.946 87.1709Z" fill="#DBE7FB"/>
<path d="M595.052 87.1709C597.696 87.1709 599.847 89.1991 599.847 91.966H604.766C604.766 86.4322 600.408 82.252 595.052 82.252C589.695 82.252 585.338 86.4322 585.338 91.966H590.257C590.257 89.1991 592.408 87.1709 595.052 87.1709Z" fill="#DBE7FB"/>
<path d="M579.413 122.709C588.929 122.709 598.049 117.842 603.271 109.762L599.139 107.092C594.345 114.512 585.571 118.653 576.791 117.639C569.947 116.85 563.618 112.907 559.86 107.092L555.729 109.762C560.276 116.798 567.939 121.57 576.227 122.526C577.291 122.649 578.354 122.709 579.413 122.709Z" fill="#DBE7FB"/>
<path d="M457.5 517C432.411 517 412 537.411 412 562.5C412 587.589 432.411 608 457.5 608C482.589 608 503 587.589 503 562.5C503 537.411 482.589 517 457.5 517ZM457.5 603.081C446.353 603.081 436.243 598.563 428.901 591.263C425.97 588.348 423.481 584.988 421.543 581.296C418.592 575.673 416.919 569.279 416.919 562.5C416.919 540.124 435.124 521.919 457.5 521.919C468.114 521.919 477.787 526.017 485.026 532.711C488.779 536.181 491.878 540.349 494.113 545.007C496.655 550.307 498.081 556.24 498.081 562.5C498.081 584.876 479.876 603.081 457.5 603.081Z" fill="#DBE7FB"/>
<path d="M441.946 552.171C444.59 552.171 446.742 554.199 446.742 556.966H451.661C451.661 551.432 447.303 547.252 441.946 547.252C436.59 547.252 432.232 551.432 432.232 556.966H437.151C437.151 554.199 439.303 552.171 441.946 552.171Z" fill="#DBE7FB"/>
<path d="M473.052 552.171C475.696 552.171 477.847 554.199 477.847 556.966H482.766C482.766 551.432 478.408 547.252 473.052 547.252C467.695 547.252 463.338 551.432 463.338 556.966H468.257C468.257 554.199 470.408 552.171 473.052 552.171Z" fill="#DBE7FB"/>
<path d="M457.413 587.709C466.929 587.709 476.049 582.842 481.271 574.762L477.139 572.092C472.345 579.512 463.571 583.653 454.791 582.639C447.947 581.85 441.618 577.907 437.86 572.092L433.729 574.762C438.276 581.798 445.939 586.57 454.227 587.526C455.291 587.649 456.354 587.709 457.413 587.709Z" fill="#DBE7FB"/>
</svg>
