<svg width="87" height="87" viewBox="0 0 87 87" fill="none" xmlns="http://www.w3.org/2000/svg">
<g>
<path d="M66.9894 2.07544C58.3181 2.07544 50.9181 7.73354 48.1458 15.3098H13.1614C12.3864 15.3098 11.7574 16.0084 11.7519 16.7826L11.4187 66.2292H1.4467C0.66829 66.2292 0 66.7929 0 67.5727V73.8475C0.0178944 79.7547 4.67046 84.6075 10.5715 84.8746V84.9055H54.0909V84.8643C54.4433 84.8773 54.5885 84.9055 54.8115 84.9055H54.8418C60.9493 84.8959 65.8958 79.9419 65.8958 73.8344V42.1088C66.2482 42.1281 66.6212 42.1384 66.986 42.1384C78.0207 42.1384 87.0003 33.1416 87.0003 22.1062C87.0003 11.0715 78.0248 2.07544 66.9894 2.07544ZM11.1077 82.0865H11.0987C6.53906 82.0803 2.83972 78.3933 2.81907 73.833V69.0483H43.6956V73.813C43.6977 76.7546 44.8725 79.5744 46.9593 81.6481C47.1072 81.796 47.291 81.9103 47.4459 82.0865H11.1077ZM63.0767 73.833C63.0774 78.3851 59.3918 82.0775 54.8404 82.0865H54.8136C50.2436 82.0782 46.5374 78.3837 46.5147 73.8144V67.5727C46.5264 67.212 46.3887 66.8631 46.1334 66.6084C45.878 66.3538 45.5291 66.2168 45.1691 66.2292H14.2378L14.5613 18.1289H47.3633C47.1134 19.4193 46.9841 20.7297 46.9772 22.0436C46.9744 24.8221 47.5539 27.5696 48.6785 30.1099H35.365C34.5859 30.1099 33.9555 30.741 33.9555 31.5194C33.9555 32.2978 34.5859 32.929 35.365 32.929H50.2078C53.1157 37.5017 57.7641 40.6897 63.0767 41.7565V73.833ZM66.9894 39.32C57.4943 39.32 49.7962 31.6227 49.7969 22.1269C49.7969 12.6311 57.4943 4.93374 66.9901 4.93374C76.4852 4.93374 84.1826 12.6318 84.1826 22.1269C84.1722 31.6178 76.4811 39.3097 66.9894 39.32Z" fill="#5FB452"/>
<path d="M26.3171 39.491C23.8291 39.491 21.8057 41.4504 21.8057 43.8593C21.8057 46.2682 23.8291 48.2276 26.3171 48.2276C28.8052 48.2276 30.8293 46.2682 30.8293 43.8593C30.8293 41.4504 28.8052 39.491 26.3171 39.491ZM26.3171 45.4085C25.3832 45.4085 24.6247 44.7134 24.6247 43.8593C24.6247 43.0045 25.3839 42.31 26.3171 42.31C27.2504 42.31 28.0102 43.0052 28.0102 43.8593C28.0102 44.7134 27.2504 45.4085 26.3171 45.4085Z" fill="#5FB452"/>
<path d="M33.9551 43.8534C33.9551 44.6318 34.5855 45.2629 35.3646 45.2629H54.1566C54.935 45.2629 55.5661 44.6318 55.5661 43.8534C55.5661 43.075 54.935 42.4438 54.1566 42.4438H35.3646C34.5855 42.4438 33.9551 43.075 33.9551 43.8534Z" fill="#5FB452"/>
<path d="M26.3171 27.2375C23.8291 27.2375 21.8057 29.1977 21.8057 31.6066C21.8057 34.0154 23.8291 35.9749 26.3171 35.9749C28.8052 35.9749 30.8293 34.0154 30.8293 31.6066C30.8293 29.1977 28.8052 27.2375 26.3171 27.2375ZM26.3171 33.1558C25.3832 33.1558 24.6247 32.4607 24.6247 31.6066C24.6247 30.7524 25.3839 30.0566 26.3171 30.0566C27.2504 30.0566 28.0102 30.7518 28.0102 31.6066C28.0102 32.4607 27.2504 33.1565 26.3171 33.1565V33.1558Z" fill="#5FB452"/>
<path d="M26.3171 51.7422C23.8291 51.7422 21.8057 53.7016 21.8057 56.1105C21.8057 58.5194 23.8291 60.4788 26.3171 60.4788C28.8052 60.4788 30.8293 58.5194 30.8293 56.1105C30.8293 53.7016 28.8052 51.7422 26.3171 51.7422ZM26.3171 57.6598C25.3832 57.6598 24.6247 56.9653 24.6247 56.1105C24.6247 55.2564 25.3839 54.5613 26.3171 54.5613C27.2504 54.5613 28.0102 55.2564 28.0102 56.1105C28.0102 56.9646 27.2504 57.6598 26.3171 57.6598Z" fill="#5FB452"/>
<path d="M54.1566 54.7771H35.3646C34.5855 54.7771 33.9551 55.4082 33.9551 56.1866C33.9551 56.965 34.5855 57.5962 35.3646 57.5962H54.1566C54.935 57.5962 55.5661 56.965 55.5661 56.1866C55.5661 55.4082 54.935 54.7771 54.1566 54.7771Z" fill="#5FB452"/>
<path d="M64.3552 28.5293V25.8093H62.6152V24.5093H64.3552V22.7293H62.6152V21.2093H64.3552V14.2493H68.1152C69.8618 14.2493 71.1552 14.6026 71.9952 15.3093C72.8485 16.016 73.2752 17.0426 73.2752 18.3893C73.2752 19.7493 72.8152 20.816 71.8952 21.5893C70.9752 22.3493 69.6218 22.7293 67.8352 22.7293H66.1552V24.5093H69.4552V25.8093H66.1552V28.5293H64.3552ZM66.1552 21.2093H67.5752C68.7885 21.2093 69.7285 21.0093 70.3952 20.6093C71.0752 20.2093 71.4152 19.4893 71.4152 18.4493C71.4152 17.5426 71.1352 16.8693 70.5752 16.4293C70.0152 15.9893 69.1418 15.7693 67.9552 15.7693H66.1552V21.2093Z" fill="#5FB452"/>
</g>
</svg>
