<svg width="19" height="19" viewBox="0 0 19 19" fill="none" xmlns="http://www.w3.org/2000/svg">
    <g>
        <path d="M9.38083 4.40137C6.72557 4.40137 4.56543 6.56151 4.56543 9.21677C4.56543 11.8719 6.72557 14.032 9.38083 14.032C12.0361 14.032 14.1962 11.8719 14.1962 9.21677C14.1962 6.56151 12.0361 4.40137 9.38083 4.40137ZM5.59426 9.21677C5.59426 7.30326 7.02096 5.71701 8.86642 5.46529V12.9681C7.02096 12.7164 5.59426 11.1302 5.59426 9.21677ZM9.89525 12.9681V5.46529C11.7407 5.71701 13.1674 7.30326 13.1674 9.21677C13.1674 11.1302 11.7407 12.7164 9.89525 12.9681Z"
              fill="#4A81ED"/>
        <path d="M9.38063 15.1152C9.09649 15.1152 8.86621 15.3456 8.86621 15.6296V17.5501C8.86621 17.8343 9.09649 18.0645 9.38063 18.0645C9.66476 18.0645 9.89504 17.8343 9.89504 17.5501V15.6296C9.89504 15.3456 9.66476 15.1152 9.38063 15.1152Z"
              fill="#4A81ED"/>
        <path d="M17.646 8.771H15.7937C15.5096 8.771 15.2793 9.00141 15.2793 9.28541C15.2793 9.56954 15.5096 9.79983 15.7937 9.79983H17.646C17.9301 9.79983 18.1604 9.56954 18.1604 9.28541C18.1604 9.00141 17.9301 8.771 17.646 8.771Z"
              fill="#4A81ED"/>
        <path d="M3.48269 9.28541C3.48269 9.00141 3.25241 8.771 2.96827 8.771H1.11598C0.831843 8.771 0.601562 9.00141 0.601562 9.28541C0.601562 9.56954 0.831843 9.79983 1.11598 9.79983H2.96827C3.25241 9.79983 3.48269 9.56954 3.48269 9.28541Z"
              fill="#4A81ED"/>
        <path d="M14.9651 6.57573C15.0525 6.57573 15.1409 6.55349 15.2219 6.50674L16.7955 5.5982C17.0416 5.4562 17.1258 5.14153 16.9838 4.89557C16.8417 4.64948 16.5271 4.56509 16.2811 4.70722L14.7075 5.61575C14.4614 5.75775 14.3772 6.07243 14.5192 6.31839C14.6144 6.48356 14.7874 6.57573 14.9651 6.57573Z"
              fill="#4A81ED"/>
        <path d="M3.59903 12.0295L1.99456 12.9558C1.74861 13.0978 1.66421 13.4125 1.80635 13.6585C1.90159 13.8235 2.07454 13.9158 2.2523 13.9158C2.33951 13.9158 2.42806 13.8936 2.50898 13.8468L4.11344 12.9205C4.35953 12.7785 4.44379 12.4638 4.30166 12.2178C4.15966 11.9717 3.84511 11.8874 3.59903 12.0295Z"
              fill="#4A81ED"/>
        <path d="M6.46051 14.343C6.21456 14.2008 5.89988 14.2852 5.75788 14.5312L4.83167 16.1352C4.68967 16.3813 4.77393 16.696 5.02002 16.838C5.10107 16.8848 5.18948 16.907 5.27669 16.907C5.45446 16.907 5.6274 16.8147 5.72265 16.6497L6.64886 15.0456C6.79086 14.7996 6.7066 14.485 6.46051 14.343Z"
              fill="#4A81ED"/>
        <path d="M1.93499 5.58063L3.53932 6.50684C3.62024 6.55359 3.70865 6.57583 3.79599 6.57583C3.97376 6.57583 4.14671 6.48367 4.24195 6.31862C4.38395 6.07254 4.29969 5.75786 4.05374 5.61586L2.44941 4.68964C2.20332 4.54751 1.88877 4.6319 1.74677 4.87799C1.60464 5.12395 1.68904 5.43862 1.93499 5.58063Z"
              fill="#4A81ED"/>
        <path d="M16.7962 12.9723L15.1632 12.0295C14.9173 11.8874 14.6026 11.9718 14.4606 12.2177C14.3186 12.4638 14.4028 12.7783 14.6488 12.9205L16.2818 13.8633C16.3628 13.91 16.4513 13.9323 16.5386 13.9323C16.7164 13.9323 16.8893 13.84 16.9846 13.6749C17.1266 13.429 17.0423 13.1143 16.7962 12.9723Z"
              fill="#4A81ED"/>
        <path d="M13.0039 14.5312C12.8619 14.2851 12.5472 14.2009 12.3013 14.343C12.0552 14.485 11.9709 14.7995 12.1129 15.0456L13.039 16.6495C13.1343 16.8146 13.3072 16.9067 13.485 16.9067C13.5722 16.9067 13.6606 16.8846 13.7416 16.8378C13.9877 16.6958 14.072 16.3811 13.93 16.1351L13.0039 14.5312Z"
              fill="#4A81ED"/>
        <path d="M9.38063 3.38658C9.66476 3.38658 9.89504 3.1563 9.89504 2.87217V1.02027C9.89504 0.73614 9.66476 0.505859 9.38063 0.505859C9.09649 0.505859 8.86621 0.73614 8.86621 1.02027V2.87217C8.86621 3.1563 9.09649 3.38658 9.38063 3.38658Z"
              fill="#4A81ED"/>
        <path d="M12.3013 4.15881C12.3822 4.20569 12.4707 4.22793 12.5579 4.22793C12.7357 4.22793 12.9087 4.13563 13.0039 3.97059L13.9301 2.36653C14.0721 2.12044 13.9879 1.80576 13.7418 1.66376C13.4957 1.52163 13.1811 1.60602 13.0391 1.85211L12.1129 3.45618C11.9709 3.70226 12.0552 4.01681 12.3013 4.15881Z"
              fill="#4A81ED"/>
        <path d="M5.75775 3.97032C5.853 4.13536 6.02594 4.22766 6.20371 4.22766C6.29092 4.22766 6.37947 4.20543 6.46038 4.15867C6.70647 4.01654 6.79073 3.702 6.64873 3.45591L5.72265 1.85211C5.58065 1.60602 5.26598 1.52163 5.02002 1.66376C4.77393 1.80576 4.68967 2.12044 4.83167 2.36653L5.75775 3.97032Z"
              fill="#4A81ED"/>
    </g>
</svg>
