<svg width="24" height="24" viewBox="0 0 24 24" fill="none" xmlns="http://www.w3.org/2000/svg">
<path d="M12 23C5.93436 23 1 18.0656 1 12C1 5.93436 5.93436 1 12 1C18.0656 1 23 5.93436 23 12C23 18.0656 18.0656 23 12 23ZM12 2.375C6.69252 2.375 2.375 6.69252 2.375 12C2.375 17.3075 6.69252 21.625 12 21.625C17.3075 21.625 21.625 17.3075 21.625 12C21.625 6.69252 17.3075 2.375 12 2.375Z" fill="#434549" stroke="#434549" stroke-width="0.35"/>
<path d="M15.8125 16.9583C15.6364 16.9583 15.4605 16.8913 15.3266 16.7565L11.5141 12.944C11.3848 12.8148 11.3125 12.6397 11.3125 12.4583V7.0415C11.3125 6.662 11.6205 6.354 12 6.354C12.3795 6.354 12.6875 6.662 12.6875 7.0415V12.1731L16.2984 15.784C16.567 16.0526 16.567 16.488 16.2984 16.7565C16.1645 16.8913 15.9886 16.9583 15.8125 16.9583Z" fill="#434549" stroke="#434549" stroke-width="0.35"/>
</svg>
