<svg width="45" height="46" viewBox="0 0 45 46" fill="none" xmlns="http://www.w3.org/2000/svg">
<g>
<path d="M43.7046 20.6366C44.1617 20.6366 44.5322 20.2661 44.5322 19.8085C44.5322 19.3513 44.1617 18.9809 43.7046 18.9809H37.847V14.0134H43.7046C44.1617 14.0134 44.5322 13.6429 44.5322 13.1853C44.5322 12.7282 44.1617 12.3577 43.7046 12.3577H37.847V9.03549C37.847 8.57835 37.4765 8.20742 37.0194 8.20742H33.8662V1.59516C33.8662 1.13754 33.4958 0.76709 33.0382 0.76709C32.581 0.76709 32.2106 1.13754 32.2106 1.59516V8.20742H27.2431V1.59516C27.2431 1.13754 26.8726 0.76709 26.415 0.76709C25.9579 0.76709 25.5874 1.13754 25.5874 1.59516V8.20742H20.6199V1.59516C20.6199 1.13754 20.249 0.76709 19.7919 0.76709C19.3347 0.76709 18.9643 1.13754 18.9643 1.59516V8.20742H13.9001V1.84103C13.9001 1.38388 13.5292 1.01295 13.0721 1.01295C12.6149 1.01295 12.2445 1.38388 12.2445 1.84103V8.20742H8.16662C7.70948 8.20742 7.33903 8.57835 7.33903 9.03549V12.3577H1.48188C1.02426 12.3577 0.653809 12.7282 0.653809 13.1853C0.653809 13.6429 1.02426 14.0134 1.48188 14.0134H7.33903V18.9809H1.48188C1.02426 18.9809 0.653809 19.3513 0.653809 19.8085C0.653809 20.2661 1.02426 20.6366 1.48188 20.6366H7.33903V25.604H1.48188C1.02426 25.604 0.653809 25.9745 0.653809 26.4316C0.653809 26.8893 1.02426 27.2597 1.48188 27.2597H7.33903V32.2272H1.48188C1.02426 32.2272 0.653809 32.5977 0.653809 33.0548C0.653809 33.5124 1.02426 33.8829 1.48188 33.8829H7.33903V38.0223C7.33903 38.4794 7.70948 38.8504 8.16662 38.8504H12.2445V44.6454C12.2445 45.1026 12.6149 45.4735 13.0721 45.4735C13.5292 45.4735 13.9001 45.1026 13.9001 44.6454V38.8504H18.9643V44.2849C18.9643 44.7421 19.3347 45.113 19.7919 45.113C20.249 45.113 20.6199 44.7421 20.6199 44.2849V38.8504H25.5874V44.2849C25.5874 44.7421 25.9579 45.113 26.415 45.113C26.8726 45.113 27.2431 44.7421 27.2431 44.2849V38.8504H32.2106V44.2849C32.2106 44.7421 32.581 45.113 33.0382 45.113C33.4958 45.113 33.8662 44.7421 33.8662 44.2849V38.8504H37.0194C37.4765 38.8504 37.847 38.4794 37.847 38.0223V33.8829H43.7046C44.1617 33.8829 44.5322 33.5124 44.5322 33.0548C44.5322 32.5977 44.1617 32.2272 43.7046 32.2272H37.847V27.2597H43.7046C44.1617 27.2597 44.5322 26.8893 44.5322 26.4316C44.5322 25.9745 44.1617 25.604 43.7046 25.604H37.847V20.6366H43.7046ZM36.1913 37.1947H8.9947V9.86357H13.0204C13.0384 9.86452 13.0536 9.87399 13.0721 9.87399C13.0905 9.87399 13.1062 9.86452 13.1242 9.86357H36.1913V37.1947Z" fill="white"/>
<path d="M13.0722 13.1855C12.6151 13.1855 12.2446 13.5565 12.2446 14.0136V33.055C12.2446 33.5126 12.6151 33.8831 13.0722 33.8831H32.1141C32.5712 33.8831 32.9417 33.5126 32.9417 33.055V18.9811C32.9417 18.7613 32.8545 18.551 32.6992 18.3956L27.7321 13.4281C27.5768 13.2732 27.3659 13.1855 27.1466 13.1855H13.0722ZM31.286 19.3236V32.2274H13.9003V14.8417H26.8036L31.286 19.3236Z" fill="white"/>
<path d="M17.2114 21.4646C17.669 21.4646 18.0395 21.0937 18.0395 20.6365V18.9809H19.6951C20.1523 18.9809 20.5232 18.6099 20.5232 18.1528C20.5232 17.6956 20.1523 17.3252 19.6951 17.3252H17.2114C16.7542 17.3252 16.3838 17.6956 16.3838 18.1528V20.6365C16.3838 21.0937 16.7542 21.4646 17.2114 21.4646Z" fill="white"/>
<path d="M19.923 28.0877H18.0395V26.225C18.0395 25.7674 17.669 25.397 17.2114 25.397C16.7542 25.397 16.3838 25.7674 16.3838 26.225V28.9153C16.3838 29.3725 16.7542 29.7434 17.2114 29.7434H19.923C20.3801 29.7434 20.7511 29.3725 20.7511 28.9153C20.7511 28.4582 20.3801 28.0877 19.923 28.0877Z" fill="white"/>
<path d="M24.6733 28.9264C24.6733 29.3835 25.0443 29.754 25.5014 29.754H27.9747C28.4319 29.754 28.8023 29.3835 28.8023 28.9264V26.2143C28.8023 25.7572 28.4319 25.3867 27.9747 25.3867C27.5171 25.3867 27.1467 25.7572 27.1467 26.2143V28.0983H25.5014C25.0443 28.0983 24.6733 28.4688 24.6733 28.9264Z" fill="white"/>
</g>

</svg>
