<svg width="69" height="68" viewBox="0 0 69 68" fill="none" xmlns="http://www.w3.org/2000/svg">
<path d="M54.0502 19.2667C54.0502 8.6428 45.2803 0 34.5002 0C23.7201 0 14.9502 8.6428 14.9502 19.2667C14.9502 24.871 17.4652 30.192 21.7455 33.8357C21.1027 34.4545 20.7002 35.3135 20.7002 36.2667C20.7002 37.1405 21.0463 37.9304 21.5972 38.5333C21.0452 39.1363 20.7002 39.9262 20.7002 40.8C20.7002 41.6738 21.0463 42.4637 21.5972 43.0667C21.0452 43.6696 20.7002 44.4595 20.7002 45.3333C20.7002 46.8089 21.665 48.0556 23.0002 48.5248V56.6667C23.0002 56.9715 23.1267 57.256 23.3394 57.4657L23.3371 57.4679L33.6871 67.6679C33.9114 67.8889 34.2058 68 34.5002 68C34.7946 68 35.089 67.8889 35.3132 67.6679L45.6632 57.4679L45.6609 57.4657C45.8737 57.256 46.0002 56.9715 46.0002 56.6667V48.5248C47.3353 48.0556 48.3002 46.8089 48.3002 45.3333C48.3002 44.4595 47.954 43.6696 47.4032 43.0667C47.9552 42.4637 48.3002 41.6738 48.3002 40.8C48.3002 39.9262 47.954 39.1363 47.4032 38.5333C47.9552 37.9304 48.3002 37.1405 48.3002 36.2667C48.3002 35.3135 47.8977 34.4545 47.2548 33.8357C51.5351 30.192 54.0502 24.871 54.0502 19.2667ZM34.5002 65.2641L32.6763 63.4667H36.3241L34.5002 65.2641ZM38.6241 61.2H30.3763L25.9557 56.8423L27.6002 55.7623L30.4119 57.6096C30.7983 57.8635 31.3009 57.8635 31.6873 57.6096L34.5002 55.7623L37.3119 57.6096C37.6983 57.8635 38.2009 57.8635 38.5873 57.6096L41.4002 55.7623L43.0447 56.8435L38.6241 61.2ZM43.7002 54.5485L42.0384 53.4571C41.652 53.2032 41.1495 53.2032 40.7631 53.4571L37.9502 55.3044L35.1384 53.4571C34.752 53.2032 34.2495 53.2032 33.8631 53.4571L31.0502 55.3044L28.2384 53.4571C27.852 53.2032 27.3495 53.2032 26.9631 53.4571L25.3002 54.5485V48.7333H43.7002V54.5485ZM44.8502 46.4667H24.1502C23.5165 46.4667 23.0002 45.9578 23.0002 45.3333C23.0002 44.7089 23.5165 44.2 24.1502 44.2H44.8502C45.4838 44.2 46.0002 44.7089 46.0002 45.3333C46.0002 45.9578 45.4838 46.4667 44.8502 46.4667ZM44.8502 41.9333H24.1502C23.5165 41.9333 23.0002 41.4245 23.0002 40.8C23.0002 40.1755 23.5165 39.6667 24.1502 39.6667H44.8502C45.4838 39.6667 46.0002 40.1755 46.0002 40.8C46.0002 41.4245 45.4838 41.9333 44.8502 41.9333ZM44.8502 37.4H24.1502C23.5165 37.4 23.0002 36.8911 23.0002 36.2667C23.0002 35.6422 23.5165 35.1333 24.1502 35.1333H44.8456L44.8594 35.1356C45.4884 35.1401 46.0002 35.6445 46.0002 36.2667C46.0002 36.8911 45.4838 37.4 44.8502 37.4ZM30.903 20.2606C31.1134 20.4283 31.3699 20.5122 31.6252 20.5122C31.8805 20.5122 32.1369 20.4283 32.3474 20.2606C33.7159 19.1726 34.5002 17.5701 34.5002 15.8667C34.5002 15.6049 34.4749 15.3465 34.4392 15.0903C34.4289 15.0167 34.4151 14.9453 34.4013 14.8716C34.3656 14.6767 34.3196 14.484 34.2621 14.2947C34.2437 14.2313 34.2276 14.1678 34.2069 14.1055C34.1253 13.8641 34.0298 13.6283 33.916 13.4005C33.8953 13.3597 33.87 13.3212 33.8481 13.2793C33.7481 13.09 33.6354 12.9064 33.5135 12.7296C33.4928 12.699 33.4778 12.665 33.456 12.6344C34.1287 12.4145 34.8739 12.4145 35.5467 12.6344C35.5248 12.665 35.5099 12.699 35.4892 12.7296C35.3673 12.9075 35.2557 13.09 35.1545 13.2793C35.1327 13.3201 35.1074 13.3586 35.0867 13.4005C34.9728 13.6283 34.8762 13.8652 34.7957 14.1055C34.775 14.1678 34.7589 14.2313 34.7405 14.2947C34.6842 14.484 34.6382 14.6767 34.6014 14.8716C34.5876 14.9441 34.5738 15.0167 34.5634 15.0903C34.5255 15.3465 34.5002 15.6049 34.5002 15.8667C34.5002 17.5701 35.2845 19.1726 36.653 20.2606C36.8634 20.4283 37.1199 20.5122 37.3752 20.5122C37.6305 20.5122 37.8869 20.4283 38.0974 20.2606C39.4659 19.1726 40.2502 17.5701 40.2502 15.8667C40.2502 15.6049 40.2249 15.3465 40.1892 15.0903C40.1789 15.0167 40.1651 14.9453 40.1513 14.8716C40.1156 14.6767 40.0696 14.484 40.0121 14.2947C39.9937 14.2313 39.9776 14.1678 39.9558 14.1055C39.8741 13.8641 39.7787 13.6283 39.6648 13.4005C39.6441 13.3575 39.6177 13.3178 39.5947 13.2759C39.4958 13.0889 39.3854 12.9087 39.2658 12.733C39.2439 12.7001 39.2278 12.665 39.2048 12.6333C39.5418 12.5233 39.8914 12.4667 40.2502 12.4667C42.0879 12.4667 43.7002 14.1701 43.7002 16.1137C43.7002 17.7797 42.955 19.3483 41.6555 20.4147L37.2142 24.0629C36.952 24.2783 36.8002 24.5967 36.8002 24.9333V32.8667H32.2002V24.9333C32.2002 24.5967 32.0484 24.2783 31.7862 24.0629L27.3449 20.4147C26.0454 19.3471 25.3002 17.7797 25.3002 16.1137C25.3002 14.1701 26.9125 12.4667 28.7502 12.4667C29.1078 12.4667 29.4586 12.5233 29.7944 12.6333C29.7714 12.665 29.7553 12.7013 29.7334 12.733C29.6127 12.9087 29.5034 13.0889 29.4045 13.2759C29.3827 13.3178 29.3562 13.3575 29.3344 13.4005C29.2205 13.6283 29.1251 13.8641 29.0434 14.1055C29.0227 14.1678 29.0066 14.2324 28.9871 14.2947C28.9307 14.484 28.8847 14.6767 28.8479 14.8716C28.8341 14.9441 28.8203 15.0167 28.81 15.0903C28.7755 15.3465 28.7502 15.6049 28.7502 15.8667C28.7502 17.5701 29.5345 19.1726 30.903 20.2606ZM31.0502 15.8667C31.0502 15.6411 31.0824 15.4201 31.1272 15.2025C31.1387 15.1504 31.1502 15.0971 31.164 15.0461C31.2192 14.8342 31.2894 14.6257 31.386 14.4273C31.394 14.4126 31.4032 14.3979 31.4113 14.3831C31.4711 14.2664 31.5516 14.1599 31.6252 14.0499C31.6988 14.1599 31.7793 14.2664 31.8391 14.3831C31.846 14.3979 31.8563 14.4115 31.8644 14.4262C31.961 14.6234 32.0311 14.8319 32.0863 15.045C32.1001 15.0971 32.1116 15.1493 32.1231 15.2014C32.168 15.4201 32.2002 15.6411 32.2002 15.8667C32.2002 16.0922 32.168 16.3132 32.1231 16.5308C32.1116 16.5829 32.1001 16.6362 32.0863 16.6872C32.0311 16.8991 31.961 17.1077 31.8644 17.306C31.8575 17.3207 31.8471 17.3355 31.8391 17.3502C31.7793 17.4669 31.6988 17.5735 31.6252 17.6834C31.5516 17.5735 31.4711 17.4669 31.4113 17.3502C31.4032 17.3355 31.3929 17.3207 31.386 17.306C31.2894 17.1077 31.2192 16.8991 31.164 16.6872C31.1502 16.6351 31.1387 16.5829 31.1272 16.5308C31.0824 16.3132 31.0502 16.0922 31.0502 15.8667ZM36.8002 15.8667C36.8002 15.6411 36.8324 15.4201 36.8772 15.2025C36.8887 15.1504 36.9002 15.0971 36.914 15.0461C36.9692 14.8342 37.0394 14.6257 37.136 14.4273C37.144 14.4126 37.1532 14.3979 37.1613 14.3831C37.2211 14.2664 37.3016 14.1599 37.3752 14.0499C37.4488 14.1599 37.5293 14.2664 37.5891 14.3831C37.596 14.3979 37.6063 14.4115 37.6144 14.4262C37.711 14.6234 37.7811 14.8319 37.8363 15.045C37.8501 15.0971 37.8616 15.1493 37.8731 15.2014C37.918 15.4201 37.9502 15.6411 37.9502 15.8667C37.9502 16.0922 37.918 16.3132 37.8731 16.5308C37.8616 16.5829 37.8501 16.6362 37.8363 16.6872C37.7811 16.8991 37.711 17.1077 37.6144 17.306C37.6075 17.3207 37.5971 17.3355 37.5891 17.3502C37.5293 17.4669 37.4488 17.5735 37.3752 17.6834C37.3016 17.5735 37.2211 17.4669 37.1613 17.3502C37.1532 17.3355 37.1429 17.3207 37.136 17.306C37.0394 17.1077 36.9692 16.8991 36.914 16.6872C36.9002 16.6351 36.8887 16.5829 36.8772 16.5308C36.8324 16.3132 36.8002 16.0922 36.8002 15.8667ZM44.8249 32.8667H39.1002V25.4637L43.1275 22.1555C44.9537 20.6573 46.0002 18.4541 46.0002 16.1137C46.0002 12.9087 43.3667 10.2 40.2502 10.2C39.229 10.2 38.2503 10.4765 37.3717 10.9899C35.6019 9.979 33.4008 9.979 31.6298 10.9899C30.75 10.4765 29.7714 10.2 28.7502 10.2C25.6337 10.2 23.0002 12.9087 23.0002 16.1137C23.0002 18.4541 24.0467 20.6573 25.8729 22.1567L29.9002 25.4637V32.8667H24.1755C19.8319 29.6571 17.2502 24.6047 17.2502 19.2667C17.2502 9.89287 24.9885 2.26667 34.5002 2.26667C44.0118 2.26667 51.7502 9.89287 51.7502 19.2667C51.7502 24.6047 49.1684 29.6571 44.8249 32.8667Z" fill="#5FB452"/>
<path d="M56.686 0.334029L52.0859 4.86743L53.7123 6.47019L58.3123 1.93679L56.686 0.334029Z" fill="#5FB452"/>
<path d="M53.7103 32.0635L52.084 33.6663L56.6841 38.1997L58.3104 36.5969L53.7103 32.0635Z" fill="#5FB452"/>
<path d="M64.4 18.1333H57.5V20.4H64.4V18.1333Z" fill="#5FB452"/>
<path d="M12.3129 0.332543L10.6865 1.9353L15.2866 6.46871L16.9129 4.86595L12.3129 0.332543Z" fill="#5FB452"/>
<path d="M15.2866 32.0645L10.6865 36.5979L12.3129 38.2007L16.9129 33.6673L15.2866 32.0645Z" fill="#5FB452"/>
<path d="M11.4996 18.1333H4.59961V20.4H11.4996V18.1333Z" fill="#5FB452"/>
<path d="M50.5998 54.3999H48.2998V56.6666H50.5998V54.3999Z" fill="#5FB452"/>
<path d="M55.2004 54.3999H52.9004V56.6666H55.2004V54.3999Z" fill="#5FB452"/>
<path d="M59.8 54.3999H57.5V56.6666H59.8V54.3999Z" fill="#5FB452"/>
<path d="M11.5002 54.3999H9.2002V56.6666H11.5002V54.3999Z" fill="#5FB452"/>
<path d="M16.0998 54.3999H13.7998V56.6666H16.0998V54.3999Z" fill="#5FB452"/>
<path d="M20.7004 54.3999H18.4004V56.6666H20.7004V54.3999Z" fill="#5FB452"/>
</svg>
