<svg width="152" height="37" viewBox="0 0 152 37" fill="none" xmlns="http://www.w3.org/2000/svg">
    <path d="M0.65332 18.7975C0.65332 11.8665 5.16249 7.65918 11.2306 7.65918C14.5512 7.65918 16.4369 8.60719 17.6662 9.3923V12.6913H15.9439C15.0427 11.7843 13.5246 10.917 11.1883 10.917C7.49874 10.917 4.91749 13.7229 4.91749 18.7961C4.91749 23.994 7.3354 26.5929 11.1081 26.5929C13.8964 26.5929 15.4131 25.5202 16.3144 24.5296H17.8719V27.582C16.6425 28.5726 14.3879 29.8097 11.025 29.8097C4.50915 29.8112 0.65332 25.6449 0.65332 18.7975Z"
          fill="#266CDD"/>
    <path d="M11.025 30.4718C7.65041 30.4718 4.84604 29.3844 2.91667 27.3254C0.987292 25.2665 0 22.3359 0 18.7978C0 15.2758 1.10688 12.2967 3.20833 10.1644C5.215 8.12313 8.0675 6.99756 11.2379 6.99756C14.7015 6.99756 16.6848 7.97785 18.025 8.83194C18.1184 8.89153 18.1953 8.97389 18.2486 9.07138C18.3018 9.16887 18.3298 9.27833 18.3298 9.38959V12.6915C18.3298 12.8666 18.2606 13.0346 18.1376 13.1584C18.0145 13.2823 17.8476 13.3519 17.6735 13.3519H15.944C15.77 13.3517 15.6032 13.282 15.4802 13.1581C14.7642 12.4376 13.4385 11.5776 11.1883 11.5776C7.67229 11.5776 5.57229 14.2764 5.57229 18.7963C5.57229 23.3984 7.53812 25.9328 11.1067 25.9328C13.1483 25.9328 14.6971 25.3282 15.8287 24.0837C15.8903 24.0162 15.9651 23.9622 16.0484 23.9253C16.1318 23.8885 16.2219 23.8694 16.3129 23.8695H17.8704C18.0445 23.8695 18.2114 23.939 18.3345 24.0629C18.4575 24.1867 18.5267 24.3547 18.5267 24.5298V27.5823C18.5266 27.6812 18.5044 27.7789 18.4617 27.868C18.419 27.9572 18.357 28.0356 18.2802 28.0974C17.1806 28.9867 14.7744 30.4718 11.025 30.4718ZM11.2306 8.31244C5.29667 8.31244 1.31396 12.5227 1.31396 18.7904C1.31396 25.2739 4.94667 29.1452 11.0294 29.1452C14.1181 29.1452 16.1627 28.0357 17.22 27.2521V25.1917H16.5988C15.2396 26.5609 13.3904 27.255 11.1125 27.255C9.01688 27.255 7.28292 26.4992 6.09875 25.0684C4.8825 23.6009 4.26563 21.4906 4.26563 18.7978C4.26563 16.2018 4.92479 14.0357 6.17021 12.533C7.41563 11.0303 9.14084 10.2584 11.1942 10.2584C13.701 10.2584 15.2848 11.1814 16.2123 12.0326H17.0158V9.76087C15.8258 9.05353 14.1006 8.31978 11.2292 8.31978L11.2306 8.31244Z"
          fill="#266CDD"/>
    <path d="M27.6693 13.8051V29.5646H23.4883V7.99229H26.1133C27.1341 7.99229 27.5891 8.44575 27.6708 10.9625C29.1058 9.31304 31.1547 7.78537 33.8206 7.78537C34.2093 7.78123 34.5964 7.83715 34.9683 7.9512V11.416C34.9683 11.416 34.1895 11.3749 34.0247 11.3749C31.6801 11.3638 29.415 12.2299 27.6693 13.8051Z"
          fill="#266CDD"/>
    <path d="M27.6693 30.2251H23.4883C23.3142 30.2251 23.1473 30.1556 23.0242 30.0317C22.9012 29.9079 22.832 29.7399 22.832 29.5648V7.99244C22.832 7.81729 22.9012 7.64932 23.0242 7.52548C23.1473 7.40163 23.3142 7.33206 23.4883 7.33206H26.1133C27.4477 7.33206 27.9902 8.09956 28.206 9.47315C29.9049 7.93227 31.8241 7.12514 33.8206 7.12514C34.2797 7.12151 34.7366 7.18882 35.1754 7.32472C35.3061 7.36848 35.4199 7.45256 35.5005 7.56503C35.5811 7.67751 35.6245 7.81267 35.6245 7.95135V11.4161C35.6245 11.5058 35.6063 11.5945 35.571 11.6768C35.5358 11.7591 35.4843 11.8334 35.4196 11.895C35.3549 11.9567 35.2784 12.0044 35.1948 12.0354C35.1112 12.0663 35.0222 12.0798 34.9333 12.075C34.6416 12.0589 34.1312 12.0354 34.0247 12.0354C31.9396 12.0196 29.9179 12.7569 28.327 14.1134V29.5648C28.327 29.6516 28.31 29.7376 28.2769 29.8178C28.2439 29.898 28.1954 29.9709 28.1343 30.0322C28.0732 30.0936 28.0007 30.1422 27.9209 30.1753C27.8411 30.2084 27.7556 30.2253 27.6693 30.2251ZM24.1445 28.9044H27.0131V13.8052C27.0131 13.7113 27.033 13.6185 27.0715 13.533C27.1099 13.4475 27.1661 13.3712 27.2362 13.3092C29.1028 11.6305 31.5199 10.7049 34.0233 10.7103C34.0787 10.7103 34.1852 10.7103 34.315 10.7191V8.47524C34.152 8.45339 33.9878 8.4426 33.8235 8.44296C31.7731 8.44296 29.8714 9.43646 28.1681 11.3941C28.0813 11.4937 27.9667 11.5646 27.8393 11.5978C27.712 11.631 27.5776 11.6249 27.4537 11.5803C27.3298 11.5357 27.2221 11.4546 27.1445 11.3476C27.067 11.2406 27.0232 11.1126 27.0189 10.9803C26.9431 8.64841 26.596 8.64841 26.1177 8.64841H24.1445V28.9044Z"
          fill="#266CDD"/>
    <path d="M42.4256 19.5812C42.6312 24.6969 44.9267 26.6355 48.9444 26.6355C51.6904 26.6355 53.5775 25.7286 54.8886 24.6558H56.2419V27.5908C54.6844 28.6577 52.3423 29.8112 48.3304 29.8112C41.7679 29.8112 38.1221 25.6038 38.1221 18.8372C38.1221 11.9472 42.3512 7.65771 47.9206 7.65771C53.5775 7.65771 56.8981 10.9992 56.8981 18.0946C56.8981 18.6728 56.8573 19.4154 56.8573 19.5797L42.4256 19.5812ZM42.5073 16.8179H52.7565C52.6748 12.1556 50.8708 10.5472 47.9192 10.5472C45.1337 10.5458 42.9608 12.2378 42.5087 16.8164L42.5073 16.8179Z"
          fill="#266CDD"/>
    <path d="M48.3304 30.4718C41.5273 30.4718 37.4658 26.1221 37.4658 18.8374C37.4658 11.8667 41.765 6.99756 47.9206 6.99756C50.9831 6.99756 53.3748 7.93236 55.0198 9.77408C56.7027 11.6584 57.5559 14.4584 57.5559 18.0948C57.5559 18.4837 57.5384 18.9475 57.5252 19.2542C57.5252 19.4009 57.5136 19.5257 57.5136 19.58C57.5136 19.7551 57.4444 19.9231 57.3213 20.0469C57.1983 20.1708 57.0314 20.2403 56.8573 20.2403H43.1242C43.4523 24.2496 45.2227 25.9739 48.9458 25.9739C51.1333 25.9739 52.9898 25.3575 54.4758 24.141C54.5931 24.0456 54.7393 23.9938 54.89 23.9942H56.2434C56.4174 23.9942 56.5843 24.0638 56.7074 24.1876C56.8305 24.3115 56.8996 24.4794 56.8996 24.6546V27.5896C56.8988 27.6974 56.8719 27.8034 56.821 27.8983C56.7702 27.9932 56.697 28.0741 56.6079 28.134C55.1525 29.1349 52.704 30.4718 48.3304 30.4718ZM47.9206 8.31244C42.4533 8.31244 38.7783 12.5403 38.7783 18.8315C38.7783 25.3854 42.2594 29.1452 48.3304 29.1452C52.0638 29.1452 54.2411 28.1003 55.5856 27.2242V25.3164H55.1131C53.4186 26.6372 51.3433 27.2961 48.94 27.2961C44.32 27.2961 41.9735 24.7808 41.7665 19.6078C41.7629 19.5189 41.7773 19.4302 41.8087 19.347C41.8401 19.2638 41.8878 19.1879 41.9491 19.1237C42.0104 19.0596 42.084 19.0085 42.1654 18.9737C42.2467 18.9389 42.3343 18.921 42.4227 18.921H56.22C56.2302 18.6569 56.239 18.359 56.239 18.0963C56.2433 11.6085 53.4433 8.31978 47.9206 8.31978V8.31244ZM52.7579 17.4711H42.5087C42.4171 17.4712 42.3265 17.4519 42.2428 17.4146C42.159 17.3772 42.0839 17.3227 42.0224 17.2544C41.9609 17.1861 41.9142 17.1056 41.8854 17.0181C41.8567 16.9306 41.8465 16.8379 41.8554 16.7462C42.414 11.0714 45.4619 9.88121 47.9206 9.88121C51.5358 9.88121 53.3325 12.1441 53.4142 16.8005C53.4157 16.8882 53.3999 16.9753 53.3676 17.0568C53.3353 17.1383 53.2872 17.2125 53.2261 17.2751C53.1651 17.3376 53.0922 17.3873 53.0118 17.4212C52.9314 17.4552 52.8451 17.4726 52.7579 17.4726V17.4711ZM43.2525 16.1504H52.0769C51.8202 11.8066 49.8442 11.2005 47.9206 11.2005C45.319 11.2064 43.7512 12.872 43.2525 16.1563V16.1504Z"
          fill="#266CDD"/>
    <path d="M74.1988 27.1714C72.5946 28.9045 70.6725 29.8129 67.804 29.8129C63.9088 29.8129 61.0811 27.5852 61.0811 23.3779C61.0811 18.9637 64.565 16.8182 69.4038 16.8182C70.9778 16.8048 72.5467 16.9992 74.0704 17.3964V14.5494C74.0704 11.9915 72.5946 10.8806 69.7654 10.8806C67.2236 10.8806 65.2563 11.6643 63.9029 12.6548H62.5904V9.51585C64.9696 8.27088 67.6163 7.63338 70.2977 7.65946C75.3815 7.65946 78.2923 9.51585 78.2923 14.2632V29.5649H76.6531C75.0184 29.5649 74.4452 29.1115 74.1988 27.1714ZM74.0763 24.4492V19.8706C72.7683 19.596 71.4356 19.4578 70.0994 19.4582C67.2294 19.4582 65.1804 20.5309 65.1804 23.127C65.1804 25.8081 66.8619 26.9219 69.1573 26.9219C71.4104 26.9249 72.8454 25.8521 74.0719 24.4492H74.0763Z"
          fill="#266CDD"/>
    <path d="M67.801 30.4714C65.6646 30.4714 63.8446 29.8463 62.5394 28.662C61.154 27.4058 60.4219 25.5802 60.4219 23.379C60.4219 18.8576 63.776 16.1589 69.4008 16.1589C70.7508 16.1463 72.0981 16.2826 73.4185 16.5654V14.5475C73.4185 12.4373 72.3277 11.5362 69.7727 11.5362C67.1069 11.5362 65.3233 12.4329 64.2967 13.1842C64.1843 13.2664 64.049 13.3106 63.9102 13.3104H62.5977C62.4237 13.3104 62.2567 13.2409 62.1337 13.117C62.0106 12.9932 61.9415 12.8252 61.9415 12.6501V9.51546C61.9422 9.3934 61.9765 9.27394 62.0406 9.17031C62.1047 9.06669 62.1961 8.98298 62.3046 8.92846C64.7754 7.6397 67.5221 6.9787 70.305 7.00309C73.1079 7.00309 75.17 7.54607 76.6094 8.66137C78.1669 9.86913 78.9558 11.7534 78.9558 14.2643V29.5645C78.9558 29.7397 78.8867 29.9076 78.7636 30.0315C78.6405 30.1553 78.4736 30.2249 78.2996 30.2249H76.6604C75.0694 30.2249 74.2279 29.7421 73.805 28.4639C72.176 29.8463 70.2802 30.4714 67.801 30.4714ZM69.4052 17.4767C67.101 17.4767 61.7387 18.0519 61.7387 23.376C61.7387 26.992 64.0065 29.1507 67.8054 29.1507C70.3458 29.1507 72.1702 28.4008 73.7204 26.722C73.8053 26.63 73.9145 26.5643 74.0351 26.5326C74.1558 26.5008 74.2829 26.5043 74.4017 26.5427C74.5204 26.581 74.6259 26.6526 74.7056 26.7491C74.7854 26.8455 74.8362 26.9629 74.8521 27.0874C75.0606 28.7354 75.3815 28.9041 76.6604 28.9041H77.6433V14.2584C77.6433 10.1494 75.38 8.31798 70.305 8.31798C67.8619 8.29692 65.4476 8.84965 63.254 9.93223V11.9955H63.7002C64.9062 11.1576 66.8983 10.2213 69.7712 10.2213C73.0627 10.2213 74.7296 11.6786 74.7296 14.5534V17.4004C74.7297 17.5008 74.707 17.5998 74.6633 17.6901C74.6197 17.7803 74.5561 17.8594 74.4775 17.9212C74.3989 17.983 74.3073 18.026 74.2098 18.0469C74.1122 18.0678 74.0112 18.066 73.9144 18.0417C72.4423 17.656 70.9263 17.466 69.4052 17.4767ZM69.1587 27.5834C66.2581 27.5834 64.5256 25.9178 64.5256 23.128C64.5256 20.375 66.5585 18.796 70.1008 18.796C71.4816 18.7951 72.8588 18.9377 74.2104 19.2215C74.3584 19.2523 74.4913 19.3335 74.5866 19.4514C74.682 19.5693 74.7341 19.7167 74.734 19.8687V24.4473C74.7346 24.6095 74.6759 24.7662 74.5692 24.8876C73.4667 26.1423 71.8552 27.5849 69.1558 27.5849L69.1587 27.5834ZM70.1008 20.1167C67.2717 20.1167 65.8381 21.1293 65.8381 23.128C65.8381 25.2075 66.9552 26.2626 69.1587 26.2626C71.2004 26.2626 72.4648 25.2456 73.4215 24.1949V20.4146C72.3251 20.2158 71.2133 20.1161 70.0994 20.1167H70.1008Z"
          fill="#266CDD"/>
    <path d="M83.708 18.7975C83.708 11.8665 88.2172 7.65918 94.2853 7.65918C97.6059 7.65918 99.4916 8.60719 100.721 9.3923V12.6913H98.9986C98.0974 11.7843 96.5793 10.917 94.243 10.917C90.5534 10.917 87.9722 13.7229 87.9722 18.7961C87.9722 23.994 90.3901 26.5929 94.1628 26.5929C96.9511 26.5929 98.4678 25.5202 99.3691 24.5296H100.927V27.582C99.6972 28.5726 97.4426 29.8097 94.0797 29.8097C87.5624 29.8112 83.708 25.6449 83.708 18.7975Z"
          fill="#266CDD"/>
    <path d="M94.0816 30.4718C90.707 30.4718 87.9027 29.3844 85.9733 27.3254C84.0439 25.2665 83.0566 22.3359 83.0566 18.7978C83.0566 15.2758 84.1635 12.2967 86.265 10.1644C88.2716 8.12313 91.1241 6.99756 94.2946 6.99756C97.7581 6.99756 99.7414 7.97785 101.082 8.83194C101.175 8.89153 101.252 8.97389 101.305 9.07138C101.358 9.16887 101.386 9.27833 101.386 9.38959V12.6915C101.386 12.8666 101.317 13.0346 101.194 13.1584C101.071 13.2823 100.904 13.3519 100.73 13.3519H99.0079C98.8339 13.3517 98.6671 13.282 98.5441 13.1581C97.8281 12.4376 96.5025 11.5776 94.2523 11.5776C90.7362 11.5776 88.6362 14.2764 88.6362 18.7963C88.6362 23.3984 90.602 25.9328 94.1706 25.9328C96.2122 25.9328 97.761 25.3282 98.8927 24.0837C98.9542 24.0162 99.029 23.9622 99.1124 23.9253C99.1957 23.8885 99.2858 23.8694 99.3768 23.8695H100.934C101.108 23.8695 101.275 23.939 101.398 24.0629C101.521 24.1867 101.591 24.3547 101.591 24.5298V27.5823C101.59 27.6812 101.568 27.7789 101.526 27.868C101.483 27.9572 101.421 28.0356 101.344 28.0974C100.236 28.9867 97.8295 30.4718 94.0816 30.4718ZM94.2873 8.31244C88.3533 8.31244 84.3706 12.5227 84.3706 18.7904C84.3706 25.2739 88.0033 29.1452 94.086 29.1452C97.1748 29.1452 99.2193 28.0357 100.277 27.2521V25.1917H99.6554C98.2962 26.5609 96.4471 27.255 94.1691 27.255C92.0735 27.255 90.341 26.4992 89.1554 25.0684C87.9391 23.6009 87.3223 21.4906 87.3223 18.7978C87.3223 16.2018 87.9814 14.0357 89.2269 12.533C90.4723 11.0303 92.1975 10.2584 94.2508 10.2584C96.7577 10.2584 98.3414 11.1814 99.2689 12.0326H100.071V9.76087C98.881 9.05353 97.1558 8.31978 94.2858 8.31978L94.2873 8.31244Z"
          fill="#266CDD"/>
    <path d="M106.256 3.20392C106.248 2.87384 106.305 2.54548 106.425 2.23817C106.545 1.93086 106.725 1.65082 106.954 1.41452C107.184 1.17822 107.457 0.990437 107.76 0.862227C108.062 0.734017 108.387 0.667969 108.715 0.667969C109.043 0.667969 109.368 0.734017 109.67 0.862227C109.973 0.990437 110.247 1.17822 110.476 1.41452C110.705 1.65082 110.885 1.93086 111.005 2.23817C111.125 2.54548 111.183 2.87384 111.175 3.20392C111.175 4.52468 110.027 5.59595 108.714 5.59595C107.402 5.59595 106.256 4.52321 106.256 3.20392ZM106.584 29.5647V7.99239H108.917C110.558 7.99239 110.762 8.48694 110.762 11.2106V29.5647H106.584Z"
          fill="#266CDD"/>
    <path d="M110.766 30.2251H106.585C106.411 30.2251 106.244 30.1555 106.121 30.0316C105.998 29.9078 105.928 29.7398 105.928 29.5647V7.99236C105.928 7.81722 105.998 7.64925 106.121 7.52541C106.244 7.40156 106.411 7.33199 106.585 7.33199H108.918C111.308 7.33199 111.419 8.66155 111.419 11.2106V29.5647C111.419 29.7393 111.35 29.9069 111.228 30.0306C111.105 30.1544 110.939 30.2243 110.766 30.2251ZM107.241 28.9043H110.109V11.2062C110.109 8.64834 109.997 8.64834 108.921 8.64834H107.241V28.9043ZM108.717 6.2563C107.028 6.2563 105.6 4.85777 105.6 3.20389C105.591 2.78645 105.665 2.37141 105.818 1.9831C105.97 1.5948 106.198 1.24107 106.489 0.942645C106.779 0.644222 107.125 0.407121 107.508 0.245251C107.89 0.0833808 108.301 0 108.716 0C109.131 0 109.542 0.0833808 109.924 0.245251C110.307 0.407121 110.653 0.644222 110.943 0.942645C111.234 1.24107 111.462 1.5948 111.614 1.9831C111.767 2.37141 111.841 2.78645 111.832 3.20389C111.832 4.85777 110.404 6.2563 108.715 6.2563H108.717ZM108.717 1.38859C108.24 1.39468 107.785 1.58788 107.448 1.92701C107.111 2.26613 106.919 2.72434 106.913 3.20389C106.913 4.1431 107.738 4.93555 108.717 4.93555C109.695 4.93555 110.521 4.14163 110.521 3.20389C110.515 2.72409 110.322 2.26567 109.985 1.9265C109.648 1.58734 109.192 1.3943 108.715 1.38859H108.717Z"
          fill="#266CDD"/>
    <path d="M115.889 7.98963H118.472V2.13135H122.653V7.98963H127.409V10.9599H122.653V23.7492C122.653 26.0179 123.596 26.6842 125.727 26.6842H127.654V29.4064C126.541 29.6868 125.398 29.8254 124.251 29.8188C120.605 29.8188 118.47 28.2926 118.47 24.2423V10.9599H115.888L115.889 7.98963Z"
          fill="#266CDD"/>
    <path d="M124.253 30.4715C119.982 30.4715 117.816 28.3759 117.816 24.242V11.6214H115.89C115.716 11.6214 115.549 11.5519 115.426 11.428C115.303 11.3042 115.233 11.1362 115.233 10.9611V7.98936C115.233 7.81422 115.303 7.64625 115.426 7.5224C115.549 7.39856 115.716 7.32898 115.89 7.32898H117.822V2.13108C117.822 1.95594 117.891 1.78797 118.014 1.66412C118.137 1.54028 118.304 1.4707 118.478 1.4707H122.659C122.833 1.4707 123 1.54028 123.123 1.66412C123.246 1.78797 123.315 1.95594 123.315 2.13108V7.32898H127.415C127.589 7.32898 127.756 7.39856 127.879 7.5224C128.002 7.64625 128.071 7.81422 128.071 7.98936V10.9596C128.071 11.1347 128.002 11.3027 127.879 11.4265C127.756 11.5504 127.589 11.62 127.415 11.62H123.315V23.7489C123.315 25.5304 123.835 26.0177 125.733 26.0177H127.66C127.834 26.0177 128.001 26.0872 128.124 26.2111C128.247 26.3349 128.316 26.5029 128.316 26.678V29.4003C128.316 29.546 128.268 29.6876 128.18 29.8031C128.091 29.9186 127.968 30.0014 127.828 30.0386C126.659 30.3337 125.458 30.4791 124.253 30.4715ZM116.546 10.2992H118.472C118.646 10.2992 118.813 10.3688 118.936 10.4926C119.059 10.6165 119.129 10.7844 119.129 10.9596V24.2434C119.129 27.6378 120.709 29.1523 124.253 29.1523C125.175 29.1553 126.096 29.0633 126.999 28.8778V27.337H125.729C123.114 27.337 121.999 26.2642 121.999 23.7474V10.9596C121.999 10.7844 122.068 10.6165 122.191 10.4926C122.314 10.3688 122.481 10.2992 122.655 10.2992H126.754V8.64974H122.655C122.481 8.64974 122.314 8.58016 122.191 8.45632C122.068 8.33247 121.999 8.1645 121.999 7.98936V2.79146H119.134V7.98936C119.134 8.1645 119.065 8.33247 118.942 8.45632C118.819 8.58016 118.652 8.64974 118.478 8.64974H116.552L116.546 10.2992Z"
          fill="#266CDD"/>
    <path d="M136.509 35.0515L139.461 28.3274L131.427 9.13979V7.98486H135.364L141.473 23.1251H141.514L147.212 7.98486H150.82V9.13979L140.12 36.2431H136.512L136.509 35.0515Z"
          fill="#266CDD"/>
    <path d="M140.117 36.9081H136.509C136.335 36.9081 136.168 36.8386 136.045 36.7147C135.922 36.5909 135.853 36.4229 135.853 36.2478V35.0517C135.853 34.9598 135.871 34.8688 135.908 34.7847L138.746 28.3276L130.822 9.40708C130.788 9.32576 130.77 9.23844 130.771 9.15027V7.99534C130.771 7.8202 130.84 7.65223 130.963 7.52838C131.086 7.40454 131.253 7.33496 131.427 7.33496H135.364C135.495 7.33498 135.623 7.37423 135.731 7.4477C135.839 7.52116 135.923 7.62549 135.972 7.74733L141.473 21.3805L146.599 7.76201C146.646 7.63649 146.73 7.52839 146.84 7.4521C146.95 7.37581 147.08 7.33495 147.213 7.33496H150.821C150.995 7.33496 151.162 7.40454 151.285 7.52838C151.408 7.65223 151.477 7.8202 151.477 7.99534V9.13999C151.477 9.22344 151.461 9.30611 151.431 9.3836L140.731 36.487C140.683 36.6114 140.598 36.7182 140.489 36.7934C140.379 36.8686 140.25 36.9086 140.117 36.9081ZM137.165 35.5874H139.671L150.16 9.01819V8.64985H147.662L142.121 23.3631C142.074 23.4886 141.99 23.5967 141.88 23.673C141.77 23.7492 141.64 23.7901 141.507 23.7901H141.466C141.336 23.7887 141.209 23.7485 141.102 23.6745C140.995 23.6006 140.912 23.4963 140.864 23.3748L134.921 8.64691H132.083V9.00792L140.066 28.0708C140.101 28.1535 140.12 28.2427 140.12 28.3328C140.12 28.4229 140.101 28.512 140.066 28.5947L137.17 35.1985L137.165 35.5874Z"
          fill="#266CDD"/>
</svg>
