<svg width="74" height="74" viewBox="0 0 74 74" fill="none" xmlns="http://www.w3.org/2000/svg">
<g>
<path d="M12.3336 35.7666C16.4206 35.7666 19.7336 32.4535 19.7336 28.3666C19.7336 24.2796 16.4206 20.9666 12.3336 20.9666C8.24664 20.9666 4.93359 24.2796 4.93359 28.3666C4.9376 32.4518 8.24833 35.7625 12.3336 35.7666ZM12.3336 23.4332C15.0582 23.4332 17.2669 25.642 17.2669 28.3666C17.2669 31.0911 15.0582 33.2999 12.3336 33.2999C9.60901 33.2999 7.40026 31.0911 7.40026 28.3666C7.40026 25.642 9.60901 23.4332 12.3336 23.4332Z" fill="#4A81ED" stroke="#4A81ED" stroke-width="0.25"/>
<path d="M9.86615 9.86667C13.2701 9.87068 16.0288 12.6293 16.0328 16.0333C16.0328 16.7144 16.585 17.2667 17.2661 17.2667C17.9473 17.2667 18.4995 16.7144 18.4995 16.0333C18.5035 12.6293 21.2621 9.87068 24.6661 9.86667C25.3473 9.86667 25.8995 9.31444 25.8995 8.63333C25.8995 7.95223 25.3473 7.4 24.6661 7.4C21.2621 7.39599 18.5035 4.63733 18.4995 1.23333C18.4995 0.552225 17.9473 0 17.2661 0C16.585 0 16.0328 0.552225 16.0328 1.23333C16.0288 4.63733 13.2701 7.39599 9.86615 7.4C9.18504 7.4 8.63281 7.95223 8.63281 8.63333C8.63281 9.31444 9.18504 9.86667 9.86615 9.86667ZM17.2661 5.67333C17.9977 6.88585 19.0136 7.90181 20.2261 8.63333C19.0136 9.36485 17.9977 10.3808 17.2661 11.5933C16.5346 10.3808 15.5187 9.36485 14.3061 8.63333C15.5187 7.90181 16.5346 6.88585 17.2661 5.67333Z" fill="#4A81ED" stroke="#4A81ED" stroke-width="0.25"/>
<path d="M59.1993 61.6666C55.7953 61.6626 53.0367 58.9039 53.0327 55.4999C53.0327 54.8188 52.4805 54.2666 51.7993 54.2666C51.1182 54.2666 50.566 54.8188 50.566 55.4999C50.562 58.9039 47.8033 61.6626 44.3993 61.6666C43.7182 61.6666 43.166 62.2188 43.166 62.8999C43.166 63.581 43.7182 64.1333 44.3993 64.1333C47.8033 64.1373 50.562 66.8959 50.566 70.2999C50.566 70.981 51.1182 71.5333 51.7993 71.5333C52.4805 71.5333 53.0327 70.981 53.0327 70.2999C53.0367 66.8959 55.7953 64.1373 59.1993 64.1333C59.8805 64.1333 60.4327 63.581 60.4327 62.8999C60.4327 62.2188 59.8805 61.6666 59.1993 61.6666ZM51.7993 65.8599C51.0678 64.6474 50.0519 63.6315 48.8393 62.8999C50.0519 62.1684 51.0678 61.1525 51.7993 59.9399C52.5309 61.1525 53.5468 62.1684 54.7594 62.8999C53.5468 63.6315 52.5309 64.6474 51.7993 65.8599Z" fill="#4A81ED" stroke="#4A81ED" stroke-width="0.25"/>
<path d="M29.6 24.6667C27.5565 24.6667 25.9 26.3233 25.9 28.3667V33.3001H19.7333V35.7667H27.1333C27.8144 35.7667 28.3667 35.2145 28.3667 34.5334V28.3667C28.3667 27.6856 28.9189 27.1334 29.6 27.1334C30.2811 27.1334 30.8333 27.6856 30.8333 28.3667V37.0001C30.8333 37.6812 30.2811 38.2334 29.6 38.2334H19.7333C19.0522 38.2334 18.5 38.7856 18.5 39.4667V45.6334C18.5 45.9606 18.6301 46.2741 18.8614 46.5054L25.5386 53.1826C25.7702 53.4142 25.9003 53.7284 25.9 54.0558V65.3667C25.9 66.0479 25.3478 66.6001 24.6667 66.6001C23.9856 66.6001 23.4333 66.0479 23.4333 65.3667V55.5001C23.4333 55.1729 23.3032 54.8594 23.072 54.6281L18.1386 49.6948C17.657 49.2133 16.8763 49.2133 16.3947 49.6948L12.6947 53.3948C12.2132 53.8764 12.2132 54.6571 12.6947 55.1387L15.672 58.116C15.9035 58.3475 16.0336 58.6617 16.0333 58.9892V70.3001C16.0333 70.9812 15.4811 71.5334 14.8 71.5334C14.1189 71.5334 13.5667 70.9812 13.5667 70.3001V60.4334C13.5667 60.1063 13.4365 59.7927 13.2053 59.5614L7.76137 54.1175C7.52981 53.886 7.39969 53.5718 7.4 53.2443V49.3334H9.86666C11.9101 49.3334 13.5667 47.6769 13.5667 45.6334C13.5667 43.5899 11.9101 41.9334 9.86666 41.9334H7.4V38.2334H4.93333V43.1667C4.93333 43.8479 5.48556 44.4001 6.16667 44.4001H9.86666C10.5478 44.4001 11.1 44.9523 11.1 45.6334C11.1 46.3145 10.5478 46.8667 9.86666 46.8667H3.7C3.01889 46.8667 2.46667 46.3145 2.46667 45.6334V37.0001C2.46667 36.319 3.01889 35.7667 3.7 35.7667V33.3001C1.65652 33.3001 0 34.9566 0 37.0001V45.6334C0 47.6769 1.65652 49.3334 3.7 49.3334H4.93333V53.2443C4.93087 54.2264 5.32122 55.1688 6.01743 55.8614L11.1 60.944V70.3001C11.1 72.3436 12.7565 74.0001 14.8 74.0001C16.8435 74.0001 18.5 72.3436 18.5 70.3001V58.9892C18.5031 58.007 18.1127 57.0644 17.4159 56.372L15.3106 54.2667L17.2667 52.3107L20.9667 56.0107V65.3667C20.9667 67.4102 22.6232 69.0667 24.6667 69.0667C26.7101 69.0667 28.3667 67.4102 28.3667 65.3667V54.0558C28.3697 53.0736 27.9794 52.1311 27.2826 51.4387L20.9667 45.1228V40.7001H29.6C31.6435 40.7001 33.3 39.0436 33.3 37.0001V28.3667C33.3 26.3233 31.6435 24.6667 29.6 24.6667Z" fill="#4A81ED" stroke="#4A81ED" stroke-width="0.25"/>
<path d="M56.734 14.8C60.8209 14.8 64.134 11.487 64.134 7.4C64.134 3.31304 60.8209 0 56.734 0C52.647 0 49.334 3.31304 49.334 7.4C49.338 11.4853 52.6487 14.796 56.734 14.8ZM56.734 2.46667C59.4586 2.46667 61.6673 4.67541 61.6673 7.4C61.6673 10.1246 59.4586 12.3333 56.734 12.3333C54.0094 12.3333 51.8006 10.1246 51.8006 7.4C51.8006 4.67541 54.0094 2.46667 56.734 2.46667Z" fill="#4A81ED" stroke="#4A81ED" stroke-width="0.25"/>
<path d="M70.2991 12.3333H62.8991V14.8H70.2991C70.9802 14.8 71.5324 15.3522 71.5324 16.0333V23.4333C71.5324 24.1144 70.9802 24.6666 70.2991 24.6666C69.618 24.6666 69.0658 24.1144 69.0658 23.4333V18.5C69.0658 17.8188 68.5135 17.2666 67.8324 17.2666H62.8991C62.218 17.2666 61.6658 17.8188 61.6658 18.5V32.2775C61.6661 32.605 61.5359 32.9192 61.3044 33.1507L57.0938 37.3613C56.6123 37.8429 56.6123 38.6236 57.0938 39.1053L62.7499 44.7613C63.2313 45.2429 63.2313 46.0236 62.7499 46.5053L62.5377 46.7161C62.0561 47.1976 61.2754 47.1976 60.7938 46.7161L53.1817 39.104C52.7002 38.6224 52.7002 37.8417 53.1817 37.3601L56.3711 34.1707C56.8525 33.6891 56.8525 32.9084 56.3711 32.4268L52.6711 28.7268C52.1894 28.2453 51.4087 28.2453 50.9271 28.7268L45.9938 33.6601C45.7622 33.8916 45.6321 34.2058 45.6324 34.5333V44.4C45.6324 45.0811 45.0802 45.6333 44.3991 45.6333C43.718 45.6333 43.1658 45.0811 43.1658 44.4V33.0891C43.1654 32.7616 43.2956 32.4474 43.5271 32.2159L50.2044 25.5386C50.4356 25.3073 50.5658 24.9938 50.5658 24.6666V18.5C50.5658 17.8188 50.0135 17.2666 49.3324 17.2666H41.9324C41.2513 17.2666 40.6991 16.7144 40.6991 16.0333V7.39995C40.6991 6.71884 41.2513 6.16662 41.9324 6.16662C42.6135 6.16662 43.1658 6.71884 43.1658 7.39995V13.5666C43.1658 14.2477 43.718 14.8 44.3991 14.8H49.3324V12.3333H45.6324V7.39995C45.6324 5.35647 43.9759 3.69995 41.9324 3.69995C39.8889 3.69995 38.2324 5.35647 38.2324 7.39995V16.0333C38.2324 18.0768 39.8889 19.7333 41.9324 19.7333H48.0991V24.156L41.7832 30.4719C41.087 31.1646 40.6966 32.107 40.6991 33.0891V44.4C40.6991 46.4434 42.3556 48.1 44.3991 48.1C46.4426 48.1 48.0991 46.4434 48.0991 44.4V35.0439L51.7991 31.3439L53.7552 33.3L51.4377 35.6162C49.9927 37.061 49.9924 39.4037 51.4373 40.8487C51.4374 40.8489 51.4376 40.849 51.4377 40.8492L59.0499 48.4613C60.4947 49.9057 62.8368 49.9057 64.2817 48.4613L64.4938 48.2504C65.9388 46.8056 65.9391 44.4629 64.4943 43.0178C64.4941 43.0177 64.4939 43.0175 64.4938 43.0174L59.7097 38.2333L63.0483 34.8947C63.7452 34.2023 64.1355 33.2597 64.1324 32.2775V19.7333H66.5991V23.4333C66.5991 25.4768 68.2556 27.1333 70.2991 27.1333C72.3426 27.1333 73.9991 25.4768 73.9991 23.4333V16.0333C73.9991 13.9898 72.3426 12.3333 70.2991 12.3333Z" fill="#4A81ED" stroke="#4A81ED" stroke-width="0.25"/>
<path d="M57.9667 6.16675H55.5V9.86675H57.9667V6.16675Z" fill="#4A81ED" stroke="#4A81ED" stroke-width="0.25"/>
<path d="M16.0329 29.5999V25.8999H13.5663V28.3666H11.0996V30.8332H14.7996C15.4807 30.8332 16.0329 30.281 16.0329 29.5999Z" fill="#4A81ED" stroke="#4A81ED" stroke-width="0.25"/>
</g>
</svg>
