<svg width="81" height="81" viewBox="0 0 81 81" fill="none" xmlns="http://www.w3.org/2000/svg">
<g>
<path d="M52.5234 24.0469H28.4766V28.6348H26.1035V33.3809H28.4766V38.2852H26.1035V43.0312H28.4766V47.9355H26.1035V52.6816H28.4766V57.2695H52.5234V52.6816H54.8965V47.9355H52.5234V43.0312H54.8965V38.2852H52.5234V33.3809H54.8965V28.6348H52.5234V24.0469ZM47.7773 43.0312H33.2227V38.2852H47.7773V43.0312ZM47.7773 52.5234H33.2227V47.7773H47.7773V52.5234ZM33.2227 33.5391V28.793H47.7773V33.5391H33.2227Z" fill="#4A81ED" stroke="white" stroke-width="1.25"/>
<path d="M79.6534 49.7403C78.8612 46.7245 77.7377 43.6748 76.3188 40.6399C81.2188 30.1459 82.4238 19.809 79.1257 12.0824C80.2825 10.8161 80.9889 9.13273 80.9889 7.28682C80.9889 3.36202 77.7964 0.16953 73.8716 0.16953C72.0257 0.16953 70.3417 0.875883 69.0754 2.03274C61.3494 -1.26542 51.0125 -0.0603585 40.5185 4.83961C37.4836 3.42073 34.4333 2.29724 31.4182 1.50437C20.7228 -1.30559 11.6644 0.315374 5.91098 6.06878C0.156956 11.8228 -1.46401 20.8812 1.34657 31.5759C2.13882 34.5923 3.26231 37.642 4.6812 40.677C-0.218776 51.1709 -1.42384 61.5072 1.87433 69.2339C0.717465 70.5001 0.0111129 72.1841 0.0111129 74.03C0.0111129 77.9542 3.2036 81.1473 7.1284 81.1473C8.97493 81.1473 10.6589 80.4403 11.9252 79.2829C14.8544 80.5336 18.1575 81.1386 21.7041 81.1386C27.5113 81.1386 33.9661 79.5195 40.4815 76.4772C43.5164 77.8961 46.5667 79.0196 49.5819 79.8118C53.0104 80.7129 56.2703 81.1584 59.3076 81.1584C65.7445 81.1584 71.1803 79.1568 75.089 75.2474C80.843 69.494 82.464 60.435 79.6534 49.7403ZM73.8716 4.91439C75.1799 4.91439 76.244 5.97855 76.244 7.28682C76.244 8.59447 75.1799 9.65863 73.8716 9.65863C72.5633 9.65863 71.4992 8.59447 71.4992 7.28682C71.4992 5.97855 72.5633 4.91439 73.8716 4.91439ZM47.9788 6.93457C55.2586 4.49478 61.8605 4.26736 66.8322 6.24119C66.7815 6.58294 66.7543 6.93148 66.7543 7.28682C66.7543 11.211 69.9474 14.4041 73.8716 14.4041C74.2269 14.4041 74.5755 14.3769 74.9172 14.3269C76.8911 19.2979 76.663 25.8992 74.2238 33.1802C73.994 33.8674 73.7431 34.5565 73.4761 35.2474C70.2984 29.8425 66.2111 24.5847 61.3927 19.7657C56.5743 14.9473 51.3159 10.86 45.9117 7.68233C46.6019 7.41536 47.2916 7.16446 47.9788 6.93457ZM71.0394 40.6442C67.879 46.7678 63.4191 52.8141 58.0377 58.1961C52.6557 63.5775 46.6087 68.0374 40.4858 71.1978C34.3968 68.0597 28.3962 63.63 22.9623 58.1961C17.5284 52.7616 13.0987 46.7616 9.96061 40.672C13.121 34.5491 17.5803 28.5027 22.9623 23.1207C28.3443 17.7393 34.3906 13.2794 40.5142 10.119C46.6032 13.2571 52.6038 17.6868 58.0377 23.1207C63.4716 28.5546 67.9013 34.5546 71.0394 40.6442ZM5.93508 30.3703C3.5713 21.3743 4.75412 13.9357 9.266 9.42441C12.2583 6.43153 16.5378 4.90388 21.7066 4.90388C24.3299 4.90388 27.1831 5.29815 30.2119 6.0935C31.8359 6.52052 33.4723 7.05508 35.1131 7.68665C29.7669 10.8229 24.4893 14.8837 19.6073 19.7657C14.7252 24.6478 10.6645 29.9253 7.52824 35.2715C6.89666 33.6307 6.3621 31.9943 5.93508 30.3703ZM7.1284 76.4024C5.82014 76.4024 4.75597 75.3383 4.75597 74.03C4.75597 72.7217 5.82014 71.6576 7.1284 71.6576C8.43667 71.6576 9.50083 72.7217 9.50083 74.03C9.50083 75.3383 8.43605 76.4024 7.1284 76.4024ZM33.0212 74.3823C25.7408 76.8214 19.1395 77.0495 14.1678 75.0756C14.2185 74.7339 14.2457 74.3853 14.2457 74.03C14.2457 70.1058 11.0526 66.9127 7.1284 66.9127C6.77306 66.9127 6.4239 66.9399 6.08278 66.9906C4.10895 62.0189 4.33636 55.4177 6.77553 48.1372C7.00604 47.4494 7.25694 46.7604 7.52391 46.0695C10.7016 51.4743 14.7889 56.7321 19.6073 61.5511C24.4257 66.3695 29.6835 70.4568 35.0883 73.6345C34.3981 73.9015 33.7084 74.1524 33.0212 74.3823ZM71.734 71.8924C67.2227 76.4037 59.7841 77.5871 50.7882 75.2233C49.1647 74.7963 47.5283 74.2624 45.8888 73.6308C51.2343 70.4945 56.5113 66.4325 61.3927 61.5511C66.2748 56.6691 70.3355 51.3915 73.4718 46.0454C74.1033 47.6855 74.6379 49.3225 75.0649 50.9459C77.4287 59.9425 76.2459 67.3811 71.734 71.8924Z" fill="#4A81ED" stroke="white" stroke-width="1.25"/>
</g>

</svg>
