<svg width="65" height="65" viewBox="0 0 65 65" fill="none" xmlns="http://www.w3.org/2000/svg">
    <path d="M60.2189 6.29032C55.3041 6.29032 50.3923 5.68525 45.6214 4.4925C44.8264 4.29439 44.0068 4.19355 43.1867 4.19355C40.2525 4.19355 37.4743 5.47178 35.5639 7.70063L34.8503 8.53401L29.8264 2.25291C28.6803 0.8211 26.9715 0 25.1379 0C21.8775 0 19.2156 2.61278 19.1347 5.85418L15.171 9.81839L21.2295 12.2418V19.9194C21.2295 24.7763 23.7926 29.0369 27.6288 31.4516H0.261719V65H54.7778V31.4516H51.1653L47.1381 25.0093C53.7146 23.9066 56.7907 16.9411 57.6338 14.6493C60.3617 13.0946 62.6305 10.7521 64.1022 7.80864L64.8614 6.29032H60.2189ZM19.4598 49.4375C19.8391 49.7626 20.241 50.0533 20.6531 50.3277L2.35849 62.0361V34.778L19.4598 49.4375ZM22.7729 51.46C24.2676 52.0805 25.8781 52.4194 27.5198 52.4194C29.1625 52.4194 30.7719 52.0805 32.2667 51.46L50.1471 62.9032H4.89244L22.7729 51.46ZM34.3865 50.3277C34.7986 50.0533 35.2004 49.7626 35.5798 49.4375L52.6811 34.778V62.0361L34.3865 50.3277ZM34.216 47.8455C32.3507 49.4431 29.9739 50.3226 27.5198 50.3226C25.0657 50.3226 22.6889 49.4431 20.8235 47.8465L4.143 33.5484H50.8955L34.216 47.8455ZM49.5948 14.6774H46.3907V16.7742H49.5948C51.3926 16.7742 53.1341 16.4752 54.7727 15.928C53.3143 18.8121 50.3263 23.0645 45.3424 23.0645H39.052V25.1613H44.7613L48.6928 31.4516H34.8585C28.5001 31.4516 23.3262 26.2778 23.3262 19.9194V10.8228L18.9008 9.05258L21.2295 6.72442V6.00519C21.2295 3.84955 22.9822 2.09677 25.1379 2.09677C26.3322 2.09677 27.4445 2.63121 28.1899 3.56339L33.462 10.1537L31.9672 11.8983L33.5582 13.262L37.1575 9.06333C38.6671 7.30185 40.8647 6.29032 43.1867 6.29032C43.8348 6.29032 44.4839 6.37018 45.1141 6.52734C50.0499 7.76103 55.1321 8.3871 60.2189 8.3871H61.3492C58.7513 12.3057 54.3888 14.6774 49.5948 14.6774Z"
          fill="#4A81ED"/>
    <path d="M25.4229 5.24199C25.4229 5.82096 24.9535 6.29038 24.3746 6.29038C23.7956 6.29038 23.3262 5.82096 23.3262 5.24199C23.3262 4.66302 23.7956 4.1936 24.3746 4.1936C24.9535 4.1936 25.4229 4.66302 25.4229 5.24199Z"
          fill="#4A81ED"/>
</svg>
