<svg width="126" height="36" viewBox="0 0 126 36" fill="none" xmlns="http://www.w3.org/2000/svg">
<g clip-path="url(#clip0)">
<path d="M44.3952 32.6146H39.9358L39.5098 23.1914H43.1171L42.8046 30.1883H42.8614L45.1622 23.1914H48.9967L48.8547 30.1601H48.9399L51.0418 23.1914H54.6775L50.8998 32.6146H46.4119L46.4403 26.9155H46.3835L44.3952 32.6146Z" fill="white"/>
<path d="M58.1431 27.0287H59.2225C59.6769 27.0287 60.1882 27.0287 60.6427 27.0005C60.8699 25.7591 60.6711 25.2513 59.8474 25.1949C59.4497 25.1667 59.0236 25.2513 58.7112 25.4206C58.5124 25.5334 58.2851 26.3516 58.1431 27.0287ZM62.8014 30.0193L62.7446 32.1353C61.2676 32.756 59.6201 32.8689 58.484 32.8689C55.3879 32.8689 53.8257 31.3453 54.4222 28.1008C54.7062 26.408 55.5299 24.687 56.1832 24.1228C56.8649 23.5021 58.8248 23.0225 60.3302 23.0225C64.2216 23.0225 64.25 25.1667 63.6535 28.6087C62.6025 28.6651 61.296 28.6933 60.8983 28.6933H57.9727C57.7455 30.0758 58.5692 30.1886 60.2166 30.1886C60.8131 30.1604 61.5516 30.104 62.8014 30.0193Z" fill="white"/>
<path d="M71.0946 27.9597C71.3219 26.6619 71.4355 25.7026 70.3845 25.6462C69.9869 25.618 69.4188 25.7026 68.8791 25.7873L68.0554 30.4142C68.5667 30.4989 69.1064 30.5271 69.6176 30.5271C69.8449 30.5271 70.2141 30.5271 70.3561 30.3578C70.555 30.1039 70.9242 28.8625 71.0946 27.9597ZM74.8156 27.339C74.3611 29.9346 73.3954 31.5992 72.7989 31.9942C71.9184 32.6149 70.3277 32.8406 68.6519 32.8406C67.4873 32.8406 65.5559 32.6713 64.1641 32.2199L66.266 20.3139L69.8733 20.1729L69.5324 22.0913C69.3336 23.0224 69.1632 24.0098 68.9359 24.4613L69.0211 24.6023C69.7312 23.7277 70.8106 22.966 72.2024 22.966C74.1623 22.966 75.4404 23.8688 74.8156 27.339Z" fill="white"/>
<path d="M78.423 32.8406C77.4005 32.8406 76.2927 32.6996 75.043 32.4174C75.185 31.8532 75.6678 30.5836 75.9235 30.0758C77.3153 30.3015 79.4456 30.4143 79.758 30.2732C79.7864 30.245 80.2125 29.6526 79.474 29.4269C78.1958 29.0319 75.8951 28.6087 76.3495 25.9284C76.4916 25.082 77.2017 23.8124 77.6845 23.5303C78.0254 23.3328 79.616 23.0225 80.7238 23.0225C82.0303 23.0225 83.2801 23.1353 84.1322 23.2764C84.047 23.756 83.5926 25.3077 83.4221 25.6181C81.377 25.3359 80.1841 25.3359 79.9 25.4488C79.7864 25.477 79.5592 25.9566 79.8148 26.2105C80.3545 26.7184 83.9618 26.8312 83.5073 29.4551C83.0529 31.966 81.1214 32.8406 78.423 32.8406Z" fill="white"/>
<path d="M89.1888 28.7491C89.1036 29.2005 88.9616 29.8494 89.1036 30.0187C89.2456 30.188 90.0978 30.1597 90.8079 30.1315C90.8079 30.8933 90.6942 31.8807 90.5806 32.4168C90.0409 32.6143 88.8764 32.8118 87.9391 32.8118C86.0928 32.8118 85.0987 32.05 85.4111 30.2444L86.2916 25.1942H84.7578L85.0987 23.3322L86.6893 23.1911L88.0243 20.934L90.6374 20.793L90.2114 23.1911H92.3985L92.0576 25.1942H89.8705L89.1888 28.7491Z" fill="white"/>
<path d="M100.323 23.1911C100.21 23.8118 99.6982 25.5893 99.4994 26.1535C98.7609 26.1253 97.4259 26.1253 96.4034 26.2664L95.2672 32.6143H91.7451L93.4209 23.1911H96.375L96.517 24.7146H96.5454C97.5111 23.7272 98.5905 22.9936 99.3574 22.9936C99.6982 22.9654 100.153 23.0783 100.323 23.1911Z" fill="white"/>
<path d="M101.316 23.1914H104.839L103.163 32.6146H99.6406L101.316 23.1914Z" fill="white"/>
<path d="M111.912 27.7054C112.167 26.3512 112.139 25.4483 110.861 25.4483C110.548 25.4483 110.151 25.4766 109.696 25.5894L108.873 30.1317L109.441 30.1882C110.179 30.2164 110.861 30.2164 111.031 30.1035C111.429 29.8778 111.798 28.4107 111.912 27.7054ZM115.604 27.3386C115.15 29.9907 114.241 31.3731 113.673 31.7963C112.963 32.2759 111.202 32.6145 109.611 32.6145C109.242 32.6145 108.844 32.5863 108.447 32.5863L107.935 35.4922L104.385 35.6333L106.6 23.1913H109.497L109.583 24.6584C110.435 23.6709 111.685 22.9938 113.162 22.9938C114.923 22.9656 116.229 23.8684 115.604 27.3386Z" fill="white"/>
<path d="M120.234 27.0287H121.313C121.768 27.0287 122.279 27.0287 122.733 27.0005C122.961 25.7591 122.762 25.2513 121.938 25.1949C121.541 25.1667 121.114 25.2513 120.802 25.4206C120.603 25.5334 120.376 26.3516 120.234 27.0287ZM124.892 30.0193L124.835 32.1353C123.358 32.756 121.711 32.8689 120.575 32.8689C117.479 32.8689 115.917 31.3453 116.513 28.1008C116.797 26.408 117.649 24.687 118.274 24.1228C118.956 23.5021 120.916 23.0225 122.421 23.0225C126.312 23.0225 126.341 25.1667 125.716 28.6087C124.665 28.6651 123.358 28.6933 122.961 28.6933H120.035C119.808 30.0758 120.632 30.1886 122.279 30.1886C122.876 30.1604 123.642 30.104 124.892 30.0193Z" fill="white"/>
<path d="M102.681 16.4199L107.083 19.2412L101.687 22.0343L102.681 16.4199Z" fill="white"/>
<path d="M31.5286 10.6931L30.7617 9.93136L21.3316 0.592801C20.5647 -0.168954 19.3149 -0.168954 18.5196 0.592801L0.596665 18.3953C-0.170242 19.1853 -0.170242 20.4549 0.596665 21.1884L2.64175 23.248C5.82299 16.0818 16.1336 10.8342 28.3189 10.8342C29.5119 10.8342 30.6765 10.8906 31.8126 10.9752L31.5286 10.6931ZM39.3113 18.3953L35.1643 14.2762C27.7225 16.4204 22.3825 22.2041 22.3825 29.0035C22.3825 31.5144 23.121 33.8843 24.3992 35.9721L29.8527 30.5552L39.2829 21.1884C40.0782 20.4267 40.0782 19.1853 39.3113 18.3953Z" fill="white"/>
<path d="M12.7529 29.0873C12.7529 30.9776 13.1789 32.7832 13.9458 34.4478L8.49227 29.0591C8.49227 28.918 8.46387 28.777 8.46387 28.6359C8.46387 19.4102 19.3426 11.9619 32.7493 11.9619L33.6866 12.8929C22.1262 12.9212 12.7529 20.1719 12.7529 29.0873Z" fill="#FEFEFE"/>
</g>
<defs>
<clipPath id="clip0">
<rect width="126" height="36" fill="white"/>
</clipPath>
</defs>
</svg>
