<svg width="36" height="36" viewBox="0 0 36 36" fill="none" xmlns="http://www.w3.org/2000/svg">
<g>
<path d="M35.8848 15.1572L30.1199 6.36636C29.9899 6.16822 29.769 6.04883 29.532 6.04883H6.49532C6.25886 6.04883 6.03829 6.16766 5.90821 6.36516L0.134006 15.1298C0.106514 15.1677 0.0826777 15.2086 0.0627793 15.2523C-0.0511973 15.5036 -0.00760353 15.7983 0.174225 16.0059L3.10098 19.3476C3.35685 19.6397 3.80094 19.6691 4.09302 19.4133C4.3851 19.1575 4.41449 18.7133 4.15869 18.4213L2.25344 16.2458H11.7105L16.4627 32.4702L11.0926 26.3386C10.8368 26.0464 10.3926 26.017 10.1006 26.2728C9.80851 26.5287 9.77912 26.9728 10.0349 27.2649L17.4733 35.758C17.6067 35.9104 17.7996 35.9979 18.0022 35.9979C18.2048 35.9979 18.3975 35.9104 18.531 35.7579L26.4503 26.7135C26.7062 26.4213 26.6767 25.9771 26.3845 25.7214C26.0923 25.4656 25.6481 25.495 25.3924 25.7872L19.5417 32.4692L24.2937 16.2457H33.7469L29.3747 21.2393C29.1188 21.5314 29.1482 21.9756 29.4405 22.2313C29.5739 22.3482 29.7389 22.4055 29.9033 22.4055C30.0989 22.4055 30.2936 22.3243 30.4325 22.1655L35.8259 16.0058C36.0339 15.7683 36.058 15.4212 35.8848 15.1572ZM2.00903 14.8396L6.49391 8.03192L10.9584 14.8396H2.00903ZM7.79708 7.45501H16.7003L12.2487 14.243L7.79708 7.45501ZM18.0021 8.03396L22.4652 14.8396H13.539L18.0021 8.03396ZM18.0021 32.7235L13.1757 16.2458H22.8285L18.0021 32.7235ZM23.767 14.2607L19.3039 7.45501H28.2302L23.767 14.2607ZM25.0689 14.8396L29.532 8.03396L33.995 14.8396H25.0689Z" fill="white"/>
<path d="M11.0526 22.9936C9.23898 22.9936 7.76348 21.5181 7.76348 19.7045C7.76348 19.3163 7.44869 19.0015 7.06042 19.0015C6.67216 19.0015 6.35737 19.3163 6.35737 19.7045C6.35737 21.5181 4.88186 22.9936 3.06829 22.9936C2.68009 22.9936 2.36523 23.3084 2.36523 23.6967C2.36523 24.0849 2.68009 24.3997 3.06829 24.3997C4.88186 24.3997 6.35737 25.8752 6.35737 27.6888C6.35737 28.0771 6.67223 28.3918 7.06042 28.3918C7.44862 28.3918 7.76348 28.0771 7.76348 27.6888C7.76348 25.8752 9.23898 24.3997 11.0526 24.3997C11.4408 24.3997 11.7556 24.0849 11.7556 23.6967C11.7556 23.3084 11.4408 22.9936 11.0526 22.9936ZM7.06042 25.2197C6.67715 24.6022 6.15487 24.08 5.53745 23.6967C6.15487 23.3134 6.67708 22.7912 7.06042 22.1736C7.4437 22.7911 7.96598 23.3133 8.58339 23.6967C7.96598 24.08 7.44377 24.6021 7.06042 25.2197Z" fill="white"/>
<path d="M35.2972 2.81417C34.1343 2.81417 33.1881 1.86798 33.1881 0.705008C33.1881 0.316742 32.8732 0.00195312 32.485 0.00195312C32.0968 0.00195312 31.7819 0.316742 31.7819 0.705008C31.7819 1.86798 30.8358 2.81417 29.6728 2.81417C29.2846 2.81417 28.9697 3.12896 28.9697 3.51723C28.9697 3.90549 29.2846 4.22028 29.6728 4.22028C30.8358 4.22028 31.7819 5.16648 31.7819 6.32944C31.7819 6.71771 32.0968 7.0325 32.485 7.0325C32.8732 7.0325 33.1881 6.71771 33.1881 6.32944C33.1881 5.16648 34.1343 4.22028 35.2972 4.22028C35.6854 4.22028 36.0003 3.90549 36.0003 3.51723C36.0003 3.12896 35.6854 2.81417 35.2972 2.81417ZM32.485 4.22246C32.2844 3.95541 32.0468 3.71783 31.7798 3.51723C32.0468 3.31662 32.2844 3.07904 32.485 2.81199C32.6856 3.07904 32.9232 3.31662 33.1902 3.51723C32.9232 3.71776 32.6855 3.95541 32.485 4.22246Z" fill="white"/>
<path d="M28.3211 23.581C28.1904 23.4495 28.009 23.375 27.8241 23.375C27.6392 23.375 27.4586 23.4495 27.3271 23.581C27.1963 23.7118 27.1211 23.8932 27.1211 24.0781C27.1211 24.2629 27.1963 24.4443 27.3271 24.5751C27.4579 24.7059 27.6392 24.7811 27.8241 24.7811C28.0091 24.7811 28.1904 24.7059 28.3211 24.5751C28.4519 24.4443 28.5272 24.2629 28.5272 24.0781C28.5272 23.8932 28.452 23.7118 28.3211 23.581Z" fill="white"/>
</g>
<defs>

</defs>
</svg>
