<svg width="65" height="65" viewBox="0 0 65 65" fill="none" xmlns="http://www.w3.org/2000/svg">
<g>
<path d="M21.0888 22.6912H12.3262C11.4107 22.6912 10.6914 23.4105 10.6914 24.326C10.6914 25.1761 11.4107 25.9608 12.3262 25.9608H21.0888C22.0043 25.9608 22.7236 25.2415 22.7236 24.326C22.7236 23.4105 22.0043 22.6912 21.0888 22.6912Z" fill="#4A81ED"/>
<path d="M21.0888 29.2959H12.3262C11.4107 29.2959 10.6914 30.0152 10.6914 30.9307C10.6914 31.8462 11.4107 32.5655 12.3262 32.5655H21.0888C22.0043 32.5655 22.7236 31.8462 22.7236 30.9307C22.7236 30.0152 22.0043 29.2959 21.0888 29.2959Z" fill="#4A81ED"/>
<path d="M63.7241 34.5272C63.5933 32.6962 63.0701 30.7344 62.2854 28.7726C61.5007 26.7455 60.3891 24.7837 59.212 22.8873C59.212 22.8219 59.1466 22.8219 59.1466 22.7565C58.1657 21.2525 57.0541 19.8139 55.9424 18.4406C53.1959 15.3018 50.1225 12.7515 47.4414 11.5744H47.376H47.3106C47.2452 11.5744 47.1798 11.5091 47.1144 11.5091C47.1144 11.5091 47.1144 11.5091 47.049 11.5091C46.9836 11.5091 46.8528 11.5091 46.7875 11.5091C46.7221 11.5091 46.5913 11.5091 46.5259 11.5091C46.5259 11.5091 46.5259 11.5091 46.4605 11.5091C46.3951 11.5091 46.2643 11.5744 46.1989 11.5744C46.1989 11.5744 46.1989 11.5744 46.1335 11.5744C46.0681 11.6398 46.0027 11.6398 45.872 11.7052C45.8066 11.7706 45.7412 11.836 45.6758 11.9014C45.6758 11.9014 45.6758 11.9668 45.6104 11.9668C45.545 12.0322 45.545 12.0976 45.4796 12.163C45.4796 12.163 45.4796 12.2284 45.4142 12.2284C45.4142 12.2938 45.3488 12.2938 45.3488 12.3592C45.3488 12.3592 45.3488 12.3592 45.3488 12.4245C45.2834 12.5553 45.2834 12.6861 45.2834 12.8169C45.2834 12.8823 45.2834 12.8823 45.2834 12.9477C45.2834 13.0785 45.2834 13.1439 45.2834 13.2746V13.34C46.2643 18.7022 43.5832 22.1026 40.9675 25.3068C40.9021 25.3722 40.8367 25.503 40.706 25.5684C39.7251 26.7455 38.7442 27.9879 37.8941 29.2304C36.2593 31.7807 35.6707 34.3964 35.8669 36.8159C36.0631 38.7777 36.717 40.6087 37.7633 42.1781C38.8096 43.7475 40.1828 45.1207 41.883 46.167C43.714 47.3441 45.872 48.1288 48.1607 48.4557C47.7683 51.9869 46.1989 55.1911 43.7794 57.5453C41.0983 60.2264 37.371 61.8612 33.2512 61.8612C29.1315 61.8612 25.3388 60.161 22.6577 57.4799C19.9766 54.7988 18.2764 51.006 18.2764 46.8863V46.8209V37.5352H23.3116C25.3388 37.5352 27.1697 36.6851 28.4776 35.3773C29.7854 34.0694 30.6355 32.2384 30.6355 30.2113V19.8793C30.7663 19.7485 30.8971 19.6177 31.0279 19.4869C31.8126 18.7022 32.2703 17.7213 32.2703 16.5443C32.2703 15.3672 31.8126 14.3863 31.0279 13.6016C30.2432 12.8169 29.2623 12.3592 28.0852 12.3592H26.2543V4.05433C26.2543 2.94266 25.7965 1.89638 25.0772 1.17706C24.3579 0.457746 23.3116 0 22.1999 0C21.0883 0 20.042 0.457746 19.3227 1.17706C18.6033 1.89638 18.1456 2.94266 18.1456 4.05433V12.4245H15.3337V4.05433C15.3337 2.94266 14.876 1.89638 14.1567 1.17706C13.4374 0.457746 12.3911 0 11.2794 0C10.1677 0 9.12146 0.457746 8.40214 1.17706C7.68283 1.89638 7.22508 2.94266 7.22508 4.05433V12.4245H5.39409C4.21703 12.4245 3.23615 12.8823 2.45144 13.667C1.66673 14.4517 1.20898 15.4326 1.20898 16.6097C1.20898 17.7867 1.66673 18.7676 2.45144 19.5523C2.51683 19.6831 2.64762 19.8139 2.84379 19.8793V30.2113C2.84379 32.2384 3.69389 34.0694 5.00174 35.3773C6.30959 36.6851 8.14057 37.5352 10.1677 37.5352H15.2029V46.8209V46.8863C15.2029 51.8561 17.2301 56.4336 20.4997 59.7032C23.7693 62.9728 28.2814 65 33.3166 65C38.2864 65 42.7985 62.9728 46.0681 59.7686C49.0108 56.826 50.9726 52.9678 51.3649 48.5865C53.1959 48.4557 54.7653 48.0634 56.2039 47.4748C58.9504 46.3632 60.9776 44.5976 62.22 42.3088C63.4625 40.0855 63.9856 37.4044 63.7241 34.5272ZM21.219 4.05433C21.219 3.79276 21.3498 3.53119 21.4806 3.33501C21.6768 3.13883 21.873 3.07344 22.1999 3.07344C22.4615 3.07344 22.7231 3.20423 22.9192 3.33501C23.1154 3.53119 23.1808 3.72736 23.1808 4.05433V12.4245H21.219V4.05433ZM10.2331 4.05433C10.2331 3.79276 10.3639 3.53119 10.4947 3.33501C10.6909 3.13883 10.8871 3.07344 11.214 3.07344C11.4756 3.07344 11.7372 3.20423 11.9333 3.33501C12.1295 3.53119 12.1949 3.72736 12.1949 4.05433V12.4245H10.2331V4.05433ZM4.60939 17.329C4.41321 17.1328 4.28242 16.8712 4.28242 16.6097C4.28242 16.3481 4.41321 16.0865 4.60939 15.8903C4.80556 15.6942 5.06713 15.5634 5.3287 15.5634H28.0852C28.3468 15.5634 28.6084 15.6942 28.8046 15.8903C29.0007 16.0865 29.1315 16.3481 29.1315 16.6097C29.1315 16.8712 29.0007 17.1328 28.8046 17.329C28.6084 17.5252 28.3468 17.6559 28.0852 17.6559H5.3287C5.06713 17.6559 4.80556 17.5252 4.60939 17.329ZM10.1677 34.4618C8.99067 34.4618 7.9444 34.004 7.15969 33.2193C6.37498 32.4346 5.91723 31.3883 5.91723 30.2113V20.7294H27.4967V30.2113C27.4967 31.3883 27.039 32.4346 26.2543 33.2193C25.5349 34.004 24.4233 34.4618 23.3116 34.4618H10.1677ZM53.5229 20.4678C54.373 21.4487 55.1577 22.4296 55.877 23.4759L54.2422 25.1761C53.5229 22.6911 52.6074 20.4678 51.6919 18.506C52.3458 19.0946 52.9343 19.7485 53.5229 20.4678ZM49.0108 45.5131C46.9836 45.3169 45.1526 44.663 43.5178 43.6167C42.2754 42.7666 41.1637 41.7203 40.379 40.4779C39.5943 39.3008 39.0712 37.9276 39.0058 36.5543C38.875 34.7887 39.3327 32.827 40.5752 30.9306C41.0329 30.2113 41.5561 29.4919 42.1446 28.838L51.4303 40.8048C50.9072 42.3742 50.0571 44.0091 49.0108 45.5131ZM52.3458 36.8813L44.1064 26.3531C45.9374 24.0644 47.6376 21.6449 48.2915 18.5714C49.5993 21.1217 51.038 24.5875 51.8881 28.3803C51.8881 28.5111 51.9534 28.6418 51.9534 28.7726C52.4766 31.3883 52.6728 34.1348 52.3458 36.8813ZM59.4736 40.7394C58.5581 42.3742 57.0541 43.7475 55.0269 44.5322C54.373 44.7938 53.6536 44.9899 52.8689 45.1861C53.6536 43.8129 54.1768 42.3742 54.6345 41.001C54.6345 40.9356 54.6345 40.9356 54.6345 40.8702C55.877 36.7505 55.8116 32.6308 55.0923 28.7726L57.5772 26.1569C58.2965 27.3994 58.885 28.6418 59.4082 29.8843C60.0621 31.5191 60.4545 33.1539 60.5852 34.7233C60.7814 37.0121 60.3891 39.0392 59.4736 40.7394Z" fill="#4A81ED"/>
</g>

</svg>
