<svg width="77" height="77" viewBox="0 0 77 77" fill="none" xmlns="http://www.w3.org/2000/svg">
<g>
<path d="M0.938578 52.9014L16.8487 56.6154V70.852C16.8451 70.8917 16.8246 70.9278 16.8246 70.9687C16.8246 73.6324 18.9927 75.8005 21.6564 75.8005C21.6817 75.8005 21.7021 75.7872 21.7274 75.786H52.8751C52.9004 75.7872 52.9208 75.8005 52.9461 75.8005C55.6098 75.8005 57.7778 73.6324 57.7778 70.9687C57.7778 70.911 57.7526 70.8604 57.7453 70.8051V56.6142L72.1973 53.2419V58.7907L69.8391 67.0513C69.8223 67.1079 69.8331 67.1632 69.8259 67.221C69.8175 67.2763 69.7934 67.3244 69.7934 67.3822C69.7934 67.4075 69.8067 67.4279 69.8079 67.4532C69.8139 67.5386 69.8343 67.618 69.8572 67.6986C69.8776 67.7708 69.8921 67.8406 69.9258 67.9056C69.9595 67.9753 70.0052 68.0319 70.0521 68.0932C70.099 68.1558 70.1411 68.2184 70.2001 68.2689C70.2542 68.3182 70.318 68.3519 70.3806 68.3916C70.4527 68.4349 70.5201 68.477 70.6007 68.5059C70.6248 68.5143 70.6416 68.5324 70.6669 68.5396C70.7764 68.5697 70.8859 68.5841 70.9941 68.5853H70.9966H75.7898H75.7922C75.9005 68.5841 76.01 68.5709 76.1183 68.5396C76.1435 68.5324 76.1604 68.5143 76.1844 68.5059C76.2638 68.4782 76.3324 68.4361 76.4046 68.3928C76.4684 68.3543 76.5321 68.3182 76.5863 68.2689C76.644 68.2172 76.6873 68.157 76.7331 68.0944C76.78 68.0319 76.8269 67.9741 76.8606 67.9056C76.8919 67.8394 76.9087 67.7684 76.9292 67.695C76.952 67.6156 76.9725 67.5386 76.9773 67.4544C76.9797 67.4291 76.9929 67.4075 76.9929 67.381C76.9929 67.322 76.9677 67.2727 76.9604 67.2162C76.952 67.1608 76.9629 67.1067 76.9472 67.0513L74.6035 58.7907V51.7283C74.6035 51.4528 74.4952 51.2098 74.3388 51.0065C74.3304 50.9956 74.3244 50.9824 74.3148 50.9728C74.2486 50.8934 74.1728 50.8284 74.0886 50.767C74.0525 50.7406 74.0152 50.7153 73.9767 50.6912C73.9021 50.6503 73.8275 50.6178 73.7445 50.5938C73.7132 50.583 73.688 50.5637 73.6555 50.5565L37.5617 42.1346C37.3812 42.0925 37.1948 42.0925 37.0143 42.1346L0.938578 50.5577C0.394766 50.684 0.00976562 51.1701 0.00976562 51.7295C0.00976562 52.289 0.394766 52.7738 0.938578 52.9014ZM55.3583 71.0878C55.2946 72.3583 54.2563 73.3738 52.9749 73.3906C52.9545 73.3894 52.9401 73.3786 52.9196 73.3786H21.6564C21.6395 73.3786 21.6263 73.387 21.6095 73.3882C20.3257 73.3629 19.2874 72.3355 19.2405 71.0565C19.2417 71.0313 19.255 71.0108 19.255 70.9843V57.1761L37.0143 61.3221C37.1045 61.3437 37.196 61.3533 37.2886 61.3533C37.3812 61.3533 37.4715 61.3425 37.5629 61.3221L55.3379 57.1749V70.9843C55.3367 71.0204 55.3547 71.0517 55.3583 71.0878ZM73.3944 63.3565L74.1957 66.1791H72.5895L73.3944 63.3565ZM37.2874 44.5409L68.085 51.7295L37.2874 58.9158L6.50424 51.7295L37.2874 44.5409Z" fill="#4A81ED" stroke="#4A81ED"/>
<path d="M51.7441 68.5879H22.8691C22.2038 68.5879 21.666 69.1257 21.666 69.791C21.666 70.4563 22.2038 70.9941 22.8691 70.9941H51.7441C52.4095 70.9941 52.9473 70.4563 52.9473 69.791C52.9473 69.1257 52.4095 68.5879 51.7441 68.5879Z" fill="#4A81ED" stroke="#4A81ED"/>
<path d="M37.2949 1.20068C27.3439 1.20068 19.248 9.29651 19.248 19.2476C19.248 28.0448 25.4646 35.4428 34.0862 36.9876L36.4443 39.3458C36.6789 39.5804 36.9869 39.6983 37.2949 39.6983C37.6029 39.6983 37.9109 39.5804 38.1455 39.3458L40.5037 36.9876C49.1253 35.4428 55.3418 28.0436 55.3418 19.2476C55.3418 9.29651 47.2472 1.20068 37.2949 1.20068ZM39.7373 34.6764C39.4858 34.7161 39.2536 34.8352 39.0731 35.0145L37.2937 36.7939L35.5143 35.0145C35.335 34.8352 35.1016 34.7161 34.8502 34.6764C27.2031 33.4733 21.6519 26.9836 21.6519 19.2476C21.6519 10.6236 28.6685 3.60693 37.2925 3.60693C45.9165 3.60693 52.9331 10.6236 52.9331 19.2476C52.9356 26.9848 47.3855 33.4733 39.7373 34.6764Z" fill="#4A81ED" stroke="#4A81ED"/>
<path d="M32.1165 14.7803C31.6461 14.3099 30.8857 14.3099 30.4153 14.7803L26.8059 18.3897C26.3355 18.8601 26.3355 19.6205 26.8059 20.0909L30.4153 23.7003C30.6499 23.9349 30.9579 24.0528 31.2659 24.0528C31.5739 24.0528 31.8819 23.9349 32.1165 23.7003C32.587 23.2298 32.587 22.4695 32.1165 21.9991L29.3578 19.2403L32.1165 16.4815C32.587 16.0123 32.587 15.2507 32.1165 14.7803Z" fill="#4A81ED" stroke="#4A81ED"/>
<path d="M44.1556 14.7803C43.6852 14.3099 42.9248 14.3099 42.4544 14.7803C41.984 15.2507 41.984 16.0111 42.4544 16.4815L45.2131 19.2403L42.4544 21.9991C41.984 22.4695 41.984 23.2298 42.4544 23.7003C42.689 23.9349 42.997 24.0528 43.305 24.0528C43.613 24.0528 43.921 23.9349 44.1556 23.7003L47.765 20.0909C48.2354 19.6205 48.2354 18.8601 47.765 18.3897L44.1556 14.7803Z" fill="#4A81ED" stroke="#4A81ED"/>
<path d="M40.1378 12.1058C39.5242 11.8603 38.8204 12.1575 38.5737 12.7771L33.76 24.8132C33.5134 25.4304 33.8142 26.1306 34.4314 26.3772C34.5769 26.4362 34.7285 26.4627 34.8777 26.4627C35.3542 26.4627 35.8065 26.1775 35.9954 25.7059L40.8091 13.6698C41.0558 13.0526 40.755 12.3524 40.1378 12.1058Z" fill="#4A81ED" stroke="#4A81ED"/>
</g>

</svg>
