<svg width="18" height="19" viewBox="0 0 18 19" fill="none" xmlns="http://www.w3.org/2000/svg">
    <g>
        <path d="M11.2523 9.4229C16.4354 6.05482 16.9021 5.5881 17.0571 5.4331C18.1511 4.33917 18.1511 2.55921 17.0571 1.46541C15.9633 0.371478 14.1835 0.371478 13.0894 1.46541C12.9343 1.62067 12.4675 2.08767 9.09979 7.27026C5.73211 2.08753 5.26526 1.62041 5.11013 1.46528C4.01619 0.371344 2.23637 0.371344 1.14244 1.46514C0.0485033 2.55908 0.0483693 4.3389 1.1423 5.43284C1.29743 5.5881 1.76469 6.05509 6.94702 9.42276C1.76429 12.7906 1.2973 13.2574 1.14217 13.4126C0.612216 13.9424 0.320313 14.6469 0.320313 15.3963C0.320313 16.1458 0.612082 16.8503 1.1419 17.3802C1.67186 17.9102 2.37636 18.202 3.12575 18.202H3.12588C3.87527 18.202 4.57977 17.9102 5.10973 17.3802C5.26485 17.2251 5.73185 16.758 9.09966 11.5755C12.4673 16.7584 12.9342 17.2254 13.0893 17.3805C13.6363 17.9275 14.3546 18.201 15.0732 18.201C15.7916 18.201 16.51 17.9275 17.057 17.3806C18.1509 16.2868 18.1509 14.5069 17.0571 13.413C16.9019 13.2577 16.4348 12.7907 11.2523 9.4229ZM8.41377 9.4229C8.41377 9.04472 8.72148 8.73701 9.09966 8.73701C9.47783 8.73701 9.78554 9.04472 9.78554 9.4229C9.78554 9.80107 9.47783 10.1088 9.09966 10.1088C8.72148 10.1088 8.41377 9.80107 8.41377 9.4229ZM14.0595 2.43543C14.6185 1.87627 15.5282 1.87627 16.0873 2.43543C16.6463 2.99446 16.6463 3.90406 16.0873 4.46308C15.9316 4.61875 15.0926 5.28762 10.7075 8.14101C10.6113 8.02058 10.502 7.91127 10.3817 7.81522C13.2344 3.43077 13.9038 2.5911 14.0595 2.43543ZM2.11232 2.43516C2.67148 1.87614 3.58108 1.87627 4.14011 2.4353C4.29577 2.59096 4.96478 3.4301 7.81777 7.81508C7.69747 7.91127 7.58816 8.02058 7.49198 8.14088C3.1078 5.28816 2.26812 4.61875 2.11232 4.46295C1.5533 3.90379 1.5533 2.99419 2.11232 2.43516ZM4.13971 16.4102C3.86884 16.6811 3.50888 16.8302 3.12588 16.8302C2.74288 16.8302 2.38279 16.681 2.11206 16.4102C1.84118 16.1394 1.69208 15.7794 1.69208 15.3964C1.69208 15.0134 1.84118 14.6533 2.11206 14.3826C2.26772 14.2268 3.10699 13.5578 7.49198 10.7048C7.58803 10.8252 7.69734 10.9344 7.81764 11.0306C4.96491 15.4149 4.29551 16.2546 4.13971 16.4102ZM16.087 16.4106C15.528 16.9697 14.6184 16.9695 14.0593 16.4105C13.9037 16.2548 13.2345 15.4157 10.3815 11.0307C10.502 10.9345 10.6113 10.8252 10.7073 10.7049C15.0916 13.5576 15.9313 14.227 16.0871 14.3828C16.6461 14.942 16.646 15.8516 16.087 16.4106ZM16.307 11.1355C16.4377 10.5856 16.5072 10.0122 16.5072 9.4229C16.5072 8.8336 16.4377 8.26037 16.3071 7.71046C16.8794 7.31407 17.2504 7.044 17.4988 6.8535C17.7492 7.67563 17.879 8.53928 17.879 9.4229C17.879 10.3066 17.7492 11.1703 17.4988 11.9924C17.2504 11.8019 16.8794 11.5319 16.307 11.1355ZM7.38735 2.21547C6.99109 1.64305 6.72102 1.27197 6.53053 1.02361C7.35252 0.773364 8.21604 0.643555 9.09966 0.643555C9.98327 0.643555 10.8469 0.773364 11.669 1.02361C11.4786 1.27197 11.2085 1.64305 10.8121 2.21547C10.2622 2.08485 9.68895 2.01533 9.09966 2.01533C8.51049 2.01533 7.93727 2.08485 7.38735 2.21547ZM1.89236 7.71033C1.76175 8.26024 1.69208 8.8336 1.69208 9.4229C1.69208 10.0121 1.76175 10.5853 1.89222 11.1352C1.31994 11.5315 0.948863 11.8015 0.700363 11.992C0.450122 11.17 0.320312 10.3065 0.320312 9.4229C0.320312 8.53915 0.450122 7.6755 0.700631 6.85337C0.948997 7.04386 1.31994 7.31393 1.89236 7.71033ZM10.812 16.6303C11.2084 17.2027 11.4784 17.5738 11.6689 17.8222C10.8469 18.0724 9.98327 18.2022 9.09966 18.2022C8.21591 18.2022 7.35225 18.0724 6.53013 17.8221C6.72062 17.5737 6.99069 17.2026 7.38708 16.6302C7.937 16.7609 8.51036 16.8305 9.09966 16.8305C9.68895 16.8305 10.2622 16.7609 10.812 16.6303Z"
              fill="#4A81ED"/>
    </g>
</svg>
