<svg width="32" height="30" viewBox="0 0 32 30" fill="none" xmlns="http://www.w3.org/2000/svg">
    <g>
        <path fill-rule="evenodd" clip-rule="evenodd"
              d="M1 11.6325L10.9358 9.53544L16 0.734375L21.0642 9.53544L31 11.6325L24.1942 19.1684L25.2703 29.2657L16 25.1219L6.72973 29.2657L7.80578 19.1684L1 11.6325Z"
              fill="white"/>
        <path d="M10.9358 9.53544L11.1423 10.5139C11.4206 10.4552 11.6607 10.2807 11.8025 10.0342L10.9358 9.53544ZM1 11.6325L0.793491 10.654C0.443414 10.7279 0.159487 10.9832 0.0489341 11.3235C-0.0616183 11.6638 0.0180514 12.0372 0.257856 12.3027L1 11.6325ZM16 0.734375L16.8668 0.235635C16.6883 -0.0744759 16.3578 -0.265625 16 -0.265625C15.6422 -0.265625 15.3117 -0.0744754 15.1332 0.235636L16 0.734375ZM21.0642 9.53544L20.1975 10.0342C20.3393 10.2807 20.5795 10.4552 20.8577 10.5139L21.0642 9.53544ZM31 11.6325L31.7422 12.3027C31.982 12.0372 32.0616 11.6638 31.9511 11.3235C31.8405 10.9832 31.5566 10.7279 31.2065 10.654L31 11.6325ZM24.1942 19.1684L23.4521 18.4981C23.2615 18.7092 23.1697 18.9915 23.1999 19.2744L24.1942 19.1684ZM25.2703 29.2657L24.8622 30.1787C25.1888 30.3247 25.5686 30.2851 25.8581 30.0748C26.1475 29.8645 26.3026 29.5155 26.2647 29.1598L25.2703 29.2657ZM16 25.1219L16.4081 24.209C16.1484 24.0929 15.8516 24.0929 15.5919 24.209L16 25.1219ZM6.72973 29.2657L5.73536 29.1598C5.69745 29.5155 5.8525 29.8645 6.14196 30.0748C6.43142 30.2851 6.81118 30.3247 7.13782 30.1787L6.72973 29.2657ZM7.80578 19.1684L8.80015 19.2744C8.83029 18.9915 8.73856 18.7092 8.54792 18.4981L7.80578 19.1684ZM10.7293 8.557L0.793491 10.654L1.20651 12.6109L11.1423 10.5139L10.7293 8.557ZM15.1332 0.235636L10.069 9.03671L11.8025 10.0342L16.8668 1.23311L15.1332 0.235636ZM21.931 9.0367L16.8668 0.235635L15.1332 1.23311L20.1975 10.0342L21.931 9.0367ZM31.2065 10.654L21.2708 8.557L20.8577 10.5139L30.7935 12.6109L31.2065 10.654ZM24.9364 19.8386L31.7422 12.3027L30.2579 10.9622L23.4521 18.4981L24.9364 19.8386ZM26.2647 29.1598L25.1886 19.0624L23.1999 19.2744L24.2759 29.3717L26.2647 29.1598ZM15.5919 26.0349L24.8622 30.1787L25.6784 28.3528L16.4081 24.209L15.5919 26.0349ZM7.13782 30.1787L16.4081 26.0349L15.5919 24.209L6.32165 28.3528L7.13782 30.1787ZM6.81141 19.0624L5.73536 29.1598L7.7241 29.3717L8.80015 19.2744L6.81141 19.0624ZM0.257856 12.3027L7.06363 19.8386L8.54792 18.4981L1.74214 10.9622L0.257856 12.3027Z"
              fill="black"/>
    </g>
</svg>
