<svg width="28" height="28" viewBox="0 0 28 28" fill="none" xmlns="http://www.w3.org/2000/svg">
    <path d="M0.345065 27.6523L0.344733 27.652C0.0517556 27.359 0.0517556 26.8841 0.344733 26.5911L13.178 13.7578C13.471 13.4648 13.946 13.4648 14.2389 13.7578C14.5319 14.0508 14.5319 14.526 14.2389 14.819L1.40589 27.652C1.25874 27.7992 1.06687 27.8722 0.874776 27.8722C0.682367 27.8722 0.490723 27.7991 0.345065 27.6523Z"
          fill="white" stroke="#5FB452" stroke-width="0.25"/>
    <path d="M12.2221 5.2582C16.3085 2.32425 21.2999 0.596927 27.0633 0.127108C27.2894 0.113104 27.5017 0.190142 27.6555 0.343954C27.8115 0.499965 27.8904 0.715755 27.8724 0.934711L27.8724 0.934769C27.2304 8.81517 24.9889 13.9997 20.1363 18.8524L20.1362 18.8524C16.7137 22.2807 13.16 23.9397 9.17066 23.9397C7.8742 23.9397 6.52978 23.765 5.12683 23.4172C4.85683 23.3502 4.64587 23.139 4.58005 22.8695L4.57997 22.8692C3.92779 20.2291 3.88069 17.8112 4.45429 15.5311C5.02792 13.2509 6.22421 11.1009 8.06982 8.99952C8.22359 8.8257 8.44949 8.73254 8.68329 8.74634C8.91523 8.76244 9.12695 8.88458 9.25696 9.07849C9.68386 9.71568 10.1284 10.503 10.4307 11.3583L10.5297 11.6386L10.6607 11.3717C11.4123 9.84057 12.1784 7.7561 11.917 5.97611L11.9169 5.97596C11.876 5.69918 11.994 5.42122 12.2219 5.25835L12.2221 5.2582ZM5.91491 21.9877L5.93196 22.0662L6.01048 22.0833C8.49734 22.6245 10.7586 22.5621 12.9036 21.856C15.0477 21.1502 17.0671 19.804 19.0754 17.7911C23.4369 13.4296 25.5626 8.75392 26.2814 1.85744L26.2975 1.70312L26.1433 1.72024C21.2924 2.2588 17.0476 3.75699 13.5099 6.18515L13.4517 6.22508L13.4559 6.29551C13.5649 8.15904 12.8868 10.1568 12.1567 11.7213C11.4279 13.2828 10.6551 14.3968 10.5909 14.4879C10.3861 14.7787 10.0059 14.885 9.6795 14.7459C9.35266 14.6048 9.17082 14.2551 9.24187 13.907C9.44557 12.9173 9.06204 11.8183 8.62414 10.9567L8.53473 10.7807L8.41388 10.9367C5.78608 14.3295 5.00646 17.8053 5.91491 21.9877Z"
          fill="white" stroke="#5FB452" stroke-width="0.25"/>
</svg>
