<svg width="100" height="72" viewBox="0 0 100 72" fill="none" xmlns="http://www.w3.org/2000/svg">
    <path d="M9.7002 0L19.2002 14L14.9002 22.2L5.2002 8L9.7002 0Z" fill="url(#f1)"/>
    <path d="M36.5 13.1001L45.8 27.0001L41.9 35.4001L32.5 21.3001L36.5 13.1001Z" fill="url(#f2)"/>
    <path d="M19.2004 14.0001L36.5004 13.1001L32.5004 21.3001L14.9004 22.2001L19.2004 14.0001Z"
          fill="url(#f3)"/>
    <path d="M63.7 26.3L72.6 40.1L69.1 48.7L60 34.8L63.7 26.3Z" fill="url(#f4)"/>
    <path d="M45.8004 27L63.7004 26.3L60.0004 34.8L41.9004 35.4L45.8004 27Z" fill="url(#f5)"/>
    <path d="M87.8 48.4L69.1 48.7L60 34.8L41.9 35.4L32.5 21.3L14.9 22.2L5.20001 8L0 18.8L9.59998 32.6L26.7 31.9L36 45.6L53.6 45.2L62.6 58.7L80.8 58.5L89.5 72L96.6 62.2L87.8 48.4Z"
          fill="url(#f6)"/>
    <path d="M90.9998 39.6001L99.6998 53.4001L96.5998 62.2001L87.7998 48.4001L90.9998 39.6001Z"
          fill="url(#f7)"/>
    <path d="M72.5996 40.1001L90.9996 39.6001L87.7996 48.4001L69.0996 48.7001L72.5996 40.1001Z"
          fill="url(#f8)"/>
    <defs>
        <linearGradient id="f1" x1="5.2102" y1="11.0868" x2="19.2121" y2="11.0868"
                        gradientUnits="userSpaceOnUse">
            <stop stop-color="#FFA617"/>
            <stop offset="1" stop-color="#FF6600"/>
        </linearGradient>
        <linearGradient id="f2" x1="32.4668" y1="24.2427" x2="45.8057" y2="24.2427"
                        gradientUnits="userSpaceOnUse">
            <stop stop-color="#FFA617"/>
            <stop offset="1" stop-color="#FF6600"/>
        </linearGradient>
        <linearGradient id="f3" x1="14.9379" y1="17.6285" x2="36.5482" y2="17.6285"
                        gradientUnits="userSpaceOnUse">
            <stop stop-color="#FFCF0F"/>
            <stop offset="1" stop-color="#FF9900"/>
        </linearGradient>
        <linearGradient id="f4" x1="59.9795" y1="37.5204" x2="72.6416" y2="37.5204"
                        gradientUnits="userSpaceOnUse">
            <stop stop-color="#FFA617"/>
            <stop offset="1" stop-color="#FF6600"/>
        </linearGradient>
        <linearGradient id="f5" x1="41.9135" y1="30.8451" x2="63.6615" y2="30.8451"
                        gradientUnits="userSpaceOnUse">
            <stop stop-color="#FFCF0F"/>
            <stop offset="1" stop-color="#FF9900"/>
        </linearGradient>
        <linearGradient id="f6" x1="2.6223" y1="16.6794" x2="107.071" y2="70.6381"
                        gradientUnits="userSpaceOnUse">
            <stop stop-color="#FFDC17"/>
            <stop offset="1" stop-color="#FF9900"/>
        </linearGradient>
        <linearGradient id="f7" x1="87.7498" y1="50.9214" x2="99.7234" y2="50.9214"
                        gradientUnits="userSpaceOnUse">
            <stop stop-color="#FFA617"/>
            <stop offset="1" stop-color="#FF6600"/>
        </linearGradient>
        <linearGradient id="f8" x1="69.1392" y1="44.1841" x2="91.026" y2="44.1841"
                        gradientUnits="userSpaceOnUse">
            <stop stop-color="#FFCF0F"/>
            <stop offset="1" stop-color="#FF9900"/>
        </linearGradient>
    </defs>
</svg>
