<svg width="36" height="36" viewBox="0 0 36 36" fill="none" xmlns="http://www.w3.org/2000/svg">
<g>
<path d="M31.4482 21.4305L31.4226 21.0783C31.0102 15.7098 28.5105 12.3444 26.3053 9.37603C24.2634 6.62733 22.4998 4.25367 22.4998 0.751321C22.4998 0.470082 22.3423 0.213029 22.0926 0.0840804C21.8421 -0.045571 21.5411 -0.0243374 21.3133 0.141242C18.0015 2.51125 15.2381 6.50576 14.2729 10.3171C13.6027 12.9706 13.5141 15.9537 13.5016 17.9238C10.4431 17.2705 9.75032 12.6952 9.743 12.6454C9.70855 12.4081 9.56357 12.2016 9.35264 12.0888C9.13953 11.9775 8.88902 11.9694 8.67296 12.0763C8.51258 12.154 4.73631 14.0729 4.51659 21.7352C4.50119 21.99 4.50049 22.2449 4.50049 22.5005C4.50049 29.9438 10.5566 36 18 36C25.4433 36 31.4995 29.9438 31.4995 22.5005C31.4995 22.127 31.4739 21.7784 31.4482 21.4305ZM18 34.5001C15.5186 34.5001 13.5002 32.3498 13.5002 29.7066C13.5002 29.6165 13.4994 29.5256 13.506 29.4143C13.536 28.2997 13.7477 27.5387 13.9799 27.0326C14.415 27.9672 15.1934 28.8262 16.4561 28.8262C16.8707 28.8262 17.2061 28.4908 17.2061 28.0762C17.2061 27.0083 17.2281 25.7765 17.494 24.6647C17.7306 23.6782 18.2959 22.6301 19.0122 21.7893C19.3308 22.8806 19.9519 23.7638 20.5584 24.6259C21.4263 25.8593 22.3234 27.1343 22.4809 29.3088C22.4904 29.4377 22.5 29.5673 22.5 29.7065C22.4998 32.3498 20.4814 34.5001 18 34.5001ZM22.7397 33.5202C23.5182 32.4585 23.9998 31.1463 23.9998 29.7066C23.9998 29.5301 23.9888 29.366 23.9668 29.0591C23.7889 26.6107 22.7247 25.0976 21.785 23.7625C20.9846 22.6258 20.2939 21.6437 20.2939 20.2506C20.2939 19.9657 20.1328 19.7057 19.8779 19.579C19.6245 19.4516 19.3184 19.4802 19.092 19.6523C17.6536 20.7392 16.4539 22.5687 16.035 24.3155C15.8212 25.2112 15.7465 26.1802 15.7201 26.977C15.2001 26.4175 15.039 25.3804 15.0375 25.3665C15.0039 25.1255 14.8559 24.9153 14.6399 24.8033C14.4253 24.692 14.1682 24.689 13.9522 24.8003C13.7632 24.897 12.1029 25.8491 12.0077 29.3514C12.0011 29.4701 12.0004 29.5887 12.0004 29.7066C12.0004 31.1464 12.482 32.4586 13.2605 33.5202C8.99519 31.6785 6.00062 27.434 6.00062 22.5006C6.00062 22.2758 5.99992 22.0517 6.01524 21.8019C6.14412 17.3064 7.58259 15.077 8.52151 14.0935C9.17624 16.4371 10.8915 19.5007 14.2503 19.5007C14.6648 19.5007 15.0003 19.1653 15.0003 18.7507C15.0003 16.2408 15.0567 13.3405 15.7276 10.6848C16.4892 7.67614 18.5758 4.42726 21.0945 2.2279C21.5127 5.44022 23.2624 7.7956 25.1015 10.2703C27.2877 13.213 29.5479 16.2561 29.9265 21.1837L29.9522 21.5426C29.9756 21.8546 29.9998 22.1659 29.9998 22.5006C29.9996 27.4339 27.005 31.6784 22.7397 33.5202Z" fill="white"/>
</g>

</svg>
