<svg width="49" height="49" viewBox="0 0 49 49" fill="none" xmlns="http://www.w3.org/2000/svg">
<g>
<path d="M25.1505 28.7024H22.735C22.5827 28.242 22.396 27.7937 22.1763 27.3614L23.8955 25.6422C24.2288 25.3069 24.2288 24.7653 23.8955 24.4301L20.8009 21.3355C20.4656 21.0021 19.924 21.0021 19.5888 21.3355L17.8696 23.0547C17.445 22.8446 17.0053 22.6665 16.5543 22.5217V20.1062C16.5543 19.6315 16.1694 19.2466 15.6947 19.2466H11.2935C10.8187 19.2466 10.4339 19.6315 10.4339 20.1062V22.6163C10.0005 22.7637 9.57821 22.9418 9.17021 23.1493L7.3822 21.37C7.04695 21.0366 6.50539 21.0366 6.17014 21.37L3.08411 24.4559C2.75079 24.7911 2.75079 25.3327 3.08411 25.6679L4.88931 27.4731C4.68923 27.8705 4.51688 28.2812 4.37354 28.7024H1.79468C1.31995 28.7024 0.935059 29.0873 0.935059 29.562V33.9375C0.935059 34.4122 1.31995 34.7971 1.79468 34.7971H4.37354C4.51322 35.2239 4.68268 35.6405 4.88071 36.0436L3.08411 37.8659C2.75079 38.2012 2.75079 38.7428 3.08411 39.078L6.17874 42.1726C6.51399 42.506 7.05555 42.506 7.3908 42.1726L9.17021 40.3932C9.57832 40.6005 10.0006 40.7787 10.4339 40.9262V43.4363C10.4339 43.911 10.8187 44.2959 11.2935 44.2959H15.6689C16.1437 44.2959 16.5286 43.911 16.5286 43.4363V40.9778C16.9795 40.8328 17.4191 40.6548 17.8438 40.4448L19.563 42.164C19.8983 42.4974 20.4398 42.4974 20.7751 42.164L23.8697 39.0694C24.203 38.7342 24.203 38.1926 23.8697 37.8573L22.1505 36.1381C22.3705 35.7059 22.5573 35.2576 22.7092 34.7971H25.1247C25.5995 34.7971 25.9844 34.4122 25.9844 33.9375V29.562C25.9846 29.0972 25.6152 28.7164 25.1505 28.7024ZM24.2909 33.0779H22.0903C21.6882 33.0652 21.331 33.333 21.2307 33.7226C21.0478 34.4653 20.7582 35.1776 20.3711 35.8372C20.1687 36.1751 20.2219 36.6073 20.5 36.886L22.0559 38.4419L20.1733 40.3159L18.6002 38.7428C18.3249 38.4661 17.8978 38.4097 17.5601 38.6052C16.903 38.9914 16.1937 39.281 15.454 39.4648C15.0611 39.5619 14.7889 39.9198 14.8007 40.3245V42.5767H12.1531V40.2901C12.1658 39.888 11.898 39.5308 11.5084 39.4305C10.7863 39.2427 10.0945 38.9533 9.45389 38.5708C9.11606 38.3685 8.68388 38.4217 8.40515 38.6998L6.77187 40.3331L4.8979 38.4763L6.52258 36.8258C6.79927 36.5505 6.85569 36.1234 6.66012 35.7857C6.27974 35.1501 5.99037 34.4643 5.8005 33.7484C5.70014 33.3587 5.34297 33.091 4.94088 33.1037H2.67149V30.4216H5.01825C5.42034 30.4343 5.77751 30.1665 5.87787 29.7769C6.06828 29.0612 6.35754 28.3754 6.73749 27.7396C6.90522 27.3892 6.81711 26.9699 6.52258 26.7167L4.8979 25.0662L6.78047 23.1922L8.41375 24.8255C8.69248 25.1036 9.12465 25.1568 9.46248 24.9545C10.1035 24.5729 10.7952 24.2834 11.517 24.0948C11.9032 23.9911 12.1667 23.6348 12.1531 23.2352V20.9658H14.8093V23.218C14.7975 23.6227 15.0697 23.9806 15.4626 24.0776C16.2023 24.2614 16.9116 24.551 17.5687 24.9373C17.9064 25.1328 18.3335 25.0764 18.6088 24.7997L20.1819 23.218L22.0645 25.092L20.5 26.6565C20.2219 26.9352 20.1687 27.3674 20.3711 27.7052C20.7586 28.3647 21.0482 29.0771 21.2307 29.8199C21.331 30.2095 21.6882 30.4773 22.0903 30.4646H24.2909V33.0779Z" fill="white"/>
<path d="M13.4853 26.9834C10.8267 26.9834 8.67139 29.1387 8.67139 31.7973C8.67139 34.4559 10.8267 36.6111 13.4853 36.6111C16.1438 36.6111 18.2991 34.4559 18.2991 31.7973C18.2944 29.1405 16.1419 26.9881 13.4853 26.9834ZM13.4853 34.866V34.8918C11.7761 34.8918 10.3906 33.5063 10.3906 31.7972C10.3906 30.088 11.7761 28.7025 13.4853 28.7025C15.1944 28.7025 16.5799 30.088 16.5799 31.7972C16.5657 33.4962 15.1844 34.8661 13.4853 34.866Z" fill="white"/>
<path d="M48.18 16.7085C48.1773 16.6948 48.1744 16.6813 48.1711 16.6679L47.2427 12.4299C47.1399 11.9675 46.6824 11.6753 46.2197 11.7766L43.8644 12.2924C43.6085 11.8756 43.3212 11.479 43.0047 11.1061L44.3457 9.06022C44.6014 8.66125 44.4861 8.13076 44.0879 7.87395L40.3915 5.4928C39.9925 5.23717 39.462 5.35247 39.2052 5.75069L37.8814 7.81377C37.421 7.69869 36.9526 7.61821 36.4802 7.57308L35.9559 5.16615C35.8495 4.70346 35.3881 4.41462 34.9255 4.52111C34.9136 4.5238 34.9018 4.52681 34.8899 4.53003L30.5918 5.46701C30.1295 5.56974 29.8372 6.02727 29.9385 6.48996L30.5403 8.93128C30.1467 9.168 29.7704 9.43222 29.4142 9.72213L27.2909 8.36382C26.8919 8.10819 26.3614 8.22349 26.1046 8.62171L23.7149 12.3096C23.4593 12.7086 23.5745 13.239 23.9728 13.4959L26.1218 14.8712C26.0137 15.3065 25.9361 15.7489 25.8897 16.1951L23.3882 16.7452C22.9258 16.8479 22.6336 17.3055 22.7349 17.7682L23.6719 22.0663C23.7746 22.5287 24.2322 22.8209 24.6948 22.7196L27.1963 22.178C27.4429 22.5576 27.7159 22.9195 28.013 23.2611L26.6376 25.4102C26.382 25.8092 26.4973 26.3396 26.8955 26.5965L30.5746 28.9604C30.9736 29.216 31.5041 29.1007 31.7609 28.7025L33.1191 26.5793C33.5625 26.6946 34.0134 26.7778 34.4687 26.8286L35.0017 29.2785C35.0882 29.6817 35.4489 29.9667 35.8613 29.9576H36.0418L40.3399 29.0292C40.776 28.889 41.0255 28.4315 40.9073 27.989L40.3829 25.5821C40.7914 25.3443 41.1821 25.0771 41.552 24.7827L43.6409 26.1237C44.0398 26.3793 44.5703 26.264 44.8271 25.8658L47.1911 22.178C47.4552 21.7836 47.3496 21.2496 46.9551 20.9855C46.9451 20.9787 46.9349 20.9723 46.9246 20.9659L44.8873 19.6593C45.0093 19.1908 45.0954 18.7139 45.1452 18.2324L47.5005 17.7166C47.9666 17.6258 48.2708 17.1745 48.18 16.7085ZM44.1652 16.728C43.7837 16.8095 43.5048 17.1377 43.4861 17.5275C43.4597 18.2972 43.3207 19.0589 43.0735 19.7883C42.9484 20.1621 43.0937 20.5732 43.426 20.7854L45.2827 21.9717L43.8472 24.2067L41.9732 23.0032C41.643 22.7919 41.2116 22.8308 40.9245 23.0978C40.3645 23.6125 39.7335 24.0439 39.0505 24.3786C38.6945 24.5518 38.5028 24.9458 38.5863 25.3328L39.0677 27.5334L36.4888 28.1008L35.9988 25.8658C35.9174 25.4842 35.5891 25.2054 35.1994 25.1867C34.4528 25.1537 33.7148 25.0148 33.0074 24.7741C32.9186 24.7448 32.8257 24.7303 32.7323 24.7311C32.44 24.7316 32.1681 24.8805 32.0102 25.1265L30.7638 27.0692L28.5287 25.6337L29.7322 23.6566C29.9436 23.3264 29.9047 22.8949 29.6377 22.6078C29.137 22.0645 28.7145 21.4541 28.3826 20.794C28.2066 20.4414 27.8133 20.2536 27.4284 20.3384L25.1419 20.837L24.5745 18.2581L26.8611 17.7596C27.2457 17.6773 27.5253 17.3445 27.5402 16.9515C27.5946 16.2052 27.7537 15.4701 28.013 14.7681C28.1336 14.3967 27.9889 13.9908 27.6605 13.7795L25.7006 12.5245L27.1362 10.2895L29.0273 11.5101C29.3595 11.726 29.7962 11.6869 30.0847 11.4156C30.6282 10.9018 31.2417 10.4677 31.9071 10.1261C32.2527 9.94832 32.436 9.56063 32.3541 9.18057L31.8641 6.94556L34.4429 6.37821L34.9243 8.57884C35.0108 8.9821 35.3715 9.26707 35.7839 9.25794C36.5437 9.27814 37.2965 9.40837 38.0189 9.64476C38.3903 9.76543 38.7963 9.62069 39.0075 9.29232L40.211 7.41835L42.446 8.85391L41.2511 10.7107C41.0375 11.0448 41.0802 11.4816 41.3543 11.768C41.8674 12.3305 42.2959 12.9647 42.6265 13.6506C42.8025 14.0032 43.1958 14.1911 43.5807 14.1062L45.7297 13.642L46.2971 16.2208L44.1652 16.728Z" fill="white"/>
<path d="M40.1765 16.2123C39.7014 13.9967 37.7405 12.4157 35.4744 12.4214C32.8158 12.4204 30.6598 14.5749 30.6587 17.2334C30.6576 19.892 32.8121 22.0481 35.4707 22.0491C38.1293 22.0501 40.2854 19.8957 40.2864 17.2371C40.2865 16.8925 40.2497 16.549 40.1765 16.2123ZM36.1191 20.2611H36.1277C34.4616 20.5988 32.8287 19.5521 32.4399 17.8972C32.0778 16.2266 33.1347 14.5779 34.8039 14.2094C35.0215 14.1632 35.2434 14.1402 35.4658 14.1406C37.1749 14.1382 38.5625 15.5216 38.5649 17.2308C38.5671 18.6915 37.5475 19.9548 36.1191 20.2611Z" fill="white"/>
</g>

</svg>
