<svg width="45" height="45" viewBox="0 0 45 45" fill="none" xmlns="http://www.w3.org/2000/svg">
    <g>
        <path d="M42.1385 11.1604H41.8346C41.9692 11.0172 42.0894 10.8613 42.1917 10.6919C42.775 9.72706 42.739 8.46755 42.0928 7.23645L39.5003 2.29752C38.8814 1.11879 37.8376 0.307407 36.6363 0.0713196C35.4352 -0.164768 34.162 0.191454 33.1433 1.04827L27.3672 5.90632C26.9218 5.38491 26.2602 5.0533 25.5223 5.0533H19.4768C18.7388 5.0533 18.0772 5.38482 17.6318 5.90632L11.8557 1.04837C10.8368 0.191549 9.56364 -0.164578 8.36248 0.0714147C7.16132 0.307407 6.11746 1.11879 5.49863 2.29762L2.90613 7.23645C2.25993 8.46755 2.22391 9.72706 2.8071 10.6919C2.90946 10.8613 3.02969 11.0172 3.16427 11.1604H2.8607C1.74537 11.1604 0.837891 12.0677 0.837891 13.1829V42.9772C0.837891 44.0926 1.74527 45 2.8607 45H42.1385C43.2538 45 44.1611 44.0926 44.1611 42.9772V13.1831C44.1611 12.0678 43.2538 11.1604 42.1385 11.1604ZM16.7462 13.3464H28.2527V33.0613L22.8772 31.081C22.6333 30.9912 22.3654 30.9912 22.1215 31.081L16.7462 33.0613V13.3464ZM34.5505 2.72122C35.0673 2.28631 35.6583 2.10686 36.2149 2.21626C36.7711 2.32556 37.2505 2.71524 37.5647 3.31353L40.1572 8.25237C40.4392 8.78965 40.4988 9.26667 40.3209 9.56112C40.143 9.85547 39.693 10.0243 39.0862 10.0243L27.9487 10.0242V8.27347L34.5505 2.72122ZM19.4768 7.2394H25.5222C25.6549 7.2394 25.7627 7.34727 25.7627 7.47986V11.1604H19.2362V7.47995C19.2362 7.34727 19.3441 7.2394 19.4768 7.2394ZM4.84169 8.25247L7.43419 3.31373C7.74831 2.71543 8.22761 2.32575 8.78399 2.21635C9.34009 2.10677 9.93145 2.28631 10.4486 2.72132L17.0501 8.27357V10.0243H5.91264C5.30588 10.0243 4.85576 9.85547 4.67783 9.56112C4.49991 9.26677 4.5597 8.78975 4.84169 8.25247ZM41.9751 42.814H3.02389V13.3464H14.5602V34.6287C14.5602 34.9861 14.7349 35.3208 15.028 35.5253C15.321 35.7297 15.6956 35.778 16.031 35.6543L22.4994 33.2715L28.9679 35.6543C29.0906 35.6996 29.2184 35.7217 29.3457 35.7217C29.5663 35.7217 29.785 35.6549 29.971 35.5253C30.2641 35.3209 30.4388 34.9861 30.4388 34.6287V13.3464H41.9752V42.814H41.9751Z"
              fill="white" stroke="white" stroke-width="0.5"/>
    </g>
</svg>
