<svg width="136" height="136" viewBox="0 0 136 136" fill="none" xmlns="http://www.w3.org/2000/svg">
<path d="M68 0C30.5048 0 0 30.5048 0 68C0 105.495 30.5048 136 68 136C105.495 136 136 105.495 136 68C136 30.5048 105.496 0 68 0ZM68 128.649C51.3412 128.649 36.2312 121.896 25.2591 110.987C20.8777 106.63 17.1583 101.609 14.2623 96.0908C9.85186 87.6876 7.35145 78.1308 7.35145 68C7.35145 34.5583 34.5583 7.35145 68 7.35145C83.8621 7.35145 98.3188 13.4752 109.137 23.4796C114.746 28.6661 119.378 34.8946 122.718 41.8564C126.518 49.7771 128.649 58.6444 128.649 68C128.649 101.442 101.442 128.649 68 128.649Z" fill="#DBE7FB"/>
<path d="M44.756 52.5629C48.7074 52.5629 51.9223 55.594 51.9223 59.7292H59.2738C59.2738 51.4588 52.7613 45.2114 44.756 45.2114C36.7507 45.2114 30.2383 51.4588 30.2383 59.7292H37.5897C37.5897 55.594 40.8051 52.5629 44.756 52.5629Z" fill="#DBE7FB"/>
<path d="M91.2423 52.5629C95.1938 52.5629 98.4086 55.594 98.4086 59.7292H105.76C105.76 51.4588 99.2476 45.2114 91.2423 45.2114C83.2371 45.2114 76.7246 51.4588 76.7246 59.7292H84.0761C84.0761 55.594 87.2909 52.5629 91.2423 52.5629Z" fill="#DBE7FB"/>
<path d="M67.8704 105.675C82.0927 105.675 95.7228 98.4016 103.527 86.3255L97.3521 82.3354C90.1862 93.4247 77.074 99.6137 63.9521 98.0988C53.7235 96.9193 44.2645 91.0262 38.6484 82.3354L32.4741 86.3255C39.2696 96.8422 50.7223 103.973 63.1095 105.402C64.6997 105.585 66.2876 105.675 67.8704 105.675Z" fill="#DBE7FB"/>
</svg>
