<svg width="80" height="80" viewBox="0 0 80 80" fill="none" xmlns="http://www.w3.org/2000/svg">
<g>
<path d="M72.0488 39.7717C72.0488 36.0678 69.3663 32.9808 65.8425 32.3456C65.705 28.0143 65.1208 22.6679 63.3553 18.393C62.604 16.5741 63.0194 14.4774 64.4132 13.0516L69.2071 8.14758C69.5736 7.77266 69.6954 7.22197 69.5212 6.72741C69.347 6.23284 68.907 5.88012 68.3865 5.81764C67.9978 5.77099 60.3756 4.89995 53.659 7.28653C54.4848 6.03471 55.5261 4.6364 56.7457 3.36237C57.1272 2.96404 57.2341 2.37634 57.0173 1.86921C56.8008 1.36208 56.3024 1.03294 55.7509 1.03294C49.2267 1.03294 43.0056 3.9387 39.2035 6.15985C39.9432 4.96553 41.0158 3.65019 42.5596 2.47205C43.0697 2.08284 43.2434 1.39289 42.9784 0.808642C42.7133 0.224219 42.0799 -0.0997521 41.4514 0.027461C35.764 1.1772 30.1501 3.49027 28.7486 4.2026C24.3773 6.42495 20.7005 9.80996 18.1154 13.9916C15.5016 18.22 14.1202 23.0849 14.1202 28.0605V32.352C10.6138 33.0013 7.94922 36.0802 7.94922 39.7718C7.94922 43.4634 10.6138 46.5424 14.1202 47.1917V52.7935C14.0849 55.3479 14.9134 57.8753 16.4539 59.9109L26.6196 73.3457C29.7724 77.5125 34.7741 79.9999 39.999 79.9999C45.2239 79.9999 50.2255 77.5125 53.3782 73.3457L63.5441 59.9109C65.0543 57.9151 65.8613 55.5354 65.8778 53.0166C65.8783 52.9424 65.8778 47.1915 65.8778 47.1915C69.3842 46.5422 72.0488 43.4632 72.0488 39.7717ZM10.7033 39.7717C10.7033 37.607 12.1459 35.7737 14.12 35.1806V44.3629C12.146 43.7697 10.7033 41.9365 10.7033 39.7717ZM63.1236 53.0106C63.111 54.9188 62.497 56.7301 61.3479 58.2489L51.182 71.6837C48.5467 75.1663 44.3663 77.2455 39.999 77.2455C35.6318 77.2455 31.4513 75.1663 28.816 71.6837L18.6503 58.2489C17.4764 56.6974 16.8457 54.7706 16.8744 52.8235C16.8744 52.8166 16.8746 52.8099 16.8746 52.8032L16.8744 28.0605C16.8744 23.597 18.1137 19.2329 20.4583 15.44C22.7775 11.688 26.076 8.6511 29.9969 6.65786C30.887 6.2053 33.8449 4.96846 37.389 3.90066C35.3531 6.78335 34.9401 9.37014 34.9174 9.52231C34.8342 10.0782 35.0971 10.6287 35.5817 10.9134C36.0662 11.1981 36.6753 11.1597 37.1203 10.8166C37.2012 10.7543 44.3922 5.27556 52.5781 4.03493C50.3365 7.01385 49.058 9.77932 48.9902 9.9277C48.7333 10.4887 48.8812 11.1522 49.352 11.5512C49.8228 11.9502 50.5016 11.9872 51.0128 11.6421C55.3021 8.74681 61.4934 8.34417 65.1151 8.39357L62.4438 11.1262C60.2787 13.3409 59.6372 16.606 60.8096 19.4444C61.8652 22.0006 63.1236 26.7019 63.1236 34.5845C63.1237 34.5845 63.1241 52.9395 63.1236 53.0106ZM65.8778 44.3629L65.878 35.1806C67.852 35.7738 69.2945 37.6071 69.2945 39.7717C69.2945 41.9362 67.852 43.7697 65.8778 44.3629Z" fill="#4A81ED" stroke="#5FB452" stroke-width="0.25"/>
<path d="M26.6678 45.3886C27.9988 45.3886 29.0778 44.3096 29.0778 42.9786C29.0778 41.6476 27.9988 40.5686 26.6678 40.5686C25.3368 40.5686 24.2578 41.6476 24.2578 42.9786C24.2578 44.3096 25.3368 45.3886 26.6678 45.3886Z" fill="#4A81ED" stroke="#5FB452" stroke-width="0.25"/>
<path d="M53.3299 45.3886C54.6609 45.3886 55.7399 44.3096 55.7399 42.9786C55.7399 41.6476 54.6609 40.5686 53.3299 40.5686C51.9989 40.5686 50.9199 41.6476 50.9199 42.9786C50.9199 44.3096 51.9989 45.3886 53.3299 45.3886Z" fill="#4A81ED" stroke="#5FB452" stroke-width="0.25"/>
<path d="M49.0402 31.3969C48.5022 31.9346 48.5022 32.8065 49.0402 33.3443C49.5779 33.8821 50.4498 33.8821 50.9876 33.3443C52.2795 32.0524 54.3817 32.0524 55.6737 33.3443C55.9426 33.6132 56.2949 33.7476 56.6475 33.7476C57 33.7476 57.3524 33.6132 57.6213 33.3443C58.1592 32.8065 58.1592 31.9346 57.6213 31.3969C55.2555 29.0311 51.4059 29.0311 49.0402 31.3969Z" fill="#4A81ED" stroke="#5FB452" stroke-width="0.25"/>
<path d="M22.378 31.3967C21.8402 31.9345 21.8401 32.8064 22.378 33.3441C22.9158 33.8821 23.7877 33.8821 24.3254 33.3441C25.6174 32.0522 27.7197 32.0522 29.0115 33.3441C29.2804 33.613 29.6328 33.7475 29.9853 33.7475C30.3379 33.7475 30.6902 33.613 30.9591 33.3441C31.4971 32.8064 31.4971 31.9345 30.9591 31.3967C28.5934 29.0309 24.7439 29.0308 22.378 31.3967Z" fill="#4A81ED" stroke="#5FB452" stroke-width="0.25"/>
<path d="M58.0981 20.6503C57.9781 20.5712 57.8614 20.4986 57.749 20.433C55.2448 18.9738 52.3912 18.2024 49.4968 18.2024H30.5009C27.7503 18.2024 25.0227 18.9023 22.6129 20.2264C19.5615 21.9033 17.666 25.1137 17.666 28.6051L17.6662 41.6406C17.6662 44.1656 18.5847 46.6954 20.2624 48.7762L20.4341 48.9933C22.7633 51.9395 26.9662 52.7357 30.21 50.8449C33.179 49.1145 36.5638 48.1999 39.9989 48.1999C43.434 48.1999 46.8188 49.1145 49.7878 50.845C50.9723 51.5355 52.2847 51.8676 53.5871 51.8676C55.8513 51.8676 58.085 50.8636 59.5635 48.9933L59.7448 48.764C61.4129 46.6956 62.3314 44.1657 62.3314 41.6406L62.3316 28.5926C62.3318 25.3637 60.7491 22.3946 58.0981 20.6503ZM59.5771 41.6406C59.5771 43.5388 58.8751 45.4546 57.593 47.0447L57.4028 47.2851C55.9188 49.1625 53.2413 49.67 51.1745 48.4653C47.7852 46.4897 43.9206 45.4456 39.9987 45.4456C36.077 45.4456 32.2126 46.4898 28.8231 48.4653C26.7565 49.67 24.0787 49.1625 22.5946 47.2851L22.3968 47.0352C21.1223 45.4546 20.4205 43.5388 20.4205 41.6406L20.4203 28.6051C20.4203 26.1185 21.7687 23.833 23.9392 22.6402C25.9438 21.5389 28.2127 20.9565 30.5009 20.9565H49.4968C51.9046 20.9565 54.2786 21.5984 56.3615 22.8122C56.433 22.8538 56.5073 22.9005 56.5839 22.9509C58.4584 24.1843 59.5773 26.2933 59.5773 28.5922L59.5771 41.6406Z" fill="#4A81ED" stroke="#5FB452" stroke-width="0.25"/>
<path d="M45.9708 53.5806H34.029C33.1188 53.5806 32.284 54.1238 31.7952 55.0341C31.1327 56.2689 31.2091 57.9079 31.981 59.0197C32.5017 59.7698 33.2953 60.4495 34.4073 61.0982C36.1844 62.1346 38.0922 62.6528 39.9999 62.6528C41.9077 62.6528 43.8154 62.1345 45.5926 61.0982C46.7045 60.4495 47.4981 59.7698 48.0188 59.0197C48.7907 57.9079 48.8671 56.2689 48.2044 55.034C47.7158 54.1238 46.8809 53.5806 45.9708 53.5806ZM45.7563 57.4489C45.562 57.7288 45.1351 58.1764 44.2048 58.7188C41.4932 60.3005 38.5066 60.3005 35.795 58.7188C34.8647 58.1762 34.4378 57.7288 34.2435 57.4489C34.0856 57.2215 34.0408 56.6745 34.2221 56.3367C34.2225 56.336 34.2228 56.3355 34.223 56.3348H45.7766C45.7768 56.3354 45.7772 56.3359 45.7775 56.3366C45.9589 56.6745 45.9142 57.2214 45.7563 57.4489Z" fill="#4A81ED" stroke="#5FB452" stroke-width="0.25"/>
</g>
</svg>
