<svg width="71" height="71" viewBox="0 0 71 71" fill="none" xmlns="http://www.w3.org/2000/svg">
<g>
<path d="M65.0855 9.47915H15.3958V6.89576C17.0254 6.31924 18.0028 4.65263 17.7105 2.94906C17.4182 1.24548 15.9411 0 14.2127 0C12.4837 0 11.0066 1.24548 10.7143 2.94906C10.4219 4.65263 11.4 6.31924 13.0296 6.89576V9.47915H5.93107C2.66544 9.48319 0.0190911 12.1295 0.015625 15.3946V50.8872C0.0190911 54.1529 2.66544 56.7992 5.93107 56.8027H24.1291L21.763 61.535H21.3112C18.0456 61.5391 15.3992 64.1854 15.3958 67.4505V69.8167C15.3958 70.4706 15.9255 70.9997 16.5789 70.9997H54.4377C55.091 70.9997 55.6208 70.4706 55.6208 69.8167V67.4505C55.6167 64.1854 52.9704 61.5391 49.7053 61.535H49.253L46.8868 56.8027H65.0855C68.3505 56.7992 70.9969 54.1529 71.0009 50.8872V15.3946C70.9969 12.1295 68.3505 9.48319 65.0855 9.47915ZM14.2127 2.38062C14.866 2.38062 15.3958 2.91035 15.3958 3.56371C15.3958 4.21764 14.866 4.7468 14.2127 4.7468C13.5593 4.7468 13.0296 4.21764 13.0296 3.56371C13.0296 2.91035 13.5593 2.38062 14.2127 2.38062ZM53.2546 67.4505V68.6336H17.7619V67.4505C17.7619 65.4904 19.3506 63.9012 21.3112 63.9012H49.7053C51.6654 63.9012 53.2546 65.4904 53.2546 67.4505ZM46.6078 61.535H24.4082L26.7743 56.8027H44.2416L46.6078 61.535ZM68.6347 50.8872C68.6347 52.8479 67.0455 54.4365 65.0855 54.4365H5.93107C3.97042 54.4365 2.3818 52.8479 2.3818 50.8872V15.3946C2.3818 13.4345 3.97042 11.8453 5.93107 11.8453H13.0296V14.2115H5.93107C5.27771 14.2115 4.74798 14.7412 4.74798 15.3946V48.5211C4.74798 49.175 5.27771 49.7042 5.93107 49.7042H65.0855C65.7388 49.7042 66.2686 49.175 66.2686 48.5211V15.3946C66.2686 14.7412 65.7388 14.2115 65.0855 14.2115H15.3958V11.8453H65.0855C67.0455 11.8453 68.6347 13.4345 68.6347 15.3946V50.8872ZM14.2127 40.2394L24.8605 40.2481V43.7887C24.8605 44.4426 25.3902 44.9718 26.0436 44.9718H44.973C45.6263 44.9718 46.1561 44.4426 46.1561 43.7887V40.2394H54.6555C55.2314 41.8697 56.898 42.8471 58.6016 42.5548C60.3052 42.2625 61.5507 40.7854 61.5507 39.0564C61.5507 37.3279 60.3052 35.8508 58.6016 35.5585C56.898 35.2662 55.2314 36.2436 54.6555 37.8733H46.1561V33.0381L47.8868 34.1397C48.4298 34.4852 49.1496 34.3332 49.5066 33.7977L51.8728 30.2485C52.0513 29.981 52.1131 29.6529 52.0444 29.3386C51.9756 29.0249 51.7821 28.7523 51.5083 28.5842L36.1281 19.1195C35.748 18.8855 35.2685 18.8855 34.8884 19.1195L19.5083 28.5842C19.2345 28.7523 19.0409 29.0249 18.9722 29.3386C18.9034 29.6529 18.9653 29.981 19.1438 30.2485L21.5099 33.7977C21.8669 34.3332 22.5867 34.4852 23.1297 34.1397L24.8605 33.0381V37.8889L15.3958 37.8733V16.5777H63.9024V47.338H7.11415V16.5777H13.0296V39.0564C13.0296 39.7103 13.5593 40.2394 14.2127 40.2394ZM36.1437 23.8611C35.7561 23.6144 35.2604 23.6144 34.8728 23.8611L22.8363 31.5217L21.7924 29.9562L35.5083 21.5163L49.2235 29.9562L48.1803 31.5217L36.1437 23.8611ZM35.5083 26.2625L43.7899 31.5321V42.6056H27.2267V31.5321L35.5083 26.2625ZM56.8039 39.0564C56.8039 38.403 57.3336 37.8733 57.9869 37.8733C58.6403 37.8733 59.17 38.403 59.17 39.0564C59.17 39.7103 58.6403 40.2394 57.9869 40.2394C57.3336 40.2394 56.8039 39.7103 56.8039 39.0564Z" fill="#4A81ED"/>
<path d="M39.4454 35.5272C37.063 33.9317 33.9534 33.9317 31.571 35.5272L31.3036 35.7046C30.7594 36.0668 30.6115 36.8016 30.9737 37.3458C31.3353 37.8899 32.0701 38.0378 32.6143 37.6756L32.8829 37.496C34.4716 36.4325 36.5449 36.4325 38.1335 37.496L38.4021 37.6745C38.9463 38.0367 39.6811 37.8888 40.0433 37.3446C40.4049 36.8004 40.2576 36.0656 39.7129 35.7034L39.4454 35.5272Z" fill="#4A81ED"/>
<path d="M37.4782 38.4817C36.2806 37.6995 34.7342 37.6995 33.5372 38.4817L33.2686 38.6613C32.7429 39.031 32.6083 39.752 32.9647 40.2863C33.3217 40.8207 34.0392 40.9726 34.5817 40.6289L34.8503 40.4492C35.2489 40.1858 35.7659 40.1858 36.1645 40.4492L36.4331 40.6277C36.9773 40.9859 37.7081 40.8369 38.0685 40.295C38.429 39.7531 38.284 39.0218 37.7439 38.6578L37.4782 38.4817Z" fill="#4A81ED"/>
<path d="M30.6461 34.7208L30.9147 34.5417C33.7049 32.7151 37.3126 32.7151 40.1028 34.5417L40.3702 34.7191C40.722 34.9623 41.1778 34.9958 41.562 34.808C41.9461 34.6197 42.1986 34.239 42.2228 33.8121C42.2471 33.3852 42.0391 32.9785 41.6787 32.7486L41.4135 32.5718C37.8261 30.227 33.1908 30.227 29.6028 32.5718L29.3354 32.7498C28.9813 32.9826 28.7785 33.3875 28.8051 33.811C28.8311 34.2344 29.0818 34.611 29.4625 34.7988C29.8426 34.9865 30.2943 34.9559 30.6461 34.7191V34.7208Z" fill="#4A81ED"/>
<path d="M33.1411 50.8872H30.7749C30.1215 50.8872 29.5918 51.4169 29.5918 52.0703C29.5918 52.7242 30.1215 53.2534 30.7749 53.2534H33.1411C33.7944 53.2534 34.3242 52.7242 34.3242 52.0703C34.3242 51.4169 33.7944 50.8872 33.1411 50.8872Z" fill="#4A81ED"/>
<path d="M40.2407 50.8872H37.8745C37.2211 50.8872 36.6914 51.4169 36.6914 52.0703C36.6914 52.7242 37.2211 53.2534 37.8745 53.2534H40.2407C40.894 53.2534 41.4238 52.7242 41.4238 52.0703C41.4238 51.4169 40.894 50.8872 40.2407 50.8872Z" fill="#4A81ED"/>
</g>
</svg>
