<svg width="19" height="19" viewBox="0 0 19 19" fill="none" xmlns="http://www.w3.org/2000/svg">
    <g>
        <path d="M13.0593 6.41748C13.6654 6.41748 14.1567 5.92615 14.1567 5.32007C14.1567 4.71398 13.6654 4.22266 13.0593 4.22266C12.4532 4.22266 11.9619 4.71398 11.9619 5.32007C11.9619 5.92615 12.4532 6.41748 13.0593 6.41748Z"
              fill="#4A81ED"/>
        <path d="M17.9454 6.20791C17.5792 5.27531 16.9075 3.92971 15.7878 2.81529C14.672 1.7047 13.3407 1.05229 12.4203 0.700503C11.4099 0.314316 10.2617 0.557736 9.49519 1.32061L6.8018 4.00139C6.0034 4.79602 5.77328 6.01874 6.22915 7.04396C6.37051 7.36194 6.52426 7.67296 6.68852 7.97344L0.777067 13.8849C0.64843 14.0135 0.576172 14.188 0.576172 14.3699V17.3878C0.576172 17.7666 0.883242 18.0737 1.26206 18.0737H4.27994C4.65876 18.0737 4.96583 17.7666 4.96583 17.3878V16.1532L6.20042 16.1532C6.57923 16.1532 6.8863 15.8461 6.8863 15.4673V14.2327H8.12089C8.4997 14.2327 8.80677 13.9256 8.80677 13.5468C8.80677 13.168 8.4997 12.8609 8.12089 12.8609H6.20042C5.8216 12.8609 5.51453 13.168 5.51453 13.5468V14.7814L4.27994 14.7814C3.90113 14.7814 3.59406 15.0885 3.59406 15.4673V16.7019H1.94794V14.654L8.03018 8.57177C8.25364 8.34831 8.29552 8.00115 8.13162 7.73098C7.89393 7.3392 7.67558 6.92054 7.48267 6.48662C7.25637 5.97766 7.37166 5.36966 7.76958 4.97359L10.4629 2.29285C10.8475 1.91016 11.4236 1.78811 11.9307 1.98187C12.727 2.28627 13.8748 2.84656 14.8202 3.78753C15.7713 4.73418 16.3504 5.89892 16.6686 6.70929C16.8672 7.21506 16.7465 7.78966 16.3612 8.1732L13.6353 10.8864C13.2383 11.2814 12.6458 11.3969 12.1258 11.1806C11.6968 11.0022 11.2814 10.7903 10.8912 10.5507C10.5684 10.3526 10.146 10.4537 9.94784 10.7765C9.74969 11.0994 9.85076 11.5217 10.1736 11.7199C10.6246 11.9967 11.1042 12.2414 11.5989 12.4472C12.6326 12.8772 13.8118 12.6461 14.6029 11.8586L17.3288 9.14551C18.102 8.37599 18.344 7.22291 17.9454 6.20791Z"
              fill="#4A81ED"/>
    </g>
</svg>
