<svg width="18" height="18" viewBox="0 0 18 18" fill="none" xmlns="http://www.w3.org/2000/svg">
    <g>
        <path d="M13.5154 13.2126V8.18979C13.5154 5.63701 11.4384 3.56006 8.88563 3.56006C6.33285 3.56006 4.2559 5.63701 4.2559 8.18979V13.2126L3.42359 14.8772H2.19824V15.906H5.28473V17.9637H6.31356V15.906H11.4577V17.9637H12.4865V15.906H15.573V14.8772H14.3477L13.5154 13.2126ZM5.28473 8.18979C5.28473 6.2042 6.90005 4.58889 8.88563 4.58889C10.8712 4.58889 12.4865 6.2042 12.4865 8.18979V12.8195H9.40005V9.64462C9.99886 9.43216 10.4289 8.8604 10.4289 8.18979C10.4289 7.33886 9.73656 6.64655 8.88563 6.64655C8.03471 6.64655 7.34239 7.33886 7.34239 8.18979C7.34239 8.8604 7.77241 9.43216 8.37122 9.64462V12.8195H5.28473V8.18979ZM8.37122 8.18979C8.37122 7.90619 8.60204 7.67538 8.88563 7.67538C9.16923 7.67538 9.40005 7.90619 9.40005 8.18979C9.40005 8.47339 9.16923 8.7042 8.88563 8.7042C8.60204 8.7042 8.37122 8.47339 8.37122 8.18979ZM5.08821 13.8484H12.6831L13.1975 14.8772H4.57379L5.08821 13.8484Z"
              fill="#4A81ED"/>
        <path d="M8.37109 0.404785H9.39992V2.53103H8.37109V0.404785Z" fill="#4A81ED"/>
        <path d="M13.9784 2.36963L14.7058 3.09704L13.2509 4.55201L12.5234 3.82459L13.9784 2.36963Z" fill="#4A81ED"/>
        <path d="M14.5439 7.67529H16.6016V8.70412H14.5439V7.67529Z" fill="#4A81ED"/>
        <path d="M1.16992 7.67529H3.22758V8.70412H1.16992V7.67529Z" fill="#4A81ED"/>
        <path d="M3.79382 2.36963L5.24878 3.82459L4.52137 4.55214L3.06641 3.09704L3.79382 2.36963Z" fill="#4A81ED"/>
    </g>
</svg>
