<svg width="231" height="70" viewBox="0 0 231 70" fill="none" xmlns="http://www.w3.org/2000/svg">
<path d="M65.6248 46.178V23.712C65.6249 21.7276 65.0995 19.7791 64.1027 18.0669C63.1059 16.3547 61.6736 14.9408 59.9534 13.9707L39.5367 2.4537C37.8793 1.5188 36.0111 1.02783 34.111 1.02783C32.2109 1.02783 30.3427 1.5188 28.6853 2.4537L8.2613 13.9707C6.54107 14.9408 5.10883 16.3547 4.112 18.0669C3.11517 19.7791 2.58975 21.7276 2.58984 23.712V46.1795C2.58975 48.1639 3.11517 50.1124 4.112 51.8246C5.10883 53.5367 6.54107 54.9506 8.2613 55.9208L23.6248 64.5849L28.6823 67.4378C30.3398 68.3727 32.208 68.8636 34.1081 68.8636C36.0081 68.8636 37.8764 68.3727 39.5338 67.4378L59.9505 55.9208C61.6715 54.9509 63.1044 53.5369 64.1018 51.8244C65.0992 50.112 65.6249 48.1629 65.6248 46.178Z" fill="#4A81ED"/>
<path d="M28.9636 55.7167C28.7871 55.7167 28.6131 55.6745 28.4561 55.5934L19.8329 51.1454C19.6507 51.0514 19.4978 50.9087 19.391 50.7329C19.2842 50.5571 19.2277 50.355 19.2277 50.149V21.1863L12.8519 24.5072V44.9789C12.8415 45.2687 12.7197 45.5431 12.5123 45.7444C12.3049 45.9456 12.028 46.0581 11.7399 46.0581C11.4518 46.0581 11.1749 45.9456 10.9675 45.7444C10.7601 45.5431 10.6384 45.2687 10.6279 44.9789V23.8263C10.6279 23.6212 10.6839 23.42 10.7899 23.2448C10.8959 23.0696 11.0477 22.927 11.2288 22.8328L19.8329 18.3555C20.0024 18.2674 20.1916 18.2247 20.3822 18.2314C20.5729 18.2381 20.7586 18.294 20.9216 18.3938C21.0846 18.4935 21.2193 18.6338 21.3129 18.8011C21.4065 18.9683 21.4558 19.157 21.4561 19.349V49.4666L27.8538 52.767V15.7125C27.8538 15.4155 27.971 15.1307 28.1797 14.9207C28.3883 14.7107 28.6714 14.5928 28.9665 14.5928H38.975C39.2701 14.5928 39.5531 14.7107 39.7618 14.9207C39.9705 15.1307 40.0877 15.4155 40.0877 15.7125V52.7773L46.6181 49.4548V18.8353C46.6187 18.6407 46.6697 18.4496 46.7661 18.2809C46.8624 18.1121 47.0008 17.9715 47.1676 17.873C47.3344 17.7745 47.5238 17.7214 47.7172 17.7191C47.9106 17.7167 48.1013 17.7651 48.2704 17.8594L56.9052 22.7242C57.0744 22.8196 57.2159 22.9577 57.3156 23.1251C57.4154 23.2924 57.47 23.483 57.474 23.6781L57.6388 31.676C57.6388 31.6848 57.6388 31.6936 57.6388 31.7039L57.5892 44.8571C57.588 45.1531 57.4705 45.4365 57.2622 45.6455C57.054 45.8545 56.772 45.9721 56.4779 45.9724C56.1831 45.9713 55.9007 45.8524 55.6929 45.6419C55.4851 45.4314 55.3688 45.1465 55.3696 44.8498L55.4192 31.7098L55.2733 24.3722L48.8494 20.7534V50.1372C48.8492 50.344 48.7922 50.5466 48.6846 50.7228C48.577 50.8989 48.4231 51.0416 48.2398 51.1351L39.4898 55.5963C39.3203 55.6825 39.1317 55.7236 38.9419 55.7156C38.7521 55.7077 38.5676 55.651 38.4057 55.551C38.2439 55.4509 38.1102 55.3109 38.0174 55.1442C37.9246 54.9774 37.8757 54.7896 37.8754 54.5984V16.8307H30.0763V54.5911C30.0763 54.8881 29.959 55.1729 29.7504 55.3829C29.5417 55.5928 29.2587 55.7108 28.9636 55.7108V55.7167Z" fill="white"/>
<path d="M40.6234 25.3962C41.5733 24.4403 41.5733 22.8904 40.6234 21.9345C39.6734 20.9785 38.1332 20.9785 37.1833 21.9345C36.2333 22.8904 36.2333 24.4403 37.1833 25.3962C38.1332 26.3521 39.6734 26.3521 40.6234 25.3962Z" fill="#4A81ED"/>
<path d="M38.9029 26.8818C38.4832 26.8825 38.0674 26.7997 37.6795 26.6383C37.2916 26.4769 36.9392 26.24 36.6425 25.9411C36.1181 25.4147 35.7913 24.7215 35.7179 23.9798C35.6445 23.238 35.829 22.4936 36.24 21.8734C36.651 21.2533 37.263 20.7957 37.9717 20.5788C38.6805 20.3619 39.442 20.3991 40.1265 20.684C40.8111 20.9688 41.3762 21.4838 41.7257 22.141C42.0751 22.7983 42.1872 23.5572 42.0429 24.2883C41.8986 25.0194 41.5067 25.6775 40.9341 26.1505C40.3615 26.6234 39.6437 26.8819 38.9029 26.8818ZM37.7231 24.8537C37.9565 25.0885 38.2537 25.2483 38.5773 25.3131C38.901 25.3778 39.2364 25.3446 39.5412 25.2175C39.8461 25.0904 40.1066 24.8753 40.2899 24.5992C40.4732 24.3231 40.5711 23.9985 40.5711 23.6665C40.5711 23.3345 40.4732 23.0099 40.2899 22.7338C40.1066 22.4577 39.8461 22.2426 39.5412 22.1155C39.2364 21.9884 38.901 21.9552 38.5773 22.0199C38.2537 22.0847 37.9565 22.2445 37.7231 22.4793C37.4105 22.7943 37.235 23.2213 37.235 23.6665C37.235 24.1117 37.4105 24.5387 37.7231 24.8537Z" fill="white"/>
<path d="M58.4691 33.1735C59.419 32.2176 59.419 30.6677 58.4691 29.7118C57.5191 28.7559 55.9789 28.7559 55.029 29.7118C54.079 30.6677 54.079 32.2176 55.029 33.1735C55.9789 34.1294 57.5191 34.1294 58.4691 33.1735Z" fill="#4A81ED"/>
<path d="M56.7496 34.6582C56.3298 34.6589 55.9141 34.5761 55.5262 34.4147C55.1383 34.2533 54.7859 34.0163 54.4892 33.7175C53.9647 33.1911 53.638 32.4979 53.5646 31.7561C53.4912 31.0144 53.6757 30.27 54.0867 29.6498C54.4977 29.0296 55.1097 28.5721 55.8184 28.3552C56.5271 28.1383 57.2886 28.1755 57.9732 28.4603C58.6577 28.7452 59.2229 29.2601 59.5723 29.9174C59.9218 30.5747 60.0339 31.3335 59.8896 32.0647C59.7452 32.7958 59.3534 33.4539 58.7808 33.9268C58.2082 34.3998 57.4904 34.6582 56.7496 34.6582ZM56.7496 29.7655C56.4196 29.7651 56.0969 29.8632 55.8223 30.0475C55.5478 30.2317 55.3338 30.4939 55.2075 30.8007C55.0811 31.1074 55.0481 31.4451 55.1126 31.7707C55.1771 32.0964 55.3362 32.3955 55.5698 32.6301C55.7637 32.8256 56.0025 32.97 56.2651 33.0504C56.5277 33.1308 56.806 33.1448 57.0752 33.0911C57.3445 33.0374 57.5964 32.9177 57.8087 32.7425C58.0209 32.5674 58.187 32.3423 58.2921 32.0871C58.3971 31.8319 58.4381 31.5546 58.4111 31.2797C58.3842 31.0048 58.2903 30.7409 58.1378 30.5112C57.9852 30.2816 57.7787 30.0934 57.5365 29.9633C57.2944 29.8333 57.0241 29.7653 56.7496 29.7655Z" fill="white"/>
<path d="M21.9974 44.1872C22.9473 43.2313 22.9473 41.6814 21.9974 40.7255C21.0474 39.7696 19.5073 39.7696 18.5573 40.7255C17.6074 41.6814 17.6074 43.2313 18.5573 44.1872C19.5073 45.1431 21.0474 45.1431 21.9974 44.1872Z" fill="#4A81ED"/>
<path d="M20.271 45.6733C19.851 45.6744 19.435 45.5917 19.047 45.43C18.659 45.2683 18.3067 45.0308 18.0105 44.7311C17.4876 44.2049 17.1621 43.5125 17.0896 42.7719C17.0171 42.0312 17.2021 41.2882 17.6129 40.6694C18.0238 40.0506 18.6352 39.5943 19.3429 39.3783C20.0506 39.1622 20.8109 39.1998 21.4941 39.4846C22.1774 39.7694 22.7414 40.2838 23.0901 40.9401C23.4387 41.5964 23.5504 42.3541 23.4061 43.084C23.2619 43.8139 22.8706 44.4709 22.2989 44.9431C21.7272 45.4152 21.0105 45.6733 20.271 45.6733ZM20.271 40.7777C19.9424 40.7805 19.6219 40.8809 19.3499 41.0663C19.0778 41.2517 18.8662 41.5138 18.7416 41.8198C18.6169 42.1258 18.5849 42.4619 18.6494 42.7862C18.714 43.1104 18.8722 43.4082 19.1043 43.6423C19.2986 43.8382 19.538 43.9827 19.8012 44.063C20.0644 44.1434 20.3432 44.1569 20.6129 44.1026C20.8826 44.0482 21.1347 43.9276 21.3469 43.7515C21.5591 43.5754 21.7247 43.3492 21.829 43.0931C21.9333 42.837 21.9731 42.5589 21.9447 42.2836C21.9164 42.0083 21.8209 41.7443 21.6667 41.5152C21.5125 41.286 21.3044 41.0987 21.0608 40.9701C20.8173 40.8414 20.546 40.7753 20.271 40.7777Z" fill="white"/>
<path d="M78.6855 28.735C78.6855 21.804 83.1947 17.5967 89.2628 17.5967C92.5835 17.5967 94.4691 18.5447 95.6985 19.3298V22.6288H93.9762C93.0749 21.7218 91.5568 20.8545 89.2205 20.8545C85.531 20.8545 82.9497 23.6604 82.9497 28.7336C82.9497 33.9315 85.3676 36.5304 89.1403 36.5304C91.9287 36.5304 93.4453 35.4577 94.3466 34.4671H95.9041V37.5195C94.6747 38.5101 92.4201 39.7472 89.0572 39.7472C82.5414 39.7487 78.6855 35.5824 78.6855 28.735Z" fill="#266CDD"/>
<path d="M89.0572 40.4093C85.6826 40.4093 82.8783 39.3219 80.9489 37.2629C79.0195 35.204 78.0322 32.2734 78.0322 28.7353C78.0322 25.2133 79.1391 22.2342 81.2406 20.1019C83.2472 18.0606 86.0997 16.9351 89.2701 16.9351C92.7337 16.9351 94.717 17.9154 96.0572 18.7694C96.1506 18.829 96.2275 18.9114 96.2808 19.0089C96.3341 19.1064 96.362 19.2158 96.362 19.3271V22.629C96.362 22.8041 96.2929 22.9721 96.1698 23.0959C96.0467 23.2198 95.8798 23.2894 95.7058 23.2894H93.9762C93.8022 23.2892 93.6354 23.2195 93.5124 23.0956C92.7964 22.3751 91.4708 21.5151 89.2206 21.5151C85.7045 21.5151 83.6045 24.2139 83.6045 28.7338C83.6045 33.3359 85.5703 35.8703 89.1389 35.8703C91.1806 35.8703 92.7293 35.2657 93.861 34.0212C93.9225 33.9537 93.9973 33.8997 94.0807 33.8628C94.164 33.826 94.2541 33.8069 94.3451 33.807H95.9026C96.0767 33.807 96.2436 33.8765 96.3667 34.0004C96.4898 34.1242 96.5589 34.2922 96.5589 34.4673V37.5198C96.5588 37.6187 96.5366 37.7164 96.4939 37.8055C96.4513 37.8947 96.3892 37.9731 96.3124 38.0349C95.2128 38.9242 92.8066 40.4093 89.0572 40.4093ZM89.2629 18.2499C83.3289 18.2499 79.3462 22.4602 79.3462 28.7279C79.3462 35.2114 82.9789 39.0827 89.0616 39.0827C92.1504 39.0827 94.1949 37.9732 95.2522 37.1896V35.1292H94.631C93.2718 36.4984 91.4226 37.1925 89.1447 37.1925C87.0491 37.1925 85.3151 36.4367 84.131 35.0059C82.9147 33.5384 82.2979 31.4281 82.2979 28.7353C82.2979 26.1393 82.957 23.9732 84.2024 22.4705C85.4479 20.9678 87.1731 20.1959 89.2264 20.1959C91.7333 20.1959 93.317 21.1189 94.2445 21.9701H95.0481V19.6984C93.8581 18.991 92.1329 18.2573 89.2614 18.2573L89.2629 18.2499Z" fill="#266CDD"/>
<path d="M105.702 23.7426V39.5021H101.521V17.9298H104.146C105.166 17.9298 105.621 18.3832 105.703 20.9C107.138 19.2505 109.187 17.7229 111.853 17.7229C112.242 17.7187 112.629 17.7747 113 17.8887V21.3535C113 21.3535 112.222 21.3124 112.057 21.3124C109.712 21.3013 107.447 22.1674 105.702 23.7426Z" fill="#266CDD"/>
<path d="M105.702 40.1626H101.521C101.346 40.1626 101.18 40.0931 101.056 39.9692C100.933 39.8454 100.864 39.6774 100.864 39.5023V17.9299C100.864 17.7548 100.933 17.5868 101.056 17.463C101.18 17.3391 101.346 17.2696 101.521 17.2696H104.146C105.48 17.2696 106.022 18.0371 106.238 19.4106C107.937 17.8698 109.856 17.0626 111.853 17.0626C112.312 17.059 112.769 17.1263 113.208 17.2622C113.338 17.306 113.452 17.3901 113.533 17.5025C113.613 17.615 113.657 17.7502 113.657 17.8888V21.3536C113.657 21.4433 113.638 21.532 113.603 21.6143C113.568 21.6966 113.516 21.7709 113.452 21.8325C113.387 21.8942 113.311 21.9419 113.227 21.9729C113.143 22.0038 113.054 22.0173 112.966 22.0125C112.674 21.9964 112.163 21.9729 112.057 21.9729C109.972 21.9571 107.95 22.6944 106.359 24.0509V39.5023C106.359 39.5891 106.342 39.6751 106.309 39.7553C106.276 39.8355 106.228 39.9084 106.167 39.9697C106.105 40.0311 106.033 40.0797 105.953 40.1128C105.873 40.1459 105.788 40.1628 105.702 40.1626ZM102.177 38.8419H105.045V23.7427C105.045 23.6488 105.065 23.556 105.104 23.4705C105.142 23.385 105.198 23.3087 105.268 23.2467C107.135 21.568 109.552 20.6424 112.056 20.6478C112.111 20.6478 112.217 20.6478 112.347 20.6566V18.4127C112.184 18.3909 112.02 18.3801 111.856 18.3805C109.805 18.3805 107.904 19.374 106.2 21.3316C106.114 21.4312 105.999 21.5021 105.872 21.5353C105.744 21.5685 105.61 21.5624 105.486 21.5178C105.362 21.4732 105.254 21.3921 105.177 21.2851C105.099 21.1781 105.055 21.0501 105.051 20.9178C104.975 18.5859 104.628 18.5859 104.15 18.5859H102.177V38.8419Z" fill="#266CDD"/>
<path d="M120.458 29.5187C120.663 34.6344 122.959 36.573 126.977 36.573C129.723 36.573 131.61 35.6661 132.921 34.5933H134.274V37.5283C132.717 38.5952 130.375 39.7487 126.363 39.7487C119.8 39.7487 116.154 35.5413 116.154 28.7747C116.154 21.8847 120.383 17.5952 125.953 17.5952C131.61 17.5952 134.93 20.9367 134.93 28.0321C134.93 28.6103 134.89 29.3529 134.89 29.5172L120.458 29.5187ZM120.54 26.7554H130.789C130.707 22.0931 128.903 20.4847 125.951 20.4847C123.166 20.4833 120.993 22.1753 120.541 26.7539L120.54 26.7554Z" fill="#266CDD"/>
<path d="M126.363 40.4093C119.56 40.4093 115.498 36.0596 115.498 28.7749C115.498 21.8042 119.797 16.9351 125.953 16.9351C129.015 16.9351 131.407 17.8699 133.052 19.7116C134.735 21.5959 135.588 24.3959 135.588 28.0323C135.588 28.4212 135.571 28.885 135.557 29.1917C135.557 29.3384 135.546 29.4632 135.546 29.5175C135.546 29.6926 135.477 29.8606 135.354 29.9844C135.231 30.1083 135.064 30.1778 134.89 30.1778H121.156C121.485 34.1871 123.255 35.9114 126.978 35.9114C129.166 35.9114 131.022 35.295 132.508 34.0785C132.625 33.9831 132.772 33.9313 132.922 33.9317H134.276C134.45 33.9317 134.617 34.0013 134.74 34.1251C134.863 34.249 134.932 34.4169 134.932 34.5921V37.5271C134.931 37.6349 134.904 37.7409 134.853 37.8358C134.802 37.9307 134.729 38.0116 134.64 38.0715C133.185 39.0724 130.736 40.4093 126.363 40.4093ZM125.953 18.2499C120.486 18.2499 116.811 22.4778 116.811 28.769C116.811 35.3229 120.292 39.0827 126.363 39.0827C130.096 39.0827 132.273 38.0378 133.618 37.1617V35.2539H133.145C131.451 36.5747 129.376 37.2336 126.972 37.2336C122.352 37.2336 120.006 34.7183 119.799 29.5453C119.795 29.4564 119.81 29.3677 119.841 29.2845C119.872 29.2013 119.92 29.1254 119.981 29.0612C120.043 28.9971 120.116 28.946 120.198 28.9112C120.279 28.8764 120.366 28.8585 120.455 28.8585H134.252C134.262 28.5944 134.271 28.2965 134.271 28.0338C134.276 21.546 131.476 18.2573 125.953 18.2573V18.2499ZM130.79 27.4086H120.541C120.449 27.4087 120.359 27.3894 120.275 27.3521C120.191 27.3147 120.116 27.2602 120.055 27.1919C119.993 27.1236 119.946 27.0431 119.918 26.9556C119.889 26.8681 119.879 26.7754 119.888 26.6837C120.446 21.0089 123.494 19.8187 125.953 19.8187C129.568 19.8187 131.365 22.0816 131.446 26.738C131.448 26.8257 131.432 26.9128 131.4 26.9943C131.368 27.0758 131.319 27.15 131.258 27.2126C131.197 27.2751 131.124 27.3248 131.044 27.3587C130.964 27.3927 130.877 27.4101 130.79 27.4101V27.4086ZM121.285 26.0879H130.109C129.852 21.7441 127.876 21.138 125.953 21.138C123.351 21.1439 121.783 22.8095 121.285 26.0938V26.0879Z" fill="#266CDD"/>
<path d="M152.231 37.1089C150.627 38.842 148.705 39.7504 145.836 39.7504C141.941 39.7504 139.113 37.5227 139.113 33.3154C139.113 28.9012 142.597 26.7557 147.436 26.7557C149.01 26.7423 150.579 26.9367 152.103 27.3339V24.4869C152.103 21.929 150.627 20.8181 147.798 20.8181C145.256 20.8181 143.288 21.6018 141.935 22.5923H140.623V19.4534C143.002 18.2084 145.649 17.5709 148.33 17.597C153.414 17.597 156.325 19.4534 156.325 24.2007V39.5024H154.685C153.051 39.5024 152.477 39.049 152.231 37.1089ZM152.109 34.3867V29.8081C150.8 29.5335 149.468 29.3953 148.132 29.3957C145.262 29.3957 143.213 30.4684 143.213 33.0645C143.213 35.7456 144.894 36.8594 147.19 36.8594C149.443 36.8624 150.878 35.7896 152.104 34.3867H152.109Z" fill="#266CDD"/>
<path d="M145.833 40.4089C143.697 40.4089 141.877 39.7838 140.572 38.5995C139.186 37.3433 138.454 35.5177 138.454 33.3165C138.454 28.7951 141.808 26.0964 147.433 26.0964C148.783 26.0838 150.13 26.2201 151.451 26.5029V24.485C151.451 22.3748 150.36 21.4737 147.805 21.4737C145.139 21.4737 143.356 22.3704 142.329 23.1217C142.217 23.2039 142.081 23.2481 141.942 23.2479H140.63C140.456 23.2479 140.289 23.1784 140.166 23.0545C140.043 22.9307 139.974 22.7627 139.974 22.5876V19.453C139.974 19.3309 140.009 19.2114 140.073 19.1078C140.137 19.0042 140.228 18.9205 140.337 18.866C142.808 17.5772 145.554 16.9162 148.337 16.9406C151.14 16.9406 153.202 17.4836 154.642 18.5989C156.199 19.8066 156.988 21.6909 156.988 24.2018V39.502C156.988 39.6772 156.919 39.8451 156.796 39.969C156.673 40.0928 156.506 40.1624 156.332 40.1624H154.693C153.102 40.1624 152.26 39.6796 151.837 38.4014C150.208 39.7838 148.312 40.4089 145.833 40.4089ZM147.437 27.4142C145.133 27.4142 139.771 27.9894 139.771 33.3135C139.771 36.9295 142.039 39.0882 145.838 39.0882C148.378 39.0882 150.202 38.3383 151.753 36.6595C151.838 36.5675 151.947 36.5018 152.067 36.4701C152.188 36.4383 152.315 36.4418 152.434 36.4802C152.553 36.5185 152.658 36.5901 152.738 36.6866C152.818 36.783 152.868 36.9004 152.884 37.0249C153.093 38.6729 153.414 38.8416 154.693 38.8416H155.676V24.1959C155.676 20.0869 153.412 18.2555 148.337 18.2555C145.894 18.2344 143.48 18.7872 141.286 19.8697V21.933H141.732C142.938 21.0951 144.931 20.1588 147.803 20.1588C151.095 20.1588 152.762 21.6161 152.762 24.4909V27.3379C152.762 27.4383 152.739 27.5373 152.696 27.6276C152.652 27.7178 152.588 27.7969 152.51 27.8587C152.431 27.9205 152.34 27.9635 152.242 27.9844C152.144 28.0053 152.043 28.0035 151.947 27.9792C150.475 27.5935 148.959 27.4035 147.437 27.4142ZM147.191 37.5209C144.29 37.5209 142.558 35.8553 142.558 33.0655C142.558 30.3125 144.591 28.7335 148.133 28.7335C149.514 28.7326 150.891 28.8752 152.243 29.159C152.391 29.1898 152.523 29.271 152.619 29.3889C152.714 29.5068 152.766 29.6542 152.766 29.8062V34.3848C152.767 34.547 152.708 34.7037 152.601 34.8251C151.499 36.0798 149.887 37.5224 147.188 37.5224L147.191 37.5209ZM148.133 30.0542C145.304 30.0542 143.87 31.0668 143.87 33.0655C143.87 35.145 144.987 36.2001 147.191 36.2001C149.233 36.2001 150.497 35.1831 151.454 34.1324V30.3521C150.357 30.1533 149.246 30.0536 148.132 30.0542H148.133Z" fill="#266CDD"/>
<path d="M161.74 28.735C161.74 21.804 166.249 17.5967 172.318 17.5967C175.638 17.5967 177.524 18.5447 178.753 19.3298V22.6288H177.031C176.13 21.7218 174.611 20.8545 172.275 20.8545C168.586 20.8545 166.004 23.6604 166.004 28.7336C166.004 33.9315 168.422 36.5304 172.195 36.5304C174.983 36.5304 176.5 35.4577 177.401 34.4671H178.959V37.5195C177.729 38.5101 175.475 39.7472 172.112 39.7472C165.595 39.7487 161.74 35.5824 161.74 28.735Z" fill="#266CDD"/>
<path d="M172.114 40.4093C168.739 40.4093 165.935 39.3219 164.006 37.2629C162.076 35.204 161.089 32.2734 161.089 28.7353C161.089 25.2133 162.196 22.2342 164.297 20.1019C166.304 18.0606 169.156 16.9351 172.327 16.9351C175.79 16.9351 177.774 17.9154 179.114 18.7694C179.207 18.829 179.284 18.9114 179.337 19.0089C179.391 19.1064 179.419 19.2158 179.419 19.3271V22.629C179.419 22.8041 179.349 22.9721 179.226 23.0959C179.103 23.2198 178.936 23.2894 178.762 23.2894H177.04C176.866 23.2892 176.699 23.2195 176.576 23.0956C175.86 22.3751 174.535 21.5151 172.284 21.5151C168.768 21.5151 166.668 24.2139 166.668 28.7338C166.668 33.3359 168.634 35.8703 172.203 35.8703C174.244 35.8703 175.793 35.2657 176.925 34.0212C176.986 33.9537 177.061 33.8997 177.145 33.8628C177.228 33.826 177.318 33.8069 177.409 33.807H178.967C179.141 33.807 179.308 33.8765 179.431 34.0004C179.554 34.1242 179.623 34.2922 179.623 34.4673V37.5198C179.623 37.6187 179.601 37.7164 179.558 37.8055C179.515 37.8947 179.453 37.9731 179.376 38.0349C178.268 38.9242 175.862 40.4093 172.114 40.4093ZM172.319 18.2499C166.386 18.2499 162.403 22.4602 162.403 28.7279C162.403 35.2114 166.036 39.0827 172.118 39.0827C175.207 39.0827 177.252 37.9732 178.309 37.1896V35.1292H177.688C176.328 36.4984 174.479 37.1925 172.201 37.1925C170.106 37.1925 168.373 36.4367 167.188 35.0059C165.971 33.5384 165.354 31.4281 165.354 28.7353C165.354 26.1393 166.014 23.9732 167.259 22.4705C168.504 20.9678 170.23 20.1959 172.283 20.1959C174.79 20.1959 176.374 21.1189 177.301 21.9701H178.103V19.6984C176.913 18.991 175.188 18.2573 172.318 18.2573L172.319 18.2499Z" fill="#266CDD"/>
<path d="M184.288 13.1414C184.28 12.8113 184.338 12.483 184.458 12.1757C184.578 11.8684 184.757 11.5883 184.987 11.352C185.216 11.1157 185.49 10.9279 185.792 10.7997C186.094 10.6715 186.419 10.6055 186.747 10.6055C187.075 10.6055 187.4 10.6715 187.703 10.7997C188.005 10.9279 188.279 11.1157 188.508 11.352C188.737 11.5883 188.917 11.8684 189.037 12.1757C189.157 12.483 189.215 12.8113 189.207 13.1414C189.207 14.4622 188.059 15.5335 186.747 15.5335C185.434 15.5335 184.288 14.4607 184.288 13.1414ZM184.616 39.5022V17.9299H186.949C188.59 17.9299 188.794 18.4244 188.794 21.1481V39.5022H184.616Z" fill="#266CDD"/>
<path d="M188.798 40.1626H184.617C184.443 40.1626 184.276 40.093 184.153 39.9691C184.03 39.8453 183.961 39.6773 183.961 39.5022V17.9299C183.961 17.7547 184.03 17.5868 184.153 17.4629C184.276 17.3391 184.443 17.2695 184.617 17.2695H186.95C189.34 17.2695 189.451 18.599 189.451 21.1481V39.5022C189.451 39.6768 189.383 39.8444 189.26 39.9681C189.138 40.0919 188.971 40.1618 188.798 40.1626ZM185.273 38.8418H188.142V21.1437C188.142 18.5858 188.029 18.5858 186.953 18.5858H185.273V38.8418ZM186.749 16.1938C185.06 16.1938 183.633 14.7953 183.633 13.1414C183.624 12.724 183.698 12.3089 183.85 11.9206C184.003 11.5323 184.231 11.1786 184.521 10.8801C184.811 10.5817 185.158 10.3446 185.54 10.1828C185.923 10.0209 186.333 9.9375 186.748 9.9375C187.163 9.9375 187.574 10.0209 187.956 10.1828C188.339 10.3446 188.685 10.5817 188.976 10.8801C189.266 11.1786 189.494 11.5323 189.646 11.9206C189.799 12.3089 189.873 12.724 189.864 13.1414C189.864 14.7953 188.436 16.1938 186.748 16.1938H186.749ZM186.749 11.3261C186.272 11.3322 185.817 11.5254 185.48 11.8645C185.143 12.2036 184.951 12.6618 184.945 13.1414C184.945 14.0806 185.77 14.8731 186.749 14.8731C187.728 14.8731 188.553 14.0791 188.553 13.1414C188.547 12.6616 188.355 12.2032 188.017 11.864C187.68 11.5248 187.224 11.3318 186.748 11.3261H186.749Z" fill="#266CDD"/>
<path d="M193.921 17.9271H196.504V12.0688H200.685V17.9271H205.441V20.8974H200.685V33.6867C200.685 35.9554 201.629 36.6217 203.759 36.6217H205.686V39.3439C204.573 39.6243 203.43 39.7629 202.283 39.7563C198.638 39.7563 196.503 38.2301 196.503 34.1798V20.8974H193.92L193.921 17.9271Z" fill="#266CDD"/>
<path d="M202.285 40.409C198.014 40.409 195.848 38.3134 195.848 34.1795V21.5589H193.922C193.748 21.5589 193.581 21.4894 193.458 21.3655C193.335 21.2417 193.266 21.0737 193.266 20.8986V17.9269C193.266 17.7517 193.335 17.5837 193.458 17.4599C193.581 17.3361 193.748 17.2665 193.922 17.2665H195.854V12.0686C195.854 11.8934 195.923 11.7255 196.046 11.6016C196.169 11.4778 196.336 11.4082 196.51 11.4082H200.691C200.865 11.4082 201.032 11.4778 201.155 11.6016C201.279 11.7255 201.348 11.8934 201.348 12.0686V17.2665H205.447C205.621 17.2665 205.788 17.3361 205.911 17.4599C206.034 17.5837 206.103 17.7517 206.103 17.9269V20.8971C206.103 21.0722 206.034 21.2402 205.911 21.364C205.788 21.4879 205.621 21.5575 205.447 21.5575H201.348V33.6864C201.348 35.4679 201.867 35.9552 203.766 35.9552H205.692C205.866 35.9552 206.033 36.0247 206.156 36.1486C206.279 36.2724 206.348 36.4404 206.348 36.6155V39.3378C206.348 39.4835 206.3 39.6251 206.212 39.7406C206.124 39.8561 206 39.9389 205.86 39.9761C204.691 40.2712 203.49 40.4166 202.285 40.409ZM194.578 20.2367H196.505C196.679 20.2367 196.846 20.3063 196.969 20.4301C197.092 20.554 197.161 20.7219 197.161 20.8971V34.1809C197.161 37.5753 198.742 39.0898 202.285 39.0898C203.208 39.0928 204.128 39.0008 205.031 38.8153V37.2745H203.761C201.146 37.2745 200.031 36.2017 200.031 33.6849V20.8971C200.031 20.7219 200.1 20.554 200.223 20.4301C200.346 20.3063 200.513 20.2367 200.687 20.2367H204.786V18.5872H200.687C200.513 18.5872 200.346 18.5177 200.223 18.3938C200.1 18.27 200.031 18.102 200.031 17.9269V12.729H197.167V17.9269C197.167 18.102 197.098 18.27 196.974 18.3938C196.851 18.5177 196.684 18.5872 196.51 18.5872H194.584L194.578 20.2367Z" fill="#266CDD"/>
<path d="M214.541 44.989L217.493 38.2649L209.459 19.0773V17.9224H213.396L219.505 33.0626H219.546L225.244 17.9224H228.852V19.0773L218.152 46.1806H214.544L214.541 44.989Z" fill="#266CDD"/>
<path d="M218.149 46.8456H214.541C214.367 46.8456 214.2 46.7761 214.077 46.6522C213.954 46.5284 213.885 46.3604 213.885 46.1853V44.9892C213.885 44.8973 213.904 44.8063 213.94 44.7222L216.778 38.2651L208.854 19.3446C208.82 19.2633 208.803 19.1759 208.803 19.0878V17.9328C208.803 17.7577 208.872 17.5897 208.995 17.4659C209.118 17.342 209.285 17.2725 209.459 17.2725H213.396C213.527 17.2725 213.655 17.3117 213.763 17.3852C213.871 17.4587 213.956 17.563 214.005 17.6848L219.505 31.318L224.631 17.6995C224.679 17.574 224.763 17.4659 224.872 17.3896C224.982 17.3133 225.112 17.2725 225.245 17.2725H228.853C229.027 17.2725 229.194 17.342 229.317 17.4659C229.44 17.5897 229.51 17.7577 229.51 17.9328V19.0775C229.51 19.1609 229.494 19.2436 229.463 19.3211L218.763 46.4245C218.715 46.5489 218.631 46.6557 218.521 46.7309C218.411 46.8061 218.282 46.8461 218.149 46.8456ZM215.198 45.5249H217.703L228.193 18.9557V18.5873H225.695L220.153 33.3006C220.106 33.4261 220.022 33.5342 219.912 33.6105C219.802 33.6867 219.672 33.7276 219.539 33.7276H219.498C219.368 33.7262 219.242 33.686 219.134 33.612C219.027 33.5381 218.944 33.4338 218.896 33.3123L212.953 18.5844H210.115V18.9454L218.098 38.0083C218.134 38.091 218.152 38.1802 218.152 38.2703C218.152 38.3604 218.134 38.4495 218.098 38.5322L215.202 45.136L215.198 45.5249Z" fill="#266CDD"/>
<path d="M80.8779 50.0521C80.8779 49.5708 81.2425 49.3301 81.9717 49.3301H84.6375C85.3667 49.3301 85.7313 49.5708 85.7313 50.0521C85.7313 50.5334 85.3667 50.7702 84.6375 50.7624H84.0673V55.0944C84.0673 55.8204 83.8131 56.1833 83.3046 56.1833C82.7961 56.1833 82.5419 55.8204 82.5419 55.0944V50.7624H81.9717C81.2425 50.7624 80.8779 50.5256 80.8779 50.0521Z" fill="#4A81ED"/>
<path d="M87.7622 55.8913C87.6213 55.7504 87.5508 55.4965 87.5508 55.1297V50.4072C87.5508 50.0325 87.6193 49.7596 87.7564 49.5884C87.8935 49.4172 88.1784 49.3311 88.611 49.3301H89.8637C90.554 49.3301 91.114 49.4827 91.5437 49.7879C91.7455 49.9208 91.9104 50.1031 92.0229 50.3177C92.1354 50.5323 92.1918 50.7722 92.1868 51.0148C92.193 51.316 92.139 51.6155 92.0279 51.8953C91.8968 52.1725 91.6704 52.3925 91.3906 52.5146V52.5366C91.7239 52.6262 92.0221 52.8162 92.2451 53.081C92.4361 53.3704 92.5283 53.7145 92.5076 54.0613C92.5194 54.3389 92.4703 54.6157 92.3639 54.872C92.2576 55.1284 92.0966 55.3581 91.8922 55.545C91.482 55.9158 90.886 56.1012 90.1043 56.1012H88.5877C88.1784 56.1031 87.9032 56.0332 87.7622 55.8913ZM89.7383 51.9775C90.0795 51.9775 90.3148 51.9261 90.4441 51.8234C90.514 51.7574 90.5679 51.676 90.6015 51.5857C90.6352 51.4953 90.6477 51.3984 90.6381 51.3024C90.6381 50.867 90.3381 50.6494 89.7383 50.6494H89.0777V51.9789L89.7383 51.9775ZM89.8404 54.7745C90.2351 54.7745 90.5083 54.7095 90.6599 54.5793C90.7376 54.509 90.7984 54.422 90.8378 54.3246C90.8772 54.2273 90.8942 54.1222 90.8874 54.0173C90.8874 53.7121 90.8116 53.4963 90.6599 53.3701C90.5083 53.2439 90.2273 53.1808 89.817 53.1808H89.0762V54.7745H89.8404Z" fill="#4A81ED"/>
<path d="M94.7098 51.2909C94.8546 50.8818 95.0809 50.5068 95.3748 50.1888C95.6607 49.8827 96.0089 49.6425 96.3957 49.4844C97.2399 49.1543 98.1764 49.1543 99.0207 49.4844C99.4074 49.6425 99.7556 49.8828 100.041 50.1888C100.334 50.5068 100.558 50.8812 100.702 51.2894C101.01 52.2177 101.01 53.2214 100.702 54.1496C100.562 54.5535 100.341 54.9242 100.053 55.2385C99.7675 55.5433 99.4191 55.7817 99.0323 55.937C98.6103 56.1059 98.1594 56.1897 97.7052 56.1836C97.253 56.1901 96.8039 56.1063 96.384 55.937C95.9974 55.7815 95.649 55.5431 95.3632 55.2385C95.0742 54.9236 94.8515 54.5532 94.7084 54.1496C94.5471 53.6918 94.4681 53.2088 94.475 52.7232C94.4689 52.2356 94.5484 51.7507 94.7098 51.2909ZM96.5838 54.2024C96.7212 54.3756 96.8966 54.5143 97.0962 54.6077C97.2959 54.7012 97.5143 54.7468 97.7344 54.741C97.9553 54.7464 98.1744 54.7006 98.3749 54.6072C98.5755 54.5138 98.752 54.3753 98.8909 54.2024C99.1903 53.8434 99.34 53.3503 99.34 52.7232C99.34 52.0736 99.1942 51.5634 98.9025 51.1926C98.7632 51.0191 98.5871 50.8793 98.3872 50.7832C98.1872 50.6871 97.9684 50.6372 97.7468 50.6372C97.5252 50.6372 97.3064 50.6871 97.1064 50.7832C96.9065 50.8793 96.7304 51.0191 96.5911 51.1926C96.2994 51.5634 96.1536 52.0736 96.1536 52.7232C96.1439 53.3493 96.2872 53.8419 96.5838 54.201V54.2024Z" fill="#4A81ED"/>
<path d="M104.562 55.6683C104.452 55.8348 104.306 55.9738 104.135 56.0748C103.992 56.1477 103.834 56.185 103.674 56.1834C103.575 56.1927 103.476 56.1772 103.384 56.1383C103.293 56.0993 103.213 56.0382 103.151 55.9603C103.029 55.751 102.974 55.5094 102.992 55.2676V50.3354C102.992 49.6016 103.246 49.2347 103.754 49.2347C104.263 49.2347 104.517 49.6016 104.517 50.3354V53.5096L107.358 49.7484C107.461 49.6068 107.583 49.4812 107.722 49.3756C107.851 49.2863 108.004 49.2401 108.16 49.2435C108.266 49.2346 108.373 49.255 108.468 49.3026C108.563 49.3502 108.644 49.4232 108.701 49.5136C108.825 49.7516 108.881 50.0189 108.866 50.2869V55.1004C108.866 55.8263 108.612 56.1892 108.103 56.1892C107.595 56.1892 107.34 55.8263 107.34 55.1004V51.9775L104.562 55.6683ZM107.056 48.9178C107.185 48.8347 107.292 48.7216 107.368 48.5879C107.444 48.4543 107.487 48.3042 107.493 48.1502C107.501 48.0099 107.454 47.8721 107.362 47.7658C107.315 47.716 107.257 47.6771 107.193 47.6518C107.129 47.6264 107.06 47.6153 106.992 47.619C106.936 47.6124 106.879 47.6176 106.825 47.6342C106.771 47.6509 106.721 47.6787 106.678 47.7159C106.621 47.7819 106.57 47.8532 106.525 47.9287C106.475 48.0097 106.412 48.0812 106.337 48.14C106.212 48.2039 106.073 48.2372 105.933 48.2372C105.793 48.2372 105.654 48.2039 105.529 48.14C105.454 48.0803 105.388 48.0089 105.335 47.9287C105.287 47.8539 105.234 47.7828 105.176 47.7159C105.133 47.6787 105.084 47.6509 105.03 47.6342C104.976 47.6176 104.919 47.6124 104.863 47.619C104.796 47.616 104.729 47.6276 104.667 47.6529C104.605 47.6782 104.55 47.7167 104.504 47.7658C104.412 47.8721 104.365 48.0098 104.373 48.1502C104.373 48.433 104.518 48.6869 104.81 48.9119C105.137 49.1492 105.535 49.2682 105.937 49.2494C106.338 49.2675 106.734 49.1508 107.062 48.9178H107.056Z" fill="#4A81ED"/>
<path d="M117.175 57.2444C117.056 57.0937 116.995 56.9043 117.005 56.7117C117.005 56.5604 117.036 56.4107 117.095 56.2715L117.533 55.1826L115.637 50.4499C115.576 50.3113 115.545 50.1612 115.546 50.0096C115.539 49.807 115.611 49.6097 115.746 49.4593C115.814 49.3869 115.896 49.33 115.987 49.2925C116.079 49.255 116.177 49.2378 116.276 49.2421C116.351 49.2378 116.426 49.2492 116.497 49.2757C116.567 49.3023 116.631 49.3433 116.685 49.3962C116.811 49.5482 116.91 49.7209 116.977 49.9069L118.298 53.1956H118.332L119.539 49.9671C119.606 49.7636 119.71 49.5748 119.847 49.4109C119.907 49.3532 119.979 49.3086 120.057 49.2801C120.136 49.2515 120.219 49.2396 120.302 49.245C120.398 49.2377 120.495 49.2508 120.587 49.2834C120.678 49.316 120.761 49.3674 120.831 49.4344C120.955 49.5784 121.018 49.7652 121.008 49.9553C121.007 50.04 120.999 50.1244 120.984 50.2077C120.965 50.3024 120.936 50.3945 120.895 50.4822L118.447 56.8203C118.333 57.1138 118.216 57.2914 118.094 57.353C117.967 57.4189 117.827 57.4522 117.684 57.4499C117.59 57.4558 117.495 57.4404 117.407 57.4049C117.319 57.3694 117.24 57.3145 117.175 57.2444Z" fill="#4A81ED"/>
<path d="M126.947 53.9599L127.836 50.1547C127.889 49.8995 128.023 49.6685 128.218 49.4958C128.414 49.3227 128.668 49.2305 128.929 49.2375C129.081 49.2321 129.231 49.2579 129.372 49.3131C129.513 49.3684 129.641 49.452 129.749 49.5589C129.955 49.759 130.091 50.0204 130.137 50.3044L130.878 54.9226C130.893 55.0528 130.904 55.1579 130.911 55.2381C130.919 55.3189 130.923 55.3849 130.923 55.4392C130.933 55.5416 130.922 55.645 130.892 55.7433C130.862 55.8415 130.812 55.9327 130.746 56.0115C130.607 56.1338 130.425 56.1955 130.24 56.1832C130.141 56.19 130.041 56.1745 129.949 56.1377C129.856 56.1008 129.773 56.0437 129.705 55.9704C129.584 55.8295 129.496 55.5718 129.443 55.1971L128.859 51.4843H128.836L127.97 54.9109C127.856 55.3619 127.714 55.6554 127.542 55.7914C127.37 55.9299 127.154 56.0031 126.933 55.9983C126.708 56.0045 126.488 55.9313 126.312 55.7914C126.141 55.6534 125.998 55.3599 125.884 54.9109L125.009 51.4843H124.998L124.414 55.1971C124.353 55.5718 124.266 55.8295 124.152 55.9704C124.085 56.0449 124.002 56.1029 123.909 56.1398C123.816 56.1767 123.716 56.1916 123.617 56.1832C123.432 56.1924 123.252 56.1311 123.111 56.0115C123.041 55.9346 122.989 55.844 122.956 55.7454C122.924 55.6468 122.912 55.5425 122.922 55.4392C122.933 55.266 122.956 55.0939 122.991 54.9241L123.732 50.3059C123.77 50.0218 123.903 49.7592 124.108 49.5604C124.214 49.4542 124.34 49.371 124.479 49.3157C124.618 49.2605 124.767 49.2344 124.916 49.239C125.183 49.2289 125.443 49.3213 125.645 49.4973C125.839 49.6701 125.973 49.901 126.027 50.1562L126.915 53.9614L126.947 53.9599Z" fill="#4A81ED"/>
<path d="M133.598 56.1835C133.089 56.1835 132.835 55.8205 132.835 55.0946V50.3355C132.835 49.6017 133.089 49.2349 133.598 49.2349C134.106 49.2349 134.36 49.6017 134.36 50.3355V51.9292H137.185V50.3355C137.185 49.6017 137.439 49.2349 137.948 49.2349C138.456 49.2349 138.711 49.6017 138.711 50.3355V55.0917C138.711 55.8176 138.456 56.1806 137.948 56.1806C137.439 56.1806 137.185 55.8176 137.185 55.0917V53.3644H134.362V55.0946C134.362 55.8215 134.107 56.1845 133.598 56.1835Z" fill="#4A81ED"/>
<path d="M142.733 51.4963C143.477 51.4963 144.052 51.7027 144.458 52.1156C144.865 52.5284 145.068 53.09 145.068 53.8003C145.068 54.4959 144.85 55.0535 144.413 55.4732C143.977 55.8929 143.375 56.1028 142.608 56.1028H141.459C141.026 56.1028 140.741 56.0147 140.604 55.8386C140.467 55.6625 140.398 55.3876 140.398 55.0139V50.3355C140.398 49.6017 140.653 49.2349 141.161 49.2349C141.67 49.2349 141.924 49.6017 141.924 50.3355V51.4934L142.733 51.4963ZM142.414 54.6822C143.113 54.6822 143.462 54.3887 143.462 53.8017C143.462 53.2147 143.113 52.9168 142.414 52.908H141.924V54.6837L142.414 54.6822ZM146.685 56.1835C146.177 56.1835 145.923 55.8205 145.923 55.0946V50.3355C145.923 49.6017 146.177 49.2349 146.685 49.2349C147.194 49.2349 147.452 49.6017 147.46 50.3355V55.0917C147.46 55.8205 147.202 56.1845 146.685 56.1835Z" fill="#4A81ED"/>
<path d="M150.877 55.6683C150.767 55.8348 150.621 55.9738 150.449 56.0748C150.307 56.1477 150.149 56.185 149.989 56.1834C149.89 56.1927 149.79 56.1772 149.699 56.1383C149.607 56.0993 149.527 56.0382 149.465 55.9603C149.343 55.751 149.288 55.5094 149.306 55.2676V50.3354C149.306 49.6016 149.56 49.2347 150.069 49.2347C150.577 49.2347 150.831 49.6016 150.831 50.3354V53.5096L153.666 49.7484C153.769 49.6068 153.892 49.4812 154.031 49.3756C154.159 49.2863 154.312 49.2401 154.468 49.2435C154.575 49.2346 154.681 49.255 154.776 49.3026C154.872 49.3502 154.952 49.4232 155.01 49.5136C155.133 49.7516 155.19 50.0189 155.174 50.2869V55.1004C155.174 55.8263 154.92 56.1892 154.412 56.1892C153.903 56.1892 153.649 55.8263 153.649 55.1004V51.9775L150.877 55.6683ZM153.37 48.9178C153.499 48.8347 153.606 48.7216 153.683 48.5879C153.759 48.4543 153.802 48.3042 153.808 48.1502C153.815 48.0099 153.768 47.8721 153.677 47.7658C153.629 47.716 153.571 47.6771 153.507 47.6518C153.443 47.6264 153.375 47.6153 153.306 47.619C153.25 47.6124 153.193 47.6176 153.139 47.6342C153.085 47.6509 153.035 47.6787 152.993 47.7159C152.935 47.7819 152.884 47.8532 152.84 47.9287C152.79 48.0097 152.726 48.0812 152.651 48.14C152.526 48.2039 152.388 48.2372 152.247 48.2372C152.107 48.2372 151.969 48.2039 151.844 48.14C151.768 48.0803 151.703 48.0089 151.65 47.9287C151.602 47.8539 151.549 47.7828 151.491 47.7159C151.448 47.6787 151.398 47.6509 151.344 47.6342C151.29 47.6176 151.233 47.6124 151.177 47.619C151.11 47.616 151.044 47.6276 150.982 47.6529C150.92 47.6782 150.864 47.7167 150.818 47.7658C150.727 47.8721 150.68 48.0098 150.687 48.1502C150.687 48.433 150.833 48.6869 151.125 48.9119C151.452 49.1492 151.849 49.2682 152.252 49.2494C152.651 49.2662 153.044 49.1496 153.37 48.9178Z" fill="#4A81ED"/>
<path d="M162.129 49.5884C162.265 49.4162 162.55 49.3301 162.984 49.3301H164.703C165.432 49.3301 165.797 49.5708 165.797 50.0521C165.797 50.5334 165.432 50.7702 164.703 50.7624H163.45V55.0944C163.45 55.8204 163.196 56.1833 162.688 56.1833C162.179 56.1833 161.925 55.8204 161.925 55.0944V50.4072C161.924 50.0335 161.992 49.7605 162.129 49.5884Z" fill="#4A81ED"/>
<path d="M168.045 51.2909C168.189 50.8827 168.414 50.5082 168.706 50.1903C168.992 49.8842 169.34 49.6439 169.727 49.4859C170.571 49.1558 171.507 49.1558 172.352 49.4859C172.738 49.644 173.087 49.8842 173.373 50.1903C173.665 50.5082 173.889 50.8827 174.033 51.2909C174.341 52.2191 174.341 53.2228 174.033 54.1511C173.893 54.555 173.673 54.9257 173.384 55.2399C173.099 55.5448 172.75 55.7832 172.363 55.9385C171.941 56.1074 171.49 56.1912 171.036 56.185C170.584 56.1915 170.135 56.1077 169.715 55.9385C169.328 55.7829 168.98 55.5446 168.694 55.2399C168.405 54.9251 168.183 54.5547 168.039 54.1511C167.878 53.6933 167.799 53.2103 167.806 52.7246C167.801 52.2363 167.882 51.7509 168.045 51.2909ZM169.919 54.2024C170.056 54.374 170.231 54.5116 170.429 54.6045C170.627 54.6974 170.844 54.7431 171.063 54.7381C171.283 54.7434 171.503 54.6976 171.703 54.6043C171.904 54.5109 172.08 54.3724 172.219 54.1995C172.518 53.8404 172.668 53.3474 172.668 52.7202C172.668 52.0706 172.522 51.5604 172.231 51.1896C172.091 51.0162 171.915 50.8763 171.715 50.7802C171.515 50.6841 171.297 50.6343 171.075 50.6343C170.853 50.6343 170.635 50.6841 170.435 50.7802C170.235 50.8763 170.059 51.0162 169.919 51.1896C169.628 51.5604 169.482 52.0706 169.482 52.7202C169.477 53.3483 169.623 53.8419 169.919 54.201V54.2024Z" fill="#4A81ED"/>
<path d="M177.094 56.1833C176.585 56.1833 176.331 55.8204 176.331 55.0945V50.4072C176.331 50.0325 176.4 49.7596 176.537 49.5884C176.674 49.4172 176.959 49.3311 177.391 49.3301H178.769C179.547 49.3301 180.153 49.5385 180.586 49.9552C181.02 50.372 181.238 50.9316 181.241 51.6341C181.241 52.3443 181.036 52.904 180.626 53.3129C180.216 53.7218 179.639 53.9263 178.895 53.9263H177.858V55.1003C177.857 55.8233 177.602 56.1843 177.094 56.1833ZM179.573 51.6341C179.573 51.0471 179.22 50.7536 178.514 50.7536H177.854V52.5307H178.514C179.222 52.5288 179.576 52.2299 179.576 51.6341H179.573Z" fill="#4A81ED"/>
<path d="M183.313 51.2909C183.457 50.8827 183.681 50.5082 183.973 50.1903C184.259 49.8842 184.608 49.6439 184.994 49.4859C185.839 49.1558 186.775 49.1558 187.619 49.4859C188.006 49.644 188.354 49.8842 188.64 50.1903C188.932 50.5082 189.157 50.8827 189.301 51.2909C189.609 52.2191 189.609 53.2228 189.301 54.1511C189.161 54.555 188.94 54.9257 188.652 55.2399C188.366 55.5448 188.018 55.7832 187.631 55.9385C187.209 56.1074 186.758 56.1912 186.304 56.185C185.852 56.1915 185.403 56.1077 184.983 55.9385C184.596 55.7829 184.248 55.5446 183.962 55.2399C183.675 54.9246 183.454 54.5542 183.313 54.1511C183.152 53.6933 183.073 53.2103 183.08 52.7246C183.073 52.2366 183.152 51.7512 183.313 51.2909ZM185.187 54.2024C185.324 54.3756 185.5 54.5143 185.699 54.6077C185.899 54.7012 186.117 54.7468 186.337 54.741C186.558 54.7464 186.777 54.7006 186.978 54.6072C187.179 54.5138 187.355 54.3753 187.494 54.2024C187.793 53.8434 187.943 53.3503 187.943 52.7232C187.943 52.0736 187.797 51.5634 187.506 51.1926C187.366 51.0191 187.19 50.8793 186.99 50.7832C186.79 50.6871 186.571 50.6372 186.35 50.6372C186.128 50.6372 185.909 50.6871 185.709 50.7832C185.509 50.8793 185.333 51.0191 185.194 51.1926C184.902 51.5634 184.757 52.0736 184.757 52.7232C184.743 53.3493 184.884 53.8419 185.181 54.201L185.187 54.2024Z" fill="#4A81ED"/>
<path d="M197.47 54.8086C197.559 54.8007 197.649 54.8124 197.733 54.8429C197.817 54.8734 197.894 54.9218 197.958 54.985C198.022 55.0482 198.072 55.1246 198.103 55.2089C198.135 55.2932 198.148 55.3834 198.142 55.4734C198.146 55.5578 198.132 55.6422 198.102 55.721C198.071 55.7999 198.025 55.8715 197.966 55.9312C197.898 55.9912 197.82 56.0373 197.735 56.0668C197.65 56.0962 197.559 56.1085 197.47 56.1029H191.491C191.406 56.1109 191.32 56.0996 191.241 56.0699C191.161 56.0402 191.089 55.9928 191.03 55.9312C190.928 55.801 190.877 55.6386 190.884 55.4734C190.867 55.2908 190.919 55.1086 191.03 54.9627C191.092 54.9063 191.165 54.8635 191.244 54.8369C191.323 54.8104 191.407 54.8008 191.491 54.8086H191.684L193.37 50.2006C193.606 49.5588 193.985 49.2379 194.509 49.2379C194.749 49.2343 194.983 49.3107 195.176 49.4551C195.382 49.6198 195.535 49.8433 195.613 50.0964L197.242 54.8071L197.47 54.8086ZM193.198 54.8086H195.708L194.489 50.8654H194.466L193.198 54.8086Z" fill="#4A81ED"/>
</svg>
