<svg width="59" height="65" viewBox="0 0 59 65" fill="none" xmlns="http://www.w3.org/2000/svg">
<path d="M16.8074 37.6233C17.4058 37.6233 17.9685 37.8564 18.3916 38.2796C18.631 38.5189 18.9446 38.6387 19.2584 38.6386C19.572 38.6386 19.8858 38.5189 20.1251 38.2796C20.6039 37.8009 20.6039 37.0249 20.1251 36.5461C19.2389 35.6599 18.0607 35.1719 16.8075 35.1719C15.5544 35.1719 14.3762 35.6599 13.49 36.5461C13.0112 37.0247 13.0112 37.8008 13.49 38.2796C13.9688 38.7584 14.7448 38.7582 15.2233 38.2796C15.6463 37.8564 16.2089 37.6233 16.8074 37.6233Z" fill="#4A81ED" stroke="#4A81ED" stroke-width="0.5"/>
<path d="M38.8728 36.5461C38.394 37.0247 38.394 37.8007 38.8728 38.2795C39.3514 38.7582 40.1274 38.7582 40.6061 38.2795C41.4796 37.4059 42.9011 37.4061 43.7746 38.2795C44.0139 38.5189 44.3275 38.6385 44.6413 38.6385C44.9551 38.6385 45.2687 38.5189 45.5081 38.2795C45.9869 37.8009 45.9869 37.0249 45.5081 36.5461C43.679 34.7168 40.7023 34.7167 38.8728 36.5461Z" fill="#4A81ED" stroke="#4A81ED" stroke-width="0.5"/>
<path d="M42.1842 48.6378C35.1899 55.6321 23.8095 55.6321 16.8151 48.6378C16.3364 48.1591 15.5604 48.1591 15.0818 48.6378C14.603 49.1164 14.603 49.8926 15.0818 50.3713C19.0568 54.3463 24.2782 56.3338 29.4996 56.3338C34.7212 56.3338 39.9427 54.3463 43.9177 50.3713C44.3965 49.8926 44.3965 49.1166 43.9177 48.6378C43.439 48.1591 42.6628 48.1591 42.1842 48.6378Z" fill="#4A81ED" stroke="#4A81ED" stroke-width="0.5"/>
<path d="M58.4207 38.944C58.4207 35.6145 56.0137 32.8382 52.8488 32.2592V11.754C52.8488 9.09383 51.5255 6.62767 49.3089 5.15696C47.2269 3.77572 44.6425 3.46224 42.3053 4.28577L34.6099 1.67376C28.6967 -0.333519 22.4723 -0.539441 16.6098 1.07806C8.93496 3.19565 4.53492 7.67352 3.85571 14.0387C3.25465 14.8314 2.77707 15.7218 2.45256 16.6824L1.85564 18.4492C1.53526 19.3977 1.88842 20.3945 2.73479 20.9296C3.581 21.4646 4.63313 21.3564 5.35263 20.6601C5.59839 20.4221 5.86713 20.2217 6.14996 20.0541V32.2592C2.98514 32.8382 0.578125 35.6144 0.578125 38.944C0.578125 42.4069 3.18141 45.2712 6.53331 45.6877C7.37507 50.3356 9.58705 54.623 12.9693 58.054C17.3851 62.5334 23.2554 65.0002 29.4994 65.0002C29.5002 65.0002 29.5009 65.0002 29.5017 65.0002C35.7377 64.9996 41.6004 62.5708 46.0099 58.1614C49.4543 54.717 51.6901 50.3859 52.5041 45.6828C55.8373 45.249 58.4207 42.3934 58.4207 38.944ZM47.9536 7.19978C49.5067 8.23015 50.3974 9.89009 50.3974 11.754V27.7939C46.5929 27.2027 43.6717 23.9049 43.6717 19.9372L43.5703 6.46036C45.067 6.06583 46.6278 6.32017 47.9536 7.19978ZM4.53691 18.172L4.77516 17.4671C5.39921 15.62 6.78504 14.1205 8.5772 13.3532C10.3692 12.5859 12.4108 12.6178 14.1781 13.441C17.8899 15.1697 22.3772 14.2351 25.09 11.1684L25.3937 10.825C25.8423 10.318 25.7948 9.54336 25.2878 9.0949C24.7807 8.64644 24.006 8.69378 23.5575 9.20077L23.2539 9.54413C21.2547 11.8041 17.9482 12.4926 15.2131 11.2188C12.8148 10.1017 10.0442 10.0583 7.61225 11.0997C7.39085 11.1946 7.17559 11.3004 6.96369 11.4112C8.38844 7.61285 11.8367 4.93801 17.2621 3.4411C22.6493 1.9546 28.3756 2.14627 33.8222 3.99497L41.1188 6.4717L41.2144 12.8052C37.9655 17.2225 33.2271 20.2128 27.8275 21.2411C22.2984 22.2938 16.6579 21.1798 11.9447 18.1041C9.64174 16.6015 6.73816 16.6657 4.53691 18.172ZM3.02957 38.944C3.02957 36.9732 4.34861 35.3056 6.14996 34.775V41.4188C6.14996 41.9927 6.17065 42.5635 6.21094 43.1305C4.37864 42.6198 3.02957 40.9371 3.02957 38.944ZM44.2766 56.4278C40.3301 60.3743 35.0829 62.548 29.5015 62.5486C29.5006 62.5486 29.5005 62.5486 29.4994 62.5486C23.9173 62.5486 18.6663 60.3409 14.715 56.3329C10.7726 52.3337 8.60141 47.037 8.60141 41.4186V19.4762C9.29563 19.528 9.98449 19.7526 10.6047 20.1572C15.8517 23.5811 22.1308 24.8214 28.2858 23.6493C33.282 22.6978 37.7703 20.2383 41.2201 16.6109V19.937C41.2201 25.2584 45.2369 29.6566 50.3972 30.2653V41.6504C50.3974 47.2327 48.2237 52.4808 44.2766 56.4278ZM52.8015 43.1265C52.8318 42.6371 52.8488 42.1452 52.8488 41.6506V34.775C54.6502 35.3056 55.9692 36.9732 55.9692 38.944C55.9692 40.932 54.6271 42.6114 52.8015 43.1265Z" fill="#4A81ED" stroke="#4A81ED" stroke-width="0.5"/>
</svg>
