<svg width="17" height="18" viewBox="0 0 17 18" fill="none" xmlns="http://www.w3.org/2000/svg">
    <g>
        <path d="M3.8651 0.876953C1.77315 0.876953 0.0712891 2.57882 0.0712891 4.67076C0.0712891 5.63127 0.430349 6.50939 1.021 7.17853H0.714307C0.35914 7.17853 0.0712891 7.46638 0.0712891 7.82155V16.6952C0.0712891 17.0504 0.35914 17.3382 0.714307 17.3382H7.01589C7.37105 17.3382 7.6589 17.0504 7.6589 16.6952V7.82155C7.6589 7.46638 7.37105 7.17853 7.01589 7.17853H6.7092C7.29984 6.50952 7.6589 5.63127 7.6589 4.67076C7.6589 2.57882 5.95704 0.876953 3.8651 0.876953ZM6.37287 16.0522H1.35733V8.46457H6.37287V16.0522ZM3.8651 7.17853C2.48236 7.17853 1.35733 6.0535 1.35733 4.67076C1.35733 3.28802 2.48236 2.16299 3.8651 2.16299C5.24784 2.16299 6.37287 3.28802 6.37287 4.67076C6.37287 6.0535 5.24784 7.17853 3.8651 7.17853ZM12.8564 14.97C13.1075 15.2212 13.1075 15.6283 12.8564 15.8794C12.6052 16.1306 12.1981 16.1304 11.947 15.8794C10.1355 14.0679 9.13785 11.663 9.13785 9.10759C9.13785 6.55222 10.1355 4.1473 11.947 2.3358C12.1982 2.08462 12.6054 2.08462 12.8564 2.3358C13.1075 2.58685 13.1075 2.99402 12.8564 3.24519C11.2878 4.81381 10.4239 6.89583 10.4239 9.10759C10.4239 11.3195 11.2878 13.4014 12.8564 14.97ZM14.6742 13.1522C14.9254 13.4033 14.9254 13.8104 14.6742 14.0615C14.4232 14.3126 14.016 14.3126 13.7649 14.0615C12.4397 12.7364 11.7099 10.977 11.7099 9.10759C11.7099 7.23819 12.4397 5.4788 13.7649 4.15371C14.016 3.90253 14.4232 3.90253 14.6742 4.15371C14.9254 4.40476 14.9254 4.81192 14.6742 5.06298C13.592 6.14531 12.996 7.58167 12.996 9.10759C12.996 10.6335 13.592 12.0699 14.6742 13.1522ZM16.369 11.2038C16.6056 11.4687 16.5828 11.8751 16.3179 12.1117C16.0533 12.348 15.6468 12.3256 15.41 12.0604C14.6826 11.2461 14.282 10.1975 14.282 9.10759C14.282 8.01772 14.6826 6.96905 15.41 6.15473C15.6465 5.88986 16.0531 5.867 16.3179 6.10349C16.5828 6.3401 16.6056 6.74663 16.369 7.0115C15.8525 7.58971 15.568 8.33421 15.568 9.10759C15.568 9.88097 15.8525 10.6255 16.369 11.2038Z"
              fill="white"/>
    </g>
</svg>
