<svg width="35" height="35" viewBox="0 0 35 35" fill="none" xmlns="http://www.w3.org/2000/svg">
<path d="M25.6393 10.3781H9.36022C9.09037 10.3781 8.83158 10.271 8.64078 10.0801C8.44997 9.88934 8.34277 9.63055 8.34277 9.3607C8.34277 9.09086 8.44997 8.83207 8.64078 8.64126C8.83158 8.45046 9.09037 8.34326 9.36022 8.34326H25.6393C25.9091 8.34326 26.1679 8.45046 26.3587 8.64126C26.5495 8.83207 26.6567 9.09086 26.6567 9.3607C26.6567 9.63055 26.5495 9.88934 26.3587 10.0801C26.1679 10.271 25.9091 10.3781 25.6393 10.3781Z" fill="white"/>
<path d="M25.6395 26.6572C25.3697 26.6572 25.1109 26.55 24.9201 26.3592C24.7293 26.1684 24.6221 25.9096 24.6221 25.6398V9.3607C24.6221 9.09086 24.7293 8.83207 24.9201 8.64126C25.1109 8.45046 25.3697 8.34326 25.6395 8.34326C25.9094 8.34326 26.1681 8.45046 26.359 8.64126C26.5498 8.83207 26.657 9.09086 26.657 9.3607V25.6398C26.657 25.9096 26.5498 26.1684 26.359 26.3592C26.1681 26.55 25.9094 26.6572 25.6395 26.6572Z" fill="white"/>
<path d="M25.6393 26.657H9.36022C9.09037 26.657 8.83158 26.5498 8.64078 26.359C8.44997 26.1681 8.34277 25.9094 8.34277 25.6395C8.34277 25.3697 8.44997 25.1109 8.64078 24.9201C8.83158 24.7293 9.09037 24.6221 9.36022 24.6221H25.6393C25.9091 24.6221 26.1679 24.7293 26.3587 24.9201C26.5495 25.1109 26.6567 25.3697 26.6567 25.6395C26.6567 25.9094 26.5495 26.1681 26.3587 26.359C26.1679 26.5498 25.9091 26.657 25.6393 26.657Z" fill="white"/>
<path d="M9.36022 26.6572C9.09037 26.6572 8.83158 26.55 8.64078 26.3592C8.44997 26.1684 8.34277 25.9096 8.34277 25.6398V9.3607C8.34277 9.09086 8.44997 8.83207 8.64078 8.64126C8.83158 8.45046 9.09037 8.34326 9.36022 8.34326C9.63006 8.34326 9.88885 8.45046 10.0797 8.64126C10.2705 8.83207 10.3777 9.09086 10.3777 9.3607V25.6398C10.3777 25.9096 10.2705 26.1684 10.0797 26.3592C9.88885 26.55 9.63006 26.6572 9.36022 26.6572Z" fill="white"/>
<path d="M13.4305 10.378C13.1607 10.378 12.9019 10.2708 12.7111 10.08C12.5203 9.88922 12.4131 9.63043 12.4131 9.36059V1.22106C12.4131 0.951213 12.5203 0.692422 12.7111 0.501615C12.9019 0.310808 13.1607 0.203613 13.4305 0.203613C13.7004 0.203613 13.9592 0.310808 14.15 0.501615C14.3408 0.692422 14.448 0.951213 14.448 1.22106V9.36059C14.448 9.63043 14.3408 9.88922 14.15 10.08C13.9592 10.2708 13.7004 10.378 13.4305 10.378Z" fill="white"/>
<path d="M17.4999 10.378C17.23 10.378 16.9712 10.2708 16.7804 10.08C16.5896 9.88922 16.4824 9.63043 16.4824 9.36059V1.22106C16.4824 0.951213 16.5896 0.692422 16.7804 0.501615C16.9712 0.310808 17.23 0.203613 17.4999 0.203613C17.7697 0.203613 18.0285 0.310808 18.2193 0.501615C18.4101 0.692422 18.5173 0.951213 18.5173 1.22106V9.36059C18.5173 9.63043 18.4101 9.88922 18.2193 10.08C18.0285 10.2708 17.7697 10.378 17.4999 10.378Z" fill="white"/>
<path d="M21.5702 10.378C21.3003 10.378 21.0415 10.2708 20.8507 10.08C20.6599 9.88922 20.5527 9.63043 20.5527 9.36059V1.22106C20.5527 0.951213 20.6599 0.692422 20.8507 0.501615C21.0415 0.310808 21.3003 0.203613 21.5702 0.203613C21.84 0.203613 22.0988 0.310808 22.2896 0.501615C22.4804 0.692422 22.5876 0.951213 22.5876 1.22106V9.36059C22.5876 9.63043 22.4804 9.88922 22.2896 10.08C22.0988 10.2708 21.84 10.378 21.5702 10.378Z" fill="white"/>
<path d="M33.779 14.4475H25.6395C25.3697 14.4475 25.1109 14.3403 24.9201 14.1495C24.7293 13.9587 24.6221 13.6999 24.6221 13.43C24.6221 13.1602 24.7293 12.9014 24.9201 12.7106C25.1109 12.5198 25.3697 12.4126 25.6395 12.4126H33.779C34.0489 12.4126 34.3077 12.5198 34.4985 12.7106C34.6893 12.9014 34.7965 13.1602 34.7965 13.43C34.7965 13.6999 34.6893 13.9587 34.4985 14.1495C34.3077 14.3403 34.0489 14.4475 33.779 14.4475Z" fill="white"/>
<path d="M33.779 18.5173H25.6395C25.3697 18.5173 25.1109 18.4101 24.9201 18.2193C24.7293 18.0285 24.6221 17.7697 24.6221 17.4999C24.6221 17.23 24.7293 16.9712 24.9201 16.7804C25.1109 16.5896 25.3697 16.4824 25.6395 16.4824H33.779C34.0489 16.4824 34.3077 16.5896 34.4985 16.7804C34.6893 16.9712 34.7965 17.23 34.7965 17.4999C34.7965 17.7697 34.6893 18.0285 34.4985 18.2193C34.3077 18.4101 34.0489 18.5173 33.779 18.5173Z" fill="white"/>
<path d="M33.779 22.5871H25.6395C25.3697 22.5871 25.1109 22.4799 24.9201 22.2891C24.7293 22.0983 24.6221 21.8395 24.6221 21.5697C24.6221 21.2998 24.7293 21.0411 24.9201 20.8502C25.1109 20.6594 25.3697 20.5522 25.6395 20.5522H33.779C34.0489 20.5522 34.3077 20.6594 34.4985 20.8502C34.6893 21.0411 34.7965 21.2998 34.7965 21.5697C34.7965 21.8395 34.6893 22.0983 34.4985 22.2891C34.3077 22.4799 34.0489 22.5871 33.779 22.5871Z" fill="white"/>
<path d="M21.5702 34.7965C21.3003 34.7965 21.0415 34.6893 20.8507 34.4985C20.6599 34.3077 20.5527 34.0489 20.5527 33.779V25.6395C20.5527 25.3697 20.6599 25.1109 20.8507 24.9201C21.0415 24.7293 21.3003 24.6221 21.5702 24.6221C21.84 24.6221 22.0988 24.7293 22.2896 24.9201C22.4804 25.1109 22.5876 25.3697 22.5876 25.6395V33.779C22.5876 34.0489 22.4804 34.3077 22.2896 34.4985C22.0988 34.6893 21.84 34.7965 21.5702 34.7965Z" fill="white"/>
<path d="M17.4999 34.7965C17.23 34.7965 16.9712 34.6893 16.7804 34.4985C16.5896 34.3077 16.4824 34.0489 16.4824 33.779V25.6395C16.4824 25.3697 16.5896 25.1109 16.7804 24.9201C16.9712 24.7293 17.23 24.6221 17.4999 24.6221C17.7697 24.6221 18.0285 24.7293 18.2193 24.9201C18.4101 25.1109 18.5173 25.3697 18.5173 25.6395V33.779C18.5173 34.0489 18.4101 34.3077 18.2193 34.4985C18.0285 34.6893 17.7697 34.7965 17.4999 34.7965Z" fill="white"/>
<path d="M13.4305 34.7965C13.1607 34.7965 12.9019 34.6893 12.7111 34.4985C12.5203 34.3077 12.4131 34.0489 12.4131 33.779V25.6395C12.4131 25.3697 12.5203 25.1109 12.7111 24.9201C12.9019 24.7293 13.1607 24.6221 13.4305 24.6221C13.7004 24.6221 13.9592 24.7293 14.15 24.9201C14.3408 25.1109 14.448 25.3697 14.448 25.6395V33.779C14.448 34.0489 14.3408 34.3077 14.15 34.4985C13.9592 34.6893 13.7004 34.7965 13.4305 34.7965Z" fill="white"/>
<path d="M9.3601 22.5871H1.22057C0.950724 22.5871 0.691934 22.4799 0.501127 22.2891C0.310319 22.0983 0.203125 21.8395 0.203125 21.5697C0.203125 21.2998 0.310319 21.0411 0.501127 20.8502C0.691934 20.6594 0.950724 20.5522 1.22057 20.5522H9.3601C9.62994 20.5522 9.88873 20.6594 10.0795 20.8502C10.2703 21.0411 10.3775 21.2998 10.3775 21.5697C10.3775 21.8395 10.2703 22.0983 10.0795 22.2891C9.88873 22.4799 9.62994 22.5871 9.3601 22.5871Z" fill="white"/>
<path d="M9.3601 18.5173H1.22057C0.950724 18.5173 0.691934 18.4101 0.501127 18.2193C0.310319 18.0285 0.203125 17.7697 0.203125 17.4999C0.203125 17.23 0.310319 16.9712 0.501127 16.7804C0.691934 16.5896 0.950724 16.4824 1.22057 16.4824H9.3601C9.62994 16.4824 9.88873 16.5896 10.0795 16.7804C10.2703 16.9712 10.3775 17.23 10.3775 17.4999C10.3775 17.7697 10.2703 18.0285 10.0795 18.2193C9.88873 18.4101 9.62994 18.5173 9.3601 18.5173Z" fill="white"/>
<path d="M9.3601 14.4475H1.22057C0.950724 14.4475 0.691934 14.3403 0.501127 14.1495C0.310319 13.9587 0.203125 13.6999 0.203125 13.43C0.203125 13.1602 0.310319 12.9014 0.501127 12.7106C0.691934 12.5198 0.950724 12.4126 1.22057 12.4126H9.3601C9.62994 12.4126 9.88873 12.5198 10.0795 12.7106C10.2703 12.9014 10.3775 13.1602 10.3775 13.43C10.3775 13.6999 10.2703 13.9587 10.0795 14.1495C9.88873 14.3403 9.62994 14.4475 9.3601 14.4475Z" fill="white"/>
</svg>
