<svg width="79" height="79" viewBox="0 0 79 79" fill="none" xmlns="http://www.w3.org/2000/svg">
<path d="M72.4164 75.0499C72.4164 75.777 71.8269 76.3665 71.0997 76.3665H57.9331V71.8636C57.9202 67.7118 55.1448 64.0761 51.1427 62.9697L43.4497 60.8771V58.8841C45.9159 57.1669 47.3901 54.3548 47.3997 51.3499V48.8573C47.7353 48.7037 47.9475 48.5944 47.988 48.5783C48.4348 48.3552 48.7164 47.8988 48.7164 47.3999V39.4999L55.7723 36.7862C56.2821 36.5914 56.619 36.1021 56.619 35.5563C56.619 35.0105 56.2821 34.5219 55.7723 34.3264L38.6556 27.7431C38.3515 27.6274 38.0146 27.6274 37.7105 27.7431L20.5939 34.3264C20.0873 34.5212 19.7523 35.0073 19.7497 35.5499V41.588L16.1855 45.1523L18.0473 47.0141L19.7497 45.3117V47.3999H22.3831V45.3117L24.0855 47.0141L25.9473 45.1523L22.3831 41.588V37.467L27.6497 39.4999V47.3999C27.6472 47.9013 27.9294 48.361 28.3782 48.5847C28.4187 48.6047 28.6308 48.7101 28.9664 48.8638V51.3499C28.9433 54.3638 30.4245 57.1913 32.9164 58.8879V60.8771L25.2189 62.971C21.2194 64.0781 18.4453 67.713 18.4331 71.8636V76.3665H5.26641C4.53928 76.3665 3.94974 75.777 3.94974 75.0499V23.6999H40.8164V21.0665H3.94974V14.4832C3.94974 13.7561 4.53928 13.1665 5.26641 13.1665H40.8164V10.5332H5.26641C3.08503 10.5332 1.31641 12.3018 1.31641 14.4832V75.0499C1.31641 77.2312 3.08503 78.9999 5.26641 78.9999H71.0997C73.2811 78.9999 75.0497 77.2312 75.0497 75.0499V26.3332H72.4164V75.0499ZM35.5497 61.8832V60.1718C37.2657 60.6996 39.1005 60.6996 40.8164 60.1718V61.8832C40.8209 62.2606 40.9881 62.6174 41.2761 62.8617L38.1831 65.4385L35.0901 62.863C35.3781 62.6187 35.5459 62.2612 35.5497 61.8832ZM38.1831 30.3764L51.6313 35.5499L38.1831 40.7233L24.7348 35.5499L38.1831 30.3764ZM37.7105 43.3631C38.0146 43.4788 38.3515 43.4788 38.6556 43.3631L46.0831 40.506V46.5622C43.6028 47.7554 40.9257 48.4857 38.1831 48.7165C35.4404 48.4838 32.7634 47.7535 30.2831 46.5609V40.5047L37.7105 43.3631ZM31.5997 51.3499V49.9368C33.7014 50.7668 35.9258 51.2444 38.1831 51.3499C40.4403 51.2444 42.6648 50.7668 44.7664 49.9368V51.3499C44.7632 53.7022 43.505 55.8746 41.4657 57.0479C39.4264 58.2212 36.9159 58.2167 34.8811 57.0363C34.3842 56.7541 33.929 56.4044 33.5272 55.9974C32.2864 54.7708 31.5914 53.0953 31.5997 51.3499ZM21.0664 71.8636C21.076 68.8986 23.0581 66.3019 25.9158 65.5105L32.1263 63.8215L37.3402 68.1663C37.8288 68.5732 38.5373 68.5732 39.0259 68.1663L44.2399 63.8215L50.4465 65.5092C53.3055 66.2999 55.2888 68.8973 55.2997 71.8636V76.3665H51.3497V71.0999H48.7164V76.3665H27.6497V71.0999H25.0164V76.3665H21.0664V71.8636Z" fill="#4A81ED"/>
<path d="M9.2168 15.7998H11.8501V18.4331H9.2168V15.7998Z" fill="#4A81ED"/>
<path d="M14.4834 15.7998H17.1167V18.4331H14.4834V15.7998Z" fill="#4A81ED"/>
<path d="M19.75 15.7998H22.3833V18.4331H19.75V15.7998Z" fill="#4A81ED"/>
<path d="M73.7335 0H47.4002C45.2188 0 43.4502 1.76863 43.4502 3.95V19.75C43.4502 21.9314 45.2188 23.7 47.4002 23.7H51.3502V28.9667C51.3502 29.526 51.7031 30.0242 52.231 30.2094C52.3711 30.2576 52.5183 30.2827 52.6669 30.2833C53.0667 30.2833 53.4454 30.102 53.6949 29.7896L58.5655 23.7H73.7335C75.9149 23.7 77.6835 21.9314 77.6835 19.75V3.95C77.6835 1.76863 75.9149 0 73.7335 0ZM75.0502 19.75C75.0502 20.4771 74.4606 21.0667 73.7335 21.0667H57.9335C57.5336 21.0667 57.155 21.248 56.9055 21.5604L53.9835 25.2128V22.3833C53.9835 21.6562 53.394 21.0667 52.6669 21.0667H47.4002C46.6731 21.0667 46.0835 20.4771 46.0835 19.75V3.95C46.0835 3.22288 46.6731 2.63333 47.4002 2.63333H73.7335C74.4606 2.63333 75.0502 3.22288 75.0502 3.95V19.75Z" fill="#4A81ED"/>
<path d="M51.3496 5.2666H69.7829V7.89993H51.3496V5.2666Z" fill="#4A81ED"/>
<path d="M51.3496 10.5332H69.7829V13.1665H51.3496V10.5332Z" fill="#4A81ED"/>
<path d="M51.3496 15.7998H69.7829V18.4331H51.3496V15.7998Z" fill="#4A81ED"/>
</svg>
