<svg width="86" height="86" viewBox="0 0 86 86" fill="none" xmlns="http://www.w3.org/2000/svg">
<g>
<path d="M57.2716 53.2866L57.2739 53.2866C58.0309 53.2985 58.7493 53.6216 59.2604 54.18C59.2604 54.18 59.2604 54.18 59.2605 54.1801L73.4914 69.5964L75.412 67.8197L65.8074 57.418L65.6136 57.2082H65.8086V18.6334C65.804 14.7463 62.6539 11.5962 58.7669 11.5916H53.1586V14.2082H58.7669C61.2108 14.2082 63.1919 16.1893 63.1919 18.6332V20.0666V20.1916H63.0669H53.1586V22.8082H63.0669H63.1919V22.9332V54.2645V54.5846L62.975 54.3491L61.1805 52.4012L61.1803 52.4011C60.1889 51.3211 58.7974 50.6957 57.3315 50.6714L57.3282 50.6713V50.6713C56.9562 50.6552 56.5837 50.679 56.2169 50.7426L56.0276 50.7755L56.0743 50.5892L57.1764 46.1833L57.1765 46.1831L58.3317 41.5364L58.3553 41.4416H58.453H60.0753V38.8249H57.3336C56.7331 38.825 56.2099 39.2339 56.0645 39.8166L56.0645 39.8167L54.9035 44.4635L54.8799 44.5582H54.7823H32.9669C32.2444 44.5584 31.6588 45.1444 31.659 45.8669C31.659 45.9735 31.672 46.0796 31.6979 46.1831C31.6979 46.1831 31.6979 46.1831 31.6979 46.1831L34.5645 57.6498L34.5645 57.6498C34.7099 58.2325 35.2331 58.6414 35.8336 58.6416H52.4115H52.4853L52.521 58.7062C52.7072 59.0436 52.9293 59.3601 53.1832 59.6499C53.1833 59.65 53.1834 59.6501 53.1835 59.6502L54.3067 60.9138L54.3709 60.986L54.3171 61.0663C54.0304 61.4949 53.5502 61.7539 53.0346 61.7582L53.0336 61.7582L34.5253 61.7582V64.3749H53.033C54.1726 64.3698 55.2606 63.8993 56.0446 63.0723L56.1383 62.9735L56.2288 63.0752L61.5565 69.0694L61.6014 69.12L61.5836 69.1853C60.582 72.863 61.0733 76.7874 62.9507 80.1046L62.9777 80.1525L62.9608 80.2047C62.3721 82.0237 60.679 83.2566 58.7669 83.2582H30.1003C27.6564 83.2582 25.6753 81.2771 25.6753 78.8332V77.3999V77.2749H25.8003H58.6419V74.6582H25.8003H25.6753V74.5332V34.5249H23.0586L23.0586 78.8331C23.0632 82.7201 26.2133 85.8703 30.1004 85.8749H58.7669C61.1122 85.8749 63.3033 84.7076 64.6115 82.7611L64.7008 82.6282L64.808 82.747C65.2796 83.2692 65.7872 83.7575 66.3276 84.2083L66.2475 84.3043L66.3276 84.2083L67.8669 85.4926L69.5416 83.4803L68.004 82.1976C64.2002 79.0536 62.7302 73.8888 64.3086 69.2131C64.4567 68.7699 64.357 68.2811 64.0471 67.9312L57.2716 53.2866ZM57.2716 53.2866C56.5202 53.2889 55.7984 53.5793 55.255 54.0981L55.2549 54.098L55.2527 54.1003C54.2146 55.1421 54.166 56.8117 55.1417 57.9121L55.1418 57.9122L64.0469 67.931L57.2716 53.2866ZM35.3984 50.1969L35.4221 50.2915H35.5197H39.2263H39.3679L39.3503 50.151L38.992 47.2844L38.9783 47.1749H38.868H34.803H34.6429L34.6818 47.3302L35.3984 50.1969ZM36.8318 55.9302L36.8554 56.0249H36.953H39.943H40.0846L40.067 55.8844L39.7087 53.0177L39.695 52.9082H39.5846H36.2364H36.0763L36.1151 53.0635L36.8318 55.9302ZM46.0346 56.0249H46.145L46.1587 55.9154L46.517 53.0487L46.5346 52.9082H46.393H42.4742H42.3326L42.3502 53.0487L42.7085 55.9154L42.7222 56.0249H42.8326H46.0346ZM46.7513 50.2915H46.8616L46.8753 50.1821L47.2337 47.3154L47.2512 47.1749H47.1096H41.7576H41.616L41.6335 47.3154L41.9919 50.1821L42.0055 50.2915H42.1159H46.7513ZM51.6977 56.0249H51.819L51.8227 55.9036C51.8526 54.9057 52.159 53.9358 52.708 53.102L52.8355 52.9082H52.6036H49.2826H49.1722L49.1585 53.0177L48.8002 55.8844L48.7826 56.0249H48.9242H51.6977ZM53.3475 50.2915H53.4451L53.4688 50.1969L54.1854 47.3302L54.2243 47.1749H54.0642H49.9992H49.8889L49.8752 47.2844L49.5169 50.151L49.4993 50.2915H49.6409H53.3475Z" fill="#5FB452" stroke="white" stroke-width="0.25"/>
<path d="M40.0087 68.8C40.0087 70.3142 38.7812 71.5417 37.2671 71.5417C35.7529 71.5417 34.5254 70.3142 34.5254 68.8C34.5254 67.2858 35.7529 66.0583 37.2671 66.0583C38.7812 66.0583 40.0087 67.2858 40.0087 68.8Z" fill="#5FB452" stroke="white" stroke-width="0.25"/>
<path d="M54.3417 68.8C54.3417 70.3142 53.1142 71.5417 51.6001 71.5417C50.0859 71.5417 48.8584 70.3142 48.8584 68.8C48.8584 67.2858 50.0859 66.0583 51.6001 66.0583C53.1142 66.0583 54.3417 67.2858 54.3417 68.8Z" fill="#5FB452" stroke="white" stroke-width="0.25"/>
<path d="M7.16693 0.125H44.4336C47.531 0.125 50.0419 2.63596 50.0419 5.73333V25.8C50.0419 28.8974 47.531 31.4083 44.4336 31.4083H7.16693C4.06955 31.4083 1.55859 28.8974 1.55859 25.8V5.73333C1.55859 2.63596 4.06955 0.125 7.16693 0.125ZM44.4336 28.7917C46.0859 28.7917 47.4253 27.4523 47.4253 25.8V5.73333C47.4253 4.081 46.0859 2.74167 44.4336 2.74167H7.16693C5.5146 2.74167 4.17526 4.081 4.17526 5.73333V25.8C4.17526 27.4523 5.5146 28.7917 7.16693 28.7917H44.4336Z" fill="#5FB452" stroke="white" stroke-width="0.25"/>
<path d="M7.29199 9.90841V7.29175H32.842V9.90841H7.29199Z" fill="#5FB452" stroke="white" stroke-width="0.25"/>
<path d="M37.9079 16.4689L37.9714 16.5066L38.0351 16.4692C39.3415 15.701 40.9616 15.701 42.2678 16.4692C44.2553 17.638 44.9191 20.1968 43.7503 22.1844C42.5815 24.1721 40.0227 24.8357 38.0351 23.6669L37.9715 23.6295L37.908 23.6671C37.2795 24.0393 36.5633 24.2375 35.8329 24.2416C33.5272 24.2414 31.6582 22.3723 31.6582 20.0666C31.6582 17.7609 33.5272 15.8918 35.8328 15.8916C36.5635 15.8965 37.2796 16.0958 37.9079 16.4689ZM40.1272 21.6248L40.1272 21.6249H40.1332C40.9938 21.6249 41.6915 20.9272 41.6915 20.0666C41.6915 19.206 40.9938 18.5083 40.1332 18.5083V18.5081L40.1259 18.5085C40.0331 18.5139 39.941 18.5275 39.8507 18.5489L39.7127 18.5815L39.7624 18.7144C40.0892 19.5868 40.0892 20.5479 39.7624 21.4203L39.7127 21.5531L39.8507 21.5857C39.9415 21.6072 40.034 21.6203 40.1272 21.6248ZM34.2749 20.0666C34.2749 20.9272 34.9726 21.6249 35.8332 21.6249C36.6938 21.6249 37.3915 20.9272 37.3915 20.0666C37.3915 19.206 36.6938 18.5083 35.8332 18.5083C34.9726 18.5083 34.2749 19.206 34.2749 20.0666Z" fill="#5FB452" stroke="white" stroke-width="0.25"/>
<path d="M7.29199 18.5083V15.8916H9.90866V18.5083H7.29199Z" fill="#5FB452" stroke="white" stroke-width="0.25"/>
<path d="M13.0254 18.5083V15.8916H15.6421V18.5083H13.0254Z" fill="#5FB452" stroke="white" stroke-width="0.25"/>
<path d="M18.7588 18.5083V15.8916H21.3755V18.5083H18.7588Z" fill="#5FB452" stroke="white" stroke-width="0.25"/>
<path d="M24.4912 18.5083V15.8916H27.1079V18.5083H24.4912Z" fill="#5FB452" stroke="white" stroke-width="0.25"/>
<path d="M7.29199 24.2417V21.625H27.1087V24.2417H7.29199Z" fill="#5FB452" stroke="white" stroke-width="0.25"/>
<path d="M81.806 55.4118L81.8049 55.4106L81.8049 55.4106L69.8489 42.2105L67.91 43.9662L79.872 57.1779C79.8722 57.1781 79.8724 57.1783 79.8726 57.1785C81.1292 58.5264 81.827 60.301 81.8248 62.1437M81.806 55.4118L81.6998 62.1436M81.806 55.4118C83.5057 57.2406 84.4476 59.6466 84.4415 62.1433V62.1436V85.875M81.806 55.4118L84.4415 85.875M81.8248 62.1437L81.6998 62.1436M81.8248 62.1437V62.1436H81.6998M81.8248 62.1437V85.875M81.6998 62.1436V85.875H81.8248M81.8248 85.875H84.4415M81.8248 85.875V86M81.8248 86H84.4415V85.875M81.8248 86L81.8976 55.3267C83.6188 57.1787 84.5727 59.6152 84.5665 62.1436V85.875H84.4415M81.8248 86L84.4415 85.875" fill="#5FB452" stroke="white" stroke-width="0.25"/>
<path d="M43.1251 37.4543V34.5249H45.7417V37.4543V37.6879L45.936 37.5584L47.9032 36.2473L49.3555 38.4245L45.1596 41.2218L45.1595 41.2218C44.7199 41.5152 44.1469 41.5152 43.7073 41.2218L43.7072 41.2218L39.5113 38.4245L40.9635 36.2473L42.9307 37.5584L43.1251 37.6879V37.4543Z" fill="#5FB452" stroke="white" stroke-width="0.25"/>
</g>
</svg>
