<svg width="65" height="65" viewBox="0 0 65 65" fill="none" xmlns="http://www.w3.org/2000/svg">
    <path d="M39.4862 52.1537C46.3857 47.6008 55.6412 48.8721 55.758 48.8894L39.4862 52.1537ZM39.4862 52.1537C39.3956 52.1685 39.305 52.1836 39.2145 52.1991L39.2356 52.3223L39.3063 52.4254C39.3815 52.3738 39.457 52.3229 39.5328 52.2727C47.8821 50.9141 56.1926 52.5305 60.5123 53.6542V53.6869H60.6373L60.6691 53.566C60.6585 53.5632 60.648 53.5605 60.6373 53.5577V17.8097V17.6847H60.5123H58.3873H58.2623V17.8097V46.7321C58.2623 47.3673 57.9857 47.9704 57.5047 48.3849L39.4862 52.1537ZM58.1373 13.322V13.447L58.2623 13.447L62.8187 13.4472C63.9542 13.4472 64.8748 14.368 64.875 15.5036V56.6055C64.875 57.2713 64.5528 57.8958 64.01 58.2816C63.6572 58.5321 63.24 58.6617 62.8185 58.6617C62.5911 58.6617 62.363 58.6239 62.1426 58.5471L62.1423 58.547C62.0561 58.5173 57.9115 57.1097 52.2655 56.4035C46.6221 55.6976 39.4613 55.69 33.3534 58.476L33.4053 58.5897L33.3534 58.476C32.8112 58.7233 32.1888 58.7233 31.6466 58.476C25.5217 55.6821 18.3611 55.6896 12.722 56.3974C7.08026 57.1056 2.94421 58.5171 2.85761 58.5471L2.85737 58.5472C2.22877 58.7663 1.53289 58.6672 0.990073 58.2814C0.447256 57.8956 0.125 57.2711 0.125 56.6053V15.5034C0.125 14.3678 1.04579 13.447 2.1811 13.447H6.73743H6.86243V13.322V8.60549C6.86243 7.58777 7.60722 6.7229 8.61403 6.57208L8.6141 6.57207C8.79408 6.545 13.2175 5.90241 18.5435 6.87128C24.4774 7.95099 29.2007 10.6116 32.4022 14.6262L32.4999 14.7488L32.5976 14.6262C35.7989 10.6116 40.5222 7.95099 46.4563 6.87128C51.7821 5.9022 56.2055 6.545 56.3857 6.57208L56.3858 6.57209C57.3925 6.72269 58.1373 7.58753 58.1373 8.60549V13.322ZM4.23743 53.6869V53.849L4.39417 53.8078C8.71977 52.6721 17.2342 50.9905 25.7359 52.4442L25.8277 52.218C22.3411 49.8258 18.2171 48.9602 14.9569 48.693C11.6955 48.4257 9.28656 48.7563 9.22029 48.7659L9.22002 48.766C8.62925 48.8532 8.02799 48.6781 7.57596 48.2875C7.12374 47.8968 6.86243 47.3294 6.86243 46.7321V17.6845V17.5595H6.73743H4.36243H4.23743V17.6845V53.6869ZM30.235 50.4467L30.4438 50.6354V50.354V19.0534V19.0193L30.4264 18.9899C27.9915 14.8621 24.2038 12.6884 20.5068 11.5707C16.8109 10.4534 13.1977 10.3887 11.0942 10.4836L11.097 10.6085H10.9751V44.3674V44.4975L11.1051 44.4923C11.5235 44.4755 11.9862 44.4649 12.4861 44.4649C14.1699 44.4649 16.275 44.5853 18.5435 44.9981L18.5659 44.8752L18.5435 44.9981C23.2565 45.8556 27.2057 47.7097 30.235 50.4467ZM34.5733 18.9901L34.556 19.0195V19.0536V50.354V50.6354L34.7648 50.4467C37.7941 47.7095 41.7433 45.8556 46.4563 44.9981L46.4339 44.8752L46.4563 44.9981C49.3981 44.4627 52.0666 44.4186 53.8949 44.4923L54.0249 44.4976V44.3674V10.6139V10.4942L53.9053 10.489C51.8012 10.3989 48.1838 10.471 44.486 11.5902C40.7872 12.7097 36.9998 14.8797 34.5733 18.9901ZM39.1648 52.2193L39.2567 52.4456C47.7607 50.9894 56.2787 52.6717 60.6056 53.8078L60.7623 53.849V53.6869V17.6847V17.5597H60.6373H58.2623H58.1373V17.6847V46.7321C58.1373 47.3308 57.8766 47.8994 57.4231 48.2902C56.9696 48.6806 56.3688 48.8547 55.7766 48.7658L55.7763 48.7657C55.7108 48.756 53.3011 48.4251 50.0386 48.6925C46.7773 48.9597 42.6518 49.8257 39.1648 52.2193Z"
          fill="#4A81ED" stroke="white" stroke-width="0.25"/>
</svg>
