<svg width="1938" height="1108" viewBox="0 0 1938 1108" fill="none" xmlns="http://www.w3.org/2000/svg">
    <g opacity="0.35">
        <path d="M1633.79 607.112C1630.01 607.112 1627.18 604.049 1627.18 600.516C1627.18 596.747 1630.25 593.92 1633.79 593.92C1637.57 593.92 1640.4 596.982 1640.4 600.516C1640.64 604.285 1637.57 607.112 1633.79 607.112Z"
              stroke="#4A81ED" stroke-miterlimit="10"/>
        <path d="M1653.63 607.112C1649.85 607.112 1647.02 604.049 1647.02 600.516C1647.02 596.747 1650.09 593.92 1653.63 593.92C1657.41 593.92 1660.24 596.982 1660.24 600.516C1660.24 604.285 1657.17 607.112 1653.63 607.112Z"
              stroke="#4A81ED" stroke-miterlimit="10"/>
        <path d="M1673.23 607.112C1669.45 607.112 1666.61 604.049 1666.61 600.516C1666.61 596.747 1669.68 593.92 1673.23 593.92C1677 593.92 1679.84 596.982 1679.84 600.516C1679.84 604.285 1677 607.112 1673.23 607.112Z"
              stroke="#4A81ED" stroke-miterlimit="10"/>
        <path d="M1693.06 607.112C1689.28 607.112 1686.45 604.049 1686.45 600.516C1686.45 596.747 1689.52 593.92 1693.06 593.92C1696.84 593.92 1699.67 596.982 1699.67 600.516C1699.67 604.285 1696.6 607.112 1693.06 607.112Z"
              stroke="#4A81ED" stroke-miterlimit="10"/>
        <path d="M1640.64 600.516H1647.02" stroke="#4A81ED" stroke-miterlimit="10"/>
        <path d="M1660.24 600.516H1666.61" stroke="#4A81ED" stroke-miterlimit="10"/>
        <path d="M1679.84 600.516H1686.45" stroke="#4A81ED" stroke-miterlimit="10"/>
        <path d="M1699.67 600.516H1706.05" stroke="#4A81ED" stroke-miterlimit="10"/>
        <path d="M1621.51 600.516H1627.89" stroke="#4A81ED" stroke-miterlimit="10"/>
        <path d="M1743.42 499.383C1750.72 499.383 1756.64 493.477 1756.64 486.192C1756.64 478.906 1750.72 473 1743.42 473C1736.12 473 1730.2 478.906 1730.2 486.192C1730.2 493.477 1736.12 499.383 1743.42 499.383Z"
              stroke="#4A81ED" stroke-miterlimit="10"/>
        <path d="M1743.42 489.018C1744.98 489.018 1746.25 487.753 1746.25 486.192C1746.25 484.63 1744.98 483.365 1743.42 483.365C1741.85 483.365 1740.58 484.63 1740.58 486.192C1740.58 487.753 1741.85 489.018 1743.42 489.018Z"
              fill="#C7D6DD" stroke="#4A81ED" stroke-miterlimit="10"/>
        <path d="M1743.42 504.566C1753.59 504.566 1761.84 496.339 1761.84 486.192C1761.84 476.044 1753.59 467.818 1743.42 467.818C1733.25 467.818 1725 476.044 1725 486.192C1725 496.339 1733.25 504.566 1743.42 504.566Z"
              stroke="#4A81ED" stroke-miterlimit="10"/>
        <path d="M1743.42 486.192H1784.74L1813.31 448.03" stroke="#4A81ED" stroke-miterlimit="10"/>
        <path d="M1820.36 453.929C1823.34 449.982 1822.56 444.369 1818.6 441.392C1814.64 438.414 1809.02 439.199 1806.03 443.146C1803.05 447.093 1803.83 452.706 1807.79 455.683C1811.75 458.661 1817.37 457.876 1820.36 453.929Z"
              fill="#4A81ED"/>
        <path d="M1460.94 714.294L1596.96 578.373H1724.7" stroke="#4A81ED" stroke-miterlimit="10"/>
        <path d="M1724.23 587.324C1729.19 587.324 1733.2 583.317 1733.2 578.373C1733.2 573.429 1729.19 569.421 1724.23 569.421C1719.27 569.421 1715.26 573.429 1715.26 578.373C1715.26 583.317 1719.27 587.324 1724.23 587.324Z"
              fill="#4A81ED"/>
        <path d="M1905.69 388.616V383.433H1885.86V388.616H1905.69Z" fill="#4A81ED"/>
        <path d="M1905.68 399.203V394.021H1885.84V399.203H1905.68Z" fill="#4A81ED"/>
        <path d="M1905.67 409.79V404.608H1885.83V409.79H1905.67Z" fill="#4A81ED"/>
        <path d="M1905.65 420.378V415.195H1885.82V420.378H1905.65Z" fill="#4A81ED"/>
        <path d="M1905.87 430.965V425.782H1886.04V430.965H1905.87Z" fill="#4A81ED"/>
        <path d="M1905.86 441.552V436.37H1886.03V441.552H1905.86Z" fill="#4A81ED"/>
        <path d="M1905.85 452.139V446.957H1886.01V452.139H1905.85Z" fill="#4A81ED"/>
        <path d="M1956.82 357.178H1876.3V466.48H1956.82V357.178Z" stroke="#4A81ED" stroke-miterlimit="10"/>
        <path d="M1877.48 378.379H1588.69" stroke="#4A81ED" stroke-miterlimit="10"/>
        <path d="M1592.23 366.6L1571.69 378.379L1592.23 389.921V366.6Z" fill="#4A81ED"/>
    </g>
    <g opacity="0.35">
        <g opacity="0.25">
            <path opacity="0.25"
                  d="M2.16214 552.493C-25.6145 548.686 -51.1511 567.942 -55.1832 595.706C-58.9913 623.47 -39.7268 648.995 -11.9502 653.026C15.8265 656.832 41.363 637.576 45.3951 609.812C49.2032 582.048 29.7148 556.523 2.16214 552.493ZM17.3945 605.334C15.6024 617.649 4.17818 626.157 -7.91809 624.366C-20.2384 622.575 -28.7506 611.156 -26.9585 599.065C-25.1665 586.75 -13.7422 578.242 -1.64595 580.033C10.4503 581.6 18.9625 593.019 17.3945 605.334Z"
                  fill="#4A81ED"/>
        </g>
        <path d="M143.061 780.875H115.061V808.864H143.061V780.875Z" stroke="#4A81ED" stroke-miterlimit="10"/>
        <path d="M184.725 780.875H156.725V808.864H184.725V780.875Z" stroke="#4A81ED" stroke-miterlimit="10"/>
        <path d="M226.167 780.875H198.166V808.864H226.167V780.875Z" stroke="#4A81ED" stroke-miterlimit="10"/>
        <path d="M267.608 780.875H239.607V808.864H267.608V780.875Z" stroke="#4A81ED" stroke-miterlimit="10"/>
        <path d="M143.061 794.757H156.725" stroke="#4A81ED" stroke-miterlimit="10"/>
        <path d="M184.502 794.757H198.166" stroke="#4A81ED" stroke-miterlimit="10"/>
        <path d="M226.167 794.757H239.607" stroke="#4A81ED" stroke-miterlimit="10"/>
        <path d="M267.607 794.757H281.048" stroke="#4A81ED" stroke-miterlimit="10"/>
        <path d="M102.964 794.757H116.404" stroke="#4A81ED" stroke-miterlimit="10"/>
        <g opacity="0.25">
            <path opacity="0.25"
                  d="M55.6992 709.226C55.6992 703.852 59.9553 699.598 65.3314 699.598C70.7076 699.598 74.9637 703.852 74.9637 709.226C74.9637 714.6 70.7076 718.854 65.3314 718.854C59.9553 718.854 55.6992 714.6 55.6992 709.226Z"
                  fill="#4A81ED"/>
            <path opacity="0.25"
                  d="M55.6992 737.662C55.6992 732.288 59.9553 728.034 65.3314 728.034C70.7076 728.034 74.9637 732.288 74.9637 737.662C74.9637 743.035 70.7076 747.29 65.3314 747.29C59.9553 747.29 55.6992 742.811 55.6992 737.662Z"
                  fill="#4A81ED"/>
            <path opacity="0.25"
                  d="M55.6992 765.874C55.6992 760.5 59.9553 756.246 65.3314 756.246C70.7076 756.246 74.9637 760.5 74.9637 765.874C74.9637 771.247 70.7076 775.502 65.3314 775.502C59.9553 775.502 55.6992 771.247 55.6992 765.874Z"
                  fill="#4A81ED"/>
        </g>
        <path d="M119.988 740.125C127.04 740.125 132.756 734.411 132.756 727.362C132.756 720.313 127.04 714.599 119.988 714.599C112.936 714.599 107.22 720.313 107.22 727.362C107.22 734.411 112.936 740.125 119.988 740.125Z"
              stroke="#4A81ED" stroke-miterlimit="10"/>
        <path d="M119.988 733.855C123.576 733.855 126.484 730.948 126.484 727.362C126.484 723.776 123.576 720.869 119.988 720.869C116.401 720.869 113.492 723.776 113.492 727.362C113.492 730.948 116.401 733.855 119.988 733.855Z"
              fill="#4A81ED"/>
        <path d="M23.636 606.354C25.8591 590.557 14.8493 575.95 -0.955089 573.727C-16.7595 571.505 -31.3737 582.51 -33.5968 598.307C-35.8199 614.105 -24.8101 628.712 -9.0057 630.935C6.79868 633.157 21.4129 622.152 23.636 606.354Z"
              stroke="#4A81ED" stroke-width="2" stroke-miterlimit="10"/>
        <path d="M255.063 1030.75V1050.23L269.624 1040.6L255.063 1030.75Z" fill="#4A81ED"/>
        <path d="M269.624 1030.75V1050.23L284.408 1040.6L269.624 1030.75Z" fill="#4A81ED"/>
        <path d="M284.408 1030.75V1050.23L299.193 1040.6L284.408 1030.75Z" fill="#4A81ED"/>
        <path d="M255.064 1040.6H102.068" stroke="#4A81ED" stroke-miterlimit="10"/>
        <path d="M289.784 885.663C298.197 885.663 305.016 878.846 305.016 870.437C305.016 862.028 298.197 855.212 289.784 855.212C281.371 855.212 274.552 862.028 274.552 870.437C274.552 878.846 281.371 885.663 289.784 885.663Z"
              stroke="#4A81ED" stroke-miterlimit="10"/>
        <path d="M289.784 876.707C293.248 876.707 296.056 873.9 296.056 870.437C296.056 866.975 293.248 864.168 289.784 864.168C286.32 864.168 283.512 866.975 283.512 870.437C283.512 873.9 286.32 876.707 289.784 876.707Z"
              fill="#4A81ED"/>
        <path d="M291.576 870.437H400.219V1099.49H470.108" stroke="#4A81ED" stroke-miterlimit="10"/>
        <path d="M469.661 1108C474.362 1108 478.173 1104.19 478.173 1099.49C478.173 1094.79 474.362 1090.98 469.661 1090.98C464.959 1090.98 461.148 1094.79 461.148 1099.49C461.148 1104.19 464.959 1108 469.661 1108Z"
              fill="#4A81ED"/>
        <path d="M399.995 902.68C403.459 902.68 406.267 899.873 406.267 896.41C406.267 892.948 403.459 890.141 399.995 890.141C396.531 890.141 393.723 892.948 393.723 896.41C393.723 899.873 396.531 902.68 399.995 902.68Z"
              fill="#4A81ED"/>
        <path d="M399.995 942.535C403.459 942.535 406.267 939.728 406.267 936.265C406.267 932.803 403.459 929.996 399.995 929.996C396.531 929.996 393.723 932.803 393.723 936.265C393.723 939.728 396.531 942.535 399.995 942.535Z"
              fill="#4A81ED"/>
        <path d="M399.995 982.39C403.459 982.39 406.267 979.583 406.267 976.12C406.267 972.658 403.459 969.851 399.995 969.851C396.531 969.851 393.723 972.658 393.723 976.12C393.723 979.583 396.531 982.39 399.995 982.39Z"
              fill="#4A81ED"/>
        <path d="M399.995 1022.02C403.459 1022.02 406.267 1019.21 406.267 1015.75C406.267 1012.29 403.459 1009.48 399.995 1009.48C396.531 1009.48 393.723 1012.29 393.723 1015.75C393.723 1019.21 396.531 1022.02 399.995 1022.02Z"
              fill="#4A81ED"/>
        <path d="M197.047 552.94H343.322" stroke="#4A81ED" stroke-miterlimit="10"/>
        <path d="M197.495 561.449C202.196 561.449 206.007 557.639 206.007 552.94C206.007 548.241 202.196 544.432 197.495 544.432C192.793 544.432 188.982 548.241 188.982 552.94C188.982 557.639 192.793 561.449 197.495 561.449Z"
              fill="#4A81ED"/>
        <path d="M342.874 561.449C347.575 561.449 351.386 557.639 351.386 552.94C351.386 548.241 347.575 544.432 342.874 544.432C338.172 544.432 334.361 548.241 334.361 552.94C334.361 557.639 338.172 561.449 342.874 561.449Z"
              fill="#4A81ED"/>
        <path d="M126.037 576.003C130.491 576.003 134.101 572.394 134.101 567.942C134.101 563.49 130.491 559.882 126.037 559.882C121.583 559.882 117.973 563.49 117.973 567.942C117.973 572.394 121.583 576.003 126.037 576.003Z"
              stroke="#4A81ED" stroke-miterlimit="10"/>
        <path d="M104.757 576.003C109.21 576.003 112.821 572.394 112.821 567.942C112.821 563.49 109.21 559.882 104.757 559.882C100.303 559.882 96.6924 563.49 96.6924 567.942C96.6924 572.394 100.303 576.003 104.757 576.003Z"
              stroke="#4A81ED" stroke-miterlimit="10"/>
        <path d="M83.6999 576.003C88.1537 576.003 91.7641 572.394 91.7641 567.942C91.7641 563.49 88.1537 559.882 83.6999 559.882C79.2462 559.882 75.6357 563.49 75.6357 567.942C75.6357 572.394 79.2462 576.003 83.6999 576.003Z"
              stroke="#4A81ED" stroke-miterlimit="10"/>
        <path d="M126.037 567.942H83.7002" stroke="#4A81ED" stroke-miterlimit="10"/>
        <path d="M299.192 992.018C294.936 992.018 291.576 988.659 291.576 984.405V952.61C291.576 948.356 294.936 944.998 299.192 944.998C303.448 944.998 306.809 948.356 306.809 952.61V984.405C306.809 988.659 303.448 992.018 299.192 992.018Z"
              stroke="#4A81ED" stroke-miterlimit="10"/>
        <path d="M411.475 694.793C413.454 694.793 415.059 693.189 415.059 691.21C415.059 689.232 413.454 687.628 411.475 687.628C409.495 687.628 407.891 689.232 407.891 691.21C407.891 693.189 409.495 694.793 411.475 694.793Z"
              fill="#4A81ED"/>
        <path d="M388.402 694.793C390.382 694.793 391.987 693.189 391.987 691.21C391.987 689.232 390.382 687.628 388.402 687.628C386.423 687.628 384.818 689.232 384.818 691.21C384.818 693.189 386.423 694.793 388.402 694.793Z"
              fill="#4A81ED"/>
        <path d="M365.107 694.793C367.086 694.793 368.691 693.189 368.691 691.21C368.691 689.232 367.086 687.628 365.107 687.628C363.127 687.628 361.522 689.232 361.522 691.21C361.522 693.189 363.127 694.793 365.107 694.793Z"
              fill="#4A81ED"/>
        <path d="M341.81 694.793C343.789 694.793 345.394 693.189 345.394 691.21C345.394 689.232 343.789 687.628 341.81 687.628C339.83 687.628 338.226 689.232 338.226 691.21C338.226 693.189 339.83 694.793 341.81 694.793Z"
              fill="#4A81ED"/>
        <path d="M425.14 678H254V704.421H425.14V678Z" stroke="#4A81ED" stroke-miterlimit="10"/>
    </g>
    <path d="M223.766 906.85C225.708 906.85 227.283 905.278 227.283 903.338C227.283 901.399 225.708 899.827 223.766 899.827C221.824 899.827 220.25 901.399 220.25 903.338C220.25 905.278 221.824 906.85 223.766 906.85Z"
          fill="#C6D7FA"/>
    <path d="M235.488 885H29V922.066H235.488C245.646 922.066 254.046 913.873 254.046 903.533C254.046 893.194 245.646 885 235.488 885ZM156.761 906.85C154.807 906.85 153.244 905.289 153.244 903.338C153.244 901.387 154.807 899.827 156.761 899.827C158.714 899.827 160.277 901.387 160.277 903.338C160.277 905.289 158.714 906.85 156.761 906.85ZM179.226 906.85C177.273 906.85 175.71 905.289 175.71 903.338C175.71 901.387 177.273 899.827 179.226 899.827C181.18 899.827 182.742 901.387 182.742 903.338C182.742 905.289 181.18 906.85 179.226 906.85ZM201.496 906.85C199.543 906.85 197.98 905.289 197.98 903.338C197.98 901.387 199.543 899.827 201.496 899.827C203.45 899.827 205.013 901.387 205.013 903.338C205.013 905.289 203.45 906.85 201.496 906.85Z"
          fill="#C6D7FA"/>
    <g opacity="0.35" clip-path="url(#clip0)">
        <path d="M1641.59 236.577C1650.22 236.577 1657.22 229.589 1657.22 220.97C1657.22 212.35 1650.22 205.363 1641.59 205.363C1632.96 205.363 1625.96 212.35 1625.96 220.97C1625.96 229.589 1632.96 236.577 1641.59 236.577Z"
              stroke="#4A81ED" stroke-miterlimit="10"/>
        <path d="M1641.59 191.707V250.428" stroke="#4A81ED" stroke-miterlimit="10"/>
        <path d="M1535.63 63.3376L1508.28 90.6498" stroke="#4A81ED" stroke-miterlimit="10"/>
        <path d="M1540.66 68.7258C1543.56 65.8308 1543.56 61.137 1540.66 58.2419C1537.77 55.3469 1533.07 55.3469 1530.17 58.242C1527.27 61.137 1527.27 65.8308 1530.17 68.7258C1533.07 71.6209 1537.77 71.6209 1540.66 68.7258Z"
              fill="#4A81ED"/>
        <path d="M1513.75 95.6645C1516.65 92.7695 1516.65 88.0757 1513.75 85.1807C1510.85 82.2856 1506.15 82.2856 1503.25 85.1807C1500.35 88.0757 1500.35 92.7695 1503.25 95.6645C1506.15 98.5596 1510.85 98.5596 1513.75 95.6645Z"
              fill="#4A81ED"/>
        <g clip-path="url(#clip1)">
            <path d="M1377.5 176.173C1376.38 168.216 1381.93 160.859 1389.89 159.739C1397.85 158.62 1405.21 164.163 1406.33 172.12C1407.44 180.076 1401.9 187.434 1393.94 188.554C1385.98 189.673 1378.62 184.13 1377.5 176.173Z"
                  stroke="#4A81ED" stroke-width="2" stroke-miterlimit="10"/>
            <path d="M1465.72 254.241H1374.15L1312.61 167.548" stroke="#4A81ED" stroke-miterlimit="10"/>
            <path d="M1465.56 260C1462.38 260 1459.8 257.421 1459.8 254.241C1459.8 251.06 1462.38 248.481 1465.56 248.481C1468.75 248.481 1471.33 251.06 1471.33 254.241C1471.33 257.421 1468.75 260 1465.56 260Z"
                  fill="#4A81ED"/>
            <path d="M1510.89 221.655V207.105L1521.81 214.38L1510.89 221.655Z" stroke="#4A81ED" stroke-miterlimit="10"/>
            <path d="M1521.81 221.655V207.105L1532.72 214.38L1521.81 221.655Z" stroke="#4A81ED" stroke-miterlimit="10"/>
            <path d="M1532.72 221.655V207.105L1543.64 214.38L1532.72 221.655Z" stroke="#4A81ED" stroke-miterlimit="10"/>
            <path d="M1510.89 214.38H1346.72" stroke="#4A81ED" stroke-miterlimit="10"/>
            <path d="M1486.64 174.065H1391.44" stroke="#4A81ED" stroke-width="0.75" stroke-miterlimit="10"/>
            <path d="M1486.48 178.309C1484.14 178.309 1482.24 176.409 1482.24 174.065C1482.24 171.722 1484.14 169.822 1486.48 169.822C1488.83 169.822 1490.73 171.722 1490.73 174.065C1490.73 176.409 1488.83 178.309 1486.48 178.309Z"
                  fill="#4A81ED"/>
            <path d="M1391.59 178.309C1389.24 178.309 1387.34 176.409 1387.34 174.065C1387.34 171.722 1389.24 169.822 1391.59 169.822C1393.93 169.822 1395.83 171.722 1395.83 174.065C1395.83 176.409 1393.93 178.309 1391.59 178.309Z"
                  fill="#4A81ED"/>
        </g>
    </g>
    <g opacity="0.35" clip-path="url(#clip2)">
        <path d="M-32 0.941895H21.2886V113.408H185.297" stroke="#4A81ED" stroke-miterlimit="10"/>
        <path d="M184.92 120.567C188.872 120.567 192.075 117.362 192.075 113.408C192.075 109.455 188.872 106.25 184.92 106.25C180.968 106.25 177.765 109.455 177.765 113.408C177.765 117.362 180.968 120.567 184.92 120.567Z"
              fill="#4A81ED"/>
        <path d="M24.4899 285.028H6.60156L15.4516 298.592L24.4899 285.028Z" stroke="#4A81ED" stroke-width="1.1219"
              stroke-miterlimit="10"/>
        <path d="M24.4899 298.592H6.60156L15.4516 312.155L24.4899 298.592Z" stroke="#4A81ED" stroke-width="1.1219"
              stroke-miterlimit="10"/>
        <path d="M24.4899 312.155H6.60156L15.4516 325.719L24.4899 312.155Z" stroke="#4A81ED" stroke-width="1.1219"
              stroke-miterlimit="10"/>
        <path d="M15.6396 285.028V230.396" stroke="#4A81ED" stroke-miterlimit="10"/>
        <path d="M299.782 334.573H283.776V350.586H299.782V334.573Z" stroke="#4A81ED" stroke-miterlimit="10"/>
        <path d="M323.507 334.573H307.502V350.586H323.507V334.573Z" stroke="#4A81ED" stroke-miterlimit="10"/>
        <path d="M299.782 342.486H307.502" stroke="#4A81ED" stroke-miterlimit="10"/>
        <path d="M323.696 342.486H331.417" stroke="#4A81ED" stroke-miterlimit="10"/>
        <path d="M276.81 342.486H284.53" stroke="#4A81ED" stroke-miterlimit="10"/>
        <g opacity="0.25">
            <path opacity="0.25"
                  d="M356.272 175.01C362.2 175.01 367.005 170.203 367.005 164.272C367.005 158.342 362.2 153.534 356.272 153.534C350.344 153.534 345.539 158.342 345.539 164.272C345.539 170.203 350.344 175.01 356.272 175.01Z"
                  fill="#4A81ED"/>
            <path opacity="0.25"
                  d="M333.864 175.01C339.792 175.01 344.597 170.203 344.597 164.272C344.597 158.342 339.792 153.534 333.864 153.534C327.936 153.534 323.131 158.342 323.131 164.272C323.131 170.203 327.936 175.01 333.864 175.01Z"
                  fill="#4A81ED"/>
            <path opacity="0.25"
                  d="M311.457 175.01C317.384 175.01 322.19 170.203 322.19 164.272C322.19 158.342 317.384 153.534 311.457 153.534C305.529 153.534 300.724 158.342 300.724 164.272C300.724 170.203 305.529 175.01 311.457 175.01Z"
                  fill="#4A81ED"/>
        </g>
        <g opacity="0.25">
            <path opacity="0.25"
                  d="M578.653 407.102C584.581 407.102 589.386 402.294 589.386 396.364C589.386 390.434 584.581 385.626 578.653 385.626C572.725 385.626 567.92 390.434 567.92 396.364C567.92 402.294 572.725 407.102 578.653 407.102Z"
                  fill="#4A81ED"/>
            <path opacity="0.25"
                  d="M556.245 407.102C562.172 407.102 566.978 402.294 566.978 396.364C566.978 390.434 562.172 385.626 556.245 385.626C550.317 385.626 545.512 390.434 545.512 396.364C545.512 402.294 550.317 407.102 556.245 407.102Z"
                  fill="#4A81ED"/>
            <path opacity="0.25"
                  d="M533.838 407.102C539.765 407.102 544.571 402.294 544.571 396.364C544.571 390.434 539.765 385.626 533.838 385.626C527.91 385.626 523.104 390.434 523.104 396.364C523.104 402.294 527.91 407.102 533.838 407.102Z"
                  fill="#4A81ED"/>
        </g>
        <path d="M439.402 111.736C442.72 88.1441 426.293 66.3283 402.711 63.0093C379.13 59.6904 357.324 76.1252 354.007 99.7175C350.689 123.31 367.116 145.126 390.698 148.445C414.279 151.763 436.085 135.329 439.402 111.736Z"
              stroke="#4A81ED" stroke-miterlimit="10"/>
        <path d="M414.603 108.246C415.994 98.3557 409.108 89.2102 399.222 87.8188C389.336 86.4275 380.195 93.3172 378.804 103.207C377.414 113.098 384.3 122.243 394.186 123.634C404.071 125.026 413.213 118.136 414.603 108.246Z"
              stroke="#4A81ED" stroke-width="2" stroke-miterlimit="10"/>
        <path d="M396.353 148.693V185.805L463.387 252.87" stroke="#4A81ED" stroke-miterlimit="10"/>
        <path d="M468.061 257.785C470.855 254.989 470.855 250.456 468.061 247.661C465.266 244.865 460.736 244.865 457.941 247.661C455.147 250.456 455.147 254.989 457.941 257.785C460.736 260.58 465.266 260.58 468.061 257.785Z"
              fill="#4A81ED"/>
        <path d="M414.618 107.436H536.824V292.054" stroke="#4A81ED" stroke-miterlimit="10"/>
        <path d="M527.598 289.228L536.824 305.43L546.239 289.228H527.598Z" fill="#4A81ED"/>
        <path d="M536.824 157.358C539.736 157.358 542.096 154.997 542.096 152.083C542.096 149.17 539.736 146.809 536.824 146.809C533.912 146.809 531.552 149.17 531.552 152.083C531.552 154.997 533.912 157.358 536.824 157.358Z"
              fill="#4A81ED"/>
        <path d="M536.824 190.891C539.736 190.891 542.096 188.529 542.096 185.616C542.096 182.703 539.736 180.341 536.824 180.341C533.912 180.341 531.552 182.703 531.552 185.616C531.552 188.529 533.912 190.891 536.824 190.891Z"
              fill="#4A81ED"/>
        <path d="M536.824 224.235C539.736 224.235 542.096 221.874 542.096 218.96C542.096 216.047 539.736 213.686 536.824 213.686C533.912 213.686 531.552 216.047 531.552 218.96C531.552 221.874 533.912 224.235 536.824 224.235Z"
              fill="#4A81ED"/>
        <path d="M536.824 257.768C539.736 257.768 542.096 255.406 542.096 252.493C542.096 249.58 539.736 247.218 536.824 247.218C533.912 247.218 531.552 249.58 531.552 252.493C531.552 255.406 533.912 257.768 536.824 257.768Z"
              fill="#4A81ED"/>
        <g clip-path="url(#clip3)">
            <path opacity="0.24"
                  d="M292 198.167H-142.321C-145.994 198.167 -149 195.167 -149 191.5C-149 187.833 -145.994 184.833 -142.321 184.833H292V198.167Z"
                  fill="#4A81ED"/>
            <path opacity="0.24"
                  d="M-142.321 211.333C-145.994 211.333 -149 214.333 -149 218V250C-149 253.666 -145.994 256.666 -142.321 256.666H292V211.333H-142.321ZM-58.4957 248C-62.5032 248 -65.6759 244.833 -65.6759 240.833C-65.6759 236.833 -62.5032 233.666 -58.4957 233.666C-54.4881 233.666 -51.3154 236.833 -51.3154 240.833C-51.3154 244.833 -54.4881 248 -58.4957 248ZM-37.2889 248C-41.2965 248 -44.4691 244.833 -44.4691 240.833C-44.4691 236.833 -41.2965 233.666 -37.2889 233.666C-33.2813 233.666 -30.1087 236.833 -30.1087 240.833C-30.2757 244.833 -33.4483 248 -37.2889 248ZM-16.2491 248C-20.2567 248 -23.4294 244.833 -23.4294 240.833C-23.4294 236.833 -20.2567 233.666 -16.2491 233.666C-12.2416 233.666 -9.06891 236.833 -9.06891 240.833C-9.06891 244.833 -12.2416 248 -16.2491 248Z"
                  fill="#4A81ED"/>
            <path opacity="0.24"
                  d="M-142.321 267.5C-145.994 267.5 -149 270.5 -149 274.167V377.333C-149 381 -145.994 384 -142.321 384H292V267.5H-142.321ZM136.039 368.333H131.363V350.833H136.039V368.333ZM145.39 368.333H140.714V350.833H145.39V368.333ZM154.741 368.333H150.065V350.833H154.741V368.333ZM164.092 368.333H159.416V350.833H164.092V368.333ZM173.443 368.333H168.767V350.833H173.443V368.333ZM182.794 368.333H178.118V350.833H182.794V368.333ZM192.145 368.333H187.469V350.833H192.145V368.333ZM280.144 334.5H96.6308V317L112.995 299.5H280.144V334.5Z"
                  fill="#4A81ED"/>
        </g>
    </g>
    <g opacity="0.35">
        <path d="M1496.35 1086.89C1500.96 1086.89 1504.7 1083.15 1504.7 1078.53C1504.7 1073.9 1500.96 1070.16 1496.35 1070.16C1491.74 1070.16 1488 1073.9 1488 1078.53C1488 1083.15 1491.74 1086.89 1496.35 1086.89Z"
              stroke="#4A81ED" stroke-miterlimit="10"/>
        <path d="M1496.35 1081.94C1498.23 1081.94 1499.76 1080.41 1499.76 1078.53C1499.76 1076.64 1498.23 1075.11 1496.35 1075.11C1494.47 1075.11 1492.94 1076.64 1492.94 1078.53C1492.94 1080.41 1494.47 1081.94 1496.35 1081.94Z"
              stroke="#4A81ED" stroke-miterlimit="10"/>
        <path d="M1667.98 1035.49H1496.35V1078.53" stroke="#4A81ED" stroke-miterlimit="10"/>
        <path d="M1667.63 1041.98C1671.21 1041.98 1674.11 1039.07 1674.11 1035.49C1674.11 1031.91 1671.21 1029 1667.63 1029C1664.06 1029 1661.16 1031.91 1661.16 1035.49C1661.16 1039.07 1664.06 1041.98 1667.63 1041.98Z"
              fill="#4A81ED"/>
        <path d="M1816.12 965.744C1823.65 965.744 1829.75 959.627 1829.75 952.082C1829.75 944.536 1823.65 938.419 1816.12 938.419C1808.59 938.419 1802.48 944.536 1802.48 952.082C1802.48 959.627 1808.59 965.744 1816.12 965.744Z"
              stroke="#4A81ED" stroke-miterlimit="10"/>
        <path d="M1816.12 926.294V977.87" stroke="#4A81ED" stroke-miterlimit="10"/>
        <path d="M1535.84 1065.71H1528V1082.45H1535.84V1065.71Z" stroke="#4A81ED" stroke-miterlimit="10"/>
        <path d="M1547.6 1065.71H1539.76V1082.45H1547.6V1065.71Z" stroke="#4A81ED" stroke-miterlimit="10"/>
        <path d="M1559.19 1065.71H1551.35V1082.45H1559.19V1065.71Z" stroke="#4A81ED" stroke-miterlimit="10"/>
        <path d="M1570.95 1065.71H1563.11V1082.45H1570.95V1065.71Z" stroke="#4A81ED" stroke-miterlimit="10"/>
        <path d="M1582.54 1065.71H1574.7V1082.45H1582.54V1065.71Z" stroke="#4A81ED" stroke-miterlimit="10"/>
        <path d="M1594.3 1065.71H1586.46V1082.45H1594.3V1065.71Z" stroke="#4A81ED" stroke-miterlimit="10"/>
        <path d="M1701.93 966.086C1703.62 966.086 1705 964.71 1705 963.012C1705 961.314 1703.62 959.938 1701.93 959.938C1700.24 959.938 1698.86 961.314 1698.86 963.012C1698.86 964.71 1700.24 966.086 1701.93 966.086Z"
              fill="#4A81ED"/>
        <path d="M1682.33 966.086C1684.02 966.086 1685.4 964.71 1685.4 963.012C1685.4 961.314 1684.02 959.938 1682.33 959.938C1680.64 959.938 1679.26 961.314 1679.26 963.012C1679.26 964.71 1680.64 966.086 1682.33 966.086Z"
              fill="#4A81ED"/>
        <path d="M1662.73 966.086C1664.43 966.086 1665.8 964.71 1665.8 963.012C1665.8 961.314 1664.43 959.938 1662.73 959.938C1661.04 959.938 1659.66 961.314 1659.66 963.012C1659.66 964.71 1661.04 966.086 1662.73 966.086Z"
              fill="#4A81ED"/>
        <path d="M1643.3 966.086C1645 966.086 1646.37 964.71 1646.37 963.012C1646.37 961.314 1645 959.938 1643.3 959.938C1641.61 959.938 1640.23 961.314 1640.23 963.012C1640.23 964.71 1641.61 966.086 1643.3 966.086Z"
              fill="#4A81ED"/>
        <path d="M1727.5 822.631L1703.46 846.711" stroke="#4A81ED" stroke-miterlimit="10"/>
        <path d="M1731.79 827.564C1734.32 825.03 1734.32 820.921 1731.79 818.387C1729.26 815.852 1725.16 815.852 1722.63 818.387C1720.1 820.921 1720.1 825.03 1722.63 827.564C1725.16 830.098 1729.26 830.098 1731.79 827.564Z"
              fill="#4A81ED"/>
        <path d="M1708.18 851.026C1710.71 848.491 1710.71 844.382 1708.18 841.848C1705.65 839.314 1701.55 839.314 1699.02 841.848C1696.49 844.382 1696.49 848.491 1699.02 851.026C1701.55 853.56 1705.65 853.56 1708.18 851.026Z"
              fill="#4A81ED"/>
        <path d="M1589.01 1055.46C1590.52 1055.46 1591.74 1054.24 1591.74 1052.73C1591.74 1051.22 1590.52 1050 1589.01 1050C1587.51 1050 1586.29 1051.22 1586.29 1052.73C1586.29 1054.24 1587.51 1055.46 1589.01 1055.46Z"
              fill="#4A81ED"/>
        <path d="M1571.46 1055.46C1572.97 1055.46 1574.19 1054.24 1574.19 1052.73C1574.19 1051.22 1572.97 1050 1571.46 1050C1569.95 1050 1568.73 1051.22 1568.73 1052.73C1568.73 1054.24 1569.95 1055.46 1571.46 1055.46Z"
              fill="#4A81ED"/>
        <path d="M1553.74 1055.46C1555.24 1055.46 1556.46 1054.24 1556.46 1052.73C1556.46 1051.22 1555.24 1050 1553.74 1050C1552.23 1050 1551.01 1051.22 1551.01 1052.73C1551.01 1054.24 1552.23 1055.46 1553.74 1055.46Z"
              fill="#4A81ED"/>
        <path d="M1536.18 1055.46C1537.69 1055.46 1538.91 1054.24 1538.91 1052.73C1538.91 1051.22 1537.69 1050 1536.18 1050C1534.67 1050 1533.45 1051.22 1533.45 1052.73C1533.45 1054.24 1534.67 1055.46 1536.18 1055.46Z"
              fill="#4A81ED"/>
        <path d="M1513.79 900.864C1510.56 900.864 1508 898.302 1508 895.057V870.807C1508 867.562 1510.56 865 1513.79 865C1517.03 865 1519.59 867.562 1519.59 870.807V895.057C1519.59 898.302 1517.03 900.864 1513.79 900.864Z"
              stroke="#4A81ED" stroke-miterlimit="10"/>
        <path d="M1533.74 901.344C1530.5 901.344 1527.94 898.782 1527.94 895.537V871.286C1527.94 868.041 1530.5 865.48 1533.74 865.48C1536.97 865.48 1539.53 868.041 1539.53 871.286V895.537C1539.36 898.782 1536.8 901.344 1533.74 901.344Z"
              stroke="#4A81ED" stroke-miterlimit="10"/>
        <path opacity="0.25"
              d="M1801.64 900.806H1610C1610 830.77 1666.85 774 1736.98 774H1793.44C1798.12 774 1801.84 777.707 1801.84 782.389V900.806H1801.64Z"
              fill="#4A81ED"/>
    </g>
    <g opacity="0.2">
        <path d="M1445.79 707.37L1444.77 704.979L1443.24 703.101L1441.36 701.564L1439.15 700.539L1436.76 700.198L1434.38 700.539L1432.16 701.564L1430.29 703.101L1428.75 704.979L1427.73 707.199L1427.39 709.59L1427.73 711.981L1428.75 714.201L1430.29 716.08L1432.16 717.617L1434.38 718.642L1436.76 718.983L1439.15 718.642L1441.36 717.617L1443.24 716.08L1444.77 714.201L1445.79 711.981L1446.14 709.59L1445.79 707.37ZM1444.94 712.152L1444.09 714.372L1442.73 716.251L1440.85 717.617L1438.64 718.471L1436.25 718.813L1433.86 718.471L1431.65 717.617L1429.77 716.251L1428.41 714.372L1427.56 712.152L1427.22 709.932L1427.56 707.541L1428.41 705.321L1429.77 703.442L1431.65 702.076L1433.86 701.222L1436.25 700.881L1438.64 701.222L1440.85 702.076L1442.73 703.442L1444.09 705.321L1444.94 707.541L1445.28 709.932L1444.94 712.152Z"
              fill="#4A81ED" stroke="#4A81ED" stroke-width="0.5" stroke-miterlimit="10"/>
        <path d="M1426.37 813.766C1426.37 813.937 1426.37 813.937 1426.37 813.766L1427.39 816.157L1428.92 818.035L1430.8 819.572L1433.01 820.597L1435.4 820.939L1437.78 820.597L1440 819.572L1441.87 818.035L1443.41 816.157L1444.43 813.937L1444.77 811.546L1444.43 809.155L1443.41 806.935L1441.87 805.056L1440 803.519L1437.78 802.494L1435.4 802.153L1433.01 802.494L1430.8 803.519L1428.92 805.056L1427.39 806.935L1426.37 808.642L1426.02 811.033L1426.37 813.766ZM1427.05 808.984L1427.9 806.764L1429.26 804.885L1431.14 803.519L1433.35 802.665L1435.74 802.324L1438.12 802.665L1440.34 803.519L1442.22 804.885L1443.58 806.764L1444.43 808.984L1444.77 811.375L1444.43 813.766L1443.58 815.986L1442.22 817.865L1440.34 819.231L1438.12 820.085L1435.74 820.426L1433.35 820.085L1431.14 819.231L1429.26 817.865L1427.9 815.986L1427.05 813.766L1426.71 811.375L1427.05 808.984Z"
              fill="#4A81ED" stroke="#4A81ED" stroke-width="0.5" stroke-miterlimit="10"/>
        <path d="M1410.52 792.248V814.961C1410.52 815.132 1410.69 815.474 1410.86 815.645L1424.32 828.965C1424.49 829.136 1424.66 829.307 1425 829.307H1446.99C1447.16 829.307 1447.5 829.136 1447.67 828.965L1461.13 815.645C1461.3 815.474 1461.47 815.303 1461.47 814.961V792.248H1466.76C1467.27 792.248 1467.78 791.906 1467.78 791.223V784.392H1485.68C1486.19 784.392 1486.7 784.05 1486.7 783.367V778.756H1513.97C1514.48 778.756 1514.99 778.415 1514.99 777.731V768.339C1514.99 767.826 1514.48 767.314 1513.97 767.314H1486.7V764.411C1486.7 763.898 1486.36 763.386 1485.68 763.386H1467.78V757.579H1485.68C1486.19 757.579 1486.7 757.238 1486.7 756.555V752.285H1513.97C1514.48 752.285 1514.99 751.944 1514.99 751.261V741.868C1514.99 741.355 1514.48 740.843 1513.97 740.843H1486.7V737.94C1486.7 737.427 1486.36 736.915 1485.68 736.915H1467.78V729.742C1467.78 729.23 1467.27 728.718 1466.76 728.718H1461.99V706.346C1461.99 706.175 1461.81 705.833 1461.64 705.662L1448.18 692.342C1448.01 692.171 1447.84 692 1447.5 692H1425.34C1425.17 692 1424.83 692.171 1424.66 692.342L1411.2 705.662C1411.03 705.833 1410.86 706.004 1410.86 706.346V729.059H1405.06C1404.55 729.059 1404.04 729.401 1404.04 730.084V737.257H1386.31C1385.8 737.257 1385.29 737.598 1385.29 738.281V741.185H1358.02C1357.51 741.185 1357 741.526 1357 742.209V751.602C1357 752.114 1357.34 752.627 1358.02 752.627H1385.29V757.238C1385.29 757.75 1385.8 758.263 1386.31 758.263H1404.21V764.069H1386.31C1385.8 764.069 1385.29 764.411 1385.29 765.094V767.997H1358.02C1357.51 767.997 1357 768.509 1357 769.022V777.902C1357 778.415 1357.34 778.927 1358.02 778.927H1385.29V783.538C1385.29 784.05 1385.8 784.563 1386.31 784.563H1404.21V791.394C1404.21 791.906 1404.55 792.419 1405.23 792.419L1410.52 792.248ZM1466.76 738.452H1484.82V741.868C1484.82 742.038 1484.99 742.209 1485.16 742.209H1513.11V750.919H1485.16C1484.99 750.919 1484.82 751.09 1484.82 751.261V756.384H1466.76V738.452ZM1466.76 764.923H1484.82V768.339C1484.82 768.509 1484.99 768.68 1485.16 768.68H1513.11V777.39H1485.16C1484.99 777.39 1484.82 777.561 1484.82 777.731V782.855H1466.76V764.923ZM1459.77 814.791L1446.65 827.77H1425L1411.88 814.791V791.735H1459.77V814.791ZM1412.22 706.516L1425.34 693.537H1446.99L1460.11 706.516V729.572H1412.22V706.516ZM1405.57 783.538V764.581V756.896V737.94V730.255H1411.88H1460.62H1466.08V737.94V756.896V764.581V783.538V790.882H1460.28H1411.37H1405.57V783.538ZM1404.72 783.026H1386.65V777.902C1386.65 777.731 1386.48 777.561 1386.31 777.561H1358.53V768.851H1386.31C1386.48 768.851 1386.65 768.68 1386.65 768.509V765.094H1404.72V783.026ZM1404.72 756.384H1386.65V751.261C1386.65 751.09 1386.48 750.919 1386.31 750.919H1358.53V742.209H1386.31C1386.48 742.209 1386.65 742.038 1386.65 741.868V738.452H1404.72V756.384Z"
              fill="#4A81ED" stroke="#4A81ED" stroke-width="0.5" stroke-miterlimit="10"/>
    </g>
    <defs>
        <clipPath id="clip0">
            <rect width="496" height="270" fill="white" transform="translate(1347 53)"/>
        </clipPath>
        <clipPath id="clip1">
            <rect width="233" height="102" fill="white" transform="matrix(-1 0 0 1 1545 158)"/>
        </clipPath>
        <clipPath id="clip2">
            <rect width="663" height="412" fill="white" transform="translate(-32)"/>
        </clipPath>
        <clipPath id="clip3">
            <rect width="441" height="199" fill="white" transform="translate(-149 185)"/>
        </clipPath>
    </defs>
</svg>
