<svg width="1938" height="814" viewBox="0 0 1938 814" fill="none" xmlns="http://www.w3.org/2000/svg">
<g opacity="0.8">
<g opacity="0.35" clip-path="url(#clip0)">
<path d="M1707.09 541.058C1703.47 541.058 1700.75 538.122 1700.75 534.734C1700.75 531.12 1703.69 528.41 1707.09 528.41C1710.71 528.41 1713.43 531.346 1713.43 534.734C1713.65 538.348 1710.71 541.058 1707.09 541.058Z" stroke="#4A81ED" stroke-miterlimit="10"/>
<path d="M1726.11 541.058C1722.48 541.058 1719.77 538.122 1719.77 534.734C1719.77 531.12 1722.71 528.41 1726.11 528.41C1729.73 528.41 1732.45 531.346 1732.45 534.734C1732.45 538.348 1729.5 541.058 1726.11 541.058Z" stroke="#4A81ED" stroke-miterlimit="10"/>
<path d="M1744.9 541.058C1741.28 541.058 1738.56 538.122 1738.56 534.734C1738.56 531.12 1741.5 528.41 1744.9 528.41C1748.52 528.41 1751.24 531.346 1751.24 534.734C1751.24 538.348 1748.52 541.058 1744.9 541.058Z" stroke="#4A81ED" stroke-miterlimit="10"/>
<path d="M1763.92 541.058C1760.29 541.058 1757.58 538.122 1757.58 534.734C1757.58 531.12 1760.52 528.41 1763.92 528.41C1767.54 528.41 1770.26 531.346 1770.26 534.734C1770.26 538.348 1767.31 541.058 1763.92 541.058Z" stroke="#4A81ED" stroke-miterlimit="10"/>
<path d="M1713.66 534.734H1719.77" stroke="#4A81ED" stroke-miterlimit="10"/>
<path d="M1732.45 534.734H1738.56" stroke="#4A81ED" stroke-miterlimit="10"/>
<path d="M1751.24 534.734H1757.58" stroke="#4A81ED" stroke-miterlimit="10"/>
<path d="M1770.25 534.734H1776.37" stroke="#4A81ED" stroke-miterlimit="10"/>
<path d="M1695.32 534.734H1701.43" stroke="#4A81ED" stroke-miterlimit="10"/>
<path d="M1812.2 437.768C1819.2 437.768 1824.88 432.106 1824.88 425.12C1824.88 418.135 1819.2 412.472 1812.2 412.472C1805.2 412.472 1799.52 418.135 1799.52 425.12C1799.52 432.106 1805.2 437.768 1812.2 437.768Z" stroke="#4A81ED" stroke-miterlimit="10"/>
<path d="M1812.2 427.831C1813.7 427.831 1814.92 426.617 1814.92 425.12C1814.92 423.623 1813.7 422.41 1812.2 422.41C1810.7 422.41 1809.48 423.623 1809.48 425.12C1809.48 426.617 1810.7 427.831 1812.2 427.831Z" fill="#C7D6DD" stroke="#4A81ED" stroke-miterlimit="10"/>
<path d="M1812.2 442.737C1821.95 442.737 1829.86 434.85 1829.86 425.12C1829.86 415.391 1821.95 407.504 1812.2 407.504C1802.45 407.504 1794.54 415.391 1794.54 425.12C1794.54 434.85 1802.45 442.737 1812.2 442.737Z" stroke="#4A81ED" stroke-miterlimit="10"/>
<path d="M1812.2 425.12H1851.82L1879.21 388.531" stroke="#4A81ED" stroke-miterlimit="10"/>
<path d="M1885.97 394.187C1888.83 390.403 1888.08 385.021 1884.28 382.166C1880.49 379.311 1875.09 380.064 1872.23 383.848C1869.37 387.632 1870.13 393.014 1873.92 395.869C1877.71 398.724 1883.11 397.971 1885.97 394.187Z" fill="#4A81ED"/>
<path d="M1541.36 643.823L1671.77 513.503H1794.25" stroke="#4A81ED" stroke-miterlimit="10"/>
<path d="M1793.8 522.086C1798.55 522.086 1802.4 518.243 1802.4 513.503C1802.4 508.763 1798.55 504.921 1793.8 504.921C1789.05 504.921 1785.2 508.763 1785.2 513.503C1785.2 518.243 1789.05 522.086 1793.8 522.086Z" fill="#4A81ED"/>
<path d="M1940.74 321.75H1663.85" stroke="#4A81ED" stroke-miterlimit="10"/>
<path d="M1667.24 310.457L1647.55 321.75L1667.24 332.817V310.457Z" fill="#4A81ED"/>
<path d="M2027.98 579H1830V614.539H2027.98C2037.72 614.539 2045.77 606.683 2045.77 596.77C2045.77 586.856 2037.72 579 2027.98 579ZM1952.5 599.949C1950.62 599.949 1949.12 598.453 1949.12 596.583C1949.12 594.712 1950.62 593.216 1952.5 593.216C1954.37 593.216 1955.87 594.712 1955.87 596.583C1955.87 598.453 1954.37 599.949 1952.5 599.949ZM1974.04 599.949C1972.16 599.949 1970.66 598.453 1970.66 596.583C1970.66 594.712 1972.16 593.216 1974.04 593.216C1975.91 593.216 1977.41 594.712 1977.41 596.583C1977.41 598.453 1975.91 599.949 1974.04 599.949ZM1995.39 599.949C1993.52 599.949 1992.02 598.453 1992.02 596.583C1992.02 594.712 1993.52 593.216 1995.39 593.216C1997.26 593.216 1998.76 594.712 1998.76 596.583C1998.76 598.453 1997.26 599.949 1995.39 599.949Z" fill="#C6D7FA"/>
</g>
<g opacity="0.35">
<g opacity="0.25">
<path opacity="0.25" d="M-27.9764 507.865C-54.6085 504.216 -79.0929 522.678 -82.9588 549.298C-86.61 575.918 -68.1393 600.392 -41.5072 604.256C-14.8751 607.905 9.60927 589.443 13.4752 562.823C17.1264 536.203 -1.55903 511.729 -27.9764 507.865ZM-13.3717 558.529C-15.0899 570.337 -26.0434 578.495 -37.6413 576.777C-49.4539 575.06 -57.6153 564.111 -55.8971 552.518C-54.1789 540.711 -43.2254 532.553 -31.6276 534.271C-20.0297 535.773 -11.8682 546.722 -13.3717 558.529Z" fill="#4A81ED"/>
</g>
<path d="M107.116 726.838H80.2695V753.672H107.116V726.838Z" stroke="#4A81ED" stroke-miterlimit="10"/>
<path d="M147.065 726.838H120.218V753.672H147.065V726.838Z" stroke="#4A81ED" stroke-miterlimit="10"/>
<path d="M186.798 726.838H159.951V753.672H186.798V726.838Z" stroke="#4A81ED" stroke-miterlimit="10"/>
<path d="M226.531 726.838H199.685V753.672H226.531V726.838Z" stroke="#4A81ED" stroke-miterlimit="10"/>
<path d="M107.116 740.148H120.217" stroke="#4A81ED" stroke-miterlimit="10"/>
<path d="M146.85 740.148H159.951" stroke="#4A81ED" stroke-miterlimit="10"/>
<path d="M186.798 740.148H199.684" stroke="#4A81ED" stroke-miterlimit="10"/>
<path d="M226.531 740.148H239.418" stroke="#4A81ED" stroke-miterlimit="10"/>
<path d="M68.6719 740.148H81.5584" stroke="#4A81ED" stroke-miterlimit="10"/>
<g opacity="0.25">
<path opacity="0.25" d="M23.3545 658.14C23.3545 652.988 27.4352 648.909 32.5898 648.909C37.7444 648.909 41.8251 652.988 41.8251 658.14C41.8251 663.293 37.7444 667.372 32.5898 667.372C27.4352 667.372 23.3545 663.293 23.3545 658.14Z" fill="#4A81ED"/>
<path opacity="0.25" d="M23.3545 685.404C23.3545 680.252 27.4352 676.173 32.5898 676.173C37.7444 676.173 41.8251 680.252 41.8251 685.404C41.8251 690.557 37.7444 694.636 32.5898 694.636C27.4352 694.636 23.3545 690.342 23.3545 685.404Z" fill="#4A81ED"/>
<path opacity="0.25" d="M23.3545 712.454C23.3545 707.302 27.4352 703.223 32.5898 703.223C37.7444 703.223 41.8251 707.302 41.8251 712.454C41.8251 717.606 37.7444 721.685 32.5898 721.685C27.4352 721.685 23.3545 717.606 23.3545 712.454Z" fill="#4A81ED"/>
</g>
<path d="M84.9951 687.766C91.7563 687.766 97.2373 682.287 97.2373 675.529C97.2373 668.771 91.7563 663.293 84.9951 663.293C78.2339 663.293 72.7529 668.771 72.7529 675.529C72.7529 682.287 78.2339 687.766 84.9951 687.766Z" stroke="#4A81ED" stroke-miterlimit="10"/>
<path d="M84.9951 681.755C88.435 681.755 91.2236 678.968 91.2236 675.529C91.2236 672.091 88.435 669.304 84.9951 669.304C81.5552 669.304 78.7666 672.091 78.7666 675.529C78.7666 678.968 81.5552 681.755 84.9951 681.755Z" fill="#4A81ED"/>
<path d="M158.878 508.295H299.126" stroke="#4A81ED" stroke-miterlimit="10"/>
<path d="M159.308 516.452C163.815 516.452 167.469 512.8 167.469 508.295C167.469 503.789 163.815 500.137 159.308 500.137C154.8 500.137 151.146 503.789 151.146 508.295C151.146 512.8 154.8 516.452 159.308 516.452Z" fill="#4A81ED"/>
<path d="M298.697 516.452C303.204 516.452 306.858 512.8 306.858 508.295C306.858 503.789 303.204 500.137 298.697 500.137C294.189 500.137 290.535 503.789 290.535 508.295C290.535 512.8 294.189 516.452 298.697 516.452Z" fill="#4A81ED"/>
<path d="M90.7944 530.407C95.0646 530.407 98.5263 526.946 98.5263 522.678C98.5263 518.41 95.0646 514.95 90.7944 514.95C86.5242 514.95 83.0625 518.41 83.0625 522.678C83.0625 526.946 86.5242 530.407 90.7944 530.407Z" stroke="#4A81ED" stroke-miterlimit="10"/>
<path d="M70.3901 530.407C74.6604 530.407 78.1221 526.946 78.1221 522.678C78.1221 518.41 74.6604 514.95 70.3901 514.95C66.1199 514.95 62.6582 518.41 62.6582 522.678C62.6582 526.946 66.1199 530.407 70.3901 530.407Z" stroke="#4A81ED" stroke-miterlimit="10"/>
<path d="M50.2016 530.407C54.4718 530.407 57.9335 526.946 57.9335 522.678C57.9335 518.41 54.4718 514.95 50.2016 514.95C45.9314 514.95 42.4697 518.41 42.4697 522.678C42.4697 526.946 45.9314 530.407 50.2016 530.407Z" stroke="#4A81ED" stroke-miterlimit="10"/>
<path d="M90.7937 522.678H50.2012" stroke="#4A81ED" stroke-miterlimit="10"/>
</g>
<g opacity="0.35" clip-path="url(#clip1)">
<path d="M1770.45 228.013C1778.73 228.013 1785.44 221.313 1785.44 213.049C1785.44 204.785 1778.73 198.085 1770.45 198.085C1762.18 198.085 1755.47 204.785 1755.47 213.049C1755.47 221.313 1762.18 228.013 1770.45 228.013Z" stroke="#4A81ED" stroke-miterlimit="10"/>
<path d="M1770.45 184.991V241.293" stroke="#4A81ED" stroke-miterlimit="10"/>
<path d="M1668.86 61.9116L1642.63 88.0984" stroke="#4A81ED" stroke-miterlimit="10"/>
<path d="M1673.69 67.078C1676.46 64.3022 1676.46 59.8018 1673.69 57.0261C1670.91 54.2503 1666.4 54.2503 1663.62 57.0261C1660.84 59.8018 1660.84 64.3022 1663.62 67.078C1666.4 69.8537 1670.91 69.8537 1673.69 67.078Z" fill="#4A81ED"/>
<path d="M1647.88 92.9068C1650.66 90.131 1650.66 85.6307 1647.88 82.8549C1645.1 80.0792 1640.59 80.0792 1637.81 82.8549C1635.03 85.6307 1635.03 90.1311 1637.81 92.9068C1640.59 95.6826 1645.1 95.6826 1647.88 92.9068Z" fill="#4A81ED"/>
<g clip-path="url(#clip2)">
<path d="M1517.25 170.098C1516.17 162.469 1521.49 155.414 1529.12 154.341C1536.75 153.268 1543.81 158.582 1544.88 166.211C1545.95 173.84 1540.64 180.895 1533.01 181.968C1525.38 183.041 1518.32 177.727 1517.25 170.098Z" stroke="#4A81ED" stroke-width="2" stroke-miterlimit="10"/>
<path d="M1601.83 244.949H1514.04L1455.02 161.828" stroke="#4A81ED" stroke-miterlimit="10"/>
<path d="M1601.68 250.471C1598.63 250.471 1596.16 247.998 1596.16 244.949C1596.16 241.899 1598.63 239.427 1601.68 239.427C1604.73 239.427 1607.2 241.899 1607.2 244.949C1607.2 247.998 1604.73 250.471 1601.68 250.471Z" fill="#4A81ED"/>
<path d="M1645.14 213.706V199.756L1655.6 206.731L1645.14 213.706Z" stroke="#4A81ED" stroke-miterlimit="10"/>
<path d="M1655.6 213.706V199.756L1666.07 206.731L1655.6 213.706Z" stroke="#4A81ED" stroke-miterlimit="10"/>
<path d="M1666.07 213.706V199.756L1676.53 206.731L1666.07 213.706Z" stroke="#4A81ED" stroke-miterlimit="10"/>
<path d="M1645.14 206.731H1487.73" stroke="#4A81ED" stroke-miterlimit="10"/>
<path d="M1621.88 168.077H1530.6" stroke="#4A81ED" stroke-width="0.75" stroke-miterlimit="10"/>
<path d="M1621.74 172.146C1619.49 172.146 1617.67 170.324 1617.67 168.077C1617.67 165.83 1619.49 164.008 1621.74 164.008C1623.99 164.008 1625.81 165.83 1625.81 168.077C1625.81 170.324 1623.99 172.146 1621.74 172.146Z" fill="#4A81ED"/>
<path d="M1530.75 172.146C1528.5 172.146 1526.68 170.324 1526.68 168.077C1526.68 165.83 1528.5 164.008 1530.75 164.008C1533 164.008 1534.82 165.83 1534.82 168.077C1534.82 170.324 1533 172.146 1530.75 172.146Z" fill="#4A81ED"/>
</g>
</g>
<g opacity="0.35" clip-path="url(#clip3)">
<path d="M-60.7305 -20.959H-9.63765V86.8733H147.613" stroke="#4A81ED" stroke-miterlimit="10"/>
<path d="M147.252 93.7369C151.041 93.7369 154.113 90.6639 154.113 86.8732C154.113 83.0825 151.041 80.0095 147.252 80.0095C143.463 80.0095 140.392 83.0825 140.392 86.8732C140.392 90.6639 143.463 93.7369 147.252 93.7369Z" fill="#4A81ED"/>
<path d="M257.381 298.926H242.035V314.279H257.381V298.926Z" stroke="#4A81ED" stroke-miterlimit="10"/>
<path d="M280.129 298.926H264.783V314.279H280.129V298.926Z" stroke="#4A81ED" stroke-miterlimit="10"/>
<path d="M257.382 306.512H264.784" stroke="#4A81ED" stroke-miterlimit="10"/>
<path d="M280.31 306.512H287.712" stroke="#4A81ED" stroke-miterlimit="10"/>
<path d="M235.355 306.512H242.758" stroke="#4A81ED" stroke-miterlimit="10"/>
<g opacity="0.25">
<path opacity="0.25" d="M311.544 145.937C317.227 145.937 321.835 141.328 321.835 135.642C321.835 129.956 317.227 125.346 311.544 125.346C305.86 125.346 301.253 129.956 301.253 135.642C301.253 141.328 305.86 145.937 311.544 145.937Z" fill="#4A81ED"/>
<path opacity="0.25" d="M290.059 145.937C295.743 145.937 300.35 141.328 300.35 135.642C300.35 129.956 295.743 125.346 290.059 125.346C284.376 125.346 279.769 129.956 279.769 135.642C279.769 141.328 284.376 145.937 290.059 145.937Z" fill="#4A81ED"/>
<path opacity="0.25" d="M268.575 145.937C274.258 145.937 278.866 141.328 278.866 135.642C278.866 129.956 274.258 125.346 268.575 125.346C262.892 125.346 258.284 129.956 258.284 135.642C258.284 141.328 262.892 145.937 268.575 145.937Z" fill="#4A81ED"/>
</g>
<g opacity="0.25">
<path opacity="0.25" d="M524.761 368.465C530.445 368.465 535.052 363.856 535.052 358.17C535.052 352.484 530.445 347.874 524.761 347.874C519.078 347.874 514.471 352.484 514.471 358.17C514.471 363.856 519.078 368.465 524.761 368.465Z" fill="#4A81ED"/>
<path opacity="0.25" d="M503.277 368.465C508.961 368.465 513.568 363.856 513.568 358.17C513.568 352.484 508.961 347.874 503.277 347.874C497.594 347.874 492.986 352.484 492.986 358.17C492.986 363.856 497.594 368.465 503.277 368.465Z" fill="#4A81ED"/>
<path opacity="0.25" d="M481.793 368.465C487.476 368.465 492.084 363.856 492.084 358.17C492.084 352.484 487.476 347.874 481.793 347.874C476.109 347.874 471.502 352.484 471.502 358.17C471.502 363.856 476.109 368.465 481.793 368.465Z" fill="#4A81ED"/>
</g>
<path d="M200.4 -42.2913V-6.70843L264.673 57.5936" stroke="#4A81ED" stroke-miterlimit="10"/>
<path d="M269.154 62.3055C271.833 59.6251 271.833 55.2792 269.154 52.5988C266.475 49.9184 262.131 49.9184 259.452 52.5988C256.772 55.2792 256.772 59.6251 259.452 62.3055C262.131 64.9859 266.475 64.9859 269.154 62.3055Z" fill="#4A81ED"/>
<path d="M217.913 -81.8481H335.084V95.1629" stroke="#4A81ED" stroke-miterlimit="10"/>
<path d="M326.237 92.4536L335.084 107.987L344.111 92.4536H326.237Z" fill="#4A81ED"/>
<path d="M335.083 30.1383C337.875 30.1383 340.138 27.874 340.138 25.0809C340.138 22.2877 337.875 20.0234 335.083 20.0234C332.292 20.0234 330.028 22.2877 330.028 25.0809C330.028 27.874 332.292 30.1383 335.083 30.1383Z" fill="#4A81ED"/>
<path d="M335.083 62.2895C337.875 62.2895 340.138 60.0252 340.138 57.232C340.138 54.4389 337.875 52.1746 335.083 52.1746C332.292 52.1746 330.028 54.4389 330.028 57.232C330.028 60.0252 332.292 62.2895 335.083 62.2895Z" fill="#4A81ED"/>
<g clip-path="url(#clip4)">
<path opacity="0.24" d="M249.92 168.139H-166.505C-170.027 168.139 -172.909 165.263 -172.909 161.747C-172.909 158.232 -170.027 155.355 -166.505 155.355H249.92V168.139Z" fill="#4A81ED"/>
<path opacity="0.24" d="M-166.505 180.763C-170.027 180.763 -172.909 183.64 -172.909 187.155V217.837C-172.909 221.352 -170.027 224.229 -166.505 224.229H249.92V180.763H-166.505ZM-86.134 215.919C-89.9765 215.919 -93.0184 212.883 -93.0184 209.048C-93.0184 205.212 -89.9765 202.176 -86.134 202.176C-82.2916 202.176 -79.2496 205.212 -79.2496 209.048C-79.2496 212.883 -82.2916 215.919 -86.134 215.919ZM-65.8011 215.919C-69.6435 215.919 -72.6855 212.883 -72.6855 209.048C-72.6855 205.212 -69.6435 202.176 -65.8011 202.176C-61.9586 202.176 -58.9167 205.212 -58.9167 209.048C-59.0768 212.883 -62.1188 215.919 -65.8011 215.919ZM-45.6283 215.919C-49.4707 215.919 -52.5126 212.883 -52.5126 209.048C-52.5126 205.212 -49.4707 202.176 -45.6283 202.176C-41.7858 202.176 -38.7439 205.212 -38.7439 209.048C-38.7439 212.883 -41.7858 215.919 -45.6283 215.919Z" fill="#4A81ED"/>
<path opacity="0.24" d="M-166.505 234.616C-170.027 234.616 -172.909 237.492 -172.909 241.008V339.923C-172.909 343.439 -170.027 346.315 -166.505 346.315H249.92V234.616H-166.505ZM100.385 331.294H95.9017V314.515H100.385V331.294ZM109.35 331.294H104.867V314.515H109.35V331.294ZM118.316 331.294H113.833V314.515H118.316V331.294ZM127.282 331.294H122.799V314.515H127.282V331.294ZM136.247 331.294H131.764V314.515H136.247V331.294ZM145.213 331.294H140.73V314.515H145.213V331.294ZM154.179 331.294H149.696V314.515H154.179V331.294ZM238.552 298.855H62.6005V282.076L78.2905 265.297H238.552V298.855Z" fill="#4A81ED"/>
</g>
</g>
<g opacity="0.35">
<path d="M1057.85 134.931C1062.27 134.931 1065.86 131.338 1065.86 126.907C1065.86 122.476 1062.27 118.884 1057.85 118.884C1053.43 118.884 1049.84 122.476 1049.84 126.907C1049.84 131.338 1053.43 134.931 1057.85 134.931Z" stroke="#4A81ED" stroke-miterlimit="10"/>
<path d="M1057.85 130.182C1059.65 130.182 1061.12 128.716 1061.12 126.907C1061.12 125.098 1059.65 123.632 1057.85 123.632C1056.04 123.632 1054.58 125.098 1054.58 126.907C1054.58 128.716 1056.04 130.182 1057.85 130.182Z" stroke="#4A81ED" stroke-miterlimit="10"/>
<path d="M1222.4 85.6438H1057.85V126.907" stroke="#4A81ED" stroke-miterlimit="10"/>
<path d="M1222.07 91.866C1225.5 91.866 1228.28 89.0803 1228.28 85.6438C1228.28 82.2074 1225.5 79.4216 1222.07 79.4216C1218.64 79.4216 1215.86 82.2074 1215.86 85.6438C1215.86 89.0803 1218.64 91.866 1222.07 91.866Z" fill="#4A81ED"/>
<path d="M1364.44 18.7724C1371.66 18.7724 1377.51 12.9076 1377.51 5.67294C1377.51 -1.56169 1371.66 -7.42651 1364.44 -7.42651C1357.22 -7.42651 1351.37 -1.56169 1351.37 5.67294C1351.37 12.9076 1357.22 18.7724 1364.44 18.7724Z" stroke="#4A81ED" stroke-miterlimit="10"/>
<path d="M1364.44 -19.0522V30.3981" stroke="#4A81ED" stroke-miterlimit="10"/>
<path d="M1095.71 114.621H1088.19V130.667H1095.71V114.621Z" stroke="#4A81ED" stroke-miterlimit="10"/>
<path d="M1106.99 114.621H1099.47V130.667H1106.99V114.621Z" stroke="#4A81ED" stroke-miterlimit="10"/>
<path d="M1118.1 114.621H1110.58V130.667H1118.1V114.621Z" stroke="#4A81ED" stroke-miterlimit="10"/>
<path d="M1129.37 114.621H1121.86V130.667H1129.37V114.621Z" stroke="#4A81ED" stroke-miterlimit="10"/>
<path d="M1140.48 114.621H1132.97V130.667H1140.48V114.621Z" stroke="#4A81ED" stroke-miterlimit="10"/>
<path d="M1151.76 114.621H1144.24V130.667H1151.76V114.621Z" stroke="#4A81ED" stroke-miterlimit="10"/>
<path d="M1254.96 19.0999C1256.58 19.0999 1257.9 17.7803 1257.9 16.1525C1257.9 14.5247 1256.58 13.2051 1254.96 13.2051C1253.33 13.2051 1252.02 14.5247 1252.02 16.1525C1252.02 17.7803 1253.33 19.0999 1254.96 19.0999Z" fill="#4A81ED"/>
<path d="M1236.17 19.0999C1237.79 19.0999 1239.11 17.7803 1239.11 16.1525C1239.11 14.5247 1237.79 13.2051 1236.17 13.2051C1234.54 13.2051 1233.22 14.5247 1233.22 16.1525C1233.22 17.7803 1234.54 19.0999 1236.17 19.0999Z" fill="#4A81ED"/>
<path d="M1217.37 19.0999C1219 19.0999 1220.32 17.7803 1220.32 16.1525C1220.32 14.5247 1219 13.2051 1217.37 13.2051C1215.75 13.2051 1214.43 14.5247 1214.43 16.1525C1214.43 17.7803 1215.75 19.0999 1217.37 19.0999Z" fill="#4A81ED"/>
<path d="M1198.75 19.0999C1200.37 19.0999 1201.69 17.7803 1201.69 16.1525C1201.69 14.5247 1200.37 13.2051 1198.75 13.2051C1197.12 13.2051 1195.8 14.5247 1195.8 16.1525C1195.8 17.7803 1197.12 19.0999 1198.75 19.0999Z" fill="#4A81ED"/>
<path d="M1146.69 104.796C1148.14 104.796 1149.31 103.623 1149.31 102.176C1149.31 100.729 1148.14 99.5562 1146.69 99.5562C1145.25 99.5562 1144.08 100.729 1144.08 102.176C1144.08 103.623 1145.25 104.796 1146.69 104.796Z" fill="#4A81ED"/>
<path d="M1129.86 104.796C1131.31 104.796 1132.48 103.623 1132.48 102.176C1132.48 100.729 1131.31 99.5562 1129.86 99.5562C1128.42 99.5562 1127.25 100.729 1127.25 102.176C1127.25 103.623 1128.42 104.796 1129.86 104.796Z" fill="#4A81ED"/>
<path d="M1112.87 104.796C1114.31 104.796 1115.48 103.623 1115.48 102.176C1115.48 100.729 1114.31 99.5562 1112.87 99.5562C1111.42 99.5562 1110.25 100.729 1110.25 102.176C1110.25 103.623 1111.42 104.796 1112.87 104.796Z" fill="#4A81ED"/>
<path d="M1096.04 104.796C1097.48 104.796 1098.65 103.623 1098.65 102.176C1098.65 100.729 1097.48 99.5562 1096.04 99.5562C1094.59 99.5562 1093.42 100.729 1093.42 102.176C1093.42 103.623 1094.59 104.796 1096.04 104.796Z" fill="#4A81ED"/>
</g>
<g opacity="0.5">
<path d="M1818.63 678.021C1823.13 678.021 1826.78 674.381 1826.78 669.89C1826.78 665.4 1823.13 661.759 1818.63 661.759C1814.13 661.759 1810.48 665.4 1810.48 669.89C1810.48 674.381 1814.13 678.021 1818.63 678.021Z" stroke="#4A81ED" stroke-miterlimit="10"/>
<path d="M1797.35 678.021C1801.85 678.021 1805.5 674.381 1805.5 669.89C1805.5 665.4 1801.85 661.759 1797.35 661.759C1792.85 661.759 1789.2 665.4 1789.2 669.89C1789.2 674.381 1792.85 678.021 1797.35 678.021Z" stroke="#4A81ED" stroke-miterlimit="10"/>
<path d="M1775.84 678.021C1780.34 678.021 1783.99 674.38 1783.99 669.89C1783.99 665.399 1780.34 661.759 1775.84 661.759C1771.34 661.759 1767.69 665.399 1767.69 669.89C1767.69 674.38 1771.34 678.021 1775.84 678.021Z" stroke="#4A81ED" stroke-miterlimit="10"/>
<path d="M1818.63 669.89H1775.84" stroke="#4A81ED" stroke-miterlimit="10"/>
</g>
<g opacity="0.25" clip-path="url(#clip5)">
<path d="M1900.84 143.179C1900.84 143.179 1900.84 143.46 1900.84 143.179L1901.4 144.302L1902.25 145.144L1903.09 145.986L1904.22 146.548L1905.34 146.829L1906.47 146.548L1907.59 145.986L1908.44 145.144L1909.28 144.302L1909.84 143.179L1910.13 142.056L1910.97 140.652L1910.41 139.529L1909.56 138.406L1908.72 137.563L1907.59 137.002L1906.47 136.721L1905.34 137.002L1904.22 137.563L1903.37 138.406L1902.53 139.248L1901.97 140.371L1901.68 141.494L1900.84 143.179ZM1901.97 140.933L1902.25 140.09L1902.81 139.248L1903.65 138.687L1904.5 138.406H1905.62H1906.75L1907.59 138.687L1908.44 139.248L1909 140.09L1909.28 140.933L1909.56 142.056L1909.28 143.179L1909 144.021L1908.44 144.863L1907.59 145.425L1906.75 145.706L1905.62 145.986L1904.5 145.706L1903.94 145.425L1903.09 144.863L1902.53 144.021L1902.25 143.179L1901.97 142.056V140.933Z" fill="#4A81ED"/>
<path d="M1930.11 143.178C1930.11 143.178 1930.39 143.178 1930.11 143.178C1930.39 143.178 1930.39 143.459 1930.11 143.178L1930.67 144.582L1931.51 145.425L1932.36 146.267L1933.48 146.828L1934.61 147.109L1935.73 146.828L1936.86 146.267L1937.7 145.425L1938.55 144.582L1939.11 143.459L1939.39 142.336L1940.24 140.652L1939.67 139.529L1938.83 138.686L1937.99 137.844L1936.86 137.282L1935.73 137.002L1934.61 137.282L1933.48 137.844L1932.64 138.686L1931.79 139.529L1931.23 140.652L1930.95 141.775L1930.11 143.178ZM1931.51 140.932L1931.79 140.09L1932.36 139.248L1933.2 138.686L1934.05 138.406H1935.17H1936.3L1937.14 138.686L1937.99 139.248L1938.55 140.09L1938.83 140.932V142.055V143.178L1938.55 144.021L1937.99 144.863L1937.14 145.425L1936.3 145.705L1935.17 145.986L1934.05 145.705L1933.2 145.425L1932.36 144.863L1931.79 144.021L1931.51 143.178V142.055V140.932Z" fill="#4A81ED"/>
<path d="M1863.13 94.0449L1862.57 92.9219L1861.72 92.0796L1860.88 91.2373L1859.75 90.6758L1858.35 90.1143L1857.22 90.395L1856.1 90.9565L1855.25 91.7988L1854.41 92.6411L1853.28 93.7642L1853 94.8872L1853.28 96.0103L1853.85 97.1333L1854.69 97.9756L1855.53 98.8179L1856.66 99.3794L1857.78 99.6602L1858.91 99.3794L1860.04 98.8179L1860.88 97.9756L1861.72 97.1333L1862.29 96.0103L1862.57 94.8872L1863.13 94.0449ZM1862.01 96.291L1861.72 97.4141L1861.16 98.2564L1860.32 98.8179L1859.47 99.0987H1858.35H1857.22L1856.1 98.8179L1855.25 98.2564L1854.69 97.4141L1854.41 96.5718L1854.13 95.4487L1854.41 94.3257L1854.69 93.4834L1855.25 92.6411L1856.1 92.0796L1856.94 91.7988L1858.07 91.5181L1859.19 91.7988L1860.04 92.0796L1860.88 92.6411L1861.44 93.4834L1861.72 94.3257L1862.01 95.4487V96.291Z" fill="#4A81ED"/>
<path d="M1915.47 96.5718C1915.47 96.5718 1915.47 96.8526 1915.47 96.5718L1916.04 97.6948L1916.88 98.5371L1917.73 99.3794L1918.85 99.9409L1919.98 100.222L1921.1 99.9409L1922.23 99.3794L1923.07 98.5371L1923.92 97.6948L1924.48 96.5718L1924.76 95.4487L1924.48 94.3257L1923.92 93.2026L1923.07 92.3604L1922.23 91.5181L1921.1 90.9565L1920.54 90.1143L1919.41 90.395L1918.01 90.6758L1917.16 91.5181L1916.32 92.3604L1915.76 93.4834L1915.19 95.168L1915.47 96.5718ZM1916.6 94.3257L1916.88 93.4834L1917.44 92.6411L1918.29 92.0796L1919.13 91.7988L1920.26 91.5181L1921.38 91.7988L1922.23 92.0796L1923.07 92.6411L1923.63 93.4834L1923.92 94.3257V95.4487V96.5718L1923.63 97.4141L1923.07 98.2564L1922.23 98.8179L1921.38 99.0987H1920.26H1919.13L1918.29 98.8179L1917.44 98.2564L1916.88 97.4141L1916.6 96.5718V95.4487V94.3257Z" fill="#4A81ED"/>
<path d="M1875.79 146.548C1876.08 146.267 1876.08 146.548 1875.79 146.548L1876.92 145.705L1877.76 144.863L1878.33 143.74L1878.61 142.617L1878.33 140.652L1877.76 139.529L1876.92 138.686L1876.08 137.844L1874.95 137.282L1873.82 137.002L1872.7 137.282L1871.57 137.844L1870.73 138.686L1869.89 139.529L1869.32 140.652L1869.04 141.775L1869.32 142.898L1869.89 144.021L1870.73 144.863L1871.57 145.705L1872.7 146.267L1873.82 146.548L1874.95 146.267L1875.79 146.548ZM1874.39 145.705L1873.26 145.986L1872.14 145.705L1871.29 145.425L1870.45 144.863L1869.89 144.021L1869.6 143.178L1869.32 142.055L1869.6 140.932L1869.89 140.09L1870.45 139.248L1871.29 138.686L1872.14 138.406H1873.26H1874.39L1875.23 138.686L1876.08 139.248L1876.64 140.09L1876.92 140.932L1877.2 142.055L1876.92 143.178L1876.64 144.021L1876.08 144.863L1875.23 145.425L1874.39 145.705Z" fill="#4A81ED"/>
<path d="M1882.83 96.5718L1883.39 97.6948L1884.24 98.5371L1885.08 99.3794L1886.21 99.9409L1887.33 100.222L1888.46 99.9409L1889.58 99.3794L1890.43 98.5371L1891.27 97.6948L1891.84 96.5718L1892.12 95.4487L1891.84 94.3257L1891.27 93.2026L1890.43 92.3604L1889.58 91.5181L1888.46 90.9565L1888.18 90.1143L1887.05 90.395L1885.93 90.9565L1884.24 91.5181L1883.39 92.3604L1882.83 93.4834L1882.55 94.6065L1882.83 96.5718ZM1884.24 94.3257L1884.52 93.4834L1885.08 92.6411L1885.93 92.0796L1886.77 91.7988L1887.9 91.5181L1889.02 91.7988L1889.87 92.0796L1890.71 92.6411L1891.27 93.4834L1891.55 94.3257L1891.84 95.4487L1891.55 96.5718L1891.27 97.4141L1890.71 98.2564L1889.87 98.8179L1889.02 99.0987H1887.9H1886.77L1885.93 98.8179L1885.08 98.2564L1884.52 97.4141L1884.24 96.291L1883.96 95.168L1884.24 94.3257Z" fill="#4A81ED"/>
<path d="M1872.98 187.539V165.92H1874.67C1875.51 165.92 1876.08 165.359 1876.08 164.517V152.163H1877.2V164.517C1877.2 165.359 1877.76 165.92 1878.61 165.92H1880.3V187.539C1880.3 188.381 1880.86 188.943 1881.7 188.943H1884.8C1885.64 188.943 1886.21 188.381 1886.21 187.539V165.92H1887.9C1888.74 165.92 1889.3 165.359 1889.3 164.517V152.163H1890.99V164.517C1890.99 165.359 1891.55 165.92 1892.4 165.92H1894.09V187.539C1894.09 188.381 1894.65 188.943 1895.49 188.943H1898.59C1899.43 188.943 1900 188.381 1900 187.539V165.92H1901.68C1902.53 165.92 1903.09 165.359 1903.09 164.517V152.163H1904.5V164.517C1904.5 165.359 1905.06 165.92 1905.91 165.92H1907.59V187.539C1907.59 188.381 1908.16 188.943 1909 188.943H1912.1C1912.94 188.943 1913.5 188.381 1913.5 187.539V165.92H1915.19C1916.04 165.92 1916.6 165.359 1916.6 164.517V152.163H1919.41V164.517C1919.41 165.359 1919.98 165.92 1920.82 165.92H1922.51V187.539C1922.51 188.381 1923.07 188.943 1923.92 188.943H1927.01C1927.86 188.943 1928.42 188.381 1928.42 187.539V165.92H1930.11C1930.95 165.92 1931.51 165.359 1931.51 164.517V152.163H1932.64V164.517C1932.64 165.359 1933.2 165.92 1934.05 165.92H1935.74V187.539C1935.74 188.381 1936.3 188.943 1937.14 188.943H1940.24C1941.08 188.943 1941.64 188.381 1941.64 187.539V165.92H1943.33C1944.18 165.92 1944.74 165.359 1944.74 164.517V152.163H1945.3V164.517C1945.3 165.359 1945.87 165.92 1946.71 165.92H1948.4V187.539C1948.4 188.381 1948.96 188.943 1949.81 188.943H1952.9C1953.75 188.943 1954.31 188.381 1954.31 187.539V165.92H1956C1956.84 165.92 1957.4 165.359 1957.4 164.517V152.163H1958.81V164.517C1958.81 165.359 1959.37 165.92 1960.22 165.92H1961.91V187.539C1961.91 188.381 1962.47 188.943 1963.31 188.943H1966.41C1967.25 188.943 1967.82 188.381 1967.82 187.539V165.92H1969.5C1970.35 165.92 1970.91 165.359 1970.91 164.517V152.163H1973.73V164.517C1973.73 165.359 1974.29 165.92 1975.13 165.92H1976.82V187.539C1976.82 188.381 1977.38 188.943 1978.23 188.943H1981.32C1982.17 188.943 1982.73 188.381 1982.73 187.539V165.92H1984.42C1985.26 165.92 1985.83 165.359 1985.83 164.517V152.163H1986.95V164.517C1986.95 165.359 1987.51 165.92 1988.36 165.92H1990.05V187.539C1990.05 188.381 1990.61 188.943 1991.45 188.943H1994.55C1995.39 188.943 1995.96 188.381 1995.96 187.539V165.92H1997.65C1998.49 165.92 1999.05 165.359 1999.05 164.517V152.163H2001.3C2002.15 152.163 2002.71 151.601 2002.71 150.759V149.355H2015.09C2015.94 149.355 2016.5 148.794 2016.5 147.952V146.548H2038.17C2039.01 146.548 2039.58 145.986 2039.58 145.144V142.336C2039.58 141.494 2039.01 140.932 2038.17 140.932H2016.5V139.529C2016.5 138.686 2015.94 138.125 2015.09 138.125H2002.71V137.002H2015.09C2015.94 137.002 2016.5 136.44 2016.5 135.598V134.194H2038.17C2039.01 134.194 2039.58 133.633 2039.58 132.79V129.983C2039.58 129.14 2039.01 128.579 2038.17 128.579H2016.5V126.614C2016.5 125.771 2015.94 125.21 2015.09 125.21H2002.71V124.367H2015.09C2015.94 124.367 2016.5 123.806 2016.5 122.964V121.56H2038.17C2039.01 121.56 2039.58 120.998 2039.58 120.156V117.348C2039.58 116.506 2039.01 115.945 2038.17 115.945H2016.5V114.541C2016.5 113.698 2015.94 113.137 2015.09 113.137H2002.71V110.891H2015.09C2015.94 110.891 2016.5 110.329 2016.5 109.487V108.083H2038.17C2039.01 108.083 2039.58 107.522 2039.58 106.679V103.872C2039.58 103.03 2039.01 102.468 2038.17 102.468H2016.5V101.064C2016.5 100.222 2015.94 99.6603 2015.09 99.6603H2002.71V98.5373H2015.09C2015.94 98.5373 2016.5 97.9758 2016.5 97.1335V95.7297H2038.17C2039.01 95.7297 2039.58 95.1681 2039.58 94.3259V91.5182C2039.58 90.6759 2039.01 90.1144 2038.17 90.1144H2016.5V88.7106C2016.5 87.8683 2015.94 87.3068 2015.09 87.3068H2002.71V87.026C2002.71 86.1837 2002.15 85.6222 2001.3 85.6222H2000.74V72.4264C2000.74 71.5841 2000.18 71.0225 1999.33 71.0225H1997.65V49.4038C1997.65 48.5615 1997.08 48 1996.24 48H1993.14C1992.3 48 1991.74 48.5615 1991.74 49.4038V71.0225H1990.05C1989.2 71.0225 1988.64 71.5841 1988.64 72.4264V84.7799H1987.51V72.4264C1987.51 71.5841 1986.95 71.0225 1986.11 71.0225H1984.42V49.4038C1984.42 48.5615 1983.86 48 1983.01 48H1979.92C1979.07 48 1978.51 48.5615 1978.51 49.4038V71.0225H1976.82C1975.98 71.0225 1975.41 71.5841 1975.41 72.4264V84.7799H1972.6V72.4264C1972.6 71.5841 1972.04 71.0225 1971.19 71.0225H1969.5V49.4038C1969.5 48.5615 1968.94 48 1968.1 48H1965C1964.16 48 1963.59 48.5615 1963.59 49.4038V71.0225H1961.91C1961.06 71.0225 1960.5 71.5841 1960.5 72.4264V84.7799H1959.09V72.4264C1959.09 71.5841 1958.53 71.0225 1957.68 71.0225H1956V49.4038C1956 48.5615 1955.43 48 1954.59 48H1951.49C1950.65 48 1950.09 48.5615 1950.09 49.4038V71.0225H1948.4C1947.55 71.0225 1946.99 71.5841 1946.99 72.4264V84.7799H1946.43V72.4264C1946.43 71.5841 1945.87 71.0225 1945.02 71.0225H1943.33V49.4038C1943.33 48.5615 1942.77 48 1941.93 48H1938.83C1937.99 48 1937.42 48.5615 1937.42 49.4038V71.0225H1935.74C1934.89 71.0225 1934.33 71.5841 1934.33 72.4264V84.7799H1933.2V72.4264C1933.2 71.5841 1932.64 71.0225 1931.8 71.0225H1930.11V49.4038C1930.11 48.5615 1929.54 48 1928.7 48H1925.6C1924.76 48 1924.2 48.5615 1924.2 49.4038V71.0225H1922.51C1921.66 71.0225 1921.1 71.5841 1921.1 72.4264V84.7799H1918.29V72.4264C1918.29 71.5841 1917.72 71.0225 1916.88 71.0225H1915.19V49.4038C1915.19 48.5615 1914.63 48 1913.79 48H1910.69C1909.85 48 1909.28 48.5615 1909.28 49.4038V71.0225H1907.59C1906.75 71.0225 1906.19 71.5841 1906.19 72.4264V84.7799H1904.78V72.4264C1904.78 71.5841 1904.22 71.0225 1903.37 71.0225H1901.68V49.4038C1901.97 48.5615 1901.12 48 1900.28 48H1897.18C1896.34 48 1895.77 48.5615 1895.77 49.4038V71.0225H1894.09C1893.24 71.0225 1892.68 71.5841 1892.68 72.4264V84.7799H1890.99V72.4264C1890.99 71.5841 1890.43 71.0225 1889.58 71.0225H1887.9V49.4038C1887.9 48.5615 1887.33 48 1886.49 48H1883.39C1882.55 48 1881.99 48.5615 1881.99 49.4038V71.0225H1880.3C1879.45 71.0225 1878.89 71.5841 1878.89 72.4264V84.7799H1877.76V72.4264C1877.76 71.5841 1877.2 71.0225 1876.36 71.0225H1874.67V49.4038C1874.67 48.5615 1874.11 48 1873.26 48H1870.17C1869.32 48 1868.76 48.5615 1868.76 49.4038V71.0225H1867.35C1866.51 71.0225 1865.95 71.5841 1865.95 72.4264V84.7799H1863.13V72.4264C1863.13 71.5841 1862.57 71.0225 1861.72 71.0225H1860.04V49.4038C1860.04 48.5615 1859.47 48 1858.63 48H1855.53C1854.69 48 1854.13 48.5615 1854.13 49.4038V71.0225H1852.44C1851.59 71.0225 1851.03 71.5841 1851.03 72.4264V84.7799H1849.62V72.4264C1849.62 71.5841 1849.06 71.0225 1848.22 71.0225H1846.53V49.4038C1846.53 48.5615 1845.97 48 1845.12 48H1842.03C1841.18 48 1840.62 48.5615 1840.62 49.4038V71.0225H1838.93C1838.09 71.0225 1837.52 71.5841 1837.52 72.4264V84.7799H1835.55C1834.71 84.7799 1834.15 85.3414 1834.15 86.1837V86.4645H1821.48C1820.64 86.4645 1820.08 87.026 1820.08 87.8683V89.2721H1798.41C1797.56 89.5529 1797 90.1144 1797 90.9567V93.7643C1797 94.6066 1797.56 95.1681 1798.41 95.1681H1820.08V96.572C1820.08 97.4142 1820.64 97.9758 1821.48 97.9758H1833.86V99.0988H1821.48C1820.64 99.0988 1820.08 99.6604 1820.08 100.503V101.906H1798.41C1797.56 101.906 1797 102.468 1797 103.31V106.118C1797 106.96 1797.56 107.522 1798.41 107.522H1820.08V108.926C1820.08 109.768 1820.64 110.329 1821.48 110.329H1833.86V112.575H1821.48C1820.64 112.575 1820.08 113.137 1820.08 113.979V115.383H1798.41C1797.56 115.383 1797 115.945 1797 116.787V119.595C1797 120.437 1797.56 120.998 1798.41 120.998H1820.08V122.402C1820.08 123.244 1820.64 123.806 1821.48 123.806H1833.86V124.648H1821.48C1820.64 124.648 1820.08 125.21 1820.08 126.052V127.456H1798.41C1797.56 128.017 1797 128.86 1797 129.421V132.229C1797 133.071 1797.56 133.633 1798.41 133.633H1820.08V135.036C1820.08 135.879 1820.64 136.44 1821.48 136.44H1833.86V137.844H1821.48C1820.64 137.844 1820.08 138.406 1820.08 139.248V140.652H1798.41C1797.56 140.652 1797 141.494 1797 142.336V145.144C1797 145.986 1797.56 146.548 1798.41 146.548H1820.08V147.952C1820.08 148.794 1820.64 149.355 1821.48 149.355H1833.86V150.759C1833.86 151.601 1834.43 152.163 1835.27 152.163H1835.55V164.517C1835.55 165.359 1836.12 165.92 1836.96 165.92H1838.65V187.539C1838.65 188.381 1839.21 188.943 1840.06 188.943H1843.15C1844 188.943 1844.56 188.381 1844.56 187.539V165.92H1846.25C1847.09 165.92 1847.65 165.359 1847.65 164.517V152.163H1849.06V164.517C1849.06 165.359 1849.62 165.92 1850.47 165.92H1852.16V187.539C1852.16 188.381 1852.72 188.943 1853.56 188.943H1856.66C1857.5 188.943 1858.07 188.381 1858.07 187.539V165.92H1859.75C1860.6 165.92 1861.16 165.359 1861.16 164.517V152.163H1863.98V164.517C1863.98 165.359 1864.54 165.92 1865.38 165.92H1867.07V187.539C1867.07 188.381 1867.63 188.943 1868.48 188.943H1871.57C1872.42 188.943 1872.98 188.381 1872.98 187.539ZM2001.87 88.7106H2014.53V90.9567C2014.53 91.2375 2014.81 91.5182 2015.09 91.5182H2037.61V93.2028H2015.09C2014.81 93.2028 2014.53 93.4836 2014.53 93.7643V96.0104H2001.87V88.7106ZM2001.87 101.345H2014.53V103.591C2014.53 103.872 2014.81 104.153 2015.09 104.153H2037.61V105.837H2015.09C2014.81 105.837 2014.53 106.118 2014.53 106.399V108.645H2001.87V101.345ZM2001.87 115.102H2014.53V117.348C2014.53 117.629 2014.81 117.91 2015.09 117.91H2037.61V119.595H2015.09C2014.81 119.595 2014.53 119.875 2014.53 120.156V122.402H2001.87V115.102ZM2001.87 127.175H2014.53V129.421C2014.53 129.702 2014.81 129.983 2015.09 129.983H2037.61V131.667H2015.09C2014.81 131.667 2014.53 131.948 2014.53 132.229V134.475H2001.87V127.175ZM2001.87 140.09H2014.53V142.336C2014.53 142.617 2014.81 142.898 2015.09 142.898H2037.61V144.582H2015.09C2014.81 144.582 2014.53 144.863 2014.53 145.144V147.39H2001.87V140.09ZM1834.71 147.39H1822.05V145.144C1822.05 144.863 1821.76 144.582 1821.48 144.582H1798.97V142.898H1821.48C1821.76 142.898 1822.05 142.617 1822.05 142.336V140.09H1834.71V147.39ZM1834.71 134.756H1822.05V132.51C1822.05 132.229 1821.76 131.948 1821.48 131.948H1798.97V130.263H1821.48C1821.76 130.263 1822.05 129.983 1822.05 129.702V127.456H1834.71V134.756ZM1834.71 122.402H1822.05V120.156C1822.05 119.875 1821.76 119.595 1821.48 119.595H1798.97V117.91H1821.48C1821.76 117.91 1822.05 117.629 1822.05 117.348V115.102H1834.71V122.402ZM1834.71 108.645H1822.05V106.399C1822.05 106.118 1821.76 105.837 1821.48 105.837H1798.97V104.153H1821.48C1821.76 104.153 1822.05 103.872 1822.05 103.591V101.345H1834.71V108.645ZM1834.71 96.0104H1822.05V93.7643C1822.05 93.4836 1821.76 93.2028 1821.48 93.2028H1798.97V91.5182H1821.48C1821.76 91.5182 1822.05 91.2375 1822.05 90.9567V88.7106H1834.71V96.0104ZM1887.33 163.955H1884.8C1884.52 163.955 1884.24 164.236 1884.24 164.517V186.978H1882.27V164.517C1882.27 164.236 1881.99 163.955 1881.7 163.955H1879.17V151.321H1887.05C1887.33 151.321 1887.33 163.955 1887.33 163.955ZM1901.12 163.955H1898.59C1898.31 163.955 1898.03 164.236 1898.03 164.517V186.978H1896.06V164.517C1896.06 164.236 1895.77 163.955 1895.49 163.955H1892.96V151.321H1901.12V163.955ZM1914.63 163.955H1912.1C1911.82 163.955 1911.53 164.236 1911.53 164.517V186.978H1909.56V164.517C1909.56 164.236 1909.28 163.955 1909 163.955H1906.47V151.321H1914.35C1914.63 151.321 1914.63 163.955 1914.63 163.955ZM1929.54 163.955H1927.01C1926.73 163.955 1926.45 164.236 1926.45 164.517V186.978H1924.48V164.517C1924.48 164.236 1924.2 163.955 1923.92 163.955H1921.38V151.321H1929.26C1929.54 151.321 1929.54 163.955 1929.54 163.955ZM1942.77 163.955H1940.24C1939.96 163.955 1939.67 164.236 1939.67 164.517V186.978H1937.7V164.517C1937.7 164.236 1937.42 163.955 1937.14 163.955H1934.61V151.321H1942.49C1942.77 151.321 1942.77 163.955 1942.77 163.955ZM1955.43 163.955H1952.9C1952.62 163.955 1952.34 164.236 1952.34 164.517V186.978H1950.37V164.517C1950.37 164.236 1950.09 163.955 1949.81 163.955H1947.27V151.321H1955.15V163.955H1955.43ZM1968.94 163.955H1966.41C1966.13 163.955 1965.85 164.236 1965.85 164.517V186.978H1963.88V164.517C1963.88 164.236 1963.59 163.955 1963.31 163.955H1960.78V151.321H1968.66V163.955H1968.94ZM1983.86 163.955H1981.32C1981.04 163.955 1980.76 164.236 1980.76 164.517V186.978H1978.79V164.517C1978.79 164.236 1978.51 163.955 1978.23 163.955H1975.7V151.321H1983.57V163.955H1983.86ZM1997.08 163.955H1994.55C1994.27 163.955 1993.99 164.236 1993.99 164.517V186.978H1992.02V164.517C1992.02 164.236 1991.74 163.955 1991.45 163.955H1988.92V151.321H1996.8V163.955H1997.08ZM1990.89 72.9879H1993.42C1993.71 72.9879 1993.99 72.7071 1993.99 72.4264V49.9653H1995.96V72.4264C1995.96 72.7071 1996.24 72.9879 1996.52 72.9879H1999.05V85.6222H1991.17V72.9879H1990.89ZM1977.67 72.9879H1979.92C1980.2 72.9879 1980.48 72.7071 1980.48 72.4264V49.9653H1982.45V72.4264C1982.45 72.7071 1982.73 72.9879 1983.01 72.9879H1985.54V85.6222H1977.67V72.9879ZM1962.75 72.9879H1965.28C1965.56 72.9879 1965.85 72.7071 1965.85 72.4264V49.9653H1967.82V72.4264C1967.82 72.7071 1968.1 72.9879 1968.38 72.9879H1970.91V85.6222H1963.03V72.9879H1962.75ZM1949.24 72.9879H1951.78C1952.06 72.9879 1952.34 72.7071 1952.34 72.4264V49.9653H1954.31V72.4264C1954.31 72.7071 1954.59 72.9879 1954.87 72.9879H1957.4V85.6222H1949.52V72.9879H1949.24ZM1936.58 72.9879H1939.11C1939.39 72.9879 1939.67 72.7071 1939.67 72.4264V49.9653H1941.64V72.4264C1941.64 72.7071 1941.93 72.9879 1942.21 72.9879H1944.74V85.6222H1936.86C1936.58 85.6222 1936.58 72.9879 1936.58 72.9879ZM1923.35 72.9879H1925.89C1926.17 72.9879 1926.45 72.7071 1926.45 72.4264V49.9653H1928.42V72.4264C1928.42 72.7071 1928.7 72.9879 1928.98 72.9879H1931.51V85.6222H1923.63C1923.35 85.6222 1923.35 72.9879 1923.35 72.9879ZM1908.44 72.9879H1910.97C1911.25 72.9879 1911.53 72.7071 1911.53 72.4264V49.9653H1913.5V72.4264C1913.5 72.7071 1913.79 72.9879 1914.07 72.9879H1916.6V85.6222H1908.72C1908.44 85.6222 1908.44 72.9879 1908.44 72.9879ZM1894.93 72.9879H1897.46C1897.74 72.9879 1898.03 72.7071 1898.03 72.4264V49.9653H1900V72.4264C1900 72.7071 1900.28 72.9879 1900.56 72.9879H1903.09V85.6222H1895.21C1894.93 85.6222 1894.93 72.9879 1894.93 72.9879ZM1881.14 72.9879H1883.67C1883.96 72.9879 1884.24 72.7071 1884.24 72.4264V49.9653H1886.21V72.4264C1886.21 72.7071 1886.49 72.9879 1886.77 72.9879H1889.3V85.6222H1881.42V72.9879H1881.14ZM1867.92 72.9879H1870.45C1870.73 72.9879 1871.01 72.7071 1871.01 72.4264V49.9653H1872.98V72.4264C1872.98 72.7071 1873.26 72.9879 1873.54 72.9879H1875.79V85.6222H1867.92V72.9879ZM1853 72.9879H1855.53C1855.81 72.9879 1856.1 72.7071 1856.1 72.4264V49.9653H1858.07V72.4264C1858.07 72.7071 1858.35 72.9879 1858.63 72.9879H1861.16V85.6222H1853.28V72.9879H1853ZM1839.49 72.9879H1842.03C1842.31 72.9879 1842.59 72.7071 1842.59 72.4264V49.9653H1844.56V72.4264C1844.56 72.7071 1844.84 72.9879 1845.12 72.9879H1847.65V85.6222H1839.77C1839.49 85.6222 1839.49 72.9879 1839.49 72.9879ZM1845.68 163.955H1843.15C1842.87 163.955 1842.59 164.236 1842.59 164.517V186.978H1840.62V164.517C1840.62 164.236 1840.34 163.955 1840.06 163.955H1837.52V151.321H1845.4V163.955H1845.68ZM1859.19 163.955H1856.66C1856.38 163.955 1856.1 164.236 1856.1 164.517V186.978H1854.13V164.517C1854.13 164.236 1853.84 163.955 1853.56 163.955H1851.03V151.321H1858.91V163.955H1859.19ZM1859.75 150.198H1850.47H1846.25H1836.96H1835.83V147.952V139.529V135.317V126.894V123.244V114.822V109.487V101.064V97.1335V88.7106V87.5876H1838.65H1847.94H1852.16H1861.72H1867.35H1876.64H1880.58H1889.87H1894.37H1903.65H1907.88H1917.16H1922.79H1932.08H1936.02H1945.3H1948.68H1957.97H1962.19H1971.47H1977.1H1986.39H1990.33H1999.62H2001.02V88.7106V97.1335V101.064V109.487V114.822V123.244V126.614V135.036V139.248V147.671V149.917H1997.93H1988.36H1984.42H1975.13H1969.5H1960.22H1956H1946.71H1943.33H1934.05H1930.11H1920.82H1915.19H1905.91H1901.68H1892.4H1887.9H1878.61H1874.67H1865.38L1859.75 150.198ZM1871.01 164.517V186.978H1869.04V164.517C1869.04 164.236 1868.76 163.955 1868.48 163.955H1865.95V151.321H1873.82V163.955H1871.29C1871.29 163.955 1871.01 164.236 1871.01 164.517Z" fill="#4A81ED"/>
</g>
</g>
<defs>
<clipPath id="clip0">
<rect width="477.48" height="344.208" fill="white" transform="translate(1540.46 300.293)"/>
</clipPath>
<clipPath id="clip1">
<rect width="475.563" height="258.875" fill="white" transform="translate(1488 52)"/>
</clipPath>
<clipPath id="clip2">
<rect width="223.399" height="97.7971" fill="white" transform="matrix(-1 0 0 1 1677.84 152.674)"/>
</clipPath>
<clipPath id="clip3">
<rect width="635.681" height="395.024" fill="white" transform="translate(-60.7305 -21.8621)"/>
</clipPath>
<clipPath id="clip4">
<rect width="422.829" height="190.8" fill="white" transform="translate(-172.909 155.515)"/>
</clipPath>
<clipPath id="clip5">
<rect width="242.575" height="140.943" fill="white" transform="translate(1797 48)"/>
</clipPath>
</defs>
</svg>
