<svg width="353" height="525" viewBox="0 0 353 525" fill="none" xmlns="http://www.w3.org/2000/svg">
<g opacity="0.7">
<g opacity="0.35">
<path d="M172.641 258.004C170.714 258.004 169.269 256.443 169.269 254.642C169.269 252.721 170.834 251.28 172.641 251.28C174.568 251.28 176.013 252.841 176.013 254.642C176.133 256.563 174.568 258.004 172.641 258.004Z" stroke="#4A81ED" stroke-miterlimit="10"/>
<path d="M182.757 258.004C180.83 258.004 179.385 256.443 179.385 254.642C179.385 252.721 180.95 251.28 182.757 251.28C184.684 251.28 186.129 252.841 186.129 254.642C186.129 256.563 184.564 258.004 182.757 258.004Z" stroke="#4A81ED" stroke-miterlimit="10"/>
<path d="M192.753 258.004C190.826 258.004 189.381 256.443 189.381 254.642C189.381 252.721 190.947 251.28 192.753 251.28C194.68 251.28 196.125 252.841 196.125 254.642C196.125 256.563 194.68 258.004 192.753 258.004Z" stroke="#4A81ED" stroke-miterlimit="10"/>
<path d="M202.87 258.004C200.943 258.004 199.498 256.443 199.498 254.642C199.498 252.721 201.064 251.28 202.87 251.28C204.797 251.28 206.243 252.841 206.243 254.642C206.243 256.563 204.677 258.004 202.87 258.004Z" stroke="#4A81ED" stroke-miterlimit="10"/>
<path d="M176.133 254.642H179.385" stroke="#4A81ED" stroke-miterlimit="10"/>
<path d="M186.13 254.642H189.382" stroke="#4A81ED" stroke-miterlimit="10"/>
<path d="M196.126 254.642H199.498" stroke="#4A81ED" stroke-miterlimit="10"/>
<path d="M206.242 254.642H209.494" stroke="#4A81ED" stroke-miterlimit="10"/>
<path d="M166.378 254.642H169.63" stroke="#4A81ED" stroke-miterlimit="10"/>
<path d="M228.554 203.089C232.279 203.089 235.298 200.079 235.298 196.365C235.298 192.651 232.279 189.641 228.554 189.641C224.829 189.641 221.81 192.651 221.81 196.365C221.81 200.079 224.829 203.089 228.554 203.089Z" stroke="#4A81ED" stroke-miterlimit="10"/>
<path d="M228.555 197.806C229.353 197.806 230 197.161 230 196.365C230 195.569 229.353 194.924 228.555 194.924C227.756 194.924 227.109 195.569 227.109 196.365C227.109 197.161 227.756 197.806 228.555 197.806Z" fill="#C7D6DD" stroke="#4A81ED" stroke-miterlimit="10"/>
<path d="M228.554 205.731C233.742 205.731 237.948 201.538 237.948 196.365C237.948 191.192 233.742 186.999 228.554 186.999C223.366 186.999 219.16 191.192 219.16 196.365C219.16 201.538 223.366 205.731 228.554 205.731Z" stroke="#4A81ED" stroke-miterlimit="10"/>
<path d="M228.554 196.365H249.63L264.203 176.912" stroke="#4A81ED" stroke-miterlimit="10"/>
<path d="M267.797 179.919C269.319 177.907 268.918 175.046 266.9 173.528C264.882 172.01 262.012 172.411 260.49 174.422C258.968 176.434 259.369 179.295 261.387 180.813C263.405 182.331 266.274 181.931 267.797 179.919Z" fill="#4A81ED"/>
<path d="M84.4814 312.639L153.853 243.354H219.009" stroke="#4A81ED" stroke-miterlimit="10"/>
<path d="M218.768 247.917C221.296 247.917 223.345 245.874 223.345 243.354C223.345 240.834 221.296 238.791 218.768 238.791C216.24 238.791 214.191 240.834 214.191 243.354C214.191 245.874 216.24 247.917 218.768 247.917Z" fill="#4A81ED"/>
<path d="M311.32 146.626V143.984H301.204V146.626H311.32Z" fill="#4A81ED"/>
<path d="M311.313 152.023V149.381H301.197V152.023H311.313Z" fill="#4A81ED"/>
<path d="M311.307 157.42V154.778H301.19V157.42H311.307Z" fill="#4A81ED"/>
<path d="M311.3 162.817V160.175H301.183V162.817H311.3Z" fill="#4A81ED"/>
<path d="M311.414 168.213V165.571H301.297V168.213H311.414Z" fill="#4A81ED"/>
<path d="M311.407 173.61V170.968H301.291V173.61H311.407Z" fill="#4A81ED"/>
<path d="M311.4 179.007V176.365H301.284V179.007H311.4Z" fill="#4A81ED"/>
<path d="M337.398 130.601H296.329V186.317H337.398V130.601Z" stroke="#4A81ED" stroke-miterlimit="10"/>
<path d="M296.931 141.407H149.638" stroke="#4A81ED" stroke-miterlimit="10"/>
<path d="M151.444 135.403L140.966 141.407L151.444 147.291V135.403Z" fill="#4A81ED"/>
</g>
<g opacity="0.35" clip-path="url(#clip0)">
<path d="M251.484 92.4681C255.834 92.4681 259.361 88.9485 259.361 84.6069C259.361 80.2652 255.834 76.7456 251.484 76.7456C247.133 76.7456 243.606 80.2652 243.606 84.6069C243.606 88.9485 247.133 92.4681 251.484 92.4681Z" stroke="#4A81ED" stroke-miterlimit="10"/>
<path d="M251.483 69.8672V99.4452" stroke="#4A81ED" stroke-miterlimit="10"/>
<path d="M198.074 5.20703L184.289 18.9643" stroke="#4A81ED" stroke-miterlimit="10"/>
<path d="M200.613 7.92115C202.074 6.46291 202.074 4.09862 200.613 2.64038C199.152 1.18213 196.783 1.18214 195.321 2.64038C193.86 4.09862 193.86 6.4629 195.321 7.92115C196.783 9.37939 199.152 9.3794 200.613 7.92115Z" fill="#4A81ED"/>
<path d="M187.046 21.4905C188.507 20.0322 188.507 17.668 187.046 16.2097C185.584 14.7515 183.215 14.7515 181.754 16.2097C180.293 17.668 180.293 20.0322 181.754 21.4905C183.215 22.9487 185.584 22.9487 187.046 21.4905Z" fill="#4A81ED"/>
<g clip-path="url(#clip1)">
<path d="M118.375 62.0427C117.811 58.0348 120.606 54.3286 124.617 53.7648C128.628 53.201 132.338 55.993 132.902 60.0009C133.466 64.0088 130.672 67.7149 126.661 68.2787C122.649 68.8425 118.94 66.0506 118.375 62.0427Z" stroke="#4A81ED" stroke-width="2" stroke-miterlimit="10"/>
<path d="M162.837 101.366H116.686L85.6645 57.6982" stroke="#4A81ED" stroke-miterlimit="10"/>
<path d="M162.761 104.267C161.157 104.267 159.857 102.968 159.857 101.366C159.857 99.7637 161.157 98.4648 162.761 98.4648C164.364 98.4648 165.664 99.7637 165.664 101.366C165.664 102.968 164.364 104.267 162.761 104.267Z" fill="#4A81ED"/>
<path d="M185.607 84.9518V77.623L191.108 81.2874L185.607 84.9518Z" stroke="#4A81ED" stroke-miterlimit="10"/>
<path d="M191.109 84.9518V77.623L196.61 81.2874L191.109 84.9518Z" stroke="#4A81ED" stroke-miterlimit="10"/>
<path d="M196.61 84.9518V77.623L202.111 81.2874L196.61 84.9518Z" stroke="#4A81ED" stroke-miterlimit="10"/>
<path d="M185.607 81.2871H102.857" stroke="#4A81ED" stroke-miterlimit="10"/>
<path d="M173.381 60.981H125.396" stroke="#4A81ED" stroke-width="0.75" stroke-miterlimit="10"/>
<path d="M173.305 63.1189C172.123 63.1189 171.165 62.1619 171.165 60.9813C171.165 59.8008 172.123 58.8438 173.305 58.8438C174.486 58.8438 175.444 59.8008 175.444 60.9813C175.444 62.1619 174.486 63.1189 173.305 63.1189Z" fill="#4A81ED"/>
<path d="M125.473 63.1189C124.291 63.1189 123.333 62.1619 123.333 60.9813C123.333 59.8008 124.291 58.8438 125.473 58.8438C126.654 58.8438 127.612 59.8008 127.612 60.9813C127.612 62.1619 126.654 63.1189 125.473 63.1189Z" fill="#4A81ED"/>
</g>
<path d="M318.21 56.3116C315.636 56.3116 313.549 54.2206 313.549 51.6412C313.549 49.0617 315.636 46.9707 318.21 46.9707C320.784 46.9707 322.871 49.0617 322.871 51.6412C322.871 54.2206 320.784 56.3116 318.21 56.3116Z" stroke="#4A81ED" stroke-miterlimit="10"/>
<path d="M318.21 53.5479C317.159 53.5479 316.307 52.6945 316.307 51.6416C316.307 50.5888 317.159 49.7354 318.21 49.7354C319.261 49.7354 320.112 50.5888 320.112 51.6416C320.112 52.6945 319.261 53.5479 318.21 53.5479Z" stroke="#4A81ED" stroke-miterlimit="10"/>
<path d="M222.424 27.6221H318.21V51.6415" stroke="#4A81ED" stroke-miterlimit="10"/>
<path d="M222.614 31.2439C220.618 31.2439 218.999 29.6223 218.999 27.622C218.999 25.6216 220.618 24 222.614 24C224.61 24 226.229 25.6216 226.229 27.622C226.229 29.6223 224.61 31.2439 222.614 31.2439Z" fill="#4A81ED"/>
<path d="M296.171 44.4893H300.547V53.8301H296.171V44.4893Z" stroke="#4A81ED" stroke-miterlimit="10"/>
<path d="M289.608 44.4893H293.983V53.8301H289.608V44.4893Z" stroke="#4A81ED" stroke-miterlimit="10"/>
<path d="M283.14 44.4893H287.516V53.8301H283.14V44.4893Z" stroke="#4A81ED" stroke-miterlimit="10"/>
<path d="M276.577 44.4893H280.952V53.8301H276.577V44.4893Z" stroke="#4A81ED" stroke-miterlimit="10"/>
<path d="M270.109 44.4893H274.484V53.8301H270.109V44.4893Z" stroke="#4A81ED" stroke-miterlimit="10"/>
<path d="M263.545 44.4893H267.921V53.8301H263.545V44.4893Z" stroke="#4A81ED" stroke-miterlimit="10"/>
<path d="M266.494 38.7708C265.653 38.7708 264.972 38.088 264.972 37.2458C264.972 36.4035 265.653 35.7207 266.494 35.7207C267.334 35.7207 268.016 36.4035 268.016 37.2458C268.016 38.088 267.334 38.7708 266.494 38.7708Z" fill="#4A81ED"/>
<path d="M276.292 38.7708C275.451 38.7708 274.77 38.088 274.77 37.2458C274.77 36.4035 275.451 35.7207 276.292 35.7207C277.132 35.7207 277.813 36.4035 277.813 37.2458C277.813 38.088 277.132 38.7708 276.292 38.7708Z" fill="#4A81ED"/>
<path d="M286.183 38.7708C285.343 38.7708 284.661 38.088 284.661 37.2458C284.661 36.4035 285.343 35.7207 286.183 35.7207C287.024 35.7207 287.705 36.4035 287.705 37.2458C287.705 38.088 287.024 38.7708 286.183 38.7708Z" fill="#4A81ED"/>
<path d="M295.981 38.7708C295.14 38.7708 294.459 38.088 294.459 37.2458C294.459 36.4035 295.14 35.7207 295.981 35.7207C296.822 35.7207 297.503 36.4035 297.503 37.2458C297.503 38.088 296.822 38.7708 295.981 38.7708Z" fill="#4A81ED"/>
</g>
<g opacity="0.35">
<path d="M293.636 453.419C297.839 453.419 301.246 450.005 301.246 445.794C301.246 441.582 297.839 438.168 293.636 438.168C289.433 438.168 286.026 441.582 286.026 445.794C286.026 450.005 289.433 453.419 293.636 453.419Z" stroke="#4A81ED" stroke-miterlimit="10"/>
<path d="M293.636 431.401V460.186" stroke="#4A81ED" stroke-miterlimit="10"/>
<path d="M229.906 453.609C230.851 453.609 231.618 452.841 231.618 451.893C231.618 450.946 230.851 450.178 229.906 450.178C228.96 450.178 228.193 450.946 228.193 451.893C228.193 452.841 228.96 453.609 229.906 453.609Z" fill="#4A81ED"/>
<path d="M218.966 453.609C219.912 453.609 220.678 452.841 220.678 451.893C220.678 450.946 219.912 450.178 218.966 450.178C218.02 450.178 217.254 450.946 217.254 451.893C217.254 452.841 218.02 453.609 218.966 453.609Z" fill="#4A81ED"/>
<path d="M208.028 453.609C208.973 453.609 209.74 452.841 209.74 451.893C209.74 450.946 208.973 450.178 208.028 450.178C207.082 450.178 206.315 450.946 206.315 451.893C206.315 452.841 207.082 453.609 208.028 453.609Z" fill="#4A81ED"/>
<path d="M197.184 453.609C198.129 453.609 198.896 452.841 198.896 451.893C198.896 450.946 198.129 450.178 197.184 450.178C196.238 450.178 195.472 450.946 195.472 451.893C195.472 452.841 196.238 453.609 197.184 453.609Z" fill="#4A81ED"/>
<path d="M244.174 373.544L230.762 386.984" stroke="#4A81ED" stroke-miterlimit="10"/>
<path d="M246.569 376.297C247.981 374.883 247.981 372.59 246.569 371.175C245.157 369.761 242.869 369.761 241.457 371.175C240.046 372.59 240.046 374.883 241.457 376.297C242.869 377.712 245.157 377.712 246.569 376.297Z" fill="#4A81ED"/>
<path d="M233.395 389.392C234.807 387.977 234.807 385.684 233.395 384.269C231.984 382.855 229.695 382.855 228.283 384.269C226.872 385.684 226.872 387.977 228.283 389.392C229.695 390.806 231.984 390.806 233.395 389.392Z" fill="#4A81ED"/>
<path d="M115.168 521.034C117.742 521.034 119.829 518.943 119.829 516.364C119.829 513.784 117.742 511.693 115.168 511.693C112.594 511.693 110.507 513.784 110.507 516.364C110.507 518.943 112.594 521.034 115.168 521.034Z" stroke="#4A81ED" stroke-miterlimit="10"/>
<path d="M115.168 518.271C116.219 518.271 117.07 517.417 117.07 516.364C117.07 515.311 116.219 514.458 115.168 514.458C114.117 514.458 113.266 515.311 113.266 516.364C113.266 517.417 114.117 518.271 115.168 518.271Z" stroke="#4A81ED" stroke-miterlimit="10"/>
<path d="M210.954 492.345H115.168V516.364" stroke="#4A81ED" stroke-miterlimit="10"/>
<path d="M210.764 495.967C212.76 495.967 214.379 494.345 214.379 492.345C214.379 490.344 212.76 488.723 210.764 488.723C208.768 488.723 207.149 490.344 207.149 492.345C207.149 494.345 208.768 495.967 210.764 495.967Z" fill="#4A81ED"/>
<path d="M137.208 509.212H132.832V518.553H137.208V509.212Z" stroke="#4A81ED" stroke-miterlimit="10"/>
<path d="M143.771 509.212H139.396V518.553H143.771V509.212Z" stroke="#4A81ED" stroke-miterlimit="10"/>
<path d="M150.239 509.212H145.863V518.553H150.239V509.212Z" stroke="#4A81ED" stroke-miterlimit="10"/>
<path d="M156.802 509.212H152.427V518.553H156.802V509.212Z" stroke="#4A81ED" stroke-miterlimit="10"/>
<path d="M163.27 509.212H158.895V518.553H163.27V509.212Z" stroke="#4A81ED" stroke-miterlimit="10"/>
<path d="M169.834 509.212H165.458V518.553H169.834V509.212Z" stroke="#4A81ED" stroke-miterlimit="10"/>
<path d="M166.884 503.493C167.725 503.493 168.406 502.811 168.406 501.968C168.406 501.126 167.725 500.443 166.884 500.443C166.044 500.443 165.362 501.126 165.362 501.968C165.362 502.811 166.044 503.493 166.884 503.493Z" fill="#4A81ED"/>
<path d="M157.086 503.493C157.927 503.493 158.608 502.811 158.608 501.968C158.608 501.126 157.927 500.443 157.086 500.443C156.246 500.443 155.564 501.126 155.564 501.968C155.564 502.811 156.246 503.493 157.086 503.493Z" fill="#4A81ED"/>
<path d="M147.195 503.493C148.035 503.493 148.717 502.811 148.717 501.968C148.717 501.126 148.035 500.443 147.195 500.443C146.354 500.443 145.673 501.126 145.673 501.968C145.673 502.811 146.354 503.493 147.195 503.493Z" fill="#4A81ED"/>
<path d="M137.397 503.493C138.237 503.493 138.919 502.811 138.919 501.968C138.919 501.126 138.237 500.443 137.397 500.443C136.556 500.443 135.875 501.126 135.875 501.968C135.875 502.811 136.556 503.493 137.397 503.493Z" fill="#4A81ED"/>
<path d="M124.904 417.208C123.097 417.208 121.67 415.778 121.67 413.967V400.432C121.67 398.621 123.097 397.191 124.904 397.191C126.711 397.191 128.138 398.621 128.138 400.432V413.967C128.138 415.778 126.711 417.208 124.904 417.208Z" stroke="#4A81ED" stroke-miterlimit="10"/>
<path d="M136.033 417.475C134.226 417.475 132.799 416.045 132.799 414.234V400.7C132.799 398.889 134.226 397.459 136.033 397.459C137.84 397.459 139.267 398.889 139.267 400.7V414.234C139.172 416.045 137.745 417.475 136.033 417.475Z" stroke="#4A81ED" stroke-miterlimit="10"/>
<path opacity="0.25" d="M285.556 417.176H178.598C178.598 378.087 210.325 346.403 249.467 346.403H280.976C283.593 346.403 285.665 348.472 285.665 351.085V417.176H285.556Z" fill="#4A81ED"/>
</g>
<g opacity="0.5">
<path d="M323.222 321.823C325.842 321.823 327.966 319.704 327.966 317.09C327.966 314.476 325.842 312.357 323.222 312.357C320.602 312.357 318.478 314.476 318.478 317.09C318.478 319.704 320.602 321.823 323.222 321.823Z" stroke="#4A81ED" stroke-miterlimit="10"/>
<path d="M310.833 321.823C313.454 321.823 315.578 319.704 315.578 317.09C315.578 314.476 313.454 312.357 310.833 312.357C308.213 312.357 306.089 314.476 306.089 317.09C306.089 319.704 308.213 321.823 310.833 321.823Z" stroke="#4A81ED" stroke-miterlimit="10"/>
<path d="M298.314 321.823C300.934 321.823 303.058 319.704 303.058 317.09C303.058 314.476 300.934 312.357 298.314 312.357C295.693 312.357 293.569 314.476 293.569 317.09C293.569 319.704 295.693 321.823 298.314 321.823Z" stroke="#4A81ED" stroke-miterlimit="10"/>
<path d="M323.222 317.09H298.313" stroke="#4A81ED" stroke-miterlimit="10"/>
</g>
</g>
<defs>
<clipPath id="clip0">
<rect width="250" height="136" fill="white" transform="translate(103)"/>
</clipPath>
<clipPath id="clip1">
<rect width="117.44" height="51.3778" fill="white" transform="matrix(-1 0 0 1 202.799 52.8887)"/>
</clipPath>
</defs>
</svg>
