<svg width="1790" height="658" viewBox="0 0 1790 658" fill="none" xmlns="http://www.w3.org/2000/svg">
<g opacity="0.7">
<g opacity="0.35">
<g opacity="0.25">
<path opacity="0.25" d="M278.857 195.708C280.921 195.708 282.595 194.033 282.595 191.967C282.595 189.9 280.921 188.225 278.857 188.225C276.793 188.225 275.12 189.9 275.12 191.967C275.12 194.033 276.793 195.708 278.857 195.708Z" fill="white"/>
<path opacity="0.25" d="M291.107 172.428H71.8516V211.922H291.315C302.111 211.922 311.039 203.192 311.039 192.175C311.039 181.158 302.111 172.428 291.107 172.428ZM207.64 195.709C205.564 195.709 203.903 194.046 203.903 191.967C203.903 189.888 205.564 188.225 207.64 188.225C209.717 188.225 211.378 189.888 211.378 191.967C211.378 194.046 209.717 195.709 207.64 195.709ZM231.31 195.709C229.234 195.709 227.573 194.046 227.573 191.967C227.573 189.888 229.234 188.225 231.31 188.225C233.386 188.225 235.047 189.888 235.047 191.967C235.047 194.046 233.386 195.709 231.31 195.709ZM255.187 195.709C253.111 195.709 251.45 194.046 251.45 191.967C251.45 189.888 253.111 188.225 255.187 188.225C257.264 188.225 258.925 189.888 258.925 191.967C258.925 194.046 257.264 195.709 255.187 195.709Z" fill="#4A81ED"/>
</g>
<path opacity="0.25" d="M645.65 136.152H563.014V53.4219C608.484 53.4219 645.65 90.6297 645.65 136.152Z" fill="#4A81ED"/>
<g opacity="0.25">
<path opacity="0.25" d="M699.513 224.393C673.767 220.859 650.097 238.735 646.36 264.511C642.83 290.286 660.686 313.982 686.432 317.724C712.178 321.258 735.848 303.381 739.585 277.606C743.115 251.831 725.259 227.926 699.513 224.393ZM713.631 273.241C711.97 284.673 701.381 292.572 690.169 290.909C678.75 289.247 670.86 278.645 672.521 267.421C674.182 255.988 684.771 248.089 695.983 249.752C707.195 251.207 715.292 261.808 713.631 273.241Z" fill="#4A81ED"/>
</g>
<path d="M125.408 381H130.183C135.374 381 139.526 385.157 139.526 390.354V395.135C139.526 400.331 135.374 404.489 130.183 404.489H125.408C120.217 404.489 116.064 400.331 116.064 395.135V390.354C116.064 385.157 120.425 381 125.408 381Z" stroke="#4A81ED" stroke-miterlimit="10"/>
<path d="M90.5259 381H95.509C100.7 381 104.852 385.157 104.852 390.354V395.135C104.852 400.331 100.7 404.489 95.509 404.489H90.7335C85.5428 404.489 81.3903 400.331 81.3903 395.135V390.354C81.1826 385.157 85.3352 381 90.5259 381Z" stroke="#4A81ED" stroke-miterlimit="10"/>
<path d="M55.6441 381H60.4195C65.6102 381 69.7628 385.157 69.7628 390.354V395.135C69.7628 400.331 65.6102 404.489 60.4195 404.489H55.6441C50.4533 404.489 46.3008 400.331 46.3008 395.135V390.354C46.3008 385.157 50.4533 381 55.6441 381Z" stroke="#4A81ED" stroke-miterlimit="10"/>
<path d="M20.7632 381H25.5386C30.7294 381 34.8819 385.157 34.8819 390.354V395.135C34.8819 400.331 30.7294 404.489 25.5386 404.489H20.7632C15.5725 404.489 11.4199 400.331 11.4199 395.135V390.354C11.4199 385.157 15.5725 381 20.7632 381Z" stroke="#4A81ED" stroke-miterlimit="10"/>
<path d="M116.064 392.849H104.853" stroke="#4A81ED" stroke-miterlimit="10"/>
<path d="M81.1823 392.849H69.7627" stroke="#4A81ED" stroke-miterlimit="10"/>
<path d="M46.3014 392.849H34.8818" stroke="#4A81ED" stroke-miterlimit="10"/>
<path d="M11.4195 392.849H7.47461" stroke="#4A81ED" stroke-miterlimit="10"/>
<path d="M7.88988 400.748C12.2473 400.748 15.7798 397.212 15.7798 392.849C15.7798 388.487 12.2473 384.95 7.88988 384.95C3.53242 384.95 0 388.487 0 392.849C0 397.212 3.53242 400.748 7.88988 400.748Z" fill="#4A81ED"/>
<path d="M138.488 392.849H215.934L271.993 441.489" stroke="#4A81ED" stroke-miterlimit="10"/>
<path d="M277.742 446.452C280.595 443.155 280.237 438.166 276.943 435.31C273.65 432.454 268.667 432.812 265.814 436.109C262.961 439.407 263.319 444.395 266.612 447.251C269.906 450.108 274.889 449.75 277.742 446.452Z" fill="#4A81ED"/>
<path d="M510.778 221.275C507.456 221.275 504.965 218.573 504.965 215.455C504.965 212.129 507.664 209.635 510.778 209.635C514.1 209.635 516.592 212.337 516.592 215.455C516.592 218.781 513.893 221.275 510.778 221.275Z" stroke="#4A81ED" stroke-miterlimit="10"/>
<path d="M528.012 221.275C524.69 221.275 522.198 218.573 522.198 215.455C522.198 212.129 524.897 209.635 528.012 209.635C531.334 209.635 533.825 212.337 533.825 215.455C533.825 218.781 531.334 221.275 528.012 221.275Z" stroke="#4A81ED" stroke-miterlimit="10"/>
<path d="M545.245 221.275C541.923 221.275 539.432 218.573 539.432 215.455C539.432 212.129 542.131 209.635 545.245 209.635C548.567 209.635 551.059 212.337 551.059 215.455C551.266 218.781 548.567 221.275 545.245 221.275Z" stroke="#4A81ED" stroke-miterlimit="10"/>
<path d="M562.686 221.275C559.364 221.275 556.872 218.573 556.872 215.455C556.872 212.129 559.571 209.635 562.686 209.635C566.008 209.635 568.499 212.337 568.499 215.455C568.499 218.781 565.8 221.275 562.686 221.275Z" stroke="#4A81ED" stroke-miterlimit="10"/>
<path d="M516.592 215.455H522.198" stroke="#4A81ED" stroke-miterlimit="10"/>
<path d="M533.825 215.455H539.431" stroke="#4A81ED" stroke-miterlimit="10"/>
<path d="M551.267 215.455H556.873" stroke="#4A81ED" stroke-miterlimit="10"/>
<path d="M568.499 215.455H574.105" stroke="#4A81ED" stroke-miterlimit="10"/>
<path d="M499.774 215.455H505.38" stroke="#4A81ED" stroke-miterlimit="10"/>
<path d="M604.332 94.9954C608.918 94.9954 612.637 91.2729 612.637 86.6808C612.637 82.0888 608.918 78.3662 604.332 78.3662C599.745 78.3662 596.026 82.0888 596.026 86.6808C596.026 91.2729 599.745 94.9954 604.332 94.9954Z" stroke="#4A81ED" stroke-miterlimit="10"/>
<path d="M604.332 90.0071C606.167 90.0071 607.654 88.5181 607.654 86.6813C607.654 84.8445 606.167 83.3555 604.332 83.3555C602.497 83.3555 601.01 84.8445 601.01 86.6813C601.01 88.5181 602.497 90.0071 604.332 90.0071Z" fill="#4A81ED"/>
<path d="M480.377 180.22V128.877H604.331V86.6807" stroke="#4A81ED" stroke-miterlimit="10"/>
<path d="M480.377 187.703C484.735 187.703 488.267 184.167 488.267 179.804C488.267 175.442 484.735 171.905 480.377 171.905C476.02 171.905 472.487 175.442 472.487 179.804C472.487 184.167 476.02 187.703 480.377 187.703Z" fill="#4A81ED"/>
<path d="M113.61 112.016C122.784 112.016 130.221 104.571 130.221 95.387C130.221 86.203 122.784 78.7578 113.61 78.7578C104.437 78.7578 97 86.203 97 95.387C97 104.571 104.437 112.016 113.61 112.016Z" stroke="#4A81ED" stroke-miterlimit="10"/>
<path d="M113.61 64V126.775" stroke="#4A81ED" stroke-miterlimit="10"/>
<path d="M226.535 104.039H211.378V119.213H226.535V104.039Z" stroke="#4A81ED" stroke-miterlimit="10"/>
<path d="M241.692 104.039H226.535V119.213H241.692V104.039Z" stroke="#4A81ED" stroke-miterlimit="10"/>
<path d="M256.641 104.039H241.484V119.213H256.641V104.039Z" stroke="#4A81ED" stroke-miterlimit="10"/>
<path d="M271.798 104.039H256.641V119.213H271.798V104.039Z" stroke="#4A81ED" stroke-miterlimit="10"/>
<path d="M286.955 104.039H271.798V119.213H286.955V104.039Z" stroke="#4A81ED" stroke-miterlimit="10"/>
<path d="M301.904 104.039H286.747V119.213H301.904V104.039Z" stroke="#4A81ED" stroke-miterlimit="10"/>
<path d="M317.061 104.039H301.904V119.213H317.061V104.039Z" stroke="#4A81ED" stroke-miterlimit="10"/>
<path d="M332.01 104.039H316.854V119.213H332.01V104.039Z" stroke="#4A81ED" stroke-miterlimit="10"/>
<path d="M347.167 104.039H332.01V119.213H347.167V104.039Z" stroke="#4A81ED" stroke-miterlimit="10"/>
<path d="M276.78 193.837L247.505 223.146" stroke="#4A81ED" stroke-miterlimit="10"/>
<path d="M282.016 199.852C285.097 196.768 285.097 191.766 282.016 188.682C278.935 185.597 273.939 185.597 270.858 188.682C267.777 191.766 267.777 196.768 270.858 199.852C273.939 202.937 278.935 202.937 282.016 199.852Z" fill="#4A81ED"/>
<path d="M253.26 228.409C256.341 225.324 256.341 220.323 253.26 217.238C250.179 214.154 245.184 214.154 242.102 217.238C239.021 220.323 239.021 225.324 242.102 228.409C245.184 231.494 250.179 231.494 253.26 228.409Z" fill="#4A81ED"/>
<path d="M1177.61 112.016C1186.78 112.016 1194.22 104.571 1194.22 95.387C1194.22 86.203 1186.78 78.7578 1177.61 78.7578C1168.44 78.7578 1161 86.203 1161 95.387C1161 104.571 1168.44 112.016 1177.61 112.016Z" stroke="#4A81ED" stroke-miterlimit="10"/>
<path d="M1177.61 64V126.775" stroke="#4A81ED" stroke-miterlimit="10"/>
<path d="M1290.53 104.039H1275.38V119.213H1290.53V104.039Z" stroke="#4A81ED" stroke-miterlimit="10"/>
<path d="M1305.69 104.039H1290.54V119.213H1305.69V104.039Z" stroke="#4A81ED" stroke-miterlimit="10"/>
<path d="M1320.64 104.039H1305.48V119.213H1320.64V104.039Z" stroke="#4A81ED" stroke-miterlimit="10"/>
<path d="M1335.8 104.039H1320.64V119.213H1335.8V104.039Z" stroke="#4A81ED" stroke-miterlimit="10"/>
<path d="M1350.95 104.039H1335.8V119.213H1350.95V104.039Z" stroke="#4A81ED" stroke-miterlimit="10"/>
<path d="M1365.9 104.039H1350.75V119.213H1365.9V104.039Z" stroke="#4A81ED" stroke-miterlimit="10"/>
<path d="M1381.06 104.039H1365.9V119.213H1381.06V104.039Z" stroke="#4A81ED" stroke-miterlimit="10"/>
<path d="M1396.01 104.039H1380.85V119.213H1396.01V104.039Z" stroke="#4A81ED" stroke-miterlimit="10"/>
<path d="M1411.17 104.039H1396.01V119.213H1411.17V104.039Z" stroke="#4A81ED" stroke-miterlimit="10"/>
<path d="M1340.78 193.837L1311.5 223.146" stroke="#4A81ED" stroke-miterlimit="10"/>
<path d="M1346.02 199.852C1349.1 196.768 1349.1 191.766 1346.02 188.682C1342.93 185.597 1337.94 185.597 1334.86 188.682C1331.78 191.766 1331.78 196.768 1334.86 199.852C1337.94 202.937 1342.93 202.937 1346.02 199.852Z" fill="#4A81ED"/>
<path d="M1317.26 228.409C1320.34 225.324 1320.34 220.323 1317.26 217.238C1314.18 214.154 1309.18 214.154 1306.1 217.238C1303.02 220.323 1303.02 225.324 1306.1 228.409C1309.18 231.494 1314.18 231.494 1317.26 228.409Z" fill="#4A81ED"/>
<path d="M150.531 459.366C155.118 459.366 158.836 455.643 158.836 451.051C158.836 446.459 155.118 442.736 150.531 442.736C145.944 442.736 142.226 446.459 142.226 451.051C142.226 455.643 145.944 459.366 150.531 459.366Z" stroke="#4A81ED" stroke-miterlimit="10"/>
<path d="M150.531 454.377C152.366 454.377 153.853 452.888 153.853 451.051C153.853 449.215 152.366 447.726 150.531 447.726C148.696 447.726 147.209 449.215 147.209 451.051C147.209 452.888 148.696 454.377 150.531 454.377Z" fill="#4A81ED"/>
<path d="M151.569 451.051H210.328V575.146H245.002" stroke="#4A81ED" stroke-miterlimit="10"/>
<path d="M244.794 583.046C249.152 583.046 252.684 579.509 252.684 575.147C252.684 570.785 249.152 567.248 244.794 567.248C240.437 567.248 236.904 570.785 236.904 575.147C236.904 579.509 240.437 583.046 244.794 583.046Z" fill="#4A81ED"/>
<path d="M210.12 468.512C211.955 468.512 213.442 467.023 213.442 465.186C213.442 463.349 211.955 461.86 210.12 461.86C208.285 461.86 206.798 463.349 206.798 465.186C206.798 467.023 208.285 468.512 210.12 468.512Z" fill="#4A81ED"/>
<path d="M210.12 490.131C211.955 490.131 213.442 488.642 213.442 486.805C213.442 484.968 211.955 483.479 210.12 483.479C208.285 483.479 206.798 484.968 206.798 486.805C206.798 488.642 208.285 490.131 210.12 490.131Z" fill="#4A81ED"/>
<path d="M210.12 511.54C211.955 511.54 213.442 510.051 213.442 508.215C213.442 506.378 211.955 504.889 210.12 504.889C208.285 504.889 206.798 506.378 206.798 508.215C206.798 510.051 208.285 511.54 210.12 511.54Z" fill="#4A81ED"/>
<path d="M210.12 533.158C211.955 533.158 213.442 531.669 213.442 529.832C213.442 527.995 211.955 526.506 210.12 526.506C208.285 526.506 206.798 527.995 206.798 529.832C206.798 531.669 208.285 533.158 210.12 533.158Z" fill="#4A81ED"/>
<g opacity="0.25">
<path opacity="0.25" d="M281.973 309.826C288.509 309.826 293.807 304.521 293.807 297.977C293.807 291.434 288.509 286.129 281.973 286.129C275.436 286.129 270.138 291.434 270.138 297.977C270.138 304.521 275.436 309.826 281.973 309.826Z" fill="#4A81ED"/>
<path opacity="0.25" d="M257.264 309.826C263.801 309.826 269.099 304.521 269.099 297.977C269.099 291.434 263.801 286.129 257.264 286.129C250.728 286.129 245.43 291.434 245.43 297.977C245.43 304.521 250.728 309.826 257.264 309.826Z" fill="#4A81ED"/>
<path opacity="0.25" d="M232.557 309.826C239.093 309.826 244.391 304.521 244.391 297.977C244.391 291.434 239.093 286.129 232.557 286.129C226.02 286.129 220.722 291.434 220.722 297.977C220.722 304.521 226.02 309.826 232.557 309.826Z" fill="#4A81ED"/>
</g>
<path d="M439.475 44.8984H486.814L520.242 78.3647" stroke="#4A81ED" stroke-miterlimit="10"/>
<path d="M439.89 52.7978C444.247 52.7978 447.78 49.2613 447.78 44.8989C447.78 40.5364 444.247 37 439.89 37C435.532 37 432 40.5364 432 44.8989C432 49.2613 435.532 52.7978 439.89 52.7978Z" fill="#4A81ED"/>
<path d="M510.691 83.5617L530.831 88.9661L525.433 68.8032L510.691 83.5617Z" fill="#4A81ED"/>
<path opacity="0.25" d="M599.683 536.112H396C396 461.489 456.42 401 530.958 401H590.963C595.946 401 599.891 404.949 599.891 409.938V536.112H599.683Z" fill="#4A81ED"/>
<path d="M703.779 415.025C705.84 400.36 695.635 386.799 680.986 384.736C666.337 382.673 652.792 392.889 650.731 407.555C648.67 422.221 658.875 435.782 673.524 437.845C688.173 439.908 701.719 429.691 703.779 415.025Z" stroke="#4A81ED" stroke-width="2" stroke-miterlimit="10"/>
<path d="M676.881 415.837C679.633 415.837 681.864 413.603 681.864 410.848C681.864 408.093 679.633 405.859 676.881 405.859C674.128 405.859 671.897 408.093 671.897 410.848C671.897 413.603 674.128 415.837 676.881 415.837Z" fill="#4A81ED"/>
<path d="M661.516 305.669L605.249 362" stroke="#4A81ED" stroke-miterlimit="10"/>
<path d="M593.454 650.646C593.454 650.854 593.662 651.062 593.87 651.062H598.853C599.06 651.062 599.268 650.854 599.268 650.646V563.759H613.387C613.594 563.759 613.802 563.551 613.802 563.343V504.517C613.802 504.309 613.594 504.101 613.387 504.101H601.967V489.758C601.967 489.551 601.76 489.343 601.552 489.343H537.81C537.602 489.343 537.395 489.551 537.395 489.758V504.101H525.145C524.937 504.101 524.729 504.309 524.729 504.517V563.343C524.729 563.551 524.937 563.759 525.145 563.759H539.471V650.646C539.471 650.854 539.679 651.062 539.886 651.062H544.869C545.077 651.062 545.285 650.854 545.285 650.646V563.759H566.878V650.646C566.878 650.854 567.086 651.062 567.293 651.062H572.276C572.484 651.062 572.692 650.854 572.692 650.646V563.759H593.662L593.454 650.646ZM598.438 650.23H594.285V563.759H598.438V650.23ZM538.225 489.966H601.137V503.893H538.225V489.966ZM544.247 650.23H540.094V563.759H544.247V650.23ZM571.653 650.23H567.501V563.759H571.653V650.23ZM572.069 562.719H567.086H544.662H539.679H525.352V504.725H537.602H601.344H612.764V562.719H598.645H593.87H572.069Z" stroke="#4A81ED" stroke-width="0.75" stroke-miterlimit="10"/>
</g>
<g opacity="0.35">
<path d="M1631.36 112.832H1621.81V176.439H1631.36V112.832Z" stroke="#4A81ED" stroke-miterlimit="10"/>
<path d="M1645.48 112.832H1635.93V176.439H1645.48V112.832Z" stroke="#4A81ED" stroke-miterlimit="10"/>
<path d="M1659.81 112.832H1650.26V176.439H1659.81V112.832Z" stroke="#4A81ED" stroke-miterlimit="10"/>
<path d="M1673.93 112.832H1664.38V176.439H1673.93V112.832Z" stroke="#4A81ED" stroke-miterlimit="10"/>
<path d="M1688.26 112.832H1678.7V176.439H1688.26V112.832Z" stroke="#4A81ED" stroke-miterlimit="10"/>
<path d="M1702.37 112.832H1692.82V176.439H1702.37V112.832Z" stroke="#4A81ED" stroke-miterlimit="10"/>
<path d="M1525.47 86.8477H1724.59L1778.16 140.477" stroke="#4A81ED" stroke-miterlimit="10"/>
<path d="M1525.89 94.747C1530.25 94.747 1533.78 91.2105 1533.78 86.8481C1533.78 82.4857 1530.25 78.9492 1525.89 78.9492C1521.53 78.9492 1518 82.4857 1518 86.8481C1518 91.2105 1521.53 94.747 1525.89 94.747Z" fill="#4A81ED"/>
<path d="M1783.47 145.589C1786.55 142.504 1786.55 137.503 1783.47 134.418C1780.39 131.333 1775.39 131.333 1772.31 134.418C1769.23 137.503 1769.23 142.504 1772.31 145.589C1775.39 148.673 1780.39 148.673 1783.47 145.589Z" fill="#4A81ED"/>
<path d="M1322.68 602.606H1332.23V539H1322.68V602.606Z" stroke="#4A81ED" stroke-miterlimit="10"/>
<path d="M1308.56 602.606H1318.12V539H1308.56V602.606Z" stroke="#4A81ED" stroke-miterlimit="10"/>
<path d="M1294.24 602.606H1303.79V539H1294.24V602.606Z" stroke="#4A81ED" stroke-miterlimit="10"/>
<path d="M1280.12 602.606H1289.67V539H1280.12V602.606Z" stroke="#4A81ED" stroke-miterlimit="10"/>
<path d="M1265.79 602.606H1275.34V539H1265.79V602.606Z" stroke="#4A81ED" stroke-miterlimit="10"/>
<path d="M1251.67 602.606H1261.23V539H1251.67V602.606Z" stroke="#4A81ED" stroke-miterlimit="10"/>
<path d="M1428.57 628.591H1229.46L1175.89 574.962" stroke="#4A81ED" stroke-miterlimit="10"/>
<path d="M1428.16 620.692C1423.8 620.692 1420.27 624.228 1420.27 628.59C1420.27 632.953 1423.8 636.489 1428.16 636.489C1432.52 636.489 1436.05 632.953 1436.05 628.59C1436.05 624.228 1432.52 620.692 1428.16 620.692Z" fill="#4A81ED"/>
<path d="M1170.58 569.85C1167.5 572.934 1167.5 577.936 1170.58 581.02C1173.66 584.105 1178.66 584.105 1181.74 581.02C1184.82 577.936 1184.82 572.934 1181.74 569.85C1178.66 566.765 1173.66 566.765 1170.58 569.85Z" fill="#4A81ED"/>
<path d="M1679.74 90.5896C1681.81 90.5896 1683.48 88.9144 1683.48 86.848C1683.48 84.7816 1681.81 83.1064 1679.74 83.1064C1677.68 83.1064 1676 84.7816 1676 86.848C1676 88.9144 1677.68 90.5896 1679.74 90.5896Z" fill="#4A81ED"/>
<path d="M1655.86 90.5896C1657.93 90.5896 1659.6 88.9144 1659.6 86.848C1659.6 84.7816 1657.93 83.1064 1655.86 83.1064C1653.8 83.1064 1652.13 84.7816 1652.13 86.848C1652.13 88.9144 1653.8 90.5896 1655.86 90.5896Z" fill="#4A81ED"/>
<path d="M1631.99 90.5896C1634.05 90.5896 1635.72 88.9144 1635.72 86.848C1635.72 84.7816 1634.05 83.1064 1631.99 83.1064C1629.92 83.1064 1628.25 84.7816 1628.25 86.848C1628.25 88.9144 1629.92 90.5896 1631.99 90.5896Z" fill="#4A81ED"/>
<path d="M1608.32 90.5896C1610.38 90.5896 1612.05 88.9144 1612.05 86.848C1612.05 84.7816 1610.38 83.1064 1608.32 83.1064C1606.25 83.1064 1604.58 84.7816 1604.58 86.848C1604.58 88.9144 1606.25 90.5896 1608.32 90.5896Z" fill="#4A81ED"/>
<path d="M1566.17 44.6517C1562.22 44.6517 1559.11 41.5337 1559.11 37.5843V8.06742C1559.11 4.11798 1562.22 1 1566.17 1C1570.11 1 1573.23 4.11798 1573.23 8.06742V37.5843C1573.23 41.5337 1570.11 44.6517 1566.17 44.6517Z" stroke="#4A81ED" stroke-miterlimit="10"/>
<path d="M1590.46 44.6517C1586.52 44.6517 1583.4 41.5337 1583.4 37.5843V8.06742C1583.4 4.11798 1586.52 1 1590.46 1C1594.41 1 1597.52 4.11798 1597.52 8.06742V37.5843C1597.31 41.5337 1594.2 44.6517 1590.46 44.6517Z" stroke="#4A81ED" stroke-miterlimit="10"/>
</g>
<g opacity="0.35">
<path opacity="0.25" d="M1751.65 606.152H1669.01V523.422C1714.48 523.422 1751.65 560.63 1751.65 606.152Z" fill="#4A81ED"/>
<path d="M1710.33 564.995C1714.92 564.995 1718.64 561.273 1718.64 556.681C1718.64 552.089 1714.92 548.366 1710.33 548.366C1705.74 548.366 1702.03 552.089 1702.03 556.681C1702.03 561.273 1705.74 564.995 1710.33 564.995Z" stroke="#4A81ED" stroke-miterlimit="10"/>
<path d="M1710.33 560.007C1712.17 560.007 1713.65 558.518 1713.65 556.681C1713.65 554.845 1712.17 553.355 1710.33 553.355C1708.5 553.355 1707.01 554.845 1707.01 556.681C1707.01 558.518 1708.5 560.007 1710.33 560.007Z" fill="#4A81ED"/>
<path d="M1586.38 650.22V598.877H1710.33V556.681" stroke="#4A81ED" stroke-miterlimit="10"/>
<path d="M1586.38 657.703C1590.73 657.703 1594.27 654.167 1594.27 649.804C1594.27 645.442 1590.73 641.905 1586.38 641.905C1582.02 641.905 1578.49 645.442 1578.49 649.804C1578.49 654.167 1582.02 657.703 1586.38 657.703Z" fill="#4A81ED"/>
<path d="M1545.47 514.898H1592.81L1626.24 548.365" stroke="#4A81ED" stroke-miterlimit="10"/>
<path d="M1545.89 522.798C1550.25 522.798 1553.78 519.261 1553.78 514.899C1553.78 510.536 1550.25 507 1545.89 507C1541.53 507 1538 510.536 1538 514.899C1538 519.261 1541.53 522.798 1545.89 522.798Z" fill="#4A81ED"/>
<path d="M1616.69 553.562L1636.83 558.966L1631.43 538.803L1616.69 553.562Z" fill="#4A81ED"/>
</g>
</g>
</svg>
