<svg width="1884" height="958" viewBox="0 0 1884 958" fill="none" xmlns="http://www.w3.org/2000/svg">
<g opacity="0.35">
<g opacity="0.25">
<path opacity="0.25" d="M372.857 402.708C374.921 402.708 376.595 401.033 376.595 398.966C376.595 396.9 374.921 395.225 372.857 395.225C370.793 395.225 369.12 396.9 369.12 398.966C369.12 401.033 370.793 402.708 372.857 402.708Z" fill="white"/>
<path opacity="0.25" d="M385.107 379.428H165.852V418.922H385.315C396.111 418.922 405.039 410.192 405.039 399.175C405.039 388.158 396.111 379.428 385.107 379.428ZM301.64 402.709C299.564 402.709 297.903 401.046 297.903 398.967C297.903 396.888 299.564 395.225 301.64 395.225C303.717 395.225 305.378 396.888 305.378 398.967C305.378 401.046 303.717 402.709 301.64 402.709ZM325.31 402.709C323.234 402.709 321.573 401.046 321.573 398.967C321.573 396.888 323.234 395.225 325.31 395.225C327.386 395.225 329.047 396.888 329.047 398.967C329.047 401.046 327.386 402.709 325.31 402.709ZM349.187 402.709C347.111 402.709 345.45 401.046 345.45 398.967C345.45 396.888 347.111 395.225 349.187 395.225C351.264 395.225 352.925 396.888 352.925 398.967C352.925 401.046 351.264 402.709 349.187 402.709Z" fill="#4A81ED"/>
</g>
<g opacity="0.25">
<path opacity="0.25" d="M793.513 431.393C767.767 427.859 744.097 445.735 740.36 471.511C736.83 497.286 754.686 520.982 780.432 524.724C806.178 528.258 829.848 510.381 833.585 484.606C837.115 458.831 819.259 434.926 793.513 431.393ZM807.631 480.241C805.97 491.673 795.381 499.572 784.169 497.909C772.75 496.247 764.86 485.645 766.521 474.421C768.182 462.988 778.771 455.089 789.983 456.752C801.195 458.207 809.292 468.808 807.631 480.241Z" fill="#4A81ED"/>
</g>
<path d="M219.408 588H224.183C229.374 588 233.526 592.157 233.526 597.354V602.135C233.526 607.331 229.374 611.489 224.183 611.489H219.408C214.217 611.489 210.064 607.331 210.064 602.135V597.354C210.064 592.157 214.425 588 219.408 588Z" stroke="#4A81ED" stroke-miterlimit="10"/>
<path d="M184.526 588H189.509C194.7 588 198.852 592.157 198.852 597.354V602.135C198.852 607.331 194.7 611.489 189.509 611.489H184.734C179.543 611.489 175.39 607.331 175.39 602.135V597.354C175.183 592.157 179.335 588 184.526 588Z" stroke="#4A81ED" stroke-miterlimit="10"/>
<path d="M149.644 588H154.42C159.61 588 163.763 592.157 163.763 597.354V602.135C163.763 607.331 159.61 611.489 154.42 611.489H149.644C144.453 611.489 140.301 607.331 140.301 602.135V597.354C140.301 592.157 144.453 588 149.644 588Z" stroke="#4A81ED" stroke-miterlimit="10"/>
<path d="M114.763 588H119.539C124.729 588 128.882 592.157 128.882 597.354V602.135C128.882 607.331 124.729 611.489 119.539 611.489H114.763C109.572 611.489 105.42 607.331 105.42 602.135V597.354C105.42 592.157 109.572 588 114.763 588Z" stroke="#4A81ED" stroke-miterlimit="10"/>
<path d="M210.064 599.849H198.853" stroke="#4A81ED" stroke-miterlimit="10"/>
<path d="M175.182 599.849H163.763" stroke="#4A81ED" stroke-miterlimit="10"/>
<path d="M140.301 599.849H128.882" stroke="#4A81ED" stroke-miterlimit="10"/>
<path d="M105.42 599.849H101.475" stroke="#4A81ED" stroke-miterlimit="10"/>
<path d="M101.89 607.748C106.247 607.748 109.78 604.212 109.78 599.849C109.78 595.487 106.247 591.95 101.89 591.95C97.5324 591.95 94 595.487 94 599.849C94 604.212 97.5324 607.748 101.89 607.748Z" fill="#4A81ED"/>
<path d="M232.488 599.849H309.934L365.993 648.489" stroke="#4A81ED" stroke-miterlimit="10"/>
<path d="M371.742 653.452C374.595 650.155 374.237 645.166 370.943 642.31C367.65 639.454 362.667 639.812 359.814 643.109C356.961 646.407 357.319 651.395 360.612 654.251C363.906 657.108 368.889 656.75 371.742 653.452Z" fill="#4A81ED"/>
<path d="M207.61 319.016C216.784 319.016 224.221 311.571 224.221 302.387C224.221 293.203 216.784 285.758 207.61 285.758C198.437 285.758 191 293.203 191 302.387C191 311.571 198.437 319.016 207.61 319.016Z" stroke="#4A81ED" stroke-miterlimit="10"/>
<path d="M207.61 271V333.775" stroke="#4A81ED" stroke-miterlimit="10"/>
<path d="M320.535 311.039H305.378V326.213H320.535V311.039Z" stroke="#4A81ED" stroke-miterlimit="10"/>
<path d="M335.692 311.039H320.535V326.213H335.692V311.039Z" stroke="#4A81ED" stroke-miterlimit="10"/>
<path d="M350.641 311.039H335.484V326.213H350.641V311.039Z" stroke="#4A81ED" stroke-miterlimit="10"/>
<path d="M365.798 311.039H350.641V326.213H365.798V311.039Z" stroke="#4A81ED" stroke-miterlimit="10"/>
<path d="M380.955 311.039H365.798V326.213H380.955V311.039Z" stroke="#4A81ED" stroke-miterlimit="10"/>
<path d="M395.904 311.039H380.747V326.213H395.904V311.039Z" stroke="#4A81ED" stroke-miterlimit="10"/>
<path d="M411.061 311.039H395.904V326.213H411.061V311.039Z" stroke="#4A81ED" stroke-miterlimit="10"/>
<path d="M426.01 311.039H410.854V326.213H426.01V311.039Z" stroke="#4A81ED" stroke-miterlimit="10"/>
<path d="M441.167 311.039H426.01V326.213H441.167V311.039Z" stroke="#4A81ED" stroke-miterlimit="10"/>
<path d="M370.78 400.837L341.505 430.146" stroke="#4A81ED" stroke-miterlimit="10"/>
<path d="M376.016 406.853C379.097 403.768 379.097 398.767 376.016 395.682C372.935 392.598 367.939 392.598 364.858 395.682C361.777 398.767 361.777 403.768 364.858 406.853C367.939 409.938 372.935 409.938 376.016 406.853Z" fill="#4A81ED"/>
<path d="M347.26 435.41C350.341 432.325 350.341 427.324 347.26 424.239C344.179 421.154 339.184 421.154 336.102 424.239C333.021 427.324 333.021 432.325 336.102 435.41C339.184 438.494 344.179 438.494 347.26 435.41Z" fill="#4A81ED"/>
<path d="M763.61 412.016C772.784 412.016 780.221 404.571 780.221 395.387C780.221 386.203 772.784 378.758 763.61 378.758C754.437 378.758 747 386.203 747 395.387C747 404.571 754.437 412.016 763.61 412.016Z" stroke="#4A81ED" stroke-miterlimit="10"/>
<path d="M763.61 364V426.775" stroke="#4A81ED" stroke-miterlimit="10"/>
<path d="M876.535 404.039H861.378V419.213H876.535V404.039Z" stroke="#4A81ED" stroke-miterlimit="10"/>
<path d="M891.692 404.039H876.535V419.213H891.692V404.039Z" stroke="#4A81ED" stroke-miterlimit="10"/>
<path d="M906.641 404.039H891.484V419.213H906.641V404.039Z" stroke="#4A81ED" stroke-miterlimit="10"/>
<path d="M921.798 404.039H906.641V419.213H921.798V404.039Z" stroke="#4A81ED" stroke-miterlimit="10"/>
<path d="M936.955 404.039H921.798V419.213H936.955V404.039Z" stroke="#4A81ED" stroke-miterlimit="10"/>
<path d="M951.904 404.039H936.747V419.213H951.904V404.039Z" stroke="#4A81ED" stroke-miterlimit="10"/>
<path d="M967.061 404.039H951.904V419.213H967.061V404.039Z" stroke="#4A81ED" stroke-miterlimit="10"/>
<path d="M982.01 404.039H966.854V419.213H982.01V404.039Z" stroke="#4A81ED" stroke-miterlimit="10"/>
<path d="M997.167 404.039H982.01V419.213H997.167V404.039Z" stroke="#4A81ED" stroke-miterlimit="10"/>
<path d="M1434.78 400.837L1405.5 430.146" stroke="#4A81ED" stroke-miterlimit="10"/>
<path d="M1440.02 406.853C1443.1 403.768 1443.1 398.767 1440.02 395.682C1436.93 392.598 1431.94 392.598 1428.86 395.682C1425.78 398.767 1425.78 403.768 1428.86 406.853C1431.94 409.938 1436.93 409.938 1440.02 406.853Z" fill="#4A81ED"/>
<path d="M1411.26 435.41C1414.34 432.325 1414.34 427.324 1411.26 424.239C1408.18 421.154 1403.18 421.154 1400.1 424.239C1397.02 427.324 1397.02 432.325 1400.1 435.41C1403.18 438.494 1408.18 438.494 1411.26 435.41Z" fill="#4A81ED"/>
<path d="M244.531 666.366C249.118 666.366 252.836 662.643 252.836 658.051C252.836 653.459 249.118 649.736 244.531 649.736C239.944 649.736 236.226 653.459 236.226 658.051C236.226 662.643 239.944 666.366 244.531 666.366Z" stroke="#4A81ED" stroke-miterlimit="10"/>
<path d="M244.531 661.377C246.366 661.377 247.853 659.888 247.853 658.051C247.853 656.215 246.366 654.726 244.531 654.726C242.696 654.726 241.209 656.215 241.209 658.051C241.209 659.888 242.696 661.377 244.531 661.377Z" fill="#4A81ED"/>
<path d="M245.569 658.051H304.328V782.146H339.002" stroke="#4A81ED" stroke-miterlimit="10"/>
<path d="M338.794 790.046C343.152 790.046 346.684 786.509 346.684 782.147C346.684 777.785 343.152 774.248 338.794 774.248C334.437 774.248 330.904 777.785 330.904 782.147C330.904 786.509 334.437 790.046 338.794 790.046Z" fill="#4A81ED"/>
<path d="M304.12 675.512C305.955 675.512 307.442 674.023 307.442 672.186C307.442 670.349 305.955 668.86 304.12 668.86C302.285 668.86 300.798 670.349 300.798 672.186C300.798 674.023 302.285 675.512 304.12 675.512Z" fill="#4A81ED"/>
<path d="M304.12 697.13C305.955 697.13 307.442 695.641 307.442 693.804C307.442 691.968 305.955 690.479 304.12 690.479C302.285 690.479 300.798 691.968 300.798 693.804C300.798 695.641 302.285 697.13 304.12 697.13Z" fill="#4A81ED"/>
<path d="M304.12 718.54C305.955 718.54 307.442 717.051 307.442 715.215C307.442 713.378 305.955 711.889 304.12 711.889C302.285 711.889 300.798 713.378 300.798 715.215C300.798 717.051 302.285 718.54 304.12 718.54Z" fill="#4A81ED"/>
<path d="M304.12 740.158C305.955 740.158 307.442 738.669 307.442 736.832C307.442 734.995 305.955 733.506 304.12 733.506C302.285 733.506 300.798 734.995 300.798 736.832C300.798 738.669 302.285 740.158 304.12 740.158Z" fill="#4A81ED"/>
<g opacity="0.25">
<path opacity="0.25" d="M375.973 516.826C382.509 516.826 387.807 511.521 387.807 504.977C387.807 498.434 382.509 493.129 375.973 493.129C369.436 493.129 364.138 498.434 364.138 504.977C364.138 511.521 369.436 516.826 375.973 516.826Z" fill="#4A81ED"/>
<path opacity="0.25" d="M351.264 516.826C357.801 516.826 363.099 511.521 363.099 504.977C363.099 498.434 357.801 493.129 351.264 493.129C344.728 493.129 339.43 498.434 339.43 504.977C339.43 511.521 344.728 516.826 351.264 516.826Z" fill="#4A81ED"/>
<path opacity="0.25" d="M326.557 516.826C333.093 516.826 338.391 511.521 338.391 504.977C338.391 498.434 333.093 493.129 326.557 493.129C320.02 493.129 314.722 498.434 314.722 504.977C314.722 511.521 320.02 516.826 326.557 516.826Z" fill="#4A81ED"/>
</g>
<path opacity="0.25" d="M193.65 99.1522H111.014V16.4219C156.484 16.4219 193.65 53.6297 193.65 99.1522Z" fill="#4A81ED"/>
<path d="M58.7784 184.275C55.4564 184.275 52.9648 181.573 52.9648 178.455C52.9648 175.129 55.664 172.635 58.7784 172.635C62.1005 172.635 64.592 175.337 64.592 178.455C64.592 181.781 61.8928 184.275 58.7784 184.275Z" stroke="#4A81ED" stroke-miterlimit="10"/>
<path d="M76.0119 184.275C72.6898 184.275 70.1982 181.573 70.1982 178.455C70.1982 175.129 72.8974 172.635 76.0119 172.635C79.3339 172.635 81.8254 175.337 81.8254 178.455C81.8254 181.781 79.3339 184.275 76.0119 184.275Z" stroke="#4A81ED" stroke-miterlimit="10"/>
<path d="M93.2452 184.275C89.9232 184.275 87.4316 181.573 87.4316 178.455C87.4316 175.129 90.1308 172.635 93.2452 172.635C96.5673 172.635 99.0588 175.337 99.0588 178.455C99.2665 181.781 96.5673 184.275 93.2452 184.275Z" stroke="#4A81ED" stroke-miterlimit="10"/>
<path d="M110.686 184.275C107.364 184.275 104.872 181.573 104.872 178.455C104.872 175.129 107.571 172.635 110.686 172.635C114.008 172.635 116.499 175.337 116.499 178.455C116.499 181.781 113.8 184.275 110.686 184.275Z" stroke="#4A81ED" stroke-miterlimit="10"/>
<path d="M64.5918 178.455H70.1977" stroke="#4A81ED" stroke-miterlimit="10"/>
<path d="M81.8252 178.455H87.4313" stroke="#4A81ED" stroke-miterlimit="10"/>
<path d="M99.2666 178.455H104.873" stroke="#4A81ED" stroke-miterlimit="10"/>
<path d="M116.499 178.455H122.105" stroke="#4A81ED" stroke-miterlimit="10"/>
<path d="M47.7744 178.455H53.3803" stroke="#4A81ED" stroke-miterlimit="10"/>
<path d="M152.332 57.9954C156.918 57.9954 160.637 54.2729 160.637 49.6808C160.637 45.0888 156.918 41.3662 152.332 41.3662C147.745 41.3662 144.026 45.0888 144.026 49.6808C144.026 54.2729 147.745 57.9954 152.332 57.9954Z" stroke="#4A81ED" stroke-miterlimit="10"/>
<path d="M152.332 53.0071C154.167 53.0071 155.654 51.5181 155.654 49.6813C155.654 47.8445 154.167 46.3555 152.332 46.3555C150.497 46.3555 149.01 47.8445 149.01 49.6813C149.01 51.5181 150.497 53.0071 152.332 53.0071Z" fill="#4A81ED"/>
<path d="M28.377 143.22V91.8773H152.331V49.6807" stroke="#4A81ED" stroke-miterlimit="10"/>
<path d="M28.3772 150.703C32.7347 150.703 36.2671 147.167 36.2671 142.804C36.2671 138.442 32.7347 134.905 28.3772 134.905C24.0197 134.905 20.4873 138.442 20.4873 142.804C20.4873 147.167 24.0197 150.703 28.3772 150.703Z" fill="#4A81ED"/>
<path d="M-12.5254 7.89844H34.8139L68.2421 41.3647" stroke="#4A81ED" stroke-miterlimit="10"/>
<path d="M58.6914 46.5617L78.8314 51.9661L73.4331 31.8032L58.6914 46.5617Z" fill="#4A81ED"/>
<path opacity="0.25" d="M1027.68 842.443H824C824 767.82 884.42 707.331 958.958 707.331H1018.96C1023.95 707.331 1027.89 711.28 1027.89 716.269V842.443H1027.68Z" fill="#4A81ED"/>
<path d="M1131.78 721.356C1133.84 706.691 1123.64 693.13 1108.99 691.067C1094.34 689.004 1080.79 699.22 1078.73 713.886C1076.67 728.552 1086.88 742.113 1101.52 744.176C1116.17 746.239 1129.72 736.022 1131.78 721.356Z" stroke="#4A81ED" stroke-width="2" stroke-miterlimit="10"/>
<path d="M1104.88 722.168C1107.63 722.168 1109.86 719.934 1109.86 717.179C1109.86 714.424 1107.63 712.19 1104.88 712.19C1102.13 712.19 1099.9 714.424 1099.9 717.179C1099.9 719.934 1102.13 722.168 1104.88 722.168Z" fill="#4A81ED"/>
<path d="M1089.52 612L1033.25 668.331" stroke="#4A81ED" stroke-miterlimit="10"/>
<path d="M1021.45 956.977C1021.45 957.185 1021.66 957.393 1021.87 957.393H1026.85C1027.06 957.393 1027.27 957.185 1027.27 956.977V870.09H1041.39C1041.59 870.09 1041.8 869.882 1041.8 869.674V810.848C1041.8 810.64 1041.59 810.432 1041.39 810.432H1029.97V796.09C1029.97 795.882 1029.76 795.674 1029.55 795.674H965.81C965.602 795.674 965.395 795.882 965.395 796.09V810.432H953.145C952.937 810.432 952.729 810.64 952.729 810.848V869.674C952.729 869.882 952.937 870.09 953.145 870.09H967.471V956.977C967.471 957.185 967.679 957.393 967.886 957.393H972.869C973.077 957.393 973.285 957.185 973.285 956.977V870.09H994.878V956.977C994.878 957.185 995.086 957.393 995.293 957.393H1000.28C1000.48 957.393 1000.69 957.185 1000.69 956.977V870.09H1021.66L1021.45 956.977ZM1026.44 956.561H1022.29V870.09H1026.44V956.561ZM966.225 796.297H1029.14V810.224H966.225V796.297ZM972.247 956.561H968.094V870.09H972.247V956.561ZM999.653 956.561H995.501V870.09H999.653V956.561ZM1000.07 869.05H995.086H972.662H967.679H953.352V811.056H965.602H1029.34H1040.76V869.05H1026.65H1021.87H1000.07Z" stroke="#4A81ED" stroke-width="0.75" stroke-miterlimit="10"/>
</g>
<g opacity="0.35">
<path d="M1725.36 319.832H1715.81V383.439H1725.36V319.832Z" stroke="#4A81ED" stroke-miterlimit="10"/>
<path d="M1739.48 319.832H1729.93V383.439H1739.48V319.832Z" stroke="#4A81ED" stroke-miterlimit="10"/>
<path d="M1753.81 319.832H1744.26V383.439H1753.81V319.832Z" stroke="#4A81ED" stroke-miterlimit="10"/>
<path d="M1767.93 319.832H1758.38V383.439H1767.93V319.832Z" stroke="#4A81ED" stroke-miterlimit="10"/>
<path d="M1782.26 319.832H1772.7V383.439H1782.26V319.832Z" stroke="#4A81ED" stroke-miterlimit="10"/>
<path d="M1796.37 319.832H1786.82V383.439H1796.37V319.832Z" stroke="#4A81ED" stroke-miterlimit="10"/>
<path d="M1619.47 293.848H1818.59L1872.16 347.477" stroke="#4A81ED" stroke-miterlimit="10"/>
<path d="M1619.89 301.747C1624.25 301.747 1627.78 298.211 1627.78 293.848C1627.78 289.486 1624.25 285.949 1619.89 285.949C1615.53 285.949 1612 289.486 1612 293.848C1612 298.211 1615.53 301.747 1619.89 301.747Z" fill="#4A81ED"/>
<path d="M1877.47 352.589C1880.55 349.505 1880.55 344.503 1877.47 341.419C1874.39 338.334 1869.39 338.334 1866.31 341.419C1863.23 344.503 1863.23 349.505 1866.31 352.589C1869.39 355.674 1874.39 355.674 1877.47 352.589Z" fill="#4A81ED"/>
<path d="M1416.68 809.606H1426.23V746H1416.68V809.606Z" stroke="#4A81ED" stroke-miterlimit="10"/>
<path d="M1402.56 809.606H1412.12V746H1402.56V809.606Z" stroke="#4A81ED" stroke-miterlimit="10"/>
<path d="M1388.24 809.606H1397.79V746H1388.24V809.606Z" stroke="#4A81ED" stroke-miterlimit="10"/>
<path d="M1374.12 809.606H1383.67V746H1374.12V809.606Z" stroke="#4A81ED" stroke-miterlimit="10"/>
<path d="M1359.79 809.606H1369.34V746H1359.79V809.606Z" stroke="#4A81ED" stroke-miterlimit="10"/>
<path d="M1345.67 809.606H1355.23V746H1345.67V809.606Z" stroke="#4A81ED" stroke-miterlimit="10"/>
<path d="M1522.57 835.591H1323.46L1269.89 781.962" stroke="#4A81ED" stroke-miterlimit="10"/>
<path d="M1522.16 827.692C1517.8 827.692 1514.27 831.228 1514.27 835.59C1514.27 839.953 1517.8 843.489 1522.16 843.489C1526.52 843.489 1530.05 839.953 1530.05 835.59C1530.05 831.228 1526.52 827.692 1522.16 827.692Z" fill="#4A81ED"/>
<path d="M1264.58 776.849C1261.5 779.934 1261.5 784.935 1264.58 788.02C1267.66 791.105 1272.66 791.105 1275.74 788.02C1278.82 784.935 1278.82 779.934 1275.74 776.849C1272.66 773.765 1267.66 773.765 1264.58 776.849Z" fill="#4A81ED"/>
<path d="M1773.74 297.59C1775.81 297.59 1777.48 295.914 1777.48 293.848C1777.48 291.782 1775.81 290.106 1773.74 290.106C1771.68 290.106 1770 291.782 1770 293.848C1770 295.914 1771.68 297.59 1773.74 297.59Z" fill="#4A81ED"/>
<path d="M1749.86 297.59C1751.93 297.59 1753.6 295.914 1753.6 293.848C1753.6 291.782 1751.93 290.106 1749.86 290.106C1747.8 290.106 1746.13 291.782 1746.13 293.848C1746.13 295.914 1747.8 297.59 1749.86 297.59Z" fill="#4A81ED"/>
<path d="M1725.99 297.59C1728.05 297.59 1729.72 295.914 1729.72 293.848C1729.72 291.782 1728.05 290.106 1725.99 290.106C1723.92 290.106 1722.25 291.782 1722.25 293.848C1722.25 295.914 1723.92 297.59 1725.99 297.59Z" fill="#4A81ED"/>
<path d="M1702.32 297.59C1704.38 297.59 1706.05 295.914 1706.05 293.848C1706.05 291.782 1704.38 290.106 1702.32 290.106C1700.25 290.106 1698.58 291.782 1698.58 293.848C1698.58 295.914 1700.25 297.59 1702.32 297.59Z" fill="#4A81ED"/>
<path d="M1660.17 251.652C1656.22 251.652 1653.11 248.534 1653.11 244.584V215.067C1653.11 211.118 1656.22 208 1660.17 208C1664.11 208 1667.23 211.118 1667.23 215.067V244.584C1667.23 248.534 1664.11 251.652 1660.17 251.652Z" stroke="#4A81ED" stroke-miterlimit="10"/>
<path d="M1684.46 251.652C1680.52 251.652 1677.4 248.534 1677.4 244.584V215.067C1677.4 211.118 1680.52 208 1684.46 208C1688.41 208 1691.52 211.118 1691.52 215.067V244.584C1691.31 248.534 1688.2 251.652 1684.46 251.652Z" stroke="#4A81ED" stroke-miterlimit="10"/>
</g>
<g opacity="0.35">
<path opacity="0.25" d="M1845.65 813.152H1763.01V730.422C1808.48 730.422 1845.65 767.63 1845.65 813.152Z" fill="#4A81ED"/>
<path d="M1804.33 771.995C1808.92 771.995 1812.64 768.273 1812.64 763.681C1812.64 759.089 1808.92 755.366 1804.33 755.366C1799.74 755.366 1796.03 759.089 1796.03 763.681C1796.03 768.273 1799.74 771.995 1804.33 771.995Z" stroke="#4A81ED" stroke-miterlimit="10"/>
<path d="M1804.33 767.007C1806.17 767.007 1807.65 765.518 1807.65 763.681C1807.65 761.845 1806.17 760.355 1804.33 760.355C1802.5 760.355 1801.01 761.845 1801.01 763.681C1801.01 765.518 1802.5 767.007 1804.33 767.007Z" fill="#4A81ED"/>
<path d="M1680.38 857.22V805.877H1804.33V763.681" stroke="#4A81ED" stroke-miterlimit="10"/>
<path d="M1680.38 864.703C1684.73 864.703 1688.27 861.167 1688.27 856.804C1688.27 852.442 1684.73 848.905 1680.38 848.905C1676.02 848.905 1672.49 852.442 1672.49 856.804C1672.49 861.167 1676.02 864.703 1680.38 864.703Z" fill="#4A81ED"/>
<path d="M1639.47 721.898H1686.81L1720.24 755.365" stroke="#4A81ED" stroke-miterlimit="10"/>
<path d="M1639.89 729.798C1644.25 729.798 1647.78 726.261 1647.78 721.899C1647.78 717.536 1644.25 714 1639.89 714C1635.53 714 1632 717.536 1632 721.899C1632 726.261 1635.53 729.798 1639.89 729.798Z" fill="#4A81ED"/>
<path d="M1710.69 760.561L1730.83 765.966L1725.43 745.803L1710.69 760.561Z" fill="#4A81ED"/>
</g>
</svg>
