<svg width="64" height="65" viewBox="0 0 64 65" fill="none" xmlns="http://www.w3.org/2000/svg">
<g>
<path d="M59.7997 46.0039H43.8805V33.078C43.8805 30.7543 42.0208 28.864 39.7349 28.864H24.2102C21.9243 28.864 20.0647 30.7543 20.0647 33.078V38.4054H4.14557C1.85965 38.4054 0 40.2957 0 42.6192V59.0777C0 61.4013 1.85965 63.2916 4.14557 63.2916H59.7998C62.0857 63.2916 63.9454 61.4013 63.9454 59.0777V50.2179C63.9452 47.8942 62.0856 46.0039 59.7997 46.0039ZM4.14557 59.4787C3.928 59.4787 3.75103 59.2988 3.75103 59.0777V42.6192C3.75103 42.3981 3.928 42.2182 4.14557 42.2182H20.0647V59.4787H4.14557ZM40.1294 59.4787H23.8157V33.078C23.8157 32.8568 23.9928 32.6769 24.2102 32.6769H39.735C39.9526 32.6769 40.1296 32.8568 40.1296 33.078V59.4787H40.1294ZM60.1942 59.0777C60.1941 59.2988 60.0171 59.4787 59.7995 59.4787H43.8805V49.8169H59.7997C60.0172 49.8169 60.1942 49.9968 60.1942 50.218V59.0777Z" fill="#4A81ED"/>
<path d="M34.221 38.8744C34.2201 38.8384 34.2183 38.8019 34.2155 38.7656C34.2134 38.7383 34.2109 38.7112 34.2076 38.684C34.2035 38.6497 34.1983 38.6154 34.1923 38.5813C34.1873 38.5529 34.182 38.5247 34.1759 38.4965C34.1689 38.4648 34.1607 38.4333 34.1521 38.4019C34.1439 38.3725 34.1356 38.3431 34.1261 38.3143C34.1166 38.2852 34.106 38.2566 34.095 38.2279C34.0835 38.1976 34.0715 38.1676 34.0585 38.1381C34.0469 38.1117 34.0343 38.0858 34.0214 38.0596C34.0062 38.0289 33.9903 37.9985 33.9735 37.9686C33.96 37.9448 33.9459 37.9214 33.9312 37.8979C33.9123 37.8674 33.8924 37.8375 33.8717 37.8082C33.8634 37.7965 33.8567 37.7842 33.8482 37.7727C33.8402 37.7618 33.8311 37.7524 33.8228 37.7418C33.802 37.7148 33.7805 37.6886 33.7581 37.6628C33.7383 37.6397 33.7182 37.6168 33.6973 37.5947C33.6772 37.5735 33.6564 37.5532 33.6353 37.5328C33.6109 37.5093 33.5864 37.4862 33.5609 37.4641C33.5411 37.447 33.5206 37.4308 33.5 37.4145C33.4724 37.3926 33.4449 37.3711 33.4162 37.3507C33.3947 37.3355 33.3725 37.3215 33.3503 37.3072C33.3218 37.2889 33.2933 37.2708 33.2641 37.254C33.2387 37.2395 33.2127 37.2265 33.1865 37.2133C33.1594 37.1995 33.1324 37.1856 33.1047 37.1733C33.0751 37.1599 33.0446 37.1483 33.0143 37.1364C32.9887 37.1265 32.9633 37.1165 32.9374 37.1079C32.9053 37.0971 32.8725 37.0879 32.8397 37.0788C32.8137 37.0717 32.7879 37.0645 32.7614 37.0584C32.7297 37.0511 32.6973 37.0452 32.665 37.0396C32.6357 37.0345 32.6064 37.0297 32.5769 37.026C32.5477 37.0223 32.5181 37.0198 32.4885 37.0175C32.4545 37.0148 32.4204 37.013 32.3863 37.0123C32.3732 37.012 32.3604 37.0103 32.3472 37.0103C32.3332 37.0103 32.3196 37.012 32.3056 37.0124C32.2699 37.0132 32.2342 37.0151 32.1985 37.0179C32.1715 37.02 32.1448 37.0226 32.1181 37.0259C32.0843 37.0301 32.0507 37.0354 32.0173 37.0415C31.9892 37.0466 31.9612 37.0519 31.9336 37.0582C31.9025 37.0654 31.8716 37.0736 31.8408 37.0825C31.8117 37.0907 31.7827 37.0992 31.7542 37.1089C31.7258 37.1185 31.6975 37.1293 31.6694 37.1404C31.6396 37.1522 31.6099 37.1642 31.5809 37.1776C31.555 37.1894 31.5296 37.2021 31.5041 37.2152C31.4737 37.2308 31.4438 37.2469 31.4143 37.264C31.3909 37.2777 31.3678 37.2921 31.3448 37.3068C31.3149 37.3261 31.2853 37.3463 31.2564 37.3674C31.2449 37.3757 31.2329 37.3826 31.2216 37.3912L28.2033 39.6929C27.3746 40.3247 27.2069 41.5197 27.8285 42.362C28.1969 42.8613 28.7599 43.1246 29.3303 43.1246C29.7219 43.1246 30.117 43.0003 30.4544 42.7431L30.4717 42.7299V46.6023C30.4717 47.6551 31.3115 48.5088 32.3472 48.5088C33.383 48.5088 34.2228 47.6551 34.2228 46.6023V38.9163C34.2231 38.9025 34.2214 38.8886 34.221 38.8744Z" fill="#4A81ED"/>
<path d="M42.4476 9.44424C42.1896 8.6372 41.5161 8.05995 40.6896 7.93782L36.0158 7.24745L33.9256 2.94235C33.556 2.18127 32.8078 1.7085 31.9727 1.7085C31.1378 1.7085 30.3896 2.18127 30.0199 2.94235L27.9297 7.24745L23.2558 7.93782C22.4295 8.05982 21.7559 8.63708 21.4978 9.44437C21.2398 10.2517 21.451 11.1212 22.0489 11.7135L25.4309 15.0646L24.6324 19.7966C24.4914 20.6331 24.8234 21.4626 25.4989 21.9615C26.1745 22.4605 27.0532 22.5248 27.7922 22.1299L31.9726 19.8961L36.153 22.1301C36.4745 22.302 36.8225 22.3868 37.1685 22.3868C37.6181 22.3868 38.0649 22.2436 38.4467 21.9615C39.1222 21.4626 39.4541 20.6329 39.3129 19.7966L38.5146 15.0648L41.897 11.7135C42.4946 11.1209 42.7057 10.2514 42.4476 9.44424ZM35.3035 12.9211C34.7901 13.4301 34.556 14.1627 34.6774 14.8802L35.0768 17.2469L32.9859 16.1295C32.3513 15.7904 31.5937 15.7905 30.9592 16.1295L28.8683 17.2469L29.2677 14.8799C29.3887 14.1619 29.1547 13.4295 28.6413 12.9208L26.9498 11.2447L29.2873 10.8999C29.9968 10.7951 30.6099 10.3424 30.9273 9.68888L31.9726 7.53551L33.018 9.68863C33.3353 10.3423 33.9483 10.795 34.6577 10.8996L36.9953 11.2448L35.3035 12.9211Z" fill="#4A81ED"/>
</g>
</svg>
