<svg width="71" height="71" viewBox="0 0 71 71" fill="none" xmlns="http://www.w3.org/2000/svg">
<g>
<path d="M19.4681 25.1935C19.4681 25.8259 18.9553 26.3387 18.3229 26.3387C17.6905 26.3387 17.1777 25.8259 17.1777 25.1935C17.1777 24.5611 17.6905 24.0483 18.3229 24.0483C18.9553 24.0483 19.4681 24.5611 19.4681 25.1935Z" fill="#4A81ED"/>
<path d="M30.9192 25.1935C30.9192 25.8259 30.4065 26.3387 29.7741 26.3387C29.1417 26.3387 28.6289 25.8259 28.6289 25.1935C28.6289 24.5611 29.1417 24.0483 29.7741 24.0483C30.4065 24.0483 30.9192 24.5611 30.9192 25.1935Z" fill="#4A81ED"/>
<path d="M24.0484 35.5001C26.5747 35.5001 28.6291 33.4457 28.6291 30.9194H26.3387C26.3387 32.1826 25.3116 33.2098 24.0484 33.2098C22.7853 33.2098 21.7581 32.1826 21.7581 30.9194H19.4678C19.4678 33.4457 21.5221 35.5001 24.0484 35.5001Z" fill="#4A81ED"/>
<path d="M13.7422 59.5483H18.3228V61.8387H13.7422V59.5483Z" fill="#4A81ED"/>
<path d="M27.4834 64.1292H29.7737V66.4195H27.4834V64.1292Z" fill="#4A81ED"/>
<path d="M27.4834 59.5483H29.7737V61.8387H27.4834V59.5483Z" fill="#4A81ED"/>
<path d="M71 19.4677H41.2258V14.8871C41.2258 6.67862 34.5472 0 26.3387 0H21.7581C13.5496 0 6.87097 6.67862 6.87097 14.8871V25.1935C6.87097 28.014 8.92532 30.3501 11.6557 30.8198C12.1858 33.8248 13.7727 36.469 16.0323 38.3377V41.5624L5.32042 45.3899C2.13823 46.5255 0 49.559 0 52.9397V71H48.0968V52.9397C48.0968 51.6228 47.7635 50.3631 47.1786 49.2419H71V19.4677ZM50.3871 21.7581H54.9677V28.629H50.3871V21.7581ZM31.1508 43.6693L33.0229 44.3381L31.3259 52.8262L25.822 48.1096L31.1508 43.6693ZM32.0645 41.5635V38.3389C32.9362 37.6175 33.7034 36.7771 34.3548 35.8495V42.3821L32.0645 41.5635ZM11.4516 17.5895V19.5835C10.6006 19.7574 9.83005 20.1354 9.16129 20.6414V16.0323H11.4516V17.5895ZM13.7419 17.1774V16.0323H34.3548V17.5895C34.3548 19.2569 32.9978 20.6129 31.3315 20.6129C31.1324 20.6129 30.9333 20.5933 30.7382 20.5548L26.54 19.7149C24.8983 19.3878 23.1962 19.3878 21.554 19.7149L17.3547 20.5548C17.1623 20.5933 16.9633 20.6129 16.7653 20.6129C15.099 20.6129 13.7419 19.2569 13.7419 17.5895V17.1774ZM22.7282 2.29032H25.3686L27.2775 13.7419H20.8192L22.7282 2.29032ZM36.6452 17.5895V16.0323H38.9355V20.6425C38.2667 20.1365 37.4962 19.7574 36.6452 19.5846V17.5895ZM36.6452 21.9689C37.9748 22.443 38.9355 23.7028 38.9355 25.1935C38.9355 26.6843 37.9748 27.9441 36.6452 28.4182V21.9689ZM38.8773 13.7419H29.5992L27.7036 2.36693C33.6335 3.0094 38.3377 7.7824 38.8773 13.7419ZM20.3932 2.36693L18.4976 13.7419H9.21944C9.75903 7.7824 14.4633 3.0094 20.3932 2.36693ZM9.16129 25.1935C9.16129 23.7028 10.1219 22.443 11.4516 21.9689V28.4171C10.1219 27.9441 9.16129 26.6843 9.16129 25.1935ZM13.7419 28.629V21.9493C14.6008 22.547 15.6408 22.9032 16.7653 22.9032C17.1165 22.9032 17.4671 22.8691 17.807 22.8003L22.0052 21.9605C23.35 21.6926 24.7479 21.6926 26.0916 21.9605L30.2886 22.8003C30.6297 22.8691 30.9814 22.9032 31.3315 22.9032C32.4548 22.9032 33.4949 22.547 34.3548 21.9493V28.629C34.3548 34.3112 29.7317 38.9355 24.0484 38.9355C18.3651 38.9355 13.7419 34.3112 13.7419 28.629ZM24.0484 41.2258C26.1106 41.2258 28.0542 40.7175 29.7742 39.8357V41.8336L24.0484 46.6061L18.3226 41.8336V39.8357C20.0426 40.7175 21.9862 41.2258 24.0484 41.2258ZM16.9459 43.6693L22.2747 48.1096L16.7709 52.8262L15.0739 44.3381L16.9459 43.6693ZM2.29032 52.9397C2.29032 50.5269 3.81795 48.359 6.08982 47.5471L12.8931 45.117L15.2925 57.1093L22.9032 50.5862V68.7097H11.4516V56.1129H9.16129V68.7097H2.29032V52.9397ZM45.8064 68.7097H38.9355V56.1129H36.6452V68.7097H25.1935V50.5862L32.8043 57.1093L35.2036 45.117L42.007 47.5471C44.2788 48.359 45.8064 50.5258 45.8064 52.9397V68.7097ZM68.7097 46.9516H45.3725C44.6221 46.2862 43.7566 45.7399 42.7764 45.391L36.6452 43.2002V30.8036C39.2548 30.2713 41.2258 27.9592 41.2258 25.1935V21.7581H48.0968V30.9194H57.2581V21.7581H68.7097V46.9516Z" fill="#4A81ED"/>
</g>
</svg>
