<svg width="78" height="78" viewBox="0 0 78 78" fill="none" xmlns="http://www.w3.org/2000/svg">
<path d="M43.9674 60.3547L43.9674 60.3548C43.5396 61.9517 42.5165 63.2864 41.0872 64.1111L43.9674 60.3547ZM43.9674 60.3547C44.2577 59.2691 45.3736 58.6255 46.4599 58.9159M43.9674 60.3547L46.4599 58.9159M33.902 66.1659L33.902 66.166C33.611 67.2513 34.2554 68.3675 35.3408 68.6585L33.902 66.1659ZM33.902 66.1659C34.1929 65.0801 35.3089 64.4366 36.3945 64.727M33.902 66.1659L36.3945 64.727M46.4599 58.9159C47.5453 59.2069 48.1898 60.3225 47.8988 61.4085C47.1893 64.0564 45.4935 66.2672 43.1224 67.6361C41.5434 68.5474 39.791 69.013 38.0154 69.013C37.1239 69.013 36.2262 68.8957 35.3409 68.6585L46.4599 58.9159ZM36.3945 64.727C37.9914 65.1548 39.6586 64.9358 41.0872 64.1112L36.3945 64.727Z" fill="#4A81ED" stroke="white" stroke-width="0.5"/>
<path d="M63.8737 41.445L63.8811 41.6875H64.1236H64.1367C69.0391 41.6875 73.0273 45.6758 73.0273 50.5781C73.0273 53.8609 71.2372 56.7322 68.5816 58.2731L68.457 58.3453V58.4893V65.5078C68.457 66.6319 67.546 67.543 66.4219 67.543C65.2978 67.543 64.3867 66.6319 64.3867 65.5078V59.7188V59.4688H64.1367H63.1864H62.9974L62.9459 59.6505C59.9846 70.0851 50.3697 77.75 39 77.75C27.6303 77.75 18.0154 70.0851 15.0541 59.6505L15.0026 59.4688H14.8136H13.8633C8.96092 59.4688 4.97266 55.4805 4.97266 50.5781C4.97266 45.6758 8.96092 41.6875 13.8633 41.6875H13.8758H14.1184L14.1257 41.445C14.4055 32.0975 19.8612 23.7987 28.1501 19.7953L28.484 19.6341L28.2093 19.385C27.4396 18.6871 26.5658 18.0859 25.601 17.5992L25.601 17.5992C22.1528 15.8602 18.2286 15.9259 14.8406 17.7811C14.2097 18.1262 13.444 18.1133 12.8263 17.7467L12.8261 17.7466C12.2076 17.3804 11.8281 16.7147 11.8281 15.9961C11.8281 7.3137 18.8918 0.25 27.5742 0.25H31.6714C36.2195 0.25 40.5432 2.21532 43.5337 5.64105C46.5248 9.06734 47.8879 13.6171 47.2734 18.1236C47.2734 18.1236 47.2734 18.1237 47.2734 18.1237L47.2229 18.4938L47.1954 18.6948L47.3864 18.763C56.9607 22.1848 63.5644 31.1918 63.8737 41.445ZM16.4659 12.3971L16.3282 12.8211L16.7618 12.7175C17.9548 12.4323 19.1737 12.2899 20.3938 12.2899C22.8047 12.2899 25.2172 12.8469 27.4336 13.9651C29.868 15.1934 31.8992 17.0132 33.3741 19.212L33.3803 19.2213L33.3873 19.23C33.4721 19.3347 33.5467 19.4495 33.6106 19.5734L33.6155 19.583L33.6213 19.5922C34.7939 21.4536 35.577 23.5669 35.8828 25.8108L35.8828 25.8108L36.6933 31.7522L36.9383 31.7188L36.6933 31.7522C36.85 32.9008 37.8407 33.7656 39 33.7656C40.1593 33.7656 41.15 32.9008 41.3067 31.7522L41.059 31.7184L41.3067 31.7522L43.2402 17.5735L42.9925 17.5398L43.2402 17.5735C43.6957 14.232 42.685 10.8587 40.4678 8.31808L40.4678 8.31805C38.25 5.77736 35.044 4.32031 31.6714 4.32031H27.5742C22.3905 4.32031 17.986 7.71515 16.4659 12.3971ZM30.9854 23.2547L30.8856 23.0252L30.6562 23.1253C23.357 26.3098 18.4926 33.3959 18.1986 41.4284L18.1892 41.6875H18.4485H59.5515H59.8109L59.8014 41.4283C59.499 33.2394 54.3999 26.0227 46.9314 22.9477L46.6322 22.8245L46.5885 23.1451L45.3394 32.3024C44.9093 35.4563 42.1837 37.8359 39 37.8359C35.8163 37.8359 33.0907 35.4563 32.6606 32.3024L31.8501 26.361C31.8501 26.361 31.8501 26.361 31.8501 26.361C31.7012 25.2679 31.4083 24.2263 30.9854 23.2547ZM59.4105 46.0914L59.5287 45.7578H59.1748H46.247H45.8931L46.0114 46.0914C46.9888 48.8478 49.6225 50.8281 52.7109 50.8281C55.7994 50.8281 58.4331 48.8478 59.4105 46.0914ZM31.9886 46.0914L32.1069 45.7578H31.753H18.8252H18.4713L18.5895 46.0914C19.5669 48.8478 22.2006 50.8281 25.2891 50.8281C28.3775 50.8281 31.0112 48.8478 31.9886 46.0914ZM14.1133 46.0078V45.7578H13.8633C11.205 45.7578 9.04297 47.9198 9.04297 50.5781C9.04297 53.2364 11.205 55.3984 13.8633 55.3984H13.968H14.2416L14.217 55.126C14.1498 54.3802 14.1133 53.6259 14.1133 52.8633V46.0078ZM18.5839 52.6576L18.1836 52.3564V52.8573V52.8633C18.1836 64.3414 27.5218 73.6797 39 73.6797C50.4782 73.6797 59.8164 64.3414 59.8164 52.8633V52.8573V52.3564L59.4161 52.6576C57.5469 54.0639 55.2249 54.8984 52.7109 54.8984C47.3146 54.8984 42.7983 51.0528 41.7598 45.9579L41.719 45.7578H41.5149H36.4851H36.281L36.2402 45.9579C35.2017 51.0528 30.6854 54.8984 25.2891 54.8984C22.7751 54.8984 20.4531 54.0639 18.5839 52.6576ZM63.783 55.126L63.7584 55.3984H64.032H64.1367C66.795 55.3984 68.957 53.2364 68.957 50.5781C68.957 47.9198 66.795 45.7578 64.1367 45.7578H63.8867V46.0078V52.8633C63.8867 53.6259 63.8502 54.3802 63.783 55.126Z" fill="#4A81ED" stroke="white" stroke-width="0.5"/>
</svg>
