<svg width="67" height="68" viewBox="0 0 67 68" fill="none" xmlns="http://www.w3.org/2000/svg">
<path d="M65.8836 11.3333H39.0837C38.467 11.3333 37.967 11.8407 37.967 12.4666V22.6666C37.9674 23.2925 38.4678 23.7995 39.0845 23.7991C39.2041 23.7989 39.323 23.7794 39.4365 23.741L40.8402 23.2661C42.3641 22.7598 44.0038 23.6033 44.5026 25.15C45.0013 26.6967 44.1703 28.3609 42.6464 28.8671C42.0596 29.062 41.4268 29.062 40.84 28.8671L39.4364 28.3922C38.8512 28.1944 38.2189 28.5154 38.0241 29.1093C37.9862 29.2245 37.967 29.3452 37.9668 29.4666V38.5333H29.0335C28.4168 38.5337 27.9173 39.0416 27.9177 39.6674C27.9178 39.7888 27.9371 39.9095 27.9749 40.0247L28.4428 41.4493C28.9417 42.996 28.1106 44.6602 26.5866 45.1664C25.0626 45.6727 23.423 44.8292 22.9242 43.2825C22.7322 42.6869 22.7322 42.0447 22.9242 41.4492L23.3921 40.0246C23.587 39.4307 23.2707 38.789 22.6855 38.5912C22.5721 38.5528 22.4531 38.5333 22.3335 38.5331H12.2837C11.667 38.5331 11.167 39.0406 11.167 39.6664V66.8664C11.167 67.4923 11.667 67.9998 12.2837 67.9998H65.8836C66.5003 67.9998 67.0003 67.4923 67.0003 66.8664V12.4666C67.0003 11.8407 66.5003 11.3333 65.8836 11.3333ZM38.0242 56.3093C37.9864 56.4245 37.9671 56.5452 37.967 56.6666V65.7333H13.4003V40.7999H20.7848C19.9316 43.5458 21.4332 46.474 24.1387 47.3398C26.8443 48.2058 29.7293 46.6818 30.5825 43.9359C30.8996 42.9153 30.8996 41.8203 30.5825 40.7998H37.967V49.8664C37.9674 50.4923 38.4678 50.9994 39.0845 50.9989C39.2041 50.9988 39.323 50.9792 39.4365 50.9408L40.8402 50.466C42.3641 49.9598 44.0038 50.8031 44.5026 52.3499C45.0013 53.8966 44.1703 55.5607 42.6464 56.0669C42.0596 56.2618 41.4268 56.2618 40.84 56.0669L39.4364 55.592C38.8514 55.3944 38.2191 55.7154 38.0242 56.3093ZM64.767 65.7333H40.2003V58.2385C42.9059 59.1045 45.7909 57.5805 46.644 54.8346C47.4973 52.0886 45.9957 49.1605 43.2901 48.2947C42.2846 47.9728 41.2057 47.9728 40.2002 48.2947V40.7999H49.1335C49.7502 40.7995 50.2498 40.2916 50.2493 39.6657C50.2492 39.5443 50.2299 39.4236 50.1921 39.3085L49.7242 37.8839C49.2255 36.3371 50.0564 34.673 51.5804 34.1668C53.1044 33.6606 54.7441 34.504 55.2428 36.0507C55.4349 36.6463 55.4349 37.2884 55.2428 37.884L54.7749 39.3086C54.5801 39.9025 54.8963 40.5442 55.4815 40.742C55.595 40.7804 55.7139 40.7999 55.8335 40.8001H64.7668V65.7333H64.767ZM64.767 38.5333H57.3825C58.2357 35.7873 56.7341 32.8592 54.0286 31.9934C51.323 31.1273 48.438 32.6514 47.5848 35.3973C47.2677 36.4179 47.2677 37.5128 47.5848 38.5334H40.2003V31.0387C41.7512 31.5488 43.4491 31.2735 44.7664 30.2986C47.0759 28.6266 47.6128 25.371 45.9654 23.027C44.6645 21.176 42.3316 20.3941 40.2003 21.0948V13.5999H64.767V38.5333Z" fill="#5FB452"/>
<path d="M32.1233 9.7614C31.1177 9.43953 30.0389 9.43953 29.0333 9.7614V1.13333C29.0333 0.50745 28.5333 0 27.9167 0H1.11667C0.499987 0 0 0.50745 0 1.13333V28.3333C0 28.9592 0.499987 29.4667 1.11667 29.4667H9.61785C8.76458 32.2126 10.2662 35.1407 12.9718 36.0066C15.6773 36.8724 18.5623 35.3485 19.4155 32.6026C19.7326 31.582 19.7326 30.4871 19.4155 29.4665H27.9167C28.5333 29.4665 29.0333 28.9591 29.0333 28.3332V19.7051C31.7389 20.5711 34.6239 19.0471 35.4771 16.3012C36.3303 13.5554 34.8288 10.6274 32.1233 9.7614ZM31.4795 17.5338C30.8927 17.7287 30.26 17.7287 29.6732 17.5338L28.2695 17.0589C27.6844 16.8612 27.0521 17.1822 26.8572 17.776C26.8194 17.8912 26.8001 18.0119 26.8 18.1333V27.2H17.8667C17.25 27.2004 16.7504 27.7083 16.7508 28.3342C16.751 28.4556 16.7702 28.5763 16.8081 28.6915L17.2759 30.1161C17.7748 31.6628 16.9437 33.3269 15.4198 33.8331C13.8958 34.3393 12.2561 33.4959 11.7574 31.9492C11.5653 31.3537 11.5653 30.7115 11.7574 30.1159L12.2253 28.6913C12.4201 28.0975 12.1038 27.4557 11.5187 27.2579C11.4052 27.2195 11.2863 27.2 11.1667 27.1999H2.23333V2.26667H26.8V11.3333C26.8004 11.9592 27.3008 12.4662 27.9175 12.4658C28.0371 12.4657 28.1561 12.4461 28.2695 12.4077L29.6732 11.9329C31.1972 11.4267 32.8368 12.27 33.3356 13.8167C33.8344 15.3633 33.0034 17.0276 31.4795 17.5338Z" fill="#5FB452"/>
</svg>
