<svg width="19" height="19" viewBox="0 0 19 19" fill="none" xmlns="http://www.w3.org/2000/svg">
    <g>
        <path d="M13.9227 13.2456C13.696 13.2456 13.4897 13.1107 13.3997 12.9007L11.4866 8.43684L9.94983 12.8632C9.87091 13.0904 9.65771 13.2435 9.4172 13.2456C9.41553 13.2456 9.41383 13.2456 9.41216 13.2456C9.17365 13.2456 8.96023 13.0969 8.8779 12.8726L7.28515 8.5337L5.73721 12.8679C5.65772 13.0905 5.44889 13.2408 5.21259 13.2455C4.97576 13.2503 4.76162 13.1084 4.67333 12.8891L3.47885 9.92313H0.632812V8.78487H3.8632C4.09544 8.78487 4.30434 8.92598 4.39112 9.14137L5.16934 11.0737L6.74186 6.67069C6.82245 6.44505 7.03572 6.29404 7.27532 6.29298C7.27616 6.29298 7.27699 6.29298 7.27783 6.29298C7.51644 6.29298 7.72979 6.44182 7.81208 6.66598L9.39724 10.9843L10.8933 6.67543C10.9704 6.45343 11.176 6.30163 11.4108 6.29332C11.6462 6.28509 11.8615 6.42191 11.9541 6.63791L13.8391 11.0364L14.4179 9.18425C14.4921 8.94666 14.7121 8.78487 14.9611 8.78487H18.1915V9.92313H15.3795L14.466 12.8463C14.3949 13.0737 14.1898 13.2327 13.9518 13.2449C13.9421 13.2453 13.9324 13.2456 13.9227 13.2456Z"
              fill="#4A81ED"/>
    </g>

</svg>
