<svg width="46" height="46" viewBox="0 0 46 46" fill="none" xmlns="http://www.w3.org/2000/svg">
<g>
<path d="M18.9811 10.7402C17.3053 10.7402 15.9468 12.0987 15.9468 13.7745C15.9468 15.4503 17.3053 16.8088 18.9811 16.8088C20.6569 16.8088 22.0154 15.4503 22.0154 13.7745C22.0154 12.0987 20.6569 10.7402 18.9811 10.7402ZM18.9811 15.2917C18.1431 15.2917 17.4639 14.6125 17.4639 13.7745C17.4681 12.9396 18.1462 12.265 18.9811 12.265V12.2574C19.819 12.2574 20.4982 12.9366 20.4982 13.7745C20.4982 14.6125 19.819 15.2917 18.9811 15.2917Z" fill="white"/>
<path d="M27.6588 10.7402C25.983 10.7402 24.6245 12.0987 24.6245 13.7745C24.6245 15.4503 25.983 16.8088 27.6588 16.8088C29.3346 16.8088 30.6931 15.4503 30.6931 13.7745C30.6931 12.0987 29.3346 10.7402 27.6588 10.7402ZM27.6588 15.2917C26.8209 15.2917 26.1417 14.6125 26.1417 13.7745C26.1458 12.9396 26.8239 12.265 27.6588 12.265V12.2574C28.4968 12.2574 29.176 12.9366 29.176 13.7745C29.176 14.6125 28.4968 15.2917 27.6588 15.2917Z" fill="white"/>
<path d="M36.909 14.2324C36.5816 12.4314 35.1318 11.0461 33.3179 10.8009C32.8172 8.94994 31.3759 7.3721 28.4782 7.3721H24.0784V5.70324C25.4092 5.28431 26.1483 3.86587 25.7293 2.53524C25.3104 1.20451 23.8919 0.46537 22.5613 0.884388C21.2305 1.30331 20.4914 2.72175 20.9104 4.05239C21.1582 4.83922 21.7744 5.45556 22.5613 5.70324V7.33418H18.1691C16.121 7.33418 13.9666 8.27481 13.3142 10.7629C11.0024 11.0803 9.38548 13.2117 9.70285 15.5236C9.95167 17.3363 11.339 18.7828 13.1398 19.1073L13.1322 19.1452C13.3598 22.4753 15.8327 23.6966 18.1615 23.6966H28.4782C31.9449 23.6966 33.333 21.4209 33.5075 19.1452C35.8034 18.7278 37.3263 16.5283 36.909 14.2324ZM13.1093 17.628C11.6766 17.2139 10.8508 15.7166 11.2649 14.2839C11.5223 13.3932 12.2187 12.6968 13.1093 12.4394V17.628ZM22.3109 3.33648C22.3109 2.77931 22.7626 2.32758 23.3198 2.32758C23.8769 2.32758 24.3287 2.77931 24.3287 3.33648C24.3287 3.89366 23.8769 4.34539 23.3198 4.34539C22.7626 4.34539 22.3109 3.89366 22.3109 3.33648ZM32.013 18.599C32.013 19.9189 31.5503 22.134 28.4781 22.134H18.169C16.8491 22.134 14.6341 21.6712 14.6341 18.599L14.6265 12.4394C14.6265 9.35957 16.8415 8.90443 18.1614 8.90443H28.4781C31.5579 8.90443 32.013 11.1195 32.013 12.4394V18.599ZM33.4998 17.5749V12.3863C34.6563 12.7201 35.4536 13.777 35.457 14.9806C35.4536 16.1842 34.6563 17.2412 33.4998 17.5749Z" fill="white"/>
<path d="M27.6589 18.8721H18.9807C18.5618 18.8721 18.2222 19.2117 18.2222 19.6306C18.2222 20.0496 18.5618 20.3892 18.9807 20.3892H27.6589C28.0778 20.3892 28.4174 20.0496 28.4174 19.6306C28.4174 19.2117 28.0778 18.8721 27.6589 18.8721Z" fill="white"/>
<path d="M40.1984 25.1154C40.1838 23.4899 38.8544 22.184 37.229 22.1985C35.8689 22.2106 34.6942 23.153 34.3877 24.4782L32.3623 24.8726H14.2778L12.2524 24.4782C11.9054 22.8901 10.3368 21.884 8.74868 22.2311C7.1606 22.5781 6.15454 24.1468 6.50159 25.7348C6.7375 26.8143 7.558 27.6707 8.62645 27.9525V33.6191C7.34323 33.9614 6.4482 35.1205 6.44175 36.4486V37.7913C6.44175 38.2102 6.78141 38.5498 7.20033 38.5498C7.61925 38.5498 7.9589 38.2102 7.9589 37.7913V36.441C7.9589 35.6534 8.59744 35.0149 9.38503 35.0149C10.1726 35.0149 10.8111 35.6534 10.8111 36.441V37.7913C10.8111 38.2102 11.1508 38.5498 11.5697 38.5498C11.9886 38.5498 12.3283 38.2102 12.3283 37.7913V36.441C12.3219 35.1129 11.4268 33.9538 10.1436 33.6115V27.945C11.1073 27.6853 11.8731 26.9538 12.1766 26.003L13.4434 26.2533V35.6141C13.4449 36.9865 13.7343 38.3432 14.293 39.5967V39.6649C16.5326 44.6295 22.3728 46.8385 27.3373 44.5989C29.5282 43.6105 31.2828 41.856 32.2712 39.6649L32.3092 39.5815C32.8738 38.3345 33.171 36.983 33.1815 35.6141V26.2533L34.4484 26.003C34.7519 26.9538 35.5177 27.6853 36.4813 27.945V33.6115C35.1981 33.9538 34.3031 35.1129 34.2966 36.441V37.7913C34.2966 38.2102 34.6363 38.5498 35.0552 38.5498C35.4741 38.5498 35.8138 38.2102 35.8138 37.7913V36.441C35.8146 35.6534 36.4536 35.0154 37.2412 35.0162C38.0278 35.017 38.6653 35.6544 38.666 36.441V37.7913C38.666 38.2102 39.0057 38.5498 39.4246 38.5498C39.8435 38.5498 40.1832 38.2102 40.1832 37.7913V36.441C40.1767 35.1129 39.2817 33.9538 37.9985 33.6115V27.945C39.2877 27.6083 40.19 26.4477 40.1984 25.1154ZM9.38503 26.5415C8.59744 26.5415 7.9589 25.903 7.9589 25.1154C7.9589 24.3278 8.59744 23.6893 9.38503 23.6893C10.1726 23.6893 10.8111 24.3278 10.8111 25.1154C10.8111 25.903 10.1726 26.5415 9.38503 26.5415ZM23.3201 43.966C20.4622 43.9659 17.8031 42.5033 16.2729 40.0896H30.3672C28.837 42.5032 26.1779 43.9659 23.3201 43.966ZM31.6644 35.6216C31.6607 36.6332 31.473 37.6357 31.1106 38.5801H15.5143C15.1519 37.6357 14.9643 36.6332 14.9606 35.6216V26.3898H31.6644V35.6216ZM37.263 26.5413C37.2603 26.5413 37.2577 26.5414 37.2551 26.5414L37.2399 26.5186C36.4523 26.5186 35.8138 25.8801 35.8138 25.0925C35.8138 24.3049 36.4523 23.6664 37.2399 23.6664C38.0275 23.6664 38.666 24.3049 38.666 25.0925C38.6786 25.8801 38.0505 26.5287 37.263 26.5413Z" fill="white"/>
<path d="M26.0034 31.7434C25.8645 31.6181 25.6841 31.5485 25.497 31.548H23.2212L26.0128 28.6806C26.2811 28.3588 26.238 27.8806 25.9163 27.6121C25.6286 27.3721 25.2088 27.3781 24.928 27.6261L20.8848 31.7831C20.5915 32.0823 20.5964 32.5626 20.8955 32.8559C21.0384 32.9959 21.2309 33.0739 21.431 33.0727H23.7674L20.8924 36.2739C20.6125 36.5842 20.6362 37.0624 20.9455 37.3435C21.2558 37.6234 21.734 37.5997 22.0151 37.2904L26.0583 32.8148C26.339 32.5038 26.3144 32.0241 26.0034 31.7434Z" fill="white"/>
</g>

</svg>
