<svg width="136" height="136" viewBox="0 0 136 136" fill="none" xmlns="http://www.w3.org/2000/svg">
<g opacity="0.5">
<path d="M68 0C30.5048 0 0 30.5048 0 68C0 105.495 30.5048 136 68 136C105.495 136 136 105.495 136 68C136 30.5048 105.496 0 68 0ZM68 128.649C51.3412 128.649 36.2312 121.896 25.2591 110.987C20.8777 106.63 17.1583 101.609 14.2623 96.0908C9.85186 87.6876 7.35145 78.1308 7.35145 68C7.35145 34.5583 34.5583 7.35145 68 7.35145C83.8621 7.35145 98.3188 13.4752 109.137 23.4796C114.746 28.6661 119.378 34.8946 122.718 41.8564C126.518 49.7771 128.649 58.6444 128.649 68C128.649 101.442 101.442 128.649 68 128.649ZM42.3315 126.994C42.4418 127.042 42.552 127.091 42.6632 127.139C42.552 127.09 42.4418 127.042 42.3315 126.994Z" fill="#B8CEF8"/>
<path d="M45.2558 60.6487C49.3158 60.6487 52.6072 57.3573 52.6072 53.2973C52.6072 49.2372 49.3158 45.9458 45.2558 45.9458C41.1957 45.9458 37.9043 49.2372 37.9043 53.2973C37.9043 57.3573 41.1957 60.6487 45.2558 60.6487Z" fill="#B8CEF8"/>
<path d="M90.743 60.6487C94.8031 60.6487 98.0945 57.3573 98.0945 53.2973C98.0945 49.2372 94.8031 45.9458 90.743 45.9458C86.683 45.9458 83.3916 49.2372 83.3916 53.2973C83.3916 57.3573 86.683 60.6487 90.743 60.6487Z" fill="#B8CEF8"/>
<path d="M108.234 34.9343L84.9531 24.8516L82.0317 31.5973L105.313 41.68L108.234 34.9343Z" fill="#B8CEF8"/>
<path d="M30.6842 41.6831L53.9648 31.6006L51.0434 24.8549L27.7627 34.9374L30.6842 41.6831Z" fill="#B8CEF8"/>
<path d="M98.4388 93.1716C99.003 94.1714 99.5222 95.2107 99.9839 96.2611L106.714 93.304C106.155 92.0308 105.525 90.7709 104.842 89.5602C97.0208 75.6894 81.6816 67.2569 65.7809 68.083C49.9831 68.9004 35.6569 78.8 29.2832 93.304L36.0135 96.262C41.2794 84.2791 53.1125 76.1002 66.1604 75.4248C79.2947 74.7434 91.9759 81.7098 98.4388 93.1716Z" fill="#B8CEF8"/>
</g>
</svg>
