<svg width="79" height="79" viewBox="0 0 79 79" fill="none" xmlns="http://www.w3.org/2000/svg">
<path d="M77.457 75.9141H75.9141V29.3164C75.9141 28.4642 75.2233 27.7734 74.3711 27.7734C73.5188 27.7734 72.8281 28.4642 72.8281 29.3164V30.8594H56.4727V27.0562L57.1598 27.5143C57.8661 27.985 58.8251 27.7981 59.2994 27.0863C59.772 26.3769 59.5803 25.4192 58.8715 24.9467L41.043 13.061V9.25781H48.7578C49.6101 9.25781 50.3008 8.56709 50.3008 7.71484V1.54297C50.3008 0.69072 49.6101 0 48.7578 0H39.5C38.6478 0 37.957 0.69072 37.957 1.54297V13.061L20.1285 24.9467C19.4197 25.4192 19.228 26.3769 19.7006 27.0863C20.1731 27.7951 21.1314 27.9868 21.8402 27.5143L22.5273 27.0562V30.8594H6.17188V29.3164C6.17188 28.4642 5.48116 27.7734 4.62891 27.7734C3.77666 27.7734 3.08594 28.4642 3.08594 29.3164V75.9141H1.54297C0.69072 75.9141 0 76.6048 0 77.457C0 78.3093 0.69072 79 1.54297 79H32.5566C33.4089 79 34.0996 78.3093 34.0996 77.457C34.0996 76.6048 33.4089 75.9141 32.5566 75.9141H31.7852V67.8906H47.2148V75.9141H46.4434C45.5911 75.9141 44.9004 76.6048 44.9004 77.457C44.9004 78.3093 45.5911 79 46.4434 79H77.457C78.3093 79 79 78.3093 79 77.457C79 76.6048 78.3093 75.9141 77.457 75.9141ZM72.8281 33.9453V75.9141H56.4727V33.9453H72.8281ZM41.043 3.08594H47.2148V6.17188H41.043V3.08594ZM6.17188 33.9453H22.5273V75.9141H6.17188V33.9453ZM48.7578 64.8047H30.2422C29.3899 64.8047 28.6992 65.4954 28.6992 66.3477V75.9141H25.6133V24.9991L39.5 15.7413L53.3867 24.9991V75.9141H50.3008V66.3477C50.3008 65.4954 49.6101 64.8047 48.7578 64.8047Z" fill="#4A81ED"/>
<path d="M41.043 77.457C41.043 78.3093 40.3522 79 39.5 79C38.6478 79 37.957 78.3093 37.957 77.457C37.957 76.6048 38.6478 75.9141 39.5 75.9141C40.3522 75.9141 41.043 76.6048 41.043 77.457Z" fill="#4A81ED"/>
<path d="M50.3008 50.918C50.3008 50.0657 49.6101 49.375 48.7578 49.375H42.5859C41.7337 49.375 41.043 50.0657 41.043 50.918V60.1758C41.043 61.028 41.7337 61.7188 42.5859 61.7188H48.7578C49.6101 61.7188 50.3008 61.028 50.3008 60.1758V50.918ZM47.2148 58.6328H44.1289V52.4609H47.2148V58.6328Z" fill="#4A81ED"/>
<path d="M61.5645 64.8047H67.7363C68.5886 64.8047 69.2793 64.114 69.2793 63.2617V54.0039C69.2793 53.1517 68.5886 52.4609 67.7363 52.4609H61.5645C60.7122 52.4609 60.0215 53.1517 60.0215 54.0039V63.2617C60.0215 64.114 60.7122 64.8047 61.5645 64.8047ZM63.1074 55.5469H66.1934V61.7188H63.1074V55.5469Z" fill="#4A81ED"/>
<path d="M61.5645 49.375H67.7363C68.5886 49.375 69.2793 48.6843 69.2793 47.832V38.5742C69.2793 37.722 68.5886 37.0312 67.7363 37.0312H61.5645C60.7122 37.0312 60.0215 37.722 60.0215 38.5742V47.832C60.0215 48.6843 60.7122 49.375 61.5645 49.375ZM63.1074 40.1172H66.1934V46.2891H63.1074V40.1172Z" fill="#4A81ED"/>
<path d="M17.4355 52.4609H11.2637C10.4114 52.4609 9.7207 53.1517 9.7207 54.0039V63.2617C9.7207 64.114 10.4114 64.8047 11.2637 64.8047H17.4355C18.2878 64.8047 18.9785 64.114 18.9785 63.2617V54.0039C18.9785 53.1517 18.2878 52.4609 17.4355 52.4609ZM15.8926 61.7188H12.8066V55.5469H15.8926V61.7188Z" fill="#4A81ED"/>
<path d="M17.4355 37.0312H11.2637C10.4114 37.0312 9.7207 37.722 9.7207 38.5742V47.832C9.7207 48.6843 10.4114 49.375 11.2637 49.375H17.4355C18.2878 49.375 18.9785 48.6843 18.9785 47.832V38.5742C18.9785 37.722 18.2878 37.0312 17.4355 37.0312ZM15.8926 46.2891H12.8066V40.1172H15.8926V46.2891Z" fill="#4A81ED"/>
<path d="M36.4141 49.375H30.2422C29.3899 49.375 28.6992 50.0657 28.6992 50.918V60.1758C28.6992 61.028 29.3899 61.7188 30.2422 61.7188H36.4141C37.2663 61.7188 37.957 61.028 37.957 60.1758V50.918C37.957 50.0657 37.2663 49.375 36.4141 49.375ZM34.8711 58.6328H31.7852V52.4609H34.8711V58.6328Z" fill="#4A81ED"/>
<path d="M41.043 35.4883V44.7461C41.043 45.5983 41.7337 46.2891 42.5859 46.2891H48.7578C49.6101 46.2891 50.3008 45.5983 50.3008 44.7461V35.4883C50.3008 34.636 49.6101 33.9453 48.7578 33.9453H42.5859C41.7337 33.9453 41.043 34.636 41.043 35.4883ZM44.1289 37.0312H47.2148V43.2031H44.1289V37.0312Z" fill="#4A81ED"/>
<path d="M36.4141 33.9453H30.2422C29.3899 33.9453 28.6992 34.636 28.6992 35.4883V44.7461C28.6992 45.5983 29.3899 46.2891 30.2422 46.2891H36.4141C37.2663 46.2891 37.957 45.5983 37.957 44.7461V35.4883C37.957 34.636 37.2663 33.9453 36.4141 33.9453ZM34.8711 43.2031H31.7852V37.0312H34.8711V43.2031Z" fill="#4A81ED"/>
<path d="M44.1289 26.2305C44.1289 23.6779 42.0525 21.6016 39.5 21.6016C36.9475 21.6016 34.8711 23.6779 34.8711 26.2305C34.8711 28.783 36.9475 30.8594 39.5 30.8594C42.0525 30.8594 44.1289 28.783 44.1289 26.2305ZM39.5 27.7734C38.649 27.7734 37.957 27.0815 37.957 26.2305C37.957 25.3794 38.649 24.6875 39.5 24.6875C40.351 24.6875 41.043 25.3794 41.043 26.2305C41.043 27.0815 40.351 27.7734 39.5 27.7734Z" fill="#4A81ED"/>
</svg>
