<svg width="65" height="65" viewBox="0 0 65 65" fill="none" xmlns="http://www.w3.org/2000/svg">
<g>
<path d="M0 62.2916V63.6459C0 64.3936 0.606328 65 1.35421 65H63.6459C64.3938 65 65.0001 64.3936 65.0001 63.6457V62.2915H0V62.2916Z" fill="#4A81ED"/>
<path d="M25.7299 24.375H4.06319C3.31531 24.375 2.70898 24.9813 2.70898 25.7292V63.6459C2.70898 64.3937 3.31531 65 4.06319 65H25.7299C26.4778 65 27.0841 64.3937 27.0841 63.6458V25.7292C27.084 24.9813 26.4778 24.375 25.7299 24.375ZM24.3757 62.2917H5.4174V27.0833H24.3757V62.2917Z" fill="#4A81ED"/>
<path d="M60.9369 8.125H39.2702C38.5223 8.125 37.916 8.73133 37.916 9.47921V63.6459C37.916 64.3938 38.5223 65.0001 39.2702 65.0001H60.9369C61.6848 65.0001 62.2911 64.3938 62.2911 63.6459V9.47921C62.2911 8.73133 61.6848 8.125 60.9369 8.125ZM59.5827 62.2917H40.6244V10.8333H59.5827V62.2917Z" fill="#4A81ED"/>
<path d="M51.4577 0H14.8952C14.1473 0 13.541 0.606328 13.541 1.35421V21.6667H16.2494V2.70829H50.1036V5.41658H52.8119V1.35408C52.8119 0.606328 52.2056 0 51.4577 0Z" fill="#4A81ED"/>
<path d="M10.8333 29.7917H8.125V54.1667H10.8333V29.7917Z" fill="#4A81ED"/>
<path d="M16.2493 29.7917H13.541V54.1667H16.2493V29.7917Z" fill="#4A81ED"/>
<path d="M21.6673 29.7917H18.959V54.1667H21.6673V29.7917Z" fill="#4A81ED"/>
<path d="M54.1673 14.8958H39.2715V17.604H54.1673V14.8958Z" fill="#4A81ED"/>
<path d="M54.1673 21.6667H39.2715V24.375H54.1673V21.6667Z" fill="#4A81ED"/>
<path d="M54.1673 28.4375H39.2715V31.1458H54.1673V28.4375Z" fill="#4A81ED"/>
<path d="M54.1673 35.2083H39.2715V37.9165H54.1673V35.2083Z" fill="#4A81ED"/>
<path d="M54.1673 41.9792H39.2715V44.6875H54.1673V41.9792Z" fill="#4A81ED"/>
<path d="M54.1673 48.75H39.2715V51.4583H54.1673V48.75Z" fill="#4A81ED"/>
<path d="M23.0208 6.77075H20.3125V10.8333H23.0208V6.77075Z" fill="#4A81ED"/>
<path d="M23.0208 14.8958H20.3125V18.9582H23.0208V14.8958Z" fill="#4A81ED"/>
<path d="M28.4368 14.8958H25.7285V18.9582H28.4368V14.8958Z" fill="#4A81ED"/>
<path d="M28.4368 6.77075H25.7285V10.8333H28.4368V6.77075Z" fill="#4A81ED"/>
<path d="M33.8548 6.77075H31.1465V10.8333H33.8548V6.77075Z" fill="#4A81ED"/>
<path d="M33.8548 14.8958H31.1465V18.9582H33.8548V14.8958Z" fill="#4A81ED"/>
<path d="M33.8548 23.0208H31.1465V27.0833H33.8548V23.0208Z" fill="#4A81ED"/>
<path d="M33.8548 31.1458H31.1465V35.2083H33.8548V31.1458Z" fill="#4A81ED"/>
<path d="M33.8548 39.2708H31.1465V43.3333H33.8548V39.2708Z" fill="#4A81ED"/>
<path d="M33.8548 47.3958H31.1465V51.4583H33.8548V47.3958Z" fill="#4A81ED"/>
<path d="M51.459 55.5208H44.6882C43.9403 55.5208 43.334 56.1271 43.334 56.875V63.6458H46.0423V58.229H50.1048V63.6458H52.8132V56.875C52.8132 56.1271 52.2069 55.5208 51.459 55.5208Z" fill="#4A81ED"/>
<path d="M20.3125 56.875H9.47921C8.73133 56.875 8.125 57.4813 8.125 58.2292V63.6459H10.8333V59.5834H18.9583V63.6459H21.6666V58.2292C21.6667 57.4813 21.0604 56.875 20.3125 56.875Z" fill="#4A81ED"/>
</g>

</svg>
