<svg width="70" height="69" viewBox="0 0 70 69" fill="none" xmlns="http://www.w3.org/2000/svg">
<g>
<path d="M69.5954 47.9581L66.2582 44.6954C65.7219 44.171 64.8562 44.1747 64.3244 44.7032C63.7924 45.2318 63.7961 46.0852 64.3323 46.6095L67.6693 49.8721C67.9359 50.1329 68.2841 50.2631 68.6322 50.2631C68.984 50.2631 69.3358 50.1301 69.6031 49.8643C70.1352 49.3358 70.1316 48.4823 69.5954 47.9581Z" fill="#5FB452"/>
<path d="M62.8576 41.357C62.3236 40.8306 61.458 40.8306 60.9237 41.357L60.9214 41.3592C60.3874 41.8856 60.3886 42.738 60.9226 43.2644C61.1892 43.5273 61.5391 43.6587 61.8888 43.6587C62.2394 43.6587 62.5902 43.5268 62.8575 43.2633C63.3915 42.737 63.3915 41.8835 62.8576 41.357Z" fill="#5FB452"/>
<path d="M51.2003 47.5723L64.4658 34.4964C66.4749 32.5158 66.4749 29.2933 64.4657 27.3128C63.7572 26.6145 62.8919 26.1635 61.9806 25.9577C62.2931 25.2955 62.4585 24.5687 62.4585 23.8166C62.4585 22.4598 61.9224 21.1842 60.9493 20.2249C60.186 19.4724 59.225 18.9864 58.182 18.8114C58.7692 17.0478 58.3541 15.0281 56.934 13.6284C56.1532 12.8589 55.1821 12.3899 54.1686 12.2185C54.3384 11.7106 54.4279 11.1742 54.4279 10.6238C54.4279 9.26702 53.8919 7.99146 52.9187 7.0322C51.9454 6.07294 50.6514 5.54452 49.275 5.54452C48.401 5.54452 47.5606 5.75826 46.8139 6.15959L46.682 6.01984C44.9673 4.20347 42.5401 3.16187 40.0233 3.16187H29.2854C28.5303 3.16187 27.9179 3.76548 27.9179 4.50979V6.27738C27.9179 6.98476 28.0393 7.67341 28.2715 8.32096C27.6529 8.06774 26.9837 7.93472 26.2938 7.93472C24.9173 7.93472 23.6233 8.46314 22.65 9.4224C21.2292 10.8229 20.8145 12.8441 21.4031 14.6082C20.3888 14.7792 19.4163 15.2485 18.6348 16.0186C17.6617 16.978 17.1256 18.2536 17.1256 19.6103C17.1256 20.1596 17.2149 20.6951 17.384 21.202C16.3422 21.3776 15.3822 21.8633 14.6195 22.6151C13.0504 24.1619 12.7068 26.4663 13.5888 28.3448C12.6549 28.5552 11.7971 29.0188 11.1029 29.703C9.09378 31.6834 9.09378 34.9059 11.1029 36.8864L13.8309 39.5754L0.400518 52.8137C-0.133506 53.3401 -0.133506 54.1936 0.400518 54.7201C0.667529 54.9832 1.01753 55.115 1.36739 55.115C1.71726 55.115 2.06726 54.9833 2.33427 54.7201L15.8943 41.3538C16.662 41.7856 17.5332 42.0165 18.4411 42.0165C19.8175 42.0165 21.1115 41.4881 22.0848 40.5287C23.1422 39.4866 23.6423 38.1003 23.5867 36.7321C23.656 36.7349 23.7253 36.737 23.7946 36.737C25.1139 36.7368 26.434 36.2417 27.4383 35.2517C28.4115 34.2923 28.9475 33.0168 28.9475 31.6601C28.9475 31.5915 28.9452 31.5233 28.9425 31.4551C29.011 31.4578 29.0795 31.46 29.1481 31.46C30.4676 31.46 31.7873 30.9648 32.7918 29.9747C33.765 29.0153 34.301 27.7397 34.301 26.3831C34.301 26.3145 34.2987 26.2463 34.296 26.1781C34.3645 26.1808 34.433 26.1829 34.5016 26.1829C35.8212 26.1829 37.1408 25.6878 38.1453 24.6977C40.0331 22.8368 40.1467 19.8797 38.4871 17.8864L47.5644 8.93873C48.0212 8.48834 48.6282 8.24051 49.2742 8.24051C49.9202 8.24051 50.5274 8.48834 50.9841 8.93873C51.4409 9.38898 51.6923 9.98734 51.6923 10.6241C51.6923 11.2607 51.4409 11.8594 50.984 12.3095L49.6457 13.6287L44.7897 18.4153C44.2557 18.9417 44.2557 19.7952 44.7897 20.3217C45.0567 20.5848 45.4067 20.7166 45.7565 20.7166C46.1064 20.7166 46.4564 20.5849 46.7234 20.3217L51.5794 15.5351C52.5221 14.6058 54.0562 14.6056 54.9991 15.535C55.942 16.4644 55.942 17.9765 54.9991 18.906L53.6607 20.2253L50.1432 23.6926C49.6091 24.219 49.6091 25.0725 50.1432 25.599C50.4102 25.8621 50.7602 25.9939 51.11 25.9939C51.4599 25.9939 51.8099 25.8622 52.0769 25.599L55.5944 22.1317C56.0512 21.6814 56.6584 21.4335 57.3042 21.4335C57.9502 21.4335 58.5574 21.6814 59.0142 22.1317C59.4709 22.582 59.7224 23.1804 59.7224 23.8171C59.7224 24.4538 59.4709 25.0524 59.014 25.5025L57.1769 27.3133L55.4965 28.9698C54.9625 29.4961 54.9625 30.3496 55.4965 30.8761C55.7635 31.1392 56.1135 31.271 56.4634 31.271C56.8133 31.271 57.1633 31.1393 57.4303 30.8761L59.1119 29.2185C60.0549 28.2907 61.588 28.2908 62.5304 29.2197C63.4734 30.1491 63.4734 31.6613 62.5304 32.5908L49.2649 45.6667C45.9339 48.9502 41.5068 50.8511 36.7991 51.0196C36.4531 51.032 36.1244 51.1733 35.88 51.4154L23.6256 63.5394C23.0926 64.0668 23.0941 64.9202 23.6292 65.4457C23.8959 65.7077 24.2451 65.8388 24.5943 65.8388C24.945 65.8388 25.2959 65.7066 25.5629 65.4422L34.5764 56.5247C36.8659 57.9725 39.5584 58.6609 42.2962 58.4825L49.3506 65.4363C49.6176 65.6993 49.9676 65.8311 50.3175 65.8311C50.6675 65.8311 51.0174 65.6994 51.2844 65.4363C51.8184 64.9099 51.8184 64.0564 51.2844 63.5299L43.784 56.1358C43.5 55.856 43.1054 55.713 42.7053 55.7454L42.2717 55.7804C40.2706 55.9422 38.2925 55.5101 36.5655 54.5561L37.4443 53.6867C42.6418 53.3707 47.5079 51.212 51.2003 47.5723ZM20.151 38.6226C19.6943 39.073 19.087 39.3208 18.4412 39.3208C17.7952 39.3208 17.1881 39.073 16.7314 38.6226L13.0365 34.9806C12.0937 34.0512 12.0937 32.539 13.0365 31.6095C13.4933 31.1592 14.1006 30.9113 14.7464 30.9113C15.3923 30.9113 15.9996 31.1592 16.4562 31.6095L20.1512 35.2516C21.0939 36.1809 21.0939 37.6931 20.151 38.6226ZM25.5048 33.3453C24.5619 34.2747 23.0275 34.2747 22.0849 33.3453L18.39 29.7031L16.5527 27.8922C15.6099 26.9628 15.6099 25.4506 16.5527 24.5213C17.0095 24.0709 17.6168 23.8231 18.2625 23.8231C18.9085 23.8231 19.5157 24.0709 19.9724 24.5213L25.5044 29.9743C25.5044 29.9743 25.5044 29.9743 25.5045 29.9743C25.9615 30.4247 26.2129 31.0232 26.2129 31.6598C26.2129 32.2964 25.9615 32.8951 25.5048 33.3453ZM30.8583 28.0682C29.9154 28.9974 28.3811 28.9975 27.4384 28.0682L20.5679 21.2958C20.1111 20.8455 19.8597 20.2472 19.8597 19.6104C19.8597 18.9738 20.1111 18.3752 20.568 17.925C21.0394 17.4604 21.6588 17.228 22.2778 17.228C22.8966 17.228 23.5153 17.4601 23.9866 17.924L27.118 21.0106L30.858 24.6973H30.8582C31.3148 25.1475 31.5662 25.7459 31.5662 26.3827C31.5665 27.0194 31.3151 27.6181 30.8583 28.0682ZM36.2119 22.791C35.2691 23.7204 33.735 23.7204 32.7922 22.791L25.9217 16.0186C25.921 16.018 25.9202 16.0173 25.9193 16.0165L24.5832 14.6994C23.6404 13.7699 23.6404 12.2579 24.5832 11.3284C25.0546 10.8636 25.6739 10.6313 26.2931 10.6313C26.9123 10.6313 27.5317 10.8636 28.0029 11.3284L36.2117 19.4199C36.6686 19.8701 36.92 20.4686 36.92 21.1052C36.9201 21.7421 36.6689 22.3409 36.2119 22.791ZM36.5715 15.9622L32.8156 12.2599C33.2415 12.3495 33.6794 12.3971 34.1251 12.3969C34.1351 12.3969 34.1452 12.3969 34.1553 12.3969L37.9079 12.3796C38.663 12.3761 39.2725 11.7697 39.269 11.0253C39.2654 10.283 38.6539 9.68371 37.9016 9.68371C37.8995 9.68371 37.8973 9.68371 37.8951 9.68371L34.1424 9.7011C34.1367 9.7011 34.1312 9.7011 34.1255 9.7011C33.2009 9.7011 32.3312 9.34734 31.6755 8.7041C31.0157 8.05669 30.6524 7.195 30.6524 6.27724V5.85758H40.0228C41.7831 5.85758 43.4805 6.58599 44.6798 7.85629L44.7354 7.91518L36.5715 15.9622Z" fill="#5FB452"/>
</g>
</svg>
