<svg width="79" height="79" viewBox="0 0 79 79" fill="none" xmlns="http://www.w3.org/2000/svg">
<path d="M63.7101 56.0645C60.8991 56.0645 58.6133 58.3503 58.6133 61.1612C58.6133 63.9722 60.8991 66.258 63.7101 66.258C66.521 66.258 68.8068 63.9722 68.8068 61.1612C68.8068 58.3503 66.521 56.0645 63.7101 56.0645ZM63.7101 63.7096C62.3046 63.7096 61.1617 62.5667 61.1617 61.1612C61.1617 59.7558 62.3046 58.6128 63.7101 58.6128C65.1155 58.6128 66.2584 59.7558 66.2584 61.1612C66.2584 62.5667 65.1155 63.7096 63.7101 63.7096Z" fill="#4A81ED"/>
<path d="M16.5645 56.0645C13.7536 56.0645 11.4678 58.3503 11.4678 61.1612C11.4678 63.9722 13.7536 66.258 16.5645 66.258C19.3755 66.258 21.6613 63.9722 21.6613 61.1612C21.6613 58.3503 19.3755 56.0645 16.5645 56.0645ZM16.5645 63.7096C15.1591 63.7096 14.0162 62.5667 14.0162 61.1612C14.0162 59.7558 15.1591 58.6128 16.5645 58.6128C17.97 58.6128 19.1129 59.7558 19.1129 61.1612C19.1129 62.5667 17.97 63.7096 16.5645 63.7096Z" fill="#4A81ED"/>
<path d="M75.1774 17.8388H73.9032V7.64526H38.2258V17.8388H36.9516C34.8443 17.8388 33.129 19.5541 33.129 21.6614V22.9356H14.614C11.464 22.9356 8.75261 25.288 8.30777 28.4057L6.51095 40.9759L5.12228 41.2534C2.15331 41.8469 0 44.4743 0 47.5005V59.8872C0 61.9945 1.71531 63.7098 3.82258 63.7098H6.70631C7.84239 68.0991 11.8242 71.3549 16.5645 71.3549C21.3048 71.3549 25.2866 68.0991 26.4227 63.7098H53.8527C54.9888 68.0991 58.9706 71.3549 63.7109 71.3549C68.4512 71.3549 72.4331 68.0991 73.5691 63.7098H75.1774C77.2847 63.7098 79 61.9945 79 59.8872V21.6614C79 19.5541 77.2847 17.8388 75.1774 17.8388ZM61.7729 22.6488L71.3548 12.1952V31.4928L61.7729 22.6488ZM59.395 21.4704C58.5414 22.4018 57.3275 22.9356 56.0645 22.9356C54.8015 22.9356 53.5877 22.4018 52.7341 21.4704L42.3962 10.1937H69.7316L59.395 21.4704ZM50.3562 22.6488L40.7742 31.4928V12.1952L50.3562 22.6488ZM52.26 24.3603C53.3873 25.0814 54.7063 25.484 56.0645 25.484C57.4227 25.484 58.7417 25.0814 59.8691 24.3603L69.3695 33.1291H42.7595L52.26 24.3603ZM36.9516 20.3872H38.2258V35.6775H73.9032V20.3872H75.1774C75.8805 20.3872 76.4516 20.9583 76.4516 21.6614V45.8711H35.6774V21.6614C35.6774 20.9583 36.2486 20.3872 36.9516 20.3872ZM5.62188 43.752L8.77937 43.1211L10.8306 28.7665C11.0969 26.8944 12.7226 25.484 14.614 25.484H33.129V53.5162H30.5806V28.0324H16.409C15.1323 28.0324 14.0466 28.9868 13.8873 30.2162L10.229 53.1902C10.0977 53.2947 9.97206 53.4055 9.84451 53.5162H2.54839V47.5005C2.54839 45.685 3.84187 44.1079 5.62188 43.752ZM23.2845 53.5162C21.4877 51.9347 19.1397 50.9678 16.5645 50.9678C15.3326 50.9678 14.1561 51.1987 13.063 51.6012L14.3807 43.3227H28.0323V53.5162H23.2845ZM28.0323 40.7743H21.6613V39.5001C21.6613 37.3928 19.946 35.6775 17.8387 35.6775H15.5977L16.409 30.5807H28.0323V40.7743ZM15.192 38.2259H17.8387C18.5418 38.2259 19.1129 38.7971 19.1129 39.5001V40.7743H14.7857L15.192 38.2259ZM3.82258 61.1614C3.11953 61.1614 2.54839 60.5902 2.54839 59.8872V56.0646H7.74968C6.87803 57.5659 6.37097 59.3036 6.37097 61.1614H3.82258ZM16.5645 68.8065C12.3481 68.8065 8.91935 65.3778 8.91935 61.1614C8.91935 56.945 12.3481 53.5162 16.5645 53.5162C20.7809 53.5162 24.2097 56.945 24.2097 61.1614C24.2097 65.3778 20.7809 68.8065 16.5645 68.8065ZM26.7581 61.1614C26.7581 59.3036 26.251 57.5659 25.3793 56.0646H54.8961C54.0232 57.5659 53.5161 59.3036 53.5161 61.1614H26.7581ZM63.7097 68.8065C59.4933 68.8065 56.0645 65.3778 56.0645 61.1614C56.0645 56.945 59.4933 53.5162 63.7097 53.5162C67.9261 53.5162 71.3548 56.945 71.3548 61.1614C71.3548 65.3778 67.9261 68.8065 63.7097 68.8065ZM76.4516 59.8872C76.4516 60.5902 75.8805 61.1614 75.1774 61.1614H73.9032C73.9032 59.3036 73.3962 57.5659 72.5245 56.0646H76.4516V59.8872ZM70.4297 53.5162C68.6329 51.9347 66.2848 50.9678 63.7097 50.9678C61.1345 50.9678 58.7865 51.9347 56.9897 53.5162H35.6774V48.4195H76.4516V53.5162H70.4297Z" fill="#4A81ED"/>
</svg>
