<svg width="65" height="65" viewBox="0 0 65 65" fill="none" xmlns="http://www.w3.org/2000/svg">
<g>
<path d="M1.46281 62.1412C1.27975 62.1412 1.0934 62.1067 0.913273 62.0335C0.164591 61.7298 -0.196034 60.8765 0.107718 60.1278L4.14336 50.1814C5.88065 45.9016 8.9606 40.2464 15.7256 39.9728C15.7829 39.9659 15.8408 39.9624 15.8992 39.9624H21.9349C21.9932 39.9624 22.0512 39.9659 22.1084 39.9728C28.874 40.2464 31.9539 45.9016 33.6911 50.1812L34.2115 51.464L45.0579 41.4404C45.6513 40.892 46.5772 40.9285 47.1253 41.5218C47.6737 42.1152 47.6373 43.0407 47.0439 43.5891L34.6442 55.0485C34.2914 55.3746 33.8008 55.5068 33.3324 55.4018C32.8637 55.2972 32.476 54.9692 32.2956 54.524L30.98 51.2815C28.8897 46.1318 26.4782 43.5667 23.0985 43.0071L22.2383 47.1137L23.3891 57.4683C23.4443 57.9657 23.2415 58.4569 22.8514 58.7703L20.2885 60.8295C20.0286 61.0383 19.7055 61.1521 19.3721 61.1521H18.4625C18.1293 61.1521 17.806 61.0383 17.5463 60.8297L14.9832 58.7705C14.5929 58.4571 14.3901 57.9659 14.4453 57.4683L15.5965 47.1137L14.7361 43.0072C11.3566 43.567 8.94505 46.1322 6.85463 51.2817L2.81899 61.228C2.58839 61.7965 2.04087 62.1412 1.46281 62.1412ZM17.4422 56.9928L18.9173 58.1778L20.3922 56.9928L19.4489 48.5059H18.3855L17.4422 56.9928ZM18.2646 45.5799H19.5702L20.134 42.8886H17.7006L18.2646 45.5799ZM63.537 57.4729H41.2986C40.4906 57.4729 39.8356 56.8178 39.8356 56.0099C39.8356 55.202 40.4906 54.5469 41.2986 54.5469H62.0739V12.4248H4.08557V43.2095C4.08557 44.0174 3.43052 44.6725 2.62259 44.6725C1.81465 44.6725 1.1596 44.0174 1.1596 43.2095V10.9619C1.1596 10.1539 1.81465 9.49888 2.62259 9.49888H63.537C64.3449 9.49888 65 10.1539 65 10.9619V56.0099C65 56.8178 64.3449 57.4729 63.537 57.4729ZM26.16 50.5478C25.352 50.5478 24.697 49.8928 24.697 49.0849V48.8857C24.697 48.0778 25.352 47.4227 26.16 47.4227C26.9679 47.4227 27.623 48.0778 27.623 48.8857V49.0849C27.623 49.8928 26.9679 50.5478 26.16 50.5478ZM18.9173 37.2822C14.4788 37.2822 10.8676 33.671 10.8676 29.2325C10.8676 24.794 14.4786 21.1828 18.9173 21.1828C19.4502 21.1828 19.9714 21.2349 20.4756 21.3342C20.505 21.3392 20.5343 21.3452 20.5633 21.3522C24.2151 22.114 26.9668 25.358 26.9668 29.2325C26.9668 33.6712 23.3558 37.2822 18.9173 37.2822ZM16.3051 24.826C14.8025 25.7203 13.7936 27.3608 13.7936 29.2325C13.7936 32.0577 16.0921 34.3563 18.9173 34.3563C21.7425 34.3563 24.041 32.0577 24.041 29.2325C24.041 27.0944 22.7245 25.2578 20.8594 24.4912C20.1919 25.3732 19.3483 26.1105 18.3749 26.6569C17.6701 27.0525 16.7784 26.8018 16.383 26.0972C16.1556 25.6921 16.1417 25.225 16.3051 24.826ZM55.6042 27.5025H48.0958C47.2878 27.5025 46.6328 26.8475 46.6328 26.0396C46.6328 25.2316 47.2878 24.5766 48.0958 24.5766H55.6042C56.4121 24.5766 57.0672 25.2316 57.0672 26.0396C57.0672 26.8475 56.4121 27.5025 55.6042 27.5025ZM41.2984 27.5025H38.5096C37.7016 27.5025 37.0466 26.8475 37.0466 26.0396C37.0466 25.2316 37.7016 24.5766 38.5096 24.5766H41.2984C42.1063 24.5766 42.7614 25.2316 42.7614 26.0396C42.7614 26.8475 42.1063 27.5025 41.2984 27.5025ZM55.6042 21.399H40.5874C39.7794 21.399 39.1244 20.7439 39.1244 19.936C39.1244 19.1281 39.7794 18.473 40.5874 18.473H55.6042C56.4121 18.473 57.0672 19.1281 57.0672 19.936C57.0672 20.7439 56.4121 21.399 55.6042 21.399ZM40.5885 5.78437H25.5709C24.763 5.78437 24.108 5.12932 24.108 4.32138C24.108 3.51345 24.763 2.8584 25.5709 2.8584H40.5885C41.3964 2.8584 42.0515 3.51345 42.0515 4.32138C42.0515 5.12932 41.3964 5.78437 40.5885 5.78437Z" fill="#4A81ED" stroke="#4A81ED" stroke-width="0.5"/>
</g>
</svg>
