<svg width="27" height="27" viewBox="0 0 27 27" fill="none" xmlns="http://www.w3.org/2000/svg">
<g clip-path="url(#clip0)">
<path d="M0.171598 12.9748C0.412806 12.6448 6.15997 4.89551 13.5001 4.89551C20.8403 4.89551 26.5877 12.6448 26.8287 12.9744C27.0571 13.2875 27.0571 13.712 26.8287 14.0251C26.5877 14.355 20.8403 22.1043 13.5001 22.1043C6.15997 22.1043 0.412806 14.355 0.171598 14.0253C-0.0571651 13.7124 -0.0571651 13.2875 0.171598 12.9748ZM13.5001 20.3241C18.9069 20.3241 23.5898 15.1807 24.9761 13.4993C23.5916 11.8164 18.9185 6.67572 13.5001 6.67572C8.09358 6.67572 3.41102 11.8182 2.02421 13.5005C3.40865 15.1834 8.08172 20.3241 13.5001 20.3241Z" fill="#4A81ED" stroke="#4A81ED" stroke-width="0.25"/>
<path d="M13.5011 8.15918C16.4459 8.15918 18.8418 10.5551 18.8418 13.4999C18.8418 16.4447 16.4459 18.8405 13.5011 18.8405C10.5563 18.8405 8.16046 16.4447 8.16046 13.4999C8.16046 10.5551 10.5563 8.15918 13.5011 8.15918ZM13.5011 17.0603C15.4644 17.0603 17.0615 15.4631 17.0615 13.4999C17.0615 11.5366 15.4644 9.93944 13.5011 9.93944C11.5379 9.93944 9.94071 11.5366 9.94071 13.4999C9.94071 15.4631 11.5378 17.0603 13.5011 17.0603Z" fill="#4A81ED" stroke="#4A81ED" stroke-width="0.25"/>
</g>
<defs>
<clipPath id="clip0">
<rect width="27" height="27" fill="white" transform="matrix(-1 0 0 1 27 0)"/>
</clipPath>
</defs>
</svg>
