<svg width="19" height="19" viewBox="0 0 19 19" fill="none" xmlns="http://www.w3.org/2000/svg">
    <g>
        <path d="M13.5803 9.24773V4.92169C13.5803 4.60548 13.3239 4.34912 13.0077 4.34912H10.3357V5.49425H12.4351V9.05947L6.44095 5.37069C6.26426 5.26198 6.04263 5.25733 5.86155 5.35852C5.68051 5.45971 5.56828 5.65091 5.56828 5.85833V9.24773H0.792969V10.3929H5.56832V13.7822C5.56832 13.9896 5.68051 14.1808 5.86159 14.282C5.9485 14.3306 6.04473 14.3548 6.14089 14.3548C6.24506 14.3548 6.34911 14.3264 6.44095 14.2699L12.4351 10.5811V14.7189H13.5803V10.3929H18.3517V9.24773H13.5803ZM6.71345 12.7576V6.88299L11.4865 9.8203L6.71345 12.7576Z"
              fill="#4A81ED"/>
    </g>

</svg>
